<svg width="1080" height="1080" viewBox="0 0 1080 1080" fill="none" xmlns="http://www.w3.org/2000/svg">
<path d="M981.37 774.17L943.04 726.29C942.33 725.39 941.19 724.86 940.04 724.86H878.08C876.04 724.91 874.32 726.57 874.32 728.66V776.54C874.32 777.54 874.7 778.54 875.41 779.25C876.12 779.96 877.07 780.39 878.07 780.39H978.31C979.78 780.39 981.12 779.53 981.78 778.2C982.45 776.92 982.26 775.3 981.35 774.16L981.37 774.17ZM855.84 848.97C848.52 848.97 842.53 842.98 842.53 835.66C842.53 828.34 848.52 822.35 855.84 822.35H873.58C880.95 822.35 886.89 828.29 886.89 835.66C886.89 843.03 880.95 848.97 873.58 848.97H855.84ZM1002.02 847.59L987.99 847.54C985.9 847.54 984.19 849.25 984.19 851.34V885.01V884.96C984.19 886.01 984.57 886.96 985.33 887.67C986.04 888.38 986.99 888.76 987.99 888.76H1012.72C1013.72 888.76 1014.67 888.38 1015.38 887.67C1016.09 886.96 1016.52 886.01 1016.52 884.96V856.43C1016.52 847.63 1008.77 848.3 1002.49 847.54L1002.01 847.59H1002.02ZM521.94 922.24C509.67 909.97 491.22 906.31 475.2 912.97C459.18 919.58 448.71 935.22 448.71 952.58C448.71 969.94 459.17 985.58 475.2 992.24C491.22 998.85 509.67 995.19 521.94 982.92C538.68 966.18 538.68 939.03 521.94 922.24ZM919.08 922.24C906.81 910.02 888.36 906.31 872.34 912.97C856.32 919.63 845.9 935.22 845.9 952.58C845.9 969.94 856.31 985.58 872.34 992.19C888.36 998.85 906.81 995.19 919.08 982.92C935.82 966.18 935.82 939.03 919.08 922.24ZM960.07 939.26H1006.81V939.31C1008.9 939.31 1010.61 937.6 1010.61 935.46V911.73C1010.61 909.59 1008.9 907.88 1006.81 907.88H976.76C969.44 907.88 963.45 901.94 963.45 894.57V841.74C963.45 834.37 969.44 828.43 976.76 828.43H987.84C989.93 828.43 991.64 826.72 991.64 824.58V810.79C991.64 808.7 989.93 806.99 987.84 806.99H861.02C857.5 806.99 854.13 805.61 851.6 803.09C849.08 800.62 847.7 797.24 847.7 793.72V711.6C847.7 704.23 853.64 698.29 861.01 698.29H912.56C914.03 698.29 915.37 697.43 916.03 696.1C916.65 694.77 916.41 693.15 915.46 692.01C910.09 683.78 901.24 678.46 891.4 677.6H808.57C806.48 677.6 804.77 679.31 804.72 681.4V894.58C804.77 898.34 803.15 901.95 800.39 904.47C797.58 906.99 793.88 908.23 790.12 907.85H582.56C575.38 907.61 569.67 901.76 569.67 894.58C569.67 887.4 575.38 881.55 582.56 881.31H774.29C776.38 881.31 778.05 879.65 778.05 877.55V600.89C778.05 599.89 777.67 598.94 776.96 598.23C776.25 597.52 775.3 597.14 774.3 597.14H377.15C376.15 597.14 375.15 597.52 374.44 598.23C373.77 598.94 373.35 599.89 373.35 600.89V877.5C373.35 879.54 375.06 881.26 377.15 881.26H402.59C409.96 881.26 415.9 887.2 415.9 894.57C415.9 901.94 409.96 907.88 402.59 907.88H377.15C376.15 907.88 375.15 908.31 374.44 909.02C373.73 909.73 373.35 910.68 373.35 911.73V922.52C373.35 923.76 373.97 924.9 374.97 925.61L393.94 938.64H393.99C394.61 939.12 395.37 939.31 396.13 939.31H420.29C422.05 939.31 423.57 938.12 424 936.41C431.51 905.17 459.47 883.11 491.62 883.11C523.77 883.11 551.72 905.17 559.24 936.41C559.67 938.12 561.19 939.31 562.95 939.31H817.44C819.2 939.36 820.77 938.12 821.15 936.41C828.66 905.17 856.62 883.11 888.77 883.11C920.92 883.11 948.87 905.17 956.39 936.41C956.77 938.12 958.29 939.31 960.05 939.31L960.1 939.26H960.07ZM749.47 375.78L142.14 375.83C140.05 375.83 138.34 377.54 138.34 379.68V410.59V410.54C138.34 412.68 140.05 414.39 142.14 414.39H749.42C751.51 414.39 753.22 412.68 753.22 410.54V379.68C753.22 377.59 751.51 375.83 749.42 375.83L749.47 375.78ZM125.02 349.2H766.53C773.9 349.25 779.8 355.19 779.84 362.51V566.65C779.84 567.65 780.22 568.65 780.93 569.36C781.64 570.07 782.59 570.45 783.64 570.5H791.39C794.96 570.45 798.33 571.88 800.85 574.4C803.32 576.87 804.75 580.3 804.7 583.86V647.29V647.24C804.7 648.24 805.13 649.24 805.84 649.95C806.55 650.62 807.55 651.04 808.55 651H824.38C825.38 651.05 826.33 650.62 827.04 649.91C827.75 649.2 828.13 648.25 828.13 647.25V302.36C828.13 300.98 827.42 299.74 826.23 299.08L447.65 85.0601L447.7 85.0101C446.56 84.3401 445.18 84.3401 444.04 85.0101L65.43 299.04V299.09C64.24 299.76 63.53 300.99 63.48 302.37V840.03C63.53 842.12 65.24 843.83 67.33 843.83H107.94C108.94 843.83 109.89 843.45 110.6 842.69C111.31 841.98 111.69 841.03 111.69 840.03V362.52C111.74 355.2 117.68 349.25 125 349.21H125.01L125.02 349.2ZM445.76 178.35C473.01 178.35 497.54 194.76 507.96 219.91C518.37 245.06 512.62 273.98 493.36 293.23C474.1 312.49 445.14 318.24 420.04 307.83C394.89 297.42 378.48 272.88 378.48 245.63C378.48 208.49 408.63 178.39 445.76 178.35ZM188.27 693.76V729.04C188.27 730.23 188.84 731.37 189.79 732.08C190.74 732.79 191.98 732.98 193.12 732.7C215.04 726.04 208.53 726 230.54 732.7C231.68 733.03 232.92 732.8 233.92 732.08C234.87 731.37 235.44 730.23 235.44 729.04V693.76C235.44 692.71 235.01 691.76 234.35 691.05C233.64 690.34 232.64 689.96 231.64 689.96H192.12C191.07 689.96 190.12 690.34 189.41 691.05C188.7 691.76 188.27 692.71 188.27 693.76ZM161.64 752.11V693.76C161.64 691.67 159.93 689.96 157.84 689.96H142.15C141.15 689.96 140.2 690.34 139.49 691.05C138.78 691.76 138.35 692.71 138.35 693.76V833.23C138.35 835.32 140.06 837.03 142.15 837.03H281.67C282.67 837.03 283.62 836.65 284.33 835.94C285.04 835.18 285.42 834.23 285.42 833.23V693.76C285.42 692.71 285.04 691.76 284.33 691.05C283.62 690.34 282.67 689.96 281.67 689.96H265.98C264.98 689.96 263.98 690.34 263.27 691.05C262.56 691.76 262.13 692.71 262.13 693.76V752.11V752.06C262.13 756.34 260.04 760.38 256.57 762.85C253.1 765.32 248.63 766.04 244.59 764.7L213.06 755.14H213.01C212.3 754.85 211.54 754.85 210.82 755.14L178.77 764.79C174.78 766.03 170.4 765.22 167.02 762.75C163.64 760.23 161.65 756.28 161.65 752.05V752.1L161.64 752.11ZM188.27 520.06V555.34C188.27 556.53 188.84 557.67 189.79 558.38C190.74 559.09 191.98 559.28 193.12 559C215.04 552.39 208.53 552.3 230.54 559C231.68 559.33 232.97 559.1 233.92 558.38C234.87 557.67 235.44 556.53 235.44 555.34V520.01C235.44 519.01 235.06 518.06 234.35 517.35C233.64 516.59 232.69 516.21 231.64 516.21H192.12C189.98 516.21 188.27 517.92 188.27 520.01V520.06ZM174.86 489.63L298.73 489.58C302.25 489.58 305.67 491.01 308.15 493.48C310.67 496 312.05 499.38 312.05 502.9V839.99C312.05 842.13 313.76 843.84 315.9 843.84H342.91C345 843.79 346.71 842.08 346.71 839.99V583.88C346.71 580.31 348.09 576.89 350.56 574.37C353.08 571.85 356.5 570.47 360.02 570.47H749.41C751.5 570.47 753.21 568.76 753.21 566.67V444.84C753.21 443.79 752.83 442.84 752.12 442.13C751.41 441.42 750.41 441.04 749.41 441.04H142.14C141.14 441.04 140.19 441.42 139.48 442.13C138.77 442.84 138.34 443.79 138.34 444.84V485.83V485.78C138.34 487.92 140.05 489.63 142.14 489.63H174.86ZM161.6 578.36V520.01C161.6 517.92 159.94 516.21 157.84 516.21H142.15C140.06 516.21 138.35 517.92 138.35 520.01V659.53C138.35 661.62 140.06 663.33 142.15 663.33H281.67C282.67 663.33 283.62 662.9 284.33 662.19C285.04 661.48 285.42 660.53 285.42 659.53V520.01C285.42 519.01 285.04 518.06 284.33 517.35C283.62 516.59 282.67 516.21 281.67 516.21H265.98C263.84 516.21 262.13 517.92 262.13 520.01V578.36C262.13 582.64 260.09 586.68 256.61 589.2C253.09 591.67 248.62 592.34 244.58 590.96L213.01 581.4C212.3 581.16 211.54 581.16 210.82 581.4L178.77 591.05C174.78 592.29 170.4 591.53 167.02 589.01C163.64 586.49 161.65 582.54 161.65 578.36H161.6Z" fill="#1F522A"/>
</svg>
