<svg width="1080" height="1080" viewBox="0 0 1080 1080" fill="none" xmlns="http://www.w3.org/2000/svg">
<path d="M281.72 700.13L169.58 1008.23C169.12 1009.44 167.74 1010.11 166.52 1009.65L40.06 963.63C38.8 963.17 38.18 961.79 38.64 960.57L150.78 652.43C151.11 651.59 152.25 650.92 153.21 650.92C153.42 650.92 153.63 650.92 153.84 651L280.3 697.02C281.56 697.44 282.18 698.86 281.72 700.12V700.13ZM349.38 252.55H807.34C809.1 252.55 810.52 251.13 810.52 249.37V80.41C810.52 78.65 809.1 77.23 807.34 77.23H599.82V157.63H556.94V77.23H349.42C347.66 77.23 346.24 78.65 346.24 80.41V249.33C346.24 251.09 347.66 252.51 349.42 252.51L349.37 252.55H349.38ZM314.04 685.89H842.72V1005.89C842.72 1008.07 840.96 1009.83 838.78 1009.83H318.02C315.84 1009.83 314.08 1008.07 314.08 1005.89V685.89H314.04ZM479.86 755.57C479.86 764.45 487.06 771.65 495.94 771.65H660.84C669.72 771.65 676.92 764.45 676.92 755.57C676.92 746.69 669.72 739.49 660.84 739.49H495.94C487.06 739.49 479.86 746.69 479.86 755.57ZM859.6 600.14H297.17C294.66 600.14 292.61 602.19 292.61 604.7V649.17C292.61 651.68 294.66 653.73 297.17 653.73H859.61C862.12 653.73 864.17 651.68 864.17 649.17V604.7C864.17 602.19 862.12 600.14 859.61 600.14H859.6ZM512.02 564.05C512.02 566.23 513.78 567.99 515.96 567.99H945.66C947.84 567.99 949.6 566.23 949.6 564.05V370.51H511.99V564.05H512.03H512.02ZM966.5 284.75H495.09C492.58 284.75 490.53 286.8 490.53 289.31V333.78C490.53 336.29 492.58 338.34 495.09 338.34H966.5C969.01 338.34 971.06 336.29 971.06 333.78V289.31C971.06 286.8 969.01 284.75 966.5 284.75Z" fill="#1F522A"/>
</svg>
