<svg width="1080" height="1080" viewBox="0 0 1080 1080" fill="none" xmlns="http://www.w3.org/2000/svg">
<path d="M562.12 257.93V208.77H608.5V116.02H423V208.77H469.38V257.93C299.65 281.12 167.94 426.74 167.94 602.96C167.94 794.95 323.76 950.77 515.75 950.77C707.74 950.77 863.56 794.95 863.56 602.96C863.56 426.73 731.85 281.12 562.12 257.93ZM515.74 858.02C374.76 858.02 260.68 743.94 260.68 602.96C260.68 461.98 374.76 347.9 515.74 347.9C656.72 347.9 770.8 461.98 770.8 602.96C770.8 743.94 656.72 858.02 515.74 858.02Z" fill="#1F522A"/>
<path d="M168.86 260.71L234.71 325.64C271.81 287.61 315.4 258.86 364.56 238.45L329.31 153.12C269.02 178.16 214.3 214.34 168.85 260.71H168.86Z" fill="#1F522A"/>
<path d="M857.99 256.07C812.54 211.55 760.6 177.23 702.17 153.12L666.92 238.45C714.22 257.93 756.89 285.75 793.06 321.93L857.99 256.08V256.07Z" fill="#1F522A"/>
<path d="M622.029 431.095L482.984 570.14L548.575 635.731L687.62 496.686L622.029 431.095Z" fill="#1F522A"/>
</svg>
