<svg width="1080" height="1080" viewBox="0 0 1080 1080" fill="none" xmlns="http://www.w3.org/2000/svg">
<path fill-rule="evenodd" clip-rule="evenodd" d="M323.91 689.2H122.18C107.94 689.2 96.0701 701.07 96.0701 715.31V917.05C96.0701 931.29 107.94 943.16 122.18 943.16H323.92C338.16 943.16 347.65 931.29 347.65 917.05V715.31C347.65 701.07 338.16 689.2 323.92 689.2H323.91ZM297.8 739.04V791.25H145.9V739.04H297.8ZM297.8 890.93H145.9V841.09H297.8V890.93Z" fill="#1F522A"/>
<path fill-rule="evenodd" clip-rule="evenodd" d="M425.97 589.51C411.73 589.51 399.86 599 399.86 613.24V917.03C399.86 931.27 411.73 943.14 425.97 943.14H627.71C641.95 943.14 653.82 931.27 653.82 917.03V613.24C653.82 599 641.95 589.51 627.71 589.51H425.97ZM452.07 739.04H603.97V791.25H452.07V739.04ZM603.97 639.35V689.19H452.07V639.35H603.97ZM603.97 890.93H452.07V841.09H603.97V890.93Z" fill="#1F522A"/>
<path fill-rule="evenodd" clip-rule="evenodd" d="M933.87 385.4H732.13C717.89 385.4 706.02 397.27 706.02 411.51V917.04C706.02 931.28 717.89 943.15 732.13 943.15H933.87C948.11 943.15 957.6 931.28 957.6 917.04V411.51C957.6 397.27 948.11 385.4 933.87 385.4ZM755.86 689.2V639.36H907.76V689.2H755.86ZM907.76 589.51H755.86V537.3H907.76V589.51ZM755.86 739.04H907.76V791.25H755.86V739.04ZM907.76 437.62V487.46H755.86V437.62H907.76ZM907.76 890.93H755.86V841.09H907.76V890.93Z" fill="#1F522A"/>
<path fill-rule="evenodd" clip-rule="evenodd" d="M214.74 603.75L399.86 421L482.93 504.07C492.42 513.56 509.04 513.56 518.53 504.07L777.23 240.63V280.98C777.23 314.21 829.44 314.21 829.44 280.98V181.3C829.44 167.06 817.57 155.19 803.33 155.19H701.28C668.05 155.19 668.05 205.03 701.28 205.03H741.63L499.55 449.49L416.48 366.42C406.99 356.93 390.37 356.93 380.88 366.42L179.14 568.16C155.41 591.89 193.38 627.49 214.74 603.76V603.75Z" fill="#1F522A"/>
</svg>
