<svg width="1080" height="1080" viewBox="0 0 1080 1080" fill="none" xmlns="http://www.w3.org/2000/svg">
<path fill-rule="evenodd" clip-rule="evenodd" d="M539.99 51.46C585.37 51.5 626.24 78.84 643.6 120.74C660.93 162.68 651.35 210.91 619.27 242.99C587.18 275.04 538.91 284.65 497.02 267.28C455.12 249.91 427.78 209 427.78 163.67C427.78 133.88 439.61 105.35 460.62 84.3C481.67 63.29 510.23 51.46 539.99 51.46ZM363.26 482.87C345.34 464.99 317.25 462.26 296.2 476.38C275.15 490.46 266.96 517.49 276.69 540.87C286.42 564.29 311.31 577.55 336.16 572.6C361.01 567.65 378.89 545.85 378.89 520.49C378.93 506.37 373.27 492.83 363.26 482.86V482.87ZM606.66 984.47H395.35V1028.51L684.64 1028.55V984.47H606.66ZM483.29 964.57H596.61V784.95H483.29V964.57ZM616.54 914.87H744.14V661.86H335.8V914.87H463.4V774.97C463.4 772.32 464.47 769.79 466.33 767.93C468.19 766.07 470.76 765.04 473.37 765.04H606.66C612.12 765.04 616.59 769.47 616.59 774.97L616.54 914.87ZM764.03 765.08H799.28V688.68C799.28 683.18 803.75 678.71 809.25 678.71C814.75 678.71 819.22 683.18 819.22 688.68V765.12H851.54L851.5 679.34C851.3 632.06 813.04 593.8 765.76 593.6H742.81C734.07 593.56 725.32 594.91 716.97 597.56C711.55 599.26 706.33 601.56 701.38 604.33C708.22 616.16 713.53 628.82 717.21 641.96H754.04C756.69 641.96 759.22 642.99 761.08 644.89C762.98 646.75 764.01 649.32 764.01 651.93V765.09L764.03 765.08ZM696.5 641.96C692.54 629.7 686.96 617.98 679.92 607.18C679.88 607.06 679.84 606.98 679.76 606.86C679.56 606.62 679.36 606.35 679.21 606.03C670.82 593.41 660.54 582.21 648.75 572.76C623.15 552.23 591.34 541.03 558.54 541.03H521.43C488.63 541.03 456.82 552.23 431.22 572.76C419.39 582.18 409.1 593.41 400.72 606.03L400.21 606.86C400.13 606.94 400.09 607.06 400.05 607.14C392.97 617.94 387.39 629.65 383.47 641.96H696.5ZM362.73 641.96C366.41 628.82 371.67 616.16 378.48 604.33C373.53 601.52 368.31 599.27 362.93 597.56C354.58 594.91 345.88 593.56 337.13 593.6H314.18C266.86 593.72 228.56 632.06 228.44 679.34V765.08H260.72V688.68C260.72 683.18 265.19 678.71 270.69 678.71C276.19 678.71 280.66 683.18 280.66 688.68V765.12H315.91V651.92C315.91 649.31 316.94 646.78 318.8 644.88C320.66 643.02 323.19 641.95 325.84 641.95H362.71L362.73 641.96ZM539.86 521.13H540.02C590.9 521.09 632.09 479.82 632.05 428.98C632.05 378.1 590.82 336.91 539.94 336.91C489.06 336.91 447.87 378.1 447.83 428.98C447.79 479.82 489.02 521.09 539.86 521.13ZM791.89 482.87C773.93 465.03 745.88 462.38 724.87 476.5C703.82 490.62 695.71 517.61 705.48 540.99C715.21 564.37 740.1 577.63 764.95 572.64C789.76 567.65 807.6 545.82 807.6 520.49C807.6 506.37 801.98 492.83 791.97 482.86H791.89V482.87ZM479.69 158.32C476.33 153.97 477.12 147.76 481.43 144.39C485.78 141.03 491.99 141.82 495.36 146.13L520.37 178.1L586.36 127.38C588.46 125.72 591.11 124.97 593.76 125.28C596.37 125.64 598.78 126.98 600.41 129.08C602.03 131.22 602.74 133.87 602.39 136.52C602.03 139.17 600.65 141.54 598.51 143.13L525.2 199.63C525.04 199.75 524.84 199.91 524.69 200.03H524.65C522.59 201.65 519.94 202.4 517.33 202.09C514.72 201.73 512.34 200.39 510.72 198.29L479.7 158.33L479.69 158.32Z" fill="#1F522A"/>
</svg>
