<svg width="1080" height="1080" viewBox="0 0 1080 1080" fill="none" xmlns="http://www.w3.org/2000/svg">
<path d="M219.62 560.26L205.88 586.86C201.36 595.73 190.41 599.38 181.89 594.86L83.3 539.22C74.43 534.53 70.78 523.75 75.48 514.7L210.06 251.28C214.23 242.76 225.71 238.59 234.05 243.28L332.64 298.92C341.51 303.61 345.16 314.39 340.46 323.26L329.33 344.99C326.55 350.21 224.31 550.34 219.61 560.42V560.25L219.62 560.26ZM1004.85 518.18L876.88 251.28C872.88 242.41 861.23 238.41 852.71 242.76L749.08 294.75C740.04 299.27 736.04 310.05 740.56 319.09C740.73 320.31 748.56 335.96 748.91 336.3C748.39 336.3 868.72 585.47 868.36 585.64C872.71 594.68 883.49 598.68 892.53 594.16L996.16 542.17C1005.03 538.17 1009.37 526.7 1004.68 518L1004.86 518.17L1004.85 518.18ZM354.02 593.99C354.54 557.82 305.33 541.65 284.64 571.91L255.43 612.25C255.43 612.25 254.21 613.64 254.39 613.99C254.22 614.16 254.04 614.16 254.04 614.34C227.44 654.16 282.9 696.58 314.55 660.94C314.72 660.94 314.72 660.77 314.72 660.59C315.07 660.24 315.59 659.89 315.59 659.55C315.76 659.38 315.76 659.2 315.94 659.2C316.11 658.85 316.46 658.5 316.64 658.16L346.55 616.26C351.42 609.65 353.85 602 353.85 594H354.02V593.99ZM430.53 648.94C431.05 612.6 382.02 596.78 361.15 626.68L331.24 668.76C331.07 669.28 329.85 670.85 329.68 671.37C305.69 711.36 362.02 751.35 391.93 714.84H392.1C392.1 714.84 392.45 714.49 392.45 714.32L392.97 713.8L393.14 713.45L400.44 703.19C408.61 689.98 432.09 665.81 430.52 649.11V648.94H430.53ZM499.73 725.97C528.59 685.11 467.56 641.46 437.83 681.63C431.92 689.8 412.79 716.06 407.23 723.88C380.1 765.78 439.22 807.69 469.65 767.87C470 767.17 499.38 726.83 499.73 726.14V725.97ZM567.55 727.88C551.2 715.36 525.82 719.53 514.52 736.57L484.79 778.3C455.93 820.03 515.57 863.15 546.34 822.99L576.25 780.91C588.77 764.39 584.42 739.53 567.56 727.88H567.55ZM789.24 595.03L614.15 466.37C573.11 439.07 533.64 478.02 491.56 506.19C433.66 550.88 392.1 527.23 372.8 509.15C365.32 502.19 361.32 492.46 361.67 482.02C362.02 471.59 367.06 461.5 375.23 454.89L481.3 370.21C460.78 361.17 450.7 357.34 431.22 357.34H342.72C311.07 418.37 276.99 484.27 246.22 545.83C243.44 551.05 240.13 558 237.53 563.22C240.31 571.91 243.79 584.26 248.14 591.91L270.4 560.96C301.87 515.75 375.25 541.83 371.77 596.43C407.94 580.61 451.75 612.43 448.28 651.72C483.4 635.72 528.79 667.19 524.96 706.49C557.3 692.41 596.6 715.88 600.94 750.31C604.42 750.31 612.42 757.44 615.37 759.18C640.06 777.26 673.1 751.7 669.62 724.06C668.4 714.15 662.14 705.8 653.8 700.59L599.38 662.16L578.17 647.03C568.61 640.25 578.69 625.99 588.43 632.42L666.33 687.71L688.06 703.01C701.97 713.09 721.62 709.97 731.88 696.23C744.05 683.02 741.96 660.59 727.19 649.98C706.15 634.51 659.2 599.9 638.69 584.78C629.3 577.65 639.73 563.74 649.12 570.35C675.38 589.65 725.1 626.69 751.71 645.99C785.62 668.77 823 620.95 789.27 594.87V595.03H789.24ZM852.36 593.47L734.99 348.47H576.76C551.55 348.47 526.51 357.16 506.51 372.99L386.36 468.97C378.01 475.23 376.8 489.14 384.8 496.1C412.1 521.31 444.27 520.09 480.43 492.1C530.85 457.5 571.89 418.03 624.57 451.76L799.66 580.42C810.27 588.24 817.22 599.89 819.48 612.76L856.69 600.07C854.95 597.98 853.21 595.72 852.17 593.11L852.35 593.47H852.36Z" fill="#1F522A"/>
</svg>
