<?xml version="1.0" encoding="UTF-8"?>
<svg version="1.1" xmlns="http://www.w3.org/2000/svg" width="716" height="716">
<path d="M0 0 C236.28 0 472.56 0 716 0 C716 236.28 716 472.56 716 716 C479.72 716 243.44 716 0 716 C0 479.72 0 243.44 0 0 Z " fill="#1F742E" transform="translate(0,0)"/>
<path d="M0 0 C1.43347275 0.00373123 1.43347275 0.00373123 2.89590454 0.00753784 C39.53571035 0.15370678 75.62066043 4.78872224 111.24682617 13.41772461 C115.93426815 14.53523419 120.64149051 15.47800963 125.375 16.375 C131.33351159 17.53619819 137.19559435 18.79294954 143.02709961 20.49560547 C146.54384454 21.46193778 150.08751802 22.28656573 153.640625 23.10546875 C159.87181186 24.55663439 166.08418324 26.06932505 172.28515625 27.64453125 C173.07206848 27.84427551 173.85898071 28.04401978 174.66973877 28.24981689 C176.2961142 28.66269095 177.92248746 29.07557355 179.54885864 29.48846436 C204.61270715 35.83544497 229.77860886 41.91346877 255.34472656 45.890625 C257.94164343 46.30322819 260.52813906 46.75970587 263.1171875 47.21875 C275.86563016 49.32571515 288.54675384 49.62892654 301.4375 49.6875 C302.71208572 49.69928284 302.71208572 49.69928284 304.01242065 49.71130371 C329.24810455 49.89298478 354.72371753 44.50244826 374.3359375 27.625 C376 26.3125 376 26.3125 379 25.3125 C379 24.6525 379 23.9925 379 23.3125 C379.66 23.3125 380.32 23.3125 381 23.3125 C381.37318359 22.4771875 381.37318359 22.4771875 381.75390625 21.625 C383.21653607 18.9106525 384.98491059 16.69778613 386.9375 14.3125 C389.35230324 11.351545 391.71722834 8.37616659 394 5.3125 C394.27100614 14.23289051 393.62754816 22.5547438 391.9375 31.3125 C391.71489502 32.47950439 391.49229004 33.64650879 391.26293945 34.84887695 C384.73718055 67.44652225 369.20960212 99.17820304 342 119.3125 C341.22527344 119.91320312 340.45054687 120.51390625 339.65234375 121.1328125 C314.09153364 140.16473455 280.61860085 147.99218047 249.25 147.75 C248.40649994 147.74695862 247.56299988 147.74391724 246.69393921 147.74078369 C222.29790885 147.61180274 198.99805939 143.45230689 175.24731445 138.04272461 C171.91492165 137.2933684 168.57617722 136.58112845 165.234375 135.875 C157.19041043 134.15952586 149.19010289 132.27204035 141.1875 130.375 C139.75719326 130.0369748 138.32685477 129.69908389 136.89648438 129.36132812 C136.18791794 129.19391113 135.4793515 129.02649414 134.74931335 128.85400391 C133.32507465 128.51761762 131.90076883 128.18151533 130.47639465 127.84570312 C126.76592993 126.97008849 123.0577456 126.0860666 119.35229492 125.18945312 C118.20976006 124.91517738 118.20976006 124.91517738 117.04414368 124.63536072 C115.59635039 124.28773841 114.14926211 123.93716071 112.70304871 123.58302307 C103.06956416 121.24399145 103.06956416 121.24399145 93.6953125 123.453125 C86.19315117 128.67440944 82.87938008 135.56201057 81 144.3125 C76.91715182 170.52262487 77.71051041 213.73352083 90 238.3125 C90.89460938 237.79300781 91.78921875 237.27351562 92.7109375 236.73828125 C113.65066549 224.63363627 130.46176536 219.26802398 154.89282227 222.3894043 C167.89285225 224.02776165 180.73557862 224.66488002 193.83483887 224.734375 C195.75196107 224.7446506 197.66906123 224.76155106 199.58605957 224.78564453 C214.62806336 224.95196391 227.89869011 223.20115227 241.875 217.375 C243.09058594 216.86839844 244.30617188 216.36179687 245.55859375 215.83984375 C250.12073628 213.81510172 254.59324017 211.65585935 259 209.3125 C260.41119541 236.12521279 250.06042498 257.47894003 232.37890625 277.2421875 C213.91998566 296.58520733 188.25178408 308.11979654 161.59158325 309.48733521 C158.18685143 309.5408582 154.78780982 309.53830537 151.3828125 309.5078125 C149.54805862 309.50356766 149.54805862 309.50356766 147.67623901 309.49923706 C143.82572019 309.48817333 139.97544677 309.46309559 136.125 309.4375 C133.49088881 309.42745233 130.85677392 309.41832963 128.22265625 309.41015625 C121.81502251 309.38827946 115.4075288 309.35494289 109 309.3125 C109.00785522 310.54214478 109.00785522 310.54214478 109.01586914 311.79663086 C109.06669534 320.96915211 109.06429842 330.140083 109 339.3125 C108.99129883 340.6104248 108.99129883 340.6104248 108.98242188 341.93457031 C108.28642106 392.67302962 87.05536469 444.33848156 50.83984375 479.72265625 C33.32128162 495.69900658 12.92496629 506.56642113 -10 512.3125 C-11.23878906 512.63347656 -12.47757813 512.95445312 -13.75390625 513.28515625 C-30.28484026 516.9912572 -50.74169531 517.58097446 -67.125 512.75 C-68.05570312 512.48058594 -68.98640625 512.21117187 -69.9453125 511.93359375 C-70.96238281 511.62615234 -70.96238281 511.62615234 -72 511.3125 C-72 510.6525 -72 509.9925 -72 509.3125 C-70.30264945 508.31855598 -68.5640292 507.39502462 -66.8125 506.5 C-46.98397714 495.1928258 -36.17500823 474.46008227 -29.6875 453.25 C-20.37288293 417.59060762 -28.89254453 382.0073421 -38 347.3125 C-42.47431707 330.15434359 -45.53310889 312.85987345 -48 295.3125 C-48.20351074 293.88091553 -48.20351074 293.88091553 -48.41113281 292.42041016 C-53.16560853 256.92255698 -53.80857747 214.200036 -41 180.3125 C-40.75411133 179.65572266 -40.50822266 178.99894531 -40.25488281 178.32226562 C-29.1871788 149.52123912 -8.38443529 128.47193458 16 110.3125 C5.66605859 110.24844257 -4.6661341 110.24261302 -15 110.3125 C-15.89734863 110.31830078 -16.79469727 110.32410156 -17.71923828 110.33007812 C-40.47003655 110.63002273 -64.116065 115.33199117 -86 121.3125 C-86.81259277 121.52986816 -87.62518555 121.74723633 -88.46240234 121.97119141 C-125.17695035 131.9121617 -158.68557663 150.04286415 -185.171875 177.51171875 C-187 179.3125 -187 179.3125 -188 179.3125 C-188.48115581 161.20438625 -188.07931647 144.06720515 -184 126.3125 C-183.83983398 125.59046387 -183.67966797 124.86842773 -183.51464844 124.12451172 C-174.74697705 85.34013098 -150.6845621 53.22511537 -118 31.3125 C-117.43748535 30.9309375 -116.8749707 30.549375 -116.29541016 30.15625 C-96.23884983 16.7425156 -72.35843227 8.92541646 -48.875 4.0625 C-48.14893555 3.91119629 -47.42287109 3.75989258 -46.67480469 3.60400391 C-31.19529802 0.62458603 -15.72072256 -0.06598179 0 0 Z " fill="#FDF7EA" transform="translate(249,120.6875)"/>
<path d="M0 0 C20.00135414 8.58550062 38.2683181 14.74782443 59.46875 6.8203125 C64.05320104 4.87507524 68.51629419 2.78510792 72.875 0.375 C73.445359 12.16241942 70.06406498 21.00045927 62.875 30.375 C55.16241607 38.70459064 45.55640487 43.17191283 34.203125 43.7109375 C32.51063176 43.74089902 30.81775542 43.75318427 29.125 43.75 C27.7627832 43.74758301 27.7627832 43.74758301 26.37304688 43.74511719 C12.94453142 43.50847092 0.27721191 40.26815619 -12.421875 36.1328125 C-17.89038123 34.59973416 -23.06010441 34.54089184 -28.125 37.375 C-32.82052354 47.8793026 -31.67600523 61.48083458 -31.8125 72.75 C-31.84575301 74.66148053 -31.88024971 76.57293984 -31.91601562 78.484375 C-31.9999908 83.11446416 -32.06722265 87.74451288 -32.125 92.375 C-25.3845637 91.99799489 -19.37240929 91.56922116 -13.125 88.9375 C-11.5471875 88.28974609 -11.5471875 88.28974609 -9.9375 87.62890625 C-7.63091804 86.60055513 -5.36795495 85.53421951 -3.125 84.375 C-3.81475471 95.98190677 -6.36753811 103.34986942 -15.125 111.375 C-20.93874191 115.7302422 -24.9709412 116.6079578 -32.125 116.375 C-32.10179687 117.4165625 -32.07859375 118.458125 -32.0546875 119.53125 C-31.79010335 136.30667471 -33.66412225 150.82757382 -40.125 166.375 C-40.38410156 167.00712402 -40.64320313 167.63924805 -40.91015625 168.29052734 C-46.73697914 182.1292317 -55.78502926 192.35985455 -69.125 199.375 C-70.03636719 199.8803125 -70.94773437 200.385625 -71.88671875 200.90625 C-80.55334934 205.1627125 -88.71264128 204.87684377 -98.125 204.375 C-97.3825 203.63636719 -96.64 202.89773438 -95.875 202.13671875 C-75.85926323 182.03568765 -73.91937831 158.03828737 -73.9375 130.875 C-73.95945259 125.37427582 -74.03271651 119.87495088 -74.125 114.375 C-74.13901855 113.42995605 -74.15303711 112.48491211 -74.16748047 111.51123047 C-74.37027288 101.14372984 -75.82054596 91.14351979 -77.75292969 80.95678711 C-80.33505905 66.93392952 -79.40014693 56.5920813 -71.375 44.5625 C-70.76140625 43.71042969 -70.1478125 42.85835938 -69.515625 41.98046875 C-67.83760506 38.83653814 -67.63481531 36.88962425 -68.125 33.375 C-71.59432332 31.06211778 -73.30117219 31.2083075 -77.3359375 31.7734375 C-92.06515665 34.95032791 -107.54587377 42.50631066 -116.125 55.375 C-116.785 55.375 -117.445 55.375 -118.125 55.375 C-118.88988331 33.90825581 -116.83016923 18.39894749 -102.3125 1.625 C-73.96822119 -28.38910792 -32.58152089 -14.0852857 0 0 Z " fill="#20742E" transform="translate(338.125,373.625)"/>
<path d="M0 0 C6.50311406 3.94931605 11.39896478 10.24579368 13.5625 17.5 C14.75528981 25.59606081 12.11487696 32.33336091 7.3125 38.8125 C2.46588697 43.54896274 -3.77629817 46.60454085 -10.625 46.75 C-17.83162407 46.63319896 -23.53948341 44.26808307 -28.828125 39.35546875 C-33.73526876 33.69796078 -36.27621452 27.45671242 -35.86328125 19.953125 C-34.64936313 12.95917472 -31.23067193 6.53621966 -25.67578125 2.08984375 C-18.2195475 -2.85800822 -8.26526627 -3.58590346 0 0 Z " fill="#FBF5E8" transform="translate(436.4375,582.5)"/>
<path d="M0 0 C5.86889372 3.82753938 9.39888507 9.19526157 11 16 C12.05826601 23.32320079 10.16739663 28.94378331 6 35 C1.59790318 39.72462668 -2.77571302 43.605499 -9.3203125 44.40625 C-18.0030806 44.62019911 -24.12790043 43.75881944 -31 38 C-35.99095051 33.13702258 -38.11148491 26.9995586 -38.5 20.125 C-38.26727469 13.54798023 -35.67944974 8.08917142 -31.390625 3.14453125 C-21.83300719 -5.73353117 -11.23133512 -5.62536647 0 0 Z " fill="#FBF5E8" transform="translate(439,452)"/>
<path d="M0 0 C4.92883995 3.88038057 8.88736795 8.36336137 10.78125 14.40234375 C11.61862091 22.00684002 11.64905906 29.19827338 6.78125 35.40234375 C1.20217424 41.39289147 -4.67186126 45.39373819 -13.03125 45.90234375 C-19.82761319 45.65445208 -25.34188896 43.03990951 -30.33203125 38.46484375 C-36.32255846 31.91619288 -37.76565759 26.53762832 -37.5859375 17.69140625 C-36.76690282 10.35494665 -33.2633561 5.97315301 -27.65625 1.40234375 C-20.09131102 -4.26152737 -8.20239176 -4.88320357 0 0 Z " fill="#FBF6E9" transform="translate(508.21875,583.59765625)"/>
<path d="M0 0 C5.398309 4.83054027 9.52388639 9.67622404 10.3359375 17.05078125 C10.43430211 25.26422584 9.89449541 30.90224282 4.12890625 36.96875 C-2.78104826 43.34315038 -8.19971845 44.48045936 -17.5546875 44.3046875 C-25.41680755 43.60939797 -29.54958704 39.95245981 -34.5546875 34.09765625 C-38.86222659 27.84590357 -38.68667587 21.3483236 -38 14 C-36.22620005 6.8571814 -30.75500921 2.22034009 -25 -2 C-16.88778577 -6.05610712 -7.5856366 -4.57816912 0 0 Z " fill="#FCF6E9" transform="translate(509,452)"/>
<path d="M0 0 C5.40577299 5.55593335 7.57811366 10.5649122 7.8125 18.375 C7.48879568 26.28871883 5.75424018 31.2405851 -0.0625 36.625 C-6.26240115 41.42534541 -11.89817782 42.9526048 -19.68359375 42.71875 C-26.65191531 41.79555835 -31.91853367 38.83668894 -36.25 33.3125 C-40.91489477 26.58637266 -41.55673414 20.34841023 -40.75 12.3125 C-38.92483715 5.17109099 -33.51515597 0.54771124 -27.75 -3.6875 C-18.08057046 -8.62508104 -8.62112658 -5.29023676 0 0 Z " fill="#FBF5E9" transform="translate(511.75,521.6875)"/>
<path d="M0 0 C5.11331032 3.78051766 7.29593986 9.05188207 9.24609375 14.90234375 C10.29403457 22.22295888 8.35131467 27.83734401 4.24609375 33.90234375 C2.11268927 36.2639729 -0.13193828 38.10898868 -2.75390625 39.90234375 C-4.05328125 40.83046875 -4.05328125 40.83046875 -5.37890625 41.77734375 C-11.53064524 43.82792341 -18.19044477 44.09192659 -24.38671875 42.0234375 C-30.95109914 38.65223876 -35.74466603 33.77485537 -38.62890625 26.96484375 C-40.8886918 19.91485411 -40.12246857 14.06721343 -37.21875 7.37109375 C-34.03660824 2.00812418 -29.32461247 -1.7849552 -23.81640625 -4.59765625 C-14.58757476 -6.10440425 -7.94426234 -4.97179893 0 0 Z " fill="#FBF5E8" transform="translate(440.75390625,521.09765625)"/>
<path d="M0 0 C5.82978688 3.52294648 10.53488288 8.98877883 12.5625 15.5 C13.39461046 22.83133114 13.72782937 29.75381319 9.11328125 35.82421875 C3.34352239 42.05904634 -2.44741222 46.47734635 -11.25 47 C-19.03959553 46.71588101 -25.16209933 43.23898747 -30.4375 37.625 C-35.23203897 31.58952153 -36.26780625 25.02465043 -35.4375 17.5 C-33.71137819 10.11004101 -29.7888496 4.79034194 -23.5 0.625 C-16.48597344 -2.9993047 -7.25885313 -3.14926897 0 0 Z " fill="#FBF5E9" transform="translate(574.4375,582.5)"/>
<path d="M0 0 C4.75790858 3.59961623 8.77923553 8.01607414 10 14 C10.78365983 21.65047906 10.91898692 28.75192747 6 35 C1.20229767 40.04810434 -3.16637386 43.60610293 -10.26953125 44.3359375 C-18.55566509 44.42729509 -24.44349212 44.11858264 -30.70703125 38.45703125 C-35.80620358 33.03528354 -38.10537707 27.35213047 -38.375 19.9375 C-38.09107668 12.49870909 -35.0460562 7.18993976 -30.0859375 1.80078125 C-20.95981829 -6.07775986 -10.06650654 -5.57428701 0 0 Z " fill="#FBF6E9" transform="translate(577,452)"/>
<path d="M0 0 C4.26213133 3.15119986 6.83489998 6.85673475 8.24609375 11.90234375 C9.20810072 19.52647375 9.1752344 26.43373997 4.87109375 33 C0.29921292 38.3521778 -5.49411307 42.39704414 -12.5859375 43.23828125 C-20.47409692 43.34166473 -25.77947511 42.52420439 -31.69140625 37.13671875 C-36.902952 31.62116616 -39.73285518 26.12934527 -40.25390625 18.52734375 C-39.94350463 11.02597133 -36.23316253 4.91362307 -30.81640625 -0.09765625 C-20.99573181 -7.87007084 -10.10649801 -6.32500209 0 0 Z " fill="#FBF6E9" transform="translate(578.75390625,521.09765625)"/>
<path d="M0 0 C3.3 0 6.6 0 10 0 C10.98669759 1.89192475 11.9640602 3.78871978 12.9375 5.6875 C13.48277344 6.74324219 14.02804687 7.79898437 14.58984375 8.88671875 C15.8470576 11.66234047 16.56069569 14.00272126 17 17 C17.66 17 18.32 17 19 17 C19.18175781 16.443125 19.36351562 15.88625 19.55078125 15.3125 C21.24862185 10.15803009 23.06422235 5.06989385 25 0 C28.63 0 32.26 0 36 0 C36 10.23 36 20.46 36 31 C33.36 31 30.72 31 28 31 C27.505 24.565 27.505 24.565 27 18 C25.02 22.29 23.04 26.58 21 31 C19.02 31 17.04 31 15 31 C14.01888025 28.8967433 13.04016866 26.79236311 12.0625 24.6875 C11.51722656 23.51574219 10.97195313 22.34398437 10.41015625 21.13671875 C9 18 9 18 8 15 C7.67 20.28 7.34 25.56 7 31 C4.69 31 2.38 31 0 31 C0 20.77 0 10.54 0 0 Z " fill="#F7F4E8" transform="translate(543,402)"/>
<path d="M0 0 C8.25 0 16.5 0 25 0 C25 2.31 25 4.62 25 7 C22.69 7 20.38 7 18 7 C18 14.92 18 22.84 18 31 C15.03 31 12.06 31 9 31 C9 23.08 9 15.16 9 7 C6.03 7 3.06 7 0 7 C0 4.69 0 2.38 0 0 Z " fill="#F3F1E4" transform="translate(511,402)"/>
<path d="M0 0 C0.33 0.99 0.66 1.98 1 3 C-1.31 5.31 -3.62 7.62 -6 10 C-6.66 9.67 -7.32 9.34 -8 9 C-5.36 6.03 -2.72 3.06 0 0 Z " fill="#E5E9DB" transform="translate(237,255)"/>
<path d="M0 0 C0 3 0 3 -2.5 5.6875 C-3.325 6.450625 -4.15 7.21375 -5 8 C-5.99 7.67 -6.98 7.34 -8 7 C-5.36 4.69 -2.72 2.38 0 0 Z " fill="#E2E8D9" transform="translate(413,451)"/>
<path d="M0 0 C0 3 0 3 -2.375 5.6875 C-5 8 -5 8 -7 8 C-5.50902342 4.2047869 -3.24299151 2.38957269 0 0 Z " fill="#E2E8D8" transform="translate(482,584)"/>
<path d="M0 0 C0 3 0 3 -1 5 C-2.65 5 -4.3 5 -6 5 C-6 4.34 -6 3.68 -6 3 C-4.02 2.01 -2.04 1.02 0 0 Z " fill="#E2E7D9" transform="translate(183,627)"/>
<path d="M0 0 C0 3 0 3 -2.5 5.6875 C-3.325 6.450625 -4.15 7.21375 -5 8 C-5.66 7.67 -6.32 7.34 -7 7 C-4.78071806 4.09197539 -3.07030857 2.04687238 0 0 Z " fill="#E8EDDF" transform="translate(412,584)"/>
</svg>
