<?xml version="1.0" encoding="UTF-8"?>
<svg version="1.1" xmlns="http://www.w3.org/2000/svg" width="1024" height="1024">
<path d="M0 0 C337.92 0 675.84 0 1024 0 C1024 337.92 1024 675.84 1024 1024 C686.08 1024 348.16 1024 0 1024 C0 686.08 0 348.16 0 0 Z " fill="#FEFEFE" transform="translate(0,0)"/>
<path d="M0 0 C0.33 0 0.66 0 1 0 C3.43149351 53.58291257 -21.2958081 115.79278915 -56.6875 155.3125 C-57.41582031 156.10140625 -58.14414062 156.8903125 -58.89453125 157.703125 C-60.2746395 159.20869764 -61.62768411 160.73963579 -62.94921875 162.296875 C-68.0697828 168.321068 -73.8016626 173.11672711 -80 178 C-80.75667969 178.64582031 -81.51335938 179.29164063 -82.29296875 179.95703125 C-99.84176331 194.7874239 -121.35297574 204.797119 -143 212 C-143.80501953 212.27086426 -144.61003906 212.54172852 -145.43945312 212.82080078 C-160.65033658 217.83554423 -176.11968755 220.17494732 -192 222 C-192.88888916 222.1038501 -193.77777832 222.2077002 -194.69360352 222.31469727 C-220.11559833 224.96744792 -245.8653018 223.08203932 -271 219 C-272.33614349 218.78506897 -272.33614349 218.78506897 -273.69927979 218.5657959 C-319.02043148 211.25021884 -363.64241021 201.25633079 -408.17138672 190.15136719 C-409.25433014 189.88170135 -410.33727356 189.61203552 -411.45303345 189.334198 C-413.4745899 188.82994894 -415.49560522 188.32352331 -417.51596069 187.81448364 C-434.46218376 183.53795081 -434.46218376 183.53795081 -451.0625 187 C-461.75706336 194.20328001 -465.84230988 207.34188534 -468.32617188 219.41748047 C-470.41718933 230.53472326 -471.36304735 241.37295186 -471.3125 252.6875 C-471.31067719 253.34819489 -471.30885437 254.00888977 -471.30697632 254.68960571 C-471.15901828 287.03169051 -464.95871149 318.75865713 -457 350 C-455.71029297 348.83984375 -455.71029297 348.83984375 -454.39453125 347.65625 C-442.13706524 336.78619057 -429.31609095 328.88039476 -414 323 C-412.59427734 322.45472656 -412.59427734 322.45472656 -411.16015625 321.8984375 C-393.38146078 316.3115934 -372.63752085 320.33606616 -354.54437256 322.76011658 C-340.54956865 324.6323551 -326.84869452 325.21413825 -312.74047852 325.24023438 C-309.60079864 325.24988231 -306.46179112 325.28095936 -303.32226562 325.3125 C-272.60501125 325.47361346 -244.39528454 319.75474056 -219.5625 300.90625 C-217 299 -217 299 -216 299 C-214.66406217 329.3307367 -224.80458748 360.73944997 -243 385 C-243.39767578 385.54140625 -243.79535156 386.0828125 -244.20507812 386.640625 C-266.9892497 417.52970036 -298.70251379 436.61426807 -336 445 C-337.26585937 445.29648437 -338.53171875 445.59296875 -339.8359375 445.8984375 C-368.63635265 451.99663861 -398.75374527 450.22840948 -428 450 C-427.98428955 450.96260742 -427.9685791 451.92521484 -427.95239258 452.91699219 C-426.9070645 523.72279202 -437.11300465 598.26421598 -480 657 C-480.39896484 657.54769043 -480.79792969 658.09538086 -481.20898438 658.65966797 C-494.20255005 676.32443097 -508.6593105 692.56306499 -526.27490234 705.70166016 C-527.88659291 706.91464777 -529.4699429 708.16503797 -531.05078125 709.41796875 C-571.47097398 740.27423045 -626.71403704 752.0961677 -676.66259766 745.9934082 C-687.20173858 744.51951517 -697.96120038 742.58071834 -708 739 C-708 738.34 -708 737.68 -708 737 C-707.40574219 736.731875 -706.81148437 736.46375 -706.19921875 736.1875 C-677.71120178 722.71882635 -655.32985064 696.38698666 -644.375 667.0703125 C-626.50587347 615.15114981 -638.22892036 565.06396723 -651.46444702 513.43499756 C-660.39266092 478.47649692 -667.38163176 443.91839909 -671 408 C-671.08588379 407.24926208 -671.17176758 406.49852417 -671.26025391 405.72503662 C-671.95478063 399.42155319 -672.17454787 393.19067677 -672.203125 386.8515625 C-672.21013931 385.80904831 -672.21715363 384.76653412 -672.22438049 383.69242859 C-672.24182358 380.33657482 -672.24823489 376.98089747 -672.25 373.625 C-672.25067474 372.47961761 -672.25134949 371.33423523 -672.25204468 370.15414429 C-672.23589684 352.9180633 -671.8781393 336.03296878 -669 319 C-668.74259033 317.47197754 -668.74259033 317.47197754 -668.47998047 315.91308594 C-658.87612682 261.27668526 -632.01252664 210.46303923 -586 178 C-570.04368898 166.9111972 -570.04368898 166.9111972 -564 164 C-656.92055932 162.53745185 -753.21236403 181.62535893 -836 241 C-836.88292725 241.65331299 -836.88292725 241.65331299 -837.78369141 242.31982422 C-845.13076274 247.7938238 -852.17454079 253.58935904 -859.125 259.5546875 C-861.71229658 261.75529573 -864.33555088 263.8939097 -867 266 C-868.25129361 199.75095489 -854.06277249 136.23381747 -807.08984375 87.18359375 C-806.06015167 86.12214759 -805.0301957 85.06095737 -804 84 C-803.45230957 83.42652832 -802.90461914 82.85305664 -802.34033203 82.26220703 C-794.61258231 74.1816927 -786.59676295 66.92188125 -777.63769531 60.23193359 C-776.10413397 59.07833333 -774.59404901 57.89370881 -773.0859375 56.70703125 C-759.80654157 46.37251513 -745.19704967 38.14721851 -730 31 C-729.33661621 30.67966797 -728.67323242 30.35933594 -727.98974609 30.02929688 C-698.41934397 15.79248207 -666.40615576 8.19274798 -634 4 C-632.88157715 3.84901855 -631.7631543 3.69803711 -630.61083984 3.54248047 C-614.49703035 1.42398644 -598.60901306 0.73193008 -582.375 0.75 C-581.07248291 0.75102722 -581.07248291 0.75102722 -579.74365234 0.7520752 C-561.76254438 0.79894538 -543.86522801 1.52046229 -526 3.625 C-525.27555695 3.70925232 -524.55111389 3.79350464 -523.80471802 3.88031006 C-457.95257407 11.61351265 -393.51580835 27.03278184 -329.3125 43.1875 C-282.40804922 54.98570296 -235.11311697 66.35367838 -187 72 C-186.30025055 72.08506805 -185.6005011 72.17013611 -184.87954712 72.25778198 C-172.23484617 73.77048903 -159.72353861 74.34437124 -146.99145508 74.31567383 C-144.06749379 74.31250541 -141.14454135 74.33613317 -138.22070312 74.36132812 C-94.93260741 74.50715107 -53.27925768 60.96086917 -21.5 30.875 C-12.73257275 21.87146609 -5.54344999 11.25063056 0 0 Z " fill="#00712C" transform="translate(941,140)"/>
<path d="M0 0 C25.38934934 9.37093078 53.70895716 15.32087405 79.55053711 4.25024414 C85.18832723 1.56326782 90.28425747 -1.50812784 95.22241211 -5.32397461 C96.37383494 11.08380071 89.16958804 26.96170721 78.63647461 39.20336914 C66.27074746 51.8692353 48.17463087 57.59935618 30.78491211 57.98852539 C16.10707683 57.87249507 1.54495454 54.67245199 -12.59008789 50.92602539 C-20.6919417 48.78961298 -28.05835606 47.0457453 -36.21508789 49.86352539 C-41.29574315 53.4571596 -43.0984881 56.76617639 -44.36712646 62.85421753 C-45.22013219 68.71839408 -45.14202611 74.63987041 -45.19165039 80.55493164 C-45.21039499 81.97697532 -45.22997077 83.39900826 -45.25033569 84.82102966 C-45.30131577 88.53461327 -45.34112225 92.2482328 -45.378479 95.9619751 C-45.41873467 99.76323076 -45.46972778 103.5643414 -45.51977539 107.36547852 C-45.61612967 114.80222741 -45.70066173 122.23904743 -45.77758789 129.67602539 C-43.05796037 129.2172295 -40.33946927 128.75291007 -37.62133789 128.28540039 C-36.85660156 128.15697754 -36.09186523 128.02855469 -35.30395508 127.89624023 C-25.95178121 126.27720798 -19.08312139 123.42867178 -11.78540039 117.26196289 C-9.85544465 115.73752314 -8.01109512 114.68761387 -5.77758789 113.67602539 C-5.31632867 128.59007367 -7.76400398 140.69857175 -17.46508789 152.55102539 C-24.45549413 159.90093824 -35.28017549 165.48701499 -45.56665039 165.74633789 C-46.29625977 165.72313477 -47.02586914 165.69993164 -47.77758789 165.67602539 C-47.73118164 166.39661133 -47.68477539 167.11719727 -47.63696289 167.85961914 C-46.59259427 198.92958547 -56.54140182 233.59147375 -77.40258789 257.11352539 C-78.85197919 258.6428831 -80.30958374 260.16452482 -81.77758789 261.67602539 C-82.34993164 262.31024414 -82.92227539 262.94446289 -83.51196289 263.59790039 C-94.34270382 275.25384063 -110.92800162 282.83954166 -126.76635742 283.79614258 C-130.77512041 283.91464732 -134.77146143 283.84041052 -138.77758789 283.67602539 C-138.13821289 283.03665039 -137.49883789 282.39727539 -136.84008789 281.73852539 C-136.3824707 281.27446289 -135.92485352 280.81040039 -135.45336914 280.33227539 C-134.24669739 279.13966741 -133.01100595 277.97616722 -131.75805664 276.83227539 C-114.62309048 260.74761364 -106.66623588 237.65307615 -105.63525391 214.47631836 C-105.13214411 195.42983609 -106.46329589 177.46896973 -109.77758789 158.67602539 C-115.71349427 124.40774991 -120.06458795 96.90450841 -103.84301758 64.84692383 C-100.66826247 58.41701523 -98.90710854 53.8700696 -99.77758789 46.67602539 C-101.89150666 43.17712535 -102.89494848 41.97023853 -106.77758789 40.67602539 C-125.95565186 38.82179269 -142.65890679 47.44785682 -157.2175293 59.32104492 C-160.65022357 62.302493 -163.81898893 65.56796507 -166.9453125 68.8659668 C-168.18936445 70.16869444 -169.47978475 71.42683702 -170.77758789 72.67602539 C-171.43758789 72.67602539 -172.09758789 72.67602539 -172.77758789 72.67602539 C-175.83125136 50.40662595 -172.42012409 29.65032528 -159.79711914 10.70336914 C-157.89116727 8.24199018 -155.89963911 5.95255543 -153.77758789 3.67602539 C-153.12532227 2.93352539 -152.47305664 2.19102539 -151.80102539 1.42602539 C-110.03644487 -43.62340978 -48.19745163 -17.98733836 0 0 Z " fill="#FDFEFD" transform="translate(484.777587890625,516.323974609375)"/>
<path d="M0 0 C9.64941766 6.63628533 14.44800101 15.3696996 16.7890625 26.71484375 C18.09854772 35.9352397 15.33329804 44.48770258 9.9765625 52.02734375 C3.82880502 59.54297727 -3.53383797 64.81526495 -13.2109375 66.71484375 C-24.69695992 67.67595125 -34.41371186 65.74973034 -43.4375 58.328125 C-50.72087014 51.70250415 -55.39433036 44.14118693 -56.66015625 34.1796875 C-57.0190286 22.80714655 -53.79281744 14.15127611 -46.2109375 5.71484375 C-33.5479145 -7.15674669 -15.6627447 -9.10431626 0 0 Z " fill="#00712C" transform="translate(725.2109375,815.28515625)"/>
<path d="M0 0 C9.39702986 6.75255597 14.96867537 15.06302532 17.375 26.375 C18.38792555 36.38737948 15.40178865 45.40466116 9.375 53.375 C6.875 56.125 6.875 56.125 4.375 58.375 C3.653125 59.055625 2.93125 59.73625 2.1875 60.4375 C-7.09385306 66.831321 -16.6615884 67.58824368 -27.625 66.375 C-37.25977494 64.45820024 -44.60481111 57.46487937 -50.5625 49.9375 C-55.72157286 41.94276653 -56.66340678 32.67501675 -55.625 23.375 C-52.88065381 13.14351447 -47.02891751 5.67122574 -38.625 -0.625 C-26.1051717 -7.60490428 -12.30978373 -7.58822285 0 0 Z " fill="#00712C" transform="translate(825.625,622.625)"/>
<path d="M0 0 C8.37037831 6.8842091 13.8208426 14.93772242 15.13671875 25.9453125 C15.36815057 33.84591598 14.46610015 40.22276313 10.6875 47.1875 C10.130625 48.21875 9.57375 49.25 9 50.3125 C2.7971942 58.0240964 -4.24027653 64.0959039 -14.28759766 65.45458984 C-25.85576213 66.5923994 -34.70326951 64.91396135 -44.3125 58.1875 C-52.04272182 51.65586658 -56.64647366 42.27592322 -57.5859375 32.27734375 C-57.93681184 21.38674393 -55.19131223 13.25565978 -48.25 4.8125 C-35.17846878 -8.78451992 -15.39376515 -10.91611103 0 0 Z " fill="#00712C" transform="translate(727.3125,623.8125)"/>
<path d="M0 0 C7.90700262 4.18242079 13.2110777 9.49191779 17.49609375 17.3203125 C17.83640625 17.91070313 18.17671875 18.50109375 18.52734375 19.109375 C22.01480749 26.43950712 21.57292493 36.49380131 19.83984375 44.26171875 C15.93884568 55.00627809 8.52433027 62.40987995 -1.62109375 67.3515625 C-10.87263031 71.01151103 -20.9200754 70.34495536 -30.00390625 66.58203125 C-39.99827757 61.53799697 -46.56240356 54.04061396 -50.5859375 43.63671875 C-53.23681216 34.05972902 -52.16773677 25.01859849 -47.50390625 16.3203125 C-37.81894845 -0.71185467 -18.25357136 -7.75708976 0 0 Z " fill="#01702C" transform="translate(821.50390625,812.6796875)"/>
<path d="M0 0 C8.24877038 5.01454027 13.97821139 12.01664876 17.3046875 21.1015625 C19.62662138 30.78063519 18.95187369 41.27779889 14 50 C7.34885689 59.10775392 -0.84155957 65.64513432 -12 68 C-21.77348535 69.20696656 -31.31506454 66.91389224 -39.375 61.1875 C-46.78070885 55.05704807 -52.50151543 47.68360312 -54 38 C-54.91510254 25.71362323 -53.01335676 16.69780864 -45.125 7.109375 C-33.28408231 -4.64447711 -14.80632783 -8.5748877 0 0 Z " fill="#01702C" transform="translate(824,721)"/>
<path d="M0 0 C9.51663168 5.59634758 15.69168644 13.8476859 18.6171875 24.5390625 C19.63281912 35.06147851 18.94530427 44.47441008 12.69921875 53.2265625 C5.734318 61.51047986 -2.85416813 67.66990129 -13.8359375 68.7890625 C-23.72399193 69.24108785 -32.97179752 66.5162305 -40.640625 60.16796875 C-47.70800557 53.56012638 -52.82925089 46.11853758 -53.65625 36.2890625 C-53.95308146 25.32913179 -52.05339344 15.38095893 -44.25 7.1328125 C-31.42021096 -3.81813714 -15.51991486 -7.52863078 0 0 Z " fill="#01712C" transform="translate(722.3828125,720.4609375)"/>
<path d="M0 0 C9.64019665 6.65544345 14.43582174 15.36241585 16.78125 26.71484375 C18.1587411 36.28627677 15.2676163 45.72714662 9.65625 53.52734375 C3.39391591 60.93440557 -4.39332265 66.21979755 -14.171875 67.05078125 C-25.47511962 67.28863424 -34.27995193 65.83127418 -43.3359375 58.53515625 C-51.35858935 50.77881649 -55.19987216 41.83024454 -55.65625 30.77734375 C-55.33937067 20.04477876 -50.93557987 11.63780931 -43.59375 4.03125 C-31.31341775 -7.3678547 -14.2619228 -8.26086725 0 0 Z " fill="#00712C" transform="translate(622.21875,622.28515625)"/>
<path d="M0 0 C8.79068468 5.28726739 15.30790304 13.03151115 18 23 C18.41071502 25.97308132 18.47893067 28.87657561 18.4375 31.875 C18.42775146 32.66583984 18.41800293 33.45667969 18.40795898 34.27148438 C18.0961705 44.56156143 14.75176428 51.25435377 7.640625 58.73046875 C-0.76189249 65.95215908 -9.96956149 68.39714244 -20.8046875 68.27734375 C-30.38068739 67.44617506 -38.76193939 63.00551626 -44.94140625 55.70703125 C-52.43974396 45.61010468 -54.19436567 36.56096928 -53 24 C-50.5153425 13.55601595 -43.97040333 5.6252251 -35 0 C-34.35675781 -0.41507813 -33.71351563 -0.83015625 -33.05078125 -1.2578125 C-23.19691901 -6.62582127 -9.51623295 -5.50398338 0 0 Z " fill="#00702C" transform="translate(620,814)"/>
<path d="M0 0 C9.39068744 5.92677904 16.33800721 13.69347743 19.30859375 24.45703125 C20.54059016 37.34760426 19.04419525 47.90310202 10.74609375 58.33203125 C3.62819534 65.76057798 -5.74497987 69.4735253 -15.94140625 69.70703125 C-26.01734897 69.53797181 -34.38803316 65.42501316 -41.66796875 58.60546875 C-49.71346454 50.01219453 -52.139231 40.74118824 -52.03125 29.19921875 C-51.18332823 19.86233309 -46.76858992 11.57783875 -39.69140625 5.45703125 C-28.22781575 -2.69485533 -13.29716099 -6.34586267 0 0 Z " fill="#01712C" transform="translate(618.69140625,719.54296875)"/>
<path d="M0 0 C4.62 0 9.24 0 14 0 C18.51209236 8.9234184 22.96636417 17.84674946 27 27 C27.50789062 25.97261719 28.01578125 24.94523438 28.5390625 23.88671875 C32.53578983 15.83093696 36.63159277 7.86313302 41 0 C45.62 0 50.24 0 55 0 C55 15.51 55 31.02 55 47 C51.04 47 47.08 47 43 47 C42.505 36.605 42.505 36.605 42 26 C38.7 32.93 35.4 39.86 32 47 C24 47 24 47 22.14135742 45.7644043 C20.87468682 43.80628056 19.76403828 41.86564345 18.73828125 39.76953125 C18.38032471 39.04612549 18.02236816 38.32271973 17.65356445 37.57739258 C17.21101318 36.66497803 16.76846191 35.75256348 16.3125 34.8125 C14.889375 31.904375 13.46625 28.99625 12 26 C11.67 32.93 11.34 39.86 11 47 C7.37 47 3.74 47 0 47 C0 31.49 0 15.98 0 0 Z " fill="#036F2A" transform="translate(773,546)"/>
<path d="M0 0 C12.54 0 25.08 0 38 0 C38 3.63 38 7.26 38 11 C33.71 11 29.42 11 25 11 C25 22.88 25 34.76 25 47 C21.37 47 17.74 47 14 47 C14 35.12 14 23.24 14 11 C9.38 11 4.76 11 0 11 C0 7.37 0 3.74 0 0 Z " fill="#006B25" transform="translate(725,546)"/>
<path d="M0 0 C0.33 0 0.66 0 1 0 C1.21683204 4.6624585 1.41373087 9.32516691 1.59204102 13.98925781 C1.65554626 15.57640171 1.72453429 17.16333596 1.79907227 18.75 C1.90515652 21.02831947 1.99162167 23.3066609 2.07421875 25.5859375 C2.11157639 26.29744965 2.14893402 27.00896179 2.18742371 27.74203491 C2.2487793 29.74365234 2.2487793 29.74365234 2 33 C1.01 33.66 0.02 34.32 -1 35 C-1.20638953 11.41761516 -1.20638953 11.41761516 0 0 Z " fill="#186A2B" transform="translate(75,371)"/>
<path d="M0 0 C-0.825 0.53625 -1.65 1.0725 -2.5 1.625 C-5.86077375 3.85751399 -9.06270392 6.27862025 -12.265625 8.73046875 C-14 10 -14 10 -16 11 C-14.64891639 7.90989789 -13.20982067 6.03089847 -10.625 3.875 C-10.03976562 3.37742187 -9.45453125 2.87984375 -8.8515625 2.3671875 C-3.88976378 -1.29658793 -3.88976378 -1.29658793 0 0 Z " fill="#08621C" transform="translate(694,621)"/>
<path d="M0 0 C0.33 0 0.66 0 1 0 C1 4.62 1 9.24 1 14 C0.34 13.67 -0.32 13.34 -1 13 C-1.484375 11.07421875 -1.484375 11.07421875 -1.75 8.6875 C-1.84796875 7.90761719 -1.9459375 7.12773437 -2.046875 6.32421875 C-1.99392264 3.69866432 -1.32990442 2.23526243 0 0 Z " fill="#0B6323" transform="translate(941,140)"/>
<path d="M0 0 C0.99 0.33 1.98 0.66 3 1 C-3.14285714 7.71428571 -3.14285714 7.71428571 -8 8 C-5.6166139 4.85052551 -3.44915025 2.0027324 0 0 Z " fill="#086620" transform="translate(259,860)"/>
<path d="M0 0 C0.33 0.66 0.66 1.32 1 2 C0.03523618 4.01723344 -0.96838392 6.01612292 -2 8 C-2.68636625 10.23525035 -2.68636625 10.23525035 -3 12 C-3.66 12 -4.32 12 -5 12 C-4.42365861 7.24518354 -2.44931479 4.02951788 0 0 Z " fill="#0C631F" transform="translate(297,384)"/>
<path d="M0 0 C0.66 0.33 1.32 0.66 2 1 C1.01 1.33 0.02 1.66 -1 2 C-1.33 2.99 -1.66 3.98 -2 5 C-3.65 5.33 -5.3 5.66 -7 6 C-2.25 1.125 -2.25 1.125 0 0 Z " fill="#06601A" transform="translate(506,473)"/>
</svg>
