<?xml version="1.0" encoding="UTF-8"?>
<svg id="Layer_1" data-name="Layer 1" xmlns="http://www.w3.org/2000/svg" viewBox="0 0 1080 1080">
  <defs>
    <style>
      .cls-1 {
        fill: #306f34;
      }

      .cls-2 {
        fill: none;
        stroke: #000;
        stroke-linecap: round;
        stroke-linejoin: round;
        stroke-width: 4.97px;
      }
    </style>
  </defs>
  <circle class="cls-1" cx="562.96" cy="344.99" r="74.46"/>
  <g>
    <path class="cls-2" d="M480.66,751c2.01,2.04,4.59,1.38,6.98,1.38,30.72.03,61.46.71,92.14-.26,16.31-.52,32.72-.17,48.86.2,57.49,1.32,114.97,1.33,172.45,1.45,50.27.11,100.53.05,150.8-.07,2.09,0,5.3,2.02,6.28-2"/>
    <path class="cls-2" d="M780.16,478.22c3.46,13.89,2.83,27.41-3.48,40.47-5.21,10.79-11.1,20.81-23.73,24.46-4.39,1.27-8.32,3.86-13.36,1.52-2.29-1.06-4.85-.31-6.35,3.25-5.15,12.19-11.88,23.45-22.18,32.17-1.26,1.07-2.24,2.14-2.17,4.18.33,10.1-1.44,20.02-2.66,30-2.7,22.02-9.57,42.41-25.34,58.44-11.03,11.21-25.14,17.44-42.02,18.74,1.48,11.88,2.1,23.5,1.64,35.13-.09,2.32-.19,4.66-.47,7-.87,7.38-4.66,12.75-9.96,17.42"/>
    <path class="cls-2" d="M434.23,749.61c-6.27,2.21-12.8,1.5-19.2,1.33-97.73-2.61-195.48-.79-293.22-1.33"/>
    <path class="cls-2" d="M388.5,524.26c2.11-.13,3.77,1.61,6.44-.51,6.24-4.94,11.4-4.28,16.57,1.23,9.89,10.55,9.08,25.99-.18,36.05-5.98,6.5-17,4.21-22.07-7.5-2.2-5.08-1.71-10.66-1.39-16.02.82-13.79-1.49-16.46-10.55-20.2-2.73-1.13-4.85-3.29-8.23-4.42-8.91,11.82-15.3,25.03-19.62,40.05-7.64-.41-15.07.74-22.41,2.68-10.51,2.76-18.2,11.74-20.34,22.34-4.04,20.02,2.33,38.01,9.95,55.8,2.1,4.9,6.41,7.29,11.8,6.97,7.45-.44,14.99,1.26,22.38-1.25,1.57-.53,3.4-.52,4.98,1.9,12.35,18.91,30.04,32.08,48.76,44.01,7.03,4.48,14.59,8.09,20.65,11.87,1.17,14.21-2.11,27.86,1.84,41.13,1.8,6.06,4.91,12.16,13.09,11.91"/>
    <path class="cls-2" d="M611.21,318.46c-8.12-14.08-18.81-23.89-35.52-28.23-32.19-8.36-62.31,6.67-70.25,39.47-7.81,32.29,11.46,63.4,43.64,69.69,2.11.41,3.94,1.6,6.29,1.47,4.42-.25,8.86-.07,12.85-.07,2.98-4.99.69-9.54.94-13.96.36-6.18,2.17-10.55,7.75-14.1,9.88-6.29,12.32-14.72,9.29-24.3-1.98-6.25-7.15-7.98-12-10.4-4.38-2.18-9.34-3.13-13.36-6.2q2.96-2.86,20.37-2.2c1.29-2.94.3-6.07.73-9.06.66-4.59-.88-7.36-5.61-8.43-3.49-.79-5.38-2.52-5.84-6.89-.77-7.28-7.2-4.5-11.63-4.88-4.68-.4-5.12,2.75-4.87,6.25.23,3.22-.71,5.23-4.14,6.45-2.14.76-4.22,2.23-6.36,3.29-7.99,3.95-9.71,10.91-9.01,18.86.55,6.26,4.64,9.03,10.29,11.47,4.55,1.96,10.54,2.12,13.83,7.64-7.42,7.32-14.4.46-21.9-.11-2.4,6.12.79,12.44,1.01,18.67.09,2.67,6.67,2.34,10.01,4.15,1.2.65,2.96-.66,4.22.78,1.7.93,1.06,3.17,1.08,4.16.1,5.16,2.39,7.12,7.23,6.23,3-.55,5.05,1.7,7.69,2.13"/>
    <path class="cls-2" d="M525.34,417.52c-4.45,6.36-6.06,13.95-8.97,20.98-1.2,2.89-2.61,4.16-5.7,4.18-15.23.12-29.92,3.94-44.63,7.17-4.67,1.03-9.56,2.55-13.99,4.71-5.01,2.45-9.62,2.22-14.72.02-17.35-7.48-35.53-12.08-54.42-12.46-12.12-.25-24.54.12-35.96,8.56,19.57,7.57,39.72,13.11,49.77,33.24-6.34,7.34-15.91,11.73-20.39,21.39,1.05,4.02,5.02,7.55,5.2,12.68"/>
    <path class="cls-2" d="M570.72,393.11c9.29,6.86,16.91,2.03,24.43-3.49,14.14-10.38,21.31-24.31,21.69-41.86.16-7.17.32-14.42-2.97-20.86-3.23-6.33.07-8.66,5.03-10.49,2.36-.87,4.65-1.88,7.18-3.36-9.78-19.81-25.12-33.99-47.05-38.99-21.82-4.97-43.37-2.31-61.97,11.08-18,12.96-27.96,31.07-28.68,53.56-.4,12.61-.1,24.93,5.24,37.1,4.92,11.22,13,19.07,22,26.3,12.32,9.88,27.61,13.02,42.57,15.03,10.15,1.36,20.78-2.01,30.61-5.33,22.01-7.44,37.61-21.66,42.53-45.21,2.1-10.06,4.16-20.34.87-30.69-.4-1.27-.07-2.77-.05-4.17.05-4.32-1.01-7.03-6.24-7.95-3.72-.65-7.9-1.44-11.22-3.91"/>
    <path class="cls-2" d="M527.43,410.55c-2.22,10.06,1.56,19.97-.43,31.2,54.81-9.6,96.63,14.52,136.92,47.56-8.56,3.73-13.6,9.74-20.45,13.59-5.98,3.37-10.03.94-13.29-2.47-18.76-19.65-42.22-28.82-68.52-32.79-19.99-3.02-39.51-2.64-58.66,4.3-1.82.66-4.24.59-4.19,3.49"/>
    <path class="cls-2" d="M739.67,503.34c-1.7-4.61,2.72-7.32,3.23-11.93-5.88-5.42-12.73-6.42-20.71-2.8-8.3,3.77-12.61,10.12-13.17,18.91-.8,12.58,4.82,22.47,14.33,30.95-4.24,6.79-8.62,13.31-17.11,17.08-7.37-22.67-17.86-43.2-35.82-59.2-6.56.1-12.44,4.84-19.4,3.49"/>
    <path class="cls-2" d="M493.23,477.52c11.82-1.78,23.79-2.15,35.59-1.21,18.63,1.49,37.08,4.66,55.16,9.6,12.79,3.5,25.11,8.43,37.67,12.65,2.37.8,4.3,2.79,7.02,1.28"/>
    <path class="cls-2" d="M586.08,749.61c-8.53-4.09-10.32-12.18-10.96-20.25-.42-5.22-2.78-10.06-1.23-16.27-7.71,1.43-14.25,2.89-20.57,4.62-9.23,2.53-18.7,3.26-27.99,3.66-10.01.43-19.97,2.2-30,1.65-4.53-.24-4.62,2.59-4.89,5.65-.61,6.91-1.18,13.7-6.91,18.92-3.72,3.39-7.8,4.53-12.63,4.89-7.94.6-15.83.85-23.74-.09"/>
    <path class="cls-2" d="M776.67,468.45c.92,20.87-1.27,40.72-18.15,55.82-4.22,3.77-9.23,4.7-15.04,4.89,1.94-10.42,7.99-19.7,3.97-29.48-12.02,2.69-13.79,12.99-16.65,22.81-8.41-9.4-8.41-14.08-.89-19.86,2.46.42,2.6,3.55,4.87,4.2"/>
  </g>
</svg>