<?xml version="1.0" encoding="UTF-8"?>
<svg id="Layer_1" data-name="Layer 1" xmlns="http://www.w3.org/2000/svg" viewBox="0 0 1080 1080">
  <defs>
    <style>
      .cls-1 {
        fill: #306f34;
      }

      .cls-2 {
        fill: none;
        stroke: #000;
        stroke-linecap: round;
        stroke-linejoin: round;
        stroke-width: 2.35px;
      }
    </style>
  </defs>
  <path class="cls-1" d="M277.99,696.45c-7.04-11.13,1.74-16.92,2.5-62.8.34-20.46-1.39-20.26-2.16-56.74-1.1-51.87,2.14-64.22,10.43-68.84,7.67-4.27,16.38-.09,25.81-8.24,4.37-3.78,6.47-8.1,8.62-12.53,7.22-14.9,5.73-27.84,7.83-27.99,1.7-.12,3.16,8.05,5.31,14.69,5.71,17.67,40.7,21.74,49.32,22.65,74.14,7.88,103.59-14.8,124.41,2.57,24.03,20.05,21.17,80.38-8.1,100.37-8.53,5.83-20.26,5.25-41.1,5.28-18.42.03-27.63.04-34.75-5.28-14.7-11-5.88-29.44-18.99-43.74-13.14-14.33-41.23-16.8-58.67-6.19-29.26,17.8-29.86,73.21-8.04,93.36,25.68,23.71,73.23-10.25,108.01,20.34,3.16,2.78,17.31,15.82,14.08,26.53-1.56,5.17-8.74,14.98-69.62,17.15-69.49,2.48-104.31,6.12-114.89-10.6Z"/>
  <g>
    <path class="cls-2" d="M330.44,497.49c4.7-3.8,5.96-8.93,5.89-14.67-.08-6.48-.85-12.91-1.24-19.37-.16-2.61-.98-5.12-4.1-6.08-5.23,3.44-6.94,8.34-7.07,14.29-.17,7.26-.05,14.63-1.8,21.69-1.8,7.25-3.48,10.08-11.64,9.42-4.95-.4-9.8.59-14.67,1.2-4.14.51-6.48,3.04-7.66,7.01-5.28,17.83-8.16,36.06-9.39,54.59-1.47,22.17.93,44.22,1.68,66.33.63,18.38.32,36.81-1.25,55.15-.25,2.89.49,6.03-1.19,9.41H84.49"/>
    <path class="cls-2" d="M449.01,612.52c4.04-2.95,8.25-4.6,13.39-5.78,7.04-1.62,13.81-.83,20.66-1.13,3.98-.17,7.86-.92,11.7-1.52,3.59-.56,6.57-3.1,8.29-6.82,5.3-11.43,8.61-23.47,10.42-35.84,1.63-11.14,3.59-22.26,4.65-33.45.79-8.31.25-16.73-3.3-24.67-1.03-2.31-1.89-4.17-4.77-4.09-4.54.13-9.06-.92-13.5-1-33.65-.63-67.31-2.36-100.95-1.16-14.48.52-29.01,1.45-43.47,3.12-6.89.79-14.17,1.33-21.11-.95"/>
    <path class="cls-2" d="M511.23,686.48c4.8,6.68,6.69,14.79,10.91,21.86,4.02,6.73,8.92,12.37,15.6,15.51,13.85,6.5,27.58,13.57,43.34,14.98,8.56.77,16.35-1.44,24.05-4.29,12.04-4.46,24.06-8.52,36.98-10.12,10.24-1.27,19.39,2.19,28.72,4.57,5.57,1.42,11.39,3,16.53,6.16,9.6,5.9,15.93,13.83,17.69,25.26.52,3.41-.55,6.03-1.86,8.82-1.64,3.49-4.07,6.67-8.16,5.1-3.68-1.42-6.24-4.31-6.07-9.22.27-7.37,3.96-13.03,7.76-18.78"/>
    <path class="cls-2" d="M696.72,740.47c1.48-4.77-1.6-8.13-4.2-11.07-12.4-14.03-28.7-20.09-46.86-22.45-14.81-1.93-29.93-1.81-44.08-8.03-12.57-5.52-23.05-14.19-34.47-21.42-2.78-1.76-5.77-3.45-8.49-5.48-2.11-1.58-5.4-1.73-8.68-.93-15.43,3.79-31.22,5.03-46.9,2.86-12.24-1.69-24.23-5.42-36.46-7.16-7.92-1.13-15.66-2.83-23.4-4.58-2.06-.47-3.56.27-5.33.26-12.73-.07-25.44-.4-38.16-1.14-9.37-.54-18.78-.13-28.17-.64-12.44-.68-23.34-4.96-30.96-14.83-6.65-8.61-10.5-18.77-11.29-29.82-1.23-17.18-1.58-34.32,3.57-51.04.39-1.28.11-3.3,2.29-3.54"/>
    <path class="cls-2" d="M635.09,444.66c.13,3.36,3.38,4.81,4.6,7.38,2.71,5.71,7.44,10.26,9.04,16.65.6,2.41,2.04,4.78,5.73,4.92,2.89.11,5.39,2.52,7.62,4.53,11.72,10.55,26.1,12.88,41.1,14.18,13.8,1.2,27.62,2.77,39.45,11.46,2.47,1.81,4.5,3.85,6.27,6.08,11.44,14.39,18.61,30.38,18.32,49.25-.32,20.65-1.84,41.16-4.57,61.65-1.91,14.35-2.08,28.91-2.57,43.41-.57,17.08-1.77,34.12-4.1,51.06-.51,3.7-1.75,7.24-3.65,10.76,8.51,7.66,9.2,18.19,10.11,28.57,1.18,13.39,2.94,26.51,7.39,39.41,3.7,10.72,14.49,14.06,25.53,12.36,11.43-1.76,18.69-7.81,22.93-18.3,1.86-4.6,4.19-8.98,8.11-12.41,3.42-3,6.17-3.22,8.94.77-.23,2.21-2.21,3.3-3.66,4.5-3.41,2.82-3.16,10.92.05,14.15,4.51,4.54,12.01,4.8,15.79,1.69,3.67-3.02,6.29-7.07,8.87-11.07,9.49-14.69,23.84-20.2,40.46-22.53,8.46-1.19,16.49-.26,24.68.81"/>
    <path class="cls-2" d="M655.04,472.25c7.44-4.41,11.81-11.69,17.04-18.18,4.46-5.52,9.28-10.67,15.22-14.72,5.76-3.93,6.1-6.25,2.37-12.29-5.53-8.95-13.54-15.84-20.13-23.93-4.54-5.58-8.66-11.27-11.5-17.78-2.71-6.22-7.43-9.57-13.56-11.75-11.68-4.16-23.8-6.56-35.84-9.27-4.93-1.11-9.82.89-14.64,1.78-11.27,2.1-22.24,5.29-32.31,11.04-5.76,3.29-11.73,6.25-15.84,11.75"/>
    <path class="cls-2" d="M609.85,535.05c2.69,5.22,8.2,6.83,15.27,4.72,12.99-3.89,23.72-11.54,34.06-19.96,7.96-6.49,15.03-13.95,22.86-20.58,2.76-2.33,5.47-4.56,10.4-4.84-4.07,9.48-9.3,17.15-13.23,25.44-7.63,16.1-10.94,32.8-5.42,50.45,1.83,5.85.42,8.75-5.24,9.22-9.9.81-18.18,5.49-25.03,11.54-10.71,9.47-21.49,19.26-27.85,32.59,1.12,2.73,2.97,2.78,5.35,1.83,17.7-7.09,36.66-8.04,55.19-11.06,4.17-.68,7.79-2.56,11.74-3.56,5.12-1.3,10.37-2.04,15.24,1.1"/>
    <path class="cls-2" d="M758.36,526.25c-1.13,2.09.06,3.87.49,5.89,3.95,18.71,3.86,37.27,1.11,56.38-2.84,19.76-10.14,37.66-17.64,55.61-3.1,7.42-8.31,14-15.97,18.23-2.22-.54-1.83-4.06-4.7-4.76-2.66,1.61-.82,4.42-1.45,6.56-2.99,10.12-12.42,16.91-23.45,18.3-18.93,2.39-37.61-.72-56.35-2-9.63-.66-19.21-2.41-28.78-3.91-1.05-.16-1.71-.53-2.34-1.23"/>
    <path class="cls-2" d="M644.48,491.62c-9.67,8.76-21.16,9.89-33.47,8.31-3.87-.5-7.44,1.81-11.16,2.76-2.77.71-5.66,1.49-8.11,2.61-6.74,3.08-11.87.45-16.47-3.75-13.29-12.12-21.2-27.79-28.2-43.98-4.31-9.96-7.53-20.2-8.94-31.08-1.48-11.39,1.02-21.46,7.82-30.49,1.72-2.29,3.67-4.05.51-6.5-2.35-.3-3.45,1.36-4.7,2.92-6.95,8.78-9.65,18.95-10.62,29.94-2.36,26.5,6.96,49.76,19.46,72.19,4.29,7.69,7.24,15.66,6.45,24.66-.18,2.1.57,4.39-1.76,5.89-1.49.96-1.16,2.61-1.19,4.09"/>
    <path class="cls-2" d="M581.08,375.41c-6.76,8.07-6.93,17.05-1.24,26.45,7.07,11.68,16.79,21.26,24.72,32.24,7.75,10.74,15.78,21.32,18.77,34.63,1.79,7.98,2.9,15.94.68,24.09-.6,2.19-.09,4.67-.09,7.02"/>
    <path class="cls-2" d="M426.12,600.78c-3.83-4.38-5.12-9.83-6.45-15.26-2.54-10.33-5.59-20.38-13.46-28.21-3.07-3.05-6.61-5.08-10.61-6.4-15.72-5.2-31.5-6.59-47.59-1.33-2.86.93-5.02,2.24-7.25,4.52,2.1,2.54,5.28,2.27,7.9,2.57,14.47,1.64,28.99,2.89,43.42,4.84,5.15.7,9.63-.91,14.09-2.98"/>
    <path class="cls-2" d="M288.76,699.39c11.18,2.85,22.62,3.98,34.04,5.3,14.87,1.73,29.83,2.55,44.64,5.09,7.17,1.23,14.47,1.98,21.72,2.89,2.76.35,5.97-1.46,8.76-2.76,13.06-6.12,27.12-6.97,41.12-7.39,6.07-.18,11.75-1.68,17.6-2.59,2.09-.32,2.99-1.98,3.58-4.05,2.79-9.83,3.9-19.5-1.81-28.77"/>
    <path class="cls-2" d="M400.88,603.13c-1.92,4.38-1.89,10.12,1.32,15.17,1.94,3.05,2.73,6.48,4.93,9.43-4.47,2.9-5.56,7.65-5.98,11.82-.49,4.83-2.87,5.53-6.69,6.55-8.46,2.26-16.88.44-25.27.33-9.65-.13-19.3-1.18-28.76-3.39"/>
    <path class="cls-2" d="M609.26,674.15c6.59-3.5,9.04-9.06,9.54-16.42.68-10.04-.19-19.28-6.49-27.68-2.49-3.32-5.21-4.12-8.92-4.07-4.35.06-8.61.84-12.91,1.24-18.76,1.75-37.57,1.07-56.35,1.11-11.29.02-22.49-1.48-33.44-4.14-10.66-2.6-21.39-3.59-32.3-3.48-2.34.02-4.78.69-7.04-.54"/>
    <path class="cls-2" d="M598.69,342.54c-2.38-5.82-7.17-9.01-14.08-8.14-22.09,2.81-39.78,12.16-48.74,33.96-3.58,8.7-.99,17.87,6.47,22.31"/>
    <path class="cls-2" d="M463.68,604.89c-4.4-4.4-5.08-9.88-5.38-15.84-1.2-23.23,2.09-46.19,3.59-69.26.24-3.71-.02-7.43-.44-11.16-.23-2.04-1.21-1.77-2.45-1.75"/>
    <path class="cls-2" d="M448.42,699.97c-11.17-2.93-22.68-3.65-34.04-5.31-7.22-1.05-14.48-1.61-21.73-2.29-6.82-.64-11.06,3.16-14.38,8.67,2.08,4.94,6.85,3.62,10.32,4.63,2.59.75,5.14.89,6.41,3.68"/>
    <path class="cls-2" d="M396.18,562.63c-4.27,18.93-2.45,37.67,1.73,56.35,1.09,4.86,1.48,9.88,2.97,14.67"/>
    <path class="cls-2" d="M712.57,494.55c-19.61,10.07-23.72,29.1-27.48,48.15-1.09,5.54-1.47,11.33-.11,17"/>
    <path class="cls-2" d="M605.15,506.88c1.29,3.41,1.67,7.04,2.52,10.52,1.38,5.67-.32,8.52-5.37,11.34-13.76,7.68-24.59,18.5-31.85,32.69-.55,1.08-.32,1.99-.52,2.97"/>
    <path class="cls-2" d="M718.44,518.03c-11.11,10.34-19.66,22.2-22.3,37.56-.27,1.44,1.28,1.56,1.78,1.67,4.96,1.11,3.88,4.28,2.27,7.11-5.63,9.9-10.14,20.29-13.32,31.17-1.48,5.07-3.92,10.2-2.47,15.81"/>
    <path class="cls-2" d="M610.43,363.08c9.39-3.37,18.76-3.02,28.2-.09,1.15.36,2.64,1.68,4.2-.41,1.36-1.81.16-2.92-.18-4.18-2.39-9.01-7.8-16.46-14.18-22.75-8.67-8.55-20.64-7.2-30.37,2.19"/>
    <path class="cls-2" d="M722.55,515.68c-.92.68-1.4,1.76-2.93,1.82-17.7.72-25.29,11.52-29.23,24.63-2.39,7.96-3.85,16.23-4.23,24.61"/>
    <path class="cls-2" d="M604.56,502.18c-.07,1.59.03,2.82-1.62,4.27-2.59,2.26-3.84,5.83-5.96,8.68-4.44,5.99-9.98,9.33-17.66,8.8-7.23-.5-14.51.68-21.72-.62"/>
    <path class="cls-2" d="M508.88,678.26c.99,5.04,1.17,10.13,1.23,15.26.05,3.88-1.49,6-5.34,6.46-9.51,1.12-18.83,3.22-28.22,5.07-7.81,1.54-15.76-.57-23.44-2.72"/>
    <path class="cls-2" d="M571.1,566.16c-1.76,6.74-2.83,13.56-2.96,20.54-.11,5.94,1.77,10.58,7.65,12.91"/>
    <path class="cls-2" d="M335.72,558.53c1.08,10.88-2.87,21.11-4.06,31.7-.27,2.39-.54,4.74-1.22,7.04"/>
    <path class="cls-2" d="M651.52,474.01c-1.44,7.07-5.41,13.24-6.7,20.5-1.03,5.78-6.08,9.76-10.98,12.84-3.42,2.15-7.34-.67-9.91-6.34"/>
    <path class="cls-2" d="M458.99,600.78c-2.94,5.67-8.41,4.48-12.89,3.92-6.87-.85-13.89-.69-20.66-3.08-2.27-.81-3.95-1.86-5.83-3.11-2.52-1.67-5.62-2.43-8.11-.02-2.23,2.16-3.74,2.12-6.06.09-.79-.69-3.69-1.01-4.42,1.08-.3.85-1.63,3.62,1.61,3.47"/>
    <path class="cls-2" d="M578.74,669.45c-6.54-1.88-13.04-4.16-20.04-1.27,16.4,2.67,32.8,5.26,49.39,6.56"/>
    <path class="cls-2" d="M582.84,594.33c-9.04,5.52-11.47,14.28-11.73,24.06-.08,2.93-.01,5.87-.01,8.8"/>
    <path class="cls-2" d="M416.73,645.39c3.48,8.45,15.82,13.68,24.02,9.88,2.22-1.03,4.29-1,6.5-1.08"/>
    <path class="cls-2" d="M610.43,530.35c0,3.14-2.78,4.41-4.71,4.53-10.09.62-13.17,9.09-18.18,15.43-1.39,1.76-1.38,4.89-4.71,4.69"/>
    <path class="cls-2" d="M436.68,627.78c-5.95,6.49-13.67,10.91-20.25,16.69-2.51,2.21-8.14.35-10.89-3.76-.6-.9-1.54-1.58-2.32-2.37"/>
    <path class="cls-2" d="M465.45,607.83c2.46,4.29-2.9,5.14-3.7,8.17-.77,2.9-3.28,4.75-6.86,4.81-5.37.09-10.25,2.38-15.26,4.04"/>
    <path class="cls-2" d="M580.5,565.57c.48-3.51,3.17-6.78,1.47-10.71-4.28.52-5.11,4.32-7.37,6.57-1.27,1.26-1.19,4.15-4.08,3.55"/>
    <path class="cls-2" d="M558.78,383.62c-3.37,2.75-6.55,5.77-10.57,7.63"/>
    <path class="cls-2" d="M439.03,604.89c.79,1.44,2.09,2.25,3.52,2.94,5.17,2.48,7.45,6.64,7.05,12.32"/>
  </g>
</svg>