<?xml version="1.0" encoding="UTF-8"?>
<svg id="Layer_1" data-name="Layer 1" xmlns="http://www.w3.org/2000/svg" viewBox="0 0 1080 1080">
  <defs>
    <style>
      .cls-1 {
        fill: #306f34;
      }

      .cls-2 {
        fill: none;
        stroke: #000;
        stroke-linecap: round;
        stroke-linejoin: round;
        stroke-width: 1.87px;
      }
    </style>
  </defs>
  <path class="cls-1" d="M280.08,347.47c28.43,13.28,42.65,19.93,45.41,22.38,6.34,5.64,12.25,13.99,19.9,75.14,8.54,68.25,3.66,77.64-2.41,81.87-13.1,9.13-29.6-7.25-39.94.59-20.91,15.85,36.94,90.18,11.46,132.45-19.08,31.66-81.39,39.53-103.49,17.35-11.13-11.17-7.66-25.54-7.95-61.35-.6-75.83-17.08-132.21-19.05-132.02-1.71.17,5.85,43.2-1.5,102.52-4.57,36.91-14.26,74.87-18.44,74.37-3.28-.4-3.1-24.63-3.02-35.9.27-35.53,5.79-40.7,1.83-59.83-1.19-5.76-5.53-15.94-14.22-36.31-13.14-30.82-13.88-27.78-15.67-35.5-4.98-21.44,5.11-25.98,9.33-67.13,2.94-28.64-1.11-34.67,6.34-43.15,8.97-10.22,21.16-8.68,33.84-23.32,1.7-1.96,4.24-5.18,8.41-5.86,7.26-1.18,10.19,6.85,17.29,8.66,14.2,3.62,23.65-23.14,44.85-24.92,3.97-.33,6.48.37,27.03,9.97Z"/>
  <path class="cls-1" d="M681.47,358.24c-28.43,13.28-42.65,19.93-45.41,22.38-6.34,5.64-12.25,13.99-19.9,75.14-8.54,68.25-3.66,77.64,2.41,81.87,13.1,9.13,29.6-7.25,39.94.59,20.91,15.85-36.94,90.18-11.46,132.45,19.08,31.66,81.39,39.53,103.49,17.35,11.13-11.17,7.66-25.54,7.95-61.35.6-75.83,17.08-132.21,19.05-132.02,1.71.17-5.85,43.2,1.5,102.52,4.57,36.91,14.26,74.87,18.44,74.37,3.28-.4,3.1-24.63,3.02-35.9-.27-35.53-5.79-40.7-1.83-59.83,1.19-5.76,5.53-15.94,14.22-36.31,13.14-30.82,13.88-27.78,15.67-35.5,4.98-21.44-5.11-25.98-9.33-67.13-2.94-28.64,1.11-34.67-6.34-43.15-8.97-10.22-21.16-8.68-33.84-23.32-1.7-1.96-4.24-5.18-8.41-5.86-7.26-1.18-10.19,6.85-17.29,8.66-14.2,3.62-23.65-23.14-44.85-24.92-3.97-.33-6.48.37-27.03,9.97Z"/>
  <g>
    <path class="cls-2" d="M278.27,347.47c7.16,3.76,15.07,5.6,22.43,8.86,8.64,3.83,17.44,7.26,24.79,13.52,5.6,4.77,8.47,11.03,10.17,17.81,4.19,16.74,7.04,33.73,9.01,50.9,1.87,16.32,3.31,32.65,4.24,49.05.46,8.1.89,16.19.83,24.3,0,1.25.17,2.52-.03,3.73-1.74,10.82-4.1,11.65-13.52,11.79-20.74.3-41-3.2-61.19-7.18-11.96-2.36-23.87-5.1-35.51-8.83-4.73-1.52-7.26-1.38-4.81-8.89,2.14-6.56,4.28-13.1,6.6-19.6,1.5-4.21,3.91-5.78,8.46-6.21,10.88-1.02,21.49,1.42,32.24,1.78,3.96.13,8.14,1.12,12.16,2.07,1.2.28,2.52.04,4.14.04.24-4.19-1.15-7.2-3.69-9.81"/>
    <path class="cls-2" d="M163.82,528.73c.99,1.14.42,2.5.44,3.74.39,30.52-.43,61.04-.58,91.56-.05,9.64.14,19.33-.78,28.97-.23,2.39.17,4.73,1.18,7.77,3.38-6.03,5.25-12.09,7.17-18.06,4.64-14.47,8.06-29.23,9.93-44.36,1.03-8.4,1.99-16.81,2.19-25.24.32-13.7.22-27.41.05-41.11-.2-15.9-2.11-31.73-1.83-47.65,6.5-2.87,8.14-1.97,9.34,5.14,2.07,12.22,2.55,24.6,3.82,36.9.95,9.19,1.66,18.4,2.53,27.59,1.08,11.5,2,23.03,3.01,34.55.94,10.6,2.1,21.19,3.27,31.77,1.14,10.31,2.41,20.61,4.2,30.83,1.08,6.19,2.32,12.32,4.61,18.24,2.79,7.2,8.08,10.59,15.47,10.67,13.12.16,26.19-.6,39.26-2.13,9.91-1.16,19.75-2.34,29.42-4.8,3.16-.8,6.13-2.19,9.34-2.83"/>
    <path class="cls-2" d="M139.99,478.28c-4.91.15-6.75,1.85-6.97,7.01-.23,5.31,1.21,10.36,2.71,15.43,2.56,8.68,6.31,16.73,11.21,24.31,1.24,1.91,2.68,3.55,4.28,5.09,2.15,2.07,4.87,2.73,7.41,1.33,2.46-1.36,4.87-2.64,5.34-6.43,1.29-10.43-1.23-20.57-1.26-31-6.47,3.19-14.03-.13-18.62-7.26-1.66-2.57-1.84-5.46-3.16-8.01"/>
    <path class="cls-2" d="M298.36,526.86c-2.42,10.36.55,20.56.94,30.89-13.81,2.07-27.72,3.61-41.13,7.83-2.87.9-5.37,2.33-7.93,3.78-2.2,1.25-3.6,2.94-3.25,5.61.35,2.72,2.11,3.83,4.63,4.76,5.75,2.14,11.46,1.83,17.32.87,7.06-1.15,13.97-2.49,20.61-5.51,6.75-3.08,9.69-7.98,9.77-15.07,0-.64-.32-1.4.28-1.76,1.75-.77,2.21,1.16,3.45,1.29"/>
    <path class="cls-2" d="M298.83,528.73c2.39,2.85,2.1,6.52,2.71,9.83,1.89,10.17,3.33,20.55,3.1,30.81-.27,11.86.2,23.69.44,35.51.42,20.71,1.06,41.43,1.65,62.14.02.59.75.8.5,1.4"/>
    <path class="cls-2" d="M305.83,572.64c2.14,4.92,1.9,10.29,2.68,15.43,1.55,10.25,3.09,20.52,4.28,30.82,1.41,12.25,3.04,24.51,2.38,36.9-.34,6.31-3.44,10.91-9.01,13.82,1.89,6.64,1.08,13.29,1.4,19.82.54,10.88-.08,21.82,1.05,32.7.13,1.24.21,2.55-.44,3.74,25.4,17.19,76.9,46.92,148.4,54.31,98.44,10.17,172.5-28.47,198.49-43.66"/>
    <path class="cls-2" d="M253.51,255.44c3.88,1.95,4.56,5.56,4.65,9.34.26,10.48,1.42,20.89,2.45,31.29,1.37,13.81-1.06,26.45-10,37.3-1.72,2.08-2.79,4.21-3.64,6.62"/>
    <path class="cls-2" d="M200.72,277.4c2.98.67,2.94-1.26,2.8-3.27-.14-2.18-.49-4.33-.51-6.54-.07-8.44,3.85-11.76,11.26-12.03,11.98-.44,23.99-.54,35.96-1.13,6.3-.31,12.34-2.3,18.72-4.22-7.5-8.19-13.81-16.9-23.42-21.79-15.11-7.69-30.8-11.07-47.13-3.75-6.21,2.79-6.68,7.15-2.42,12.6,4.17,5.33,9.31,9.87,12.67,15.84"/>
    <path class="cls-2" d="M190.45,358.22c1.73,5.45.31,11.11-.44,16.29-.67,4.64-1.31,9.49-1.67,14.1-1.48,18.85-3.74,37.63-4.9,56.51-.17,2.8-1.69,5.53-.45,8.4.02.06.33.06.44,0,.18-.11.32-.3.47-.45"/>
    <path class="cls-2" d="M211,369.43c-8.88,2.63-10.96,9.75-11.68,17.75-1.13,12.63-2.05,25.27-3.76,37.84-.9,6.6-4.05,12.46-7.17,18.12-1.62,2.94-2.14,6.24-4.02,8.98"/>
    <path class="cls-2" d="M205.86,257.78c-4.16-.88-6.34,1.81-8.4,4.68-1.87,2.61-.27,4.87.96,6.98,3.22,5.48,3.22,5.98-.96,10.3-2.8,2.89-3.62,6.26-2.86,10.28,1.93,10.12,4.02,20.17,7.5,29.9,1.59,4.43,3.54,8.72,6.15,12.57,7.28,10.72,22.1,13.86,34,8.82,2.51-1.06,4.65-1.23,7.05-.37"/>
    <path class="cls-2" d="M192.78,233.95c-2.51-1.3-4.06.19-5.61,1.86-6.16,6.63-9.45,14.57-11.27,23.35-1.69,8.11-.32,14.72,6.01,20.7,5.21,4.93,9.54,10.93,10.36,18.56.11,1.04.59,2.3-.42,3.26"/>
    <path class="cls-2" d="M235.76,363.82c-.19,5.21-3.84,8.91-6.21,13-9.48,16.39-19.18,32.65-29.17,48.74-2.3,3.71-.86,8.25,1.29,12.05,2.26,3.99,5.79,7.12,7.98,11.04-.6,1.1-1.79,1.59-2.34,1.06-4.28-4.11-8.35-8.2-10.11-14.36-.8-2.82-.32-5.41,1.26-5.85,2-.56,4.78-3.03,6.89-.26,6.31,8.29,15.55,14.17,19.69,24.25,1.86,4.53.5,8.85-.6,13.07-1.4,5.41-3.47,10.53-6.22,15.57-3.37,6.18-9.45,7.6-16.57,4.97-9.71-3.58-17.55-9.02-18.79-20.51-.07-.69-.58-1.73-1.32-2.35"/>
    <path class="cls-2" d="M191.85,311.03c2.64,9.17,3.21,18.65,2.57,28.01-.34,4.94.89,10.25-2.02,15.02-1.14,1.87-2.08,3.15-4.2,4.32-6.99,3.83-13.13,9.07-20.15,12.97-3.9,2.16-8.17,3.42-11.81,6.37-6.15,4.98-9.29,11.08-10.24,18.8-1.38,11.18-1.03,22.5-2.77,33.64-.39,2.48,1.03,4.63.96,7.01"/>
    <path class="cls-2" d="M191.38,310.1c1.71-6.13-2.37-10.94-3.83-16.33-.89-3.28-2.37-6.55-5.07-8.88-3.33-2.87-7.08-1.56-7.38,2.78-.64,9.44,3.11,17.28,9.76,23.8,2.03,1.99,4.21,2.12,6.05-.44"/>
    <path class="cls-2" d="M165.22,373.63c-.66,1.92-2.3,3.23-3.79,4.11-7.22,4.29-8.82,11.32-9.76,18.78-1.54,12.23-1.96,24.64-6.02,36.46-.28.81-.48,1.62-.99,2.32"/>
    <path class="cls-2" d="M154.01,453.05c1.93-4.03,5.93-6.85,6.61-11.67.26-1.85,1.08-3.65-.56-5.12-1.43-1.29-2.81-.12-4.19.43-7.26,2.88-10.21,9.17-12.61,15.9-2.97,8.34-3.01,17-2.8,25.69"/>
    <path class="cls-2" d="M218.48,442.3c-.94-7.41,4.06-12.15,7.98-17.25,8.79-11.43,18.15-22.42,26.63-34.1,2.71-3.73,3.9-7.1.97-11.3-1.28-1.84-1.94-4.2-2.6-6.69,2.37-1.86,4.55.39,6.73.4,3.82.02,5.92-1.75,6.43-4.89.85-5.25,2.06-10.47,2.02-15.87-.02-3.71-1.3-6.63-4.24-8.89-1.86-1.42-3.67-2.88-5.55-4.28-2.73-2.02-5.4-2.48-8.47-1.32"/>
    <path class="cls-2" d="M238.1,470.8c-.91,9.74-2.98,19.22-6.06,28.5-.09.28.12.71-.03.92-1.85,2.5-1.7,7.37-6.5,6.46-4.09-.77-6.96-6.78-5.59-11.11,1.48-4.66,3.92-8.98,5.49-13.59,2.56-7.55,5.35-15.22,1.95-23.33"/>
    <path class="cls-2" d="M285.75,477.81c8.89-2.07,10.11-4.12,6.95-13.06-2-5.65-1.29-11.61-2.68-17.32-1.73-7.12-2.53-14.45-4.65-21.5-.26-.87-.93-1.4-1.08-2.3-.15-.91-.57-1.93-1.82-1.87-1.45.07-1.65,1.08-1.91,2.32-1.24,5.99.06,11.62,1.85,17.31,1.91,6.04,4.13,11.9,7.53,17.27"/>
    <path class="cls-2" d="M182.5,453.98c-.68,6.6-3.23,12.77-4.52,19.18-2.82,13.96-8.92,26.86-12.3,40.61"/>
    <path class="cls-2" d="M247.44,341.4c-3.5,8.49-7.24,16.8-13.97,23.4-2.52,2.47-3.91,5.93-6.57,8.38-2.46,2.25-6.66,2.56-9.34.44-3.72-2.94-7.38-5.95-8.89-10.73"/>
    <path class="cls-2" d="M142.33,479.68c7.75,2.42,13.28,7.89,18.69,13.55"/>
    <path class="cls-2" d="M176.9,474.54c-2.49,2.49-4.86,5.12-7.5,7.44-3.47,3.05-5.88,6.6-6.51,11.25"/>
    <path class="cls-2" d="M205.86,362.42c-2.02-5.22-4.87-10.03-7.58-14.89-.53-.95-1.28-3.51-3.63-1.93"/>
    <path class="cls-2" d="M225.48,345.13c-7.36,6.35-13.54,13.92-20.74,20.35-3.92,3.51-8.39,7.1-13.84,8.61"/>
    <path class="cls-2" d="M160.08,445.58c3.04-1.21,4.54-4.23,7.03-6.05,6.78-4.96,9.49-2.32,11.7,3.7,1.17,3.2.43,6.7,1.83,9.82"/>
    <path class="cls-2" d="M217.54,374.57c-1.21,4.02-4.6,3.6-7.45,3.13-1.93-.32-4.03-1.19-5.63-2.66"/>
    <path class="cls-2" d="M235.29,467.06c3.28,5.52,9.31,5.41,14.5,6.95,1.08.32,2.24.4,3.25.99"/>
    <path class="cls-2" d="M203.53,367.56c1.05,1.87-1.46,3.74,0,5.61"/>
  </g>
  <g>
    <path class="cls-2" d="M684.96,358.12c-7.16,3.76-15.07,5.6-22.43,8.86-8.64,3.83-17.44,7.26-24.79,13.52-5.6,4.77-8.47,11.03-10.17,17.81-4.19,16.74-7.04,33.73-9.01,50.9-1.87,16.32-3.31,32.65-4.24,49.05-.46,8.1-.89,16.19-.83,24.3,0,1.25-.17,2.52.03,3.73,1.74,10.82,4.1,11.65,13.52,11.79,20.74.3,41-3.2,61.19-7.18,11.96-2.36,23.87-5.1,35.51-8.83,4.73-1.52,7.26-1.38,4.81-8.89-2.14-6.56-4.28-13.1-6.6-19.6-1.5-4.21-3.91-5.78-8.46-6.21-10.88-1.02-21.49,1.42-32.24,1.78-3.96.13-8.14,1.12-12.16,2.07-1.2.28-2.52.04-4.14.04-.24-4.19,1.15-7.2,3.69-9.81"/>
    <path class="cls-2" d="M799.42,539.38c-.99,1.14-.42,2.5-.44,3.74-.39,30.52.43,61.04.58,91.56.05,9.64-.14,19.33.78,28.97.23,2.39-.17,4.73-1.18,7.77-3.38-6.03-5.25-12.09-7.17-18.06-4.64-14.47-8.06-29.23-9.93-44.36-1.03-8.4-1.99-16.81-2.19-25.24-.32-13.7-.22-27.41-.05-41.11.2-15.9,2.11-31.73,1.83-47.65-6.5-2.87-8.14-1.97-9.34,5.14-2.07,12.22-2.55,24.6-3.82,36.9-.95,9.19-1.66,18.4-2.53,27.59-1.08,11.5-2,23.03-3.01,34.55-.94,10.6-2.1,21.19-3.27,31.77-1.14,10.31-2.41,20.61-4.2,30.83-1.08,6.19-2.32,12.32-4.61,18.24-2.79,7.2-8.08,10.59-15.47,10.67-13.12.16-26.19-.6-39.26-2.13-9.91-1.16-19.75-2.34-29.42-4.8-3.16-.8-6.13-2.19-9.34-2.83"/>
    <path class="cls-2" d="M823.24,488.92c4.91.15,6.75,1.85,6.97,7.01.23,5.31-1.21,10.36-2.71,15.43-2.56,8.68-6.31,16.73-11.21,24.31-1.24,1.91-2.68,3.55-4.28,5.09-2.15,2.07-4.87,2.73-7.41,1.33-2.46-1.36-4.87-2.64-5.34-6.43-1.29-10.43,1.23-20.57,1.26-31,6.47,3.19,14.03-.13,18.62-7.26,1.66-2.57,1.84-5.46,3.16-8.01"/>
    <path class="cls-2" d="M664.88,537.51c2.42,10.36-.55,20.56-.94,30.89,13.81,2.07,27.72,3.61,41.13,7.83,2.87.9,5.37,2.33,7.93,3.78,2.2,1.25,3.6,2.94,3.25,5.61-.35,2.72-2.11,3.83-4.63,4.76-5.75,2.14-11.46,1.83-17.32.87-7.06-1.15-13.97-2.49-20.61-5.51-6.75-3.08-9.69-7.98-9.77-15.07,0-.64.32-1.4-.28-1.76-1.75-.77-2.21,1.16-3.45,1.29"/>
    <path class="cls-2" d="M664.41,539.38c-2.39,2.85-2.1,6.52-2.71,9.83-1.89,10.17-3.33,20.55-3.1,30.81.27,11.86-.2,23.69-.44,35.51-.42,20.71-1.06,41.43-1.65,62.14-.02.59-.75.8-.5,1.4"/>
    <path class="cls-2" d="M657.4,583.29c-2.14,4.92-1.9,10.29-2.68,15.43-1.55,10.25-3.09,20.52-4.28,30.82-1.41,12.25-3.04,24.51-2.38,36.9.34,6.31,3.44,10.91,9.01,13.82-1.89,6.64-1.08,13.29-1.4,19.82-.54,10.88.08,21.82-1.05,32.7-.13,1.24-.21,2.55.45,3.74"/>
    <path class="cls-2" d="M709.72,266.09c-3.88,1.95-4.56,5.56-4.65,9.34-.26,10.48-1.42,20.89-2.45,31.29-1.37,13.81,1.06,26.45,10,37.3,1.72,2.08,2.79,4.21,3.64,6.62"/>
    <path class="cls-2" d="M762.51,288.04c-2.98.67-2.94-1.26-2.8-3.27.14-2.18.49-4.33.51-6.54.07-8.44-3.85-11.76-11.26-12.03-11.98-.44-23.99-.54-35.96-1.13-6.3-.31-12.34-2.3-18.72-4.22,7.5-8.19,13.81-16.9,23.42-21.79,15.11-7.69,30.8-11.07,47.13-3.75,6.21,2.79,6.68,7.15,2.42,12.6-4.17,5.33-9.31,9.87-12.67,15.84"/>
    <path class="cls-2" d="M772.79,368.86c-1.73,5.45-.31,11.11.44,16.29.67,4.64,1.31,9.49,1.67,14.1,1.48,18.85,3.74,37.63,4.9,56.51.17,2.8,1.69,5.53.45,8.4-.02.06-.33.06-.44,0-.18-.11-.32-.3-.47-.45"/>
    <path class="cls-2" d="M752.23,380.07c8.88,2.63,10.96,9.75,11.68,17.75,1.13,12.63,2.05,25.27,3.76,37.84.9,6.6,4.05,12.46,7.17,18.12,1.62,2.94,2.14,6.24,4.02,8.98"/>
    <path class="cls-2" d="M757.37,268.42c4.16-.88,6.34,1.81,8.4,4.68,1.87,2.61.27,4.87-.96,6.98-3.22,5.48-3.22,5.98.96,10.3,2.8,2.89,3.62,6.26,2.86,10.28-1.93,10.12-4.02,20.17-7.5,29.9-1.59,4.43-3.54,8.72-6.15,12.57-7.28,10.72-22.1,13.86-34,8.82-2.51-1.06-4.65-1.23-7.05-.37"/>
    <path class="cls-2" d="M770.45,244.6c2.51-1.3,4.06.19,5.61,1.86,6.16,6.63,9.45,14.57,11.27,23.35,1.69,8.11.32,14.72-6.01,20.7-5.21,4.93-9.54,10.93-10.36,18.56-.11,1.04-.59,2.3.42,3.26"/>
    <path class="cls-2" d="M727.48,374.47c.19,5.21,3.84,8.91,6.21,13,9.48,16.39,19.18,32.65,29.17,48.74,2.3,3.71.86,8.25-1.29,12.05-2.26,3.99-5.79,7.12-7.98,11.04.6,1.1,1.79,1.59,2.34,1.06,4.28-4.11,8.35-8.2,10.11-14.36.8-2.82.32-5.41-1.26-5.85-2-.56-4.78-3.03-6.89-.26-6.31,8.29-15.55,14.17-19.69,24.25-1.86,4.53-.5,8.85.6,13.07,1.4,5.41,3.47,10.53,6.22,15.57,3.37,6.18,9.45,7.6,16.57,4.97,9.71-3.58,17.55-9.02,18.79-20.51.07-.69.58-1.73,1.32-2.35"/>
    <path class="cls-2" d="M771.39,321.68c-2.64,9.17-3.21,18.65-2.57,28.01.34,4.94-.89,10.25,2.02,15.02,1.14,1.87,2.08,3.15,4.2,4.32,6.99,3.83,13.13,9.07,20.15,12.97,3.9,2.16,8.17,3.42,11.81,6.37,6.15,4.98,9.29,11.08,10.24,18.8,1.38,11.18,1.03,22.5,2.77,33.64.39,2.48-1.03,4.63-.96,7.01"/>
    <path class="cls-2" d="M771.86,320.74c-1.71-6.13,2.37-10.94,3.83-16.33.89-3.28,2.37-6.55,5.07-8.88,3.33-2.87,7.08-1.56,7.38,2.78.64,9.44-3.11,17.28-9.76,23.8-2.03,1.99-4.21,2.12-6.05-.44"/>
    <path class="cls-2" d="M798.02,384.28c.66,1.92,2.3,3.23,3.79,4.11,7.22,4.29,8.82,11.32,9.76,18.78,1.54,12.23,1.96,24.64,6.02,36.46.28.81.48,1.62.99,2.32"/>
    <path class="cls-2" d="M809.23,463.7c-1.93-4.03-5.93-6.85-6.61-11.67-.26-1.85-1.08-3.65.56-5.12,1.43-1.29,2.81-.12,4.19.43,7.26,2.88,10.21,9.17,12.61,15.9,2.97,8.34,3.01,17,2.8,25.69"/>
    <path class="cls-2" d="M744.76,452.95c.94-7.41-4.06-12.15-7.98-17.25-8.79-11.43-18.15-22.42-26.63-34.1-2.71-3.73-3.9-7.1-.97-11.3,1.28-1.84,1.94-4.2,2.6-6.69-2.37-1.86-4.55.39-6.73.4-3.82.02-5.92-1.75-6.43-4.89-.85-5.25-2.06-10.47-2.02-15.87.02-3.71,1.3-6.63,4.24-8.89,1.86-1.42,3.67-2.88,5.55-4.28,2.73-2.02,5.4-2.48,8.47-1.32"/>
    <path class="cls-2" d="M725.14,481.45c.91,9.74,2.98,19.22,6.06,28.5.09.28-.12.71.03.92,1.85,2.5,1.7,7.37,6.5,6.46,4.09-.77,6.96-6.78,5.59-11.11-1.48-4.66-3.92-8.98-5.49-13.59-2.56-7.55-5.35-15.22-1.95-23.33"/>
    <path class="cls-2" d="M677.49,488.46c-8.89-2.07-10.11-4.12-6.95-13.06,2-5.65,1.29-11.61,2.68-17.32,1.73-7.12,2.53-14.45,4.65-21.5.26-.87.93-1.4,1.08-2.3.15-.91.57-1.93,1.82-1.87,1.45.07,1.65,1.08,1.91,2.32,1.24,5.99-.06,11.62-1.85,17.31-1.91,6.04-4.13,11.9-7.53,17.27"/>
    <path class="cls-2" d="M780.73,464.63c.68,6.6,3.23,12.77,4.52,19.18,2.82,13.96,8.92,26.86,12.3,40.61"/>
    <path class="cls-2" d="M715.8,352.04c3.5,8.49,7.24,16.8,13.97,23.4,2.52,2.47,3.91,5.93,6.57,8.38,2.46,2.25,6.66,2.56,9.34.44,3.72-2.94,7.38-5.95,8.89-10.73"/>
    <path class="cls-2" d="M820.91,490.32c-7.75,2.42-13.28,7.89-18.69,13.55"/>
    <path class="cls-2" d="M786.34,485.19c2.49,2.49,4.86,5.12,7.5,7.44,3.47,3.05,5.88,6.6,6.51,11.25"/>
    <path class="cls-2" d="M757.37,373.07c2.02-5.22,4.87-10.03,7.58-14.89.53-.95,1.28-3.51,3.63-1.93"/>
    <path class="cls-2" d="M737.75,355.78c7.36,6.35,13.54,13.92,20.74,20.35,3.92,3.51,8.39,7.1,13.84,8.61"/>
    <path class="cls-2" d="M803.16,456.22c-3.04-1.21-4.54-4.23-7.03-6.05-6.78-4.96-9.49-2.32-11.7,3.7-1.17,3.2-.43,6.7-1.83,9.82"/>
    <path class="cls-2" d="M745.69,385.21c1.21,4.02,4.6,3.6,7.45,3.13,1.93-.32,4.03-1.19,5.63-2.66"/>
    <path class="cls-2" d="M727.94,477.71c-3.28,5.52-9.31,5.41-14.5,6.95-1.08.32-2.24.4-3.25.99"/>
    <path class="cls-2" d="M759.71,378.21c-1.05,1.87,1.46,3.74,0,5.61"/>
  </g>
</svg>