<?xml version="1.0" encoding="UTF-8"?>
<svg id="Layer_1" data-name="Layer 1" xmlns="http://www.w3.org/2000/svg" viewBox="0 0 1080 1080">
  <defs>
    <style>
      .cls-1 {
        fill: #306f34;
      }

      .cls-2 {
        fill: none;
        stroke: #000;
        stroke-linecap: round;
        stroke-linejoin: round;
        stroke-width: 2.46px;
      }
    </style>
  </defs>
  <path class="cls-1" d="M436.79,489.57c19.18-25.27,67.61,11.47,171.4-.64,48.15-5.62,70.18-17.32,89-2.43,25.29,20.01,30.9,71.36,9.17,94.32-14.33,15.14-32.14,9.02-90.83,8.76-101.49-.43-121.22,17.57-149.17-2.98-31.2-22.95-46.51-74.73-29.58-97.03Z"/>
  <g>
    <path class="cls-2" d="M308.76,488.96c-2.03,2.86-3.83,5.81-4.94,9.19-2.57,7.84-.12,14.57,7.44,17.05,7.67,2.52,15.65,3.16,23.9,2.12,13.02-1.64,25.79-4.45,39.1-8.05.25,5.67-3.04,7.65-6,9.74-14.15,9.99-30.29,13.7-47.24,14.71-3.87.23-7.79-.25-11.65.09-9.87.86-15.94-3.82-20.4-12.25-2.34-4.42-3.63-9.62-8.54-13.53-11.38,20.47-22.79,40.58-25.76,64.37-2.79,22.3-2.92,44.67-.92,66.87,3.69,40.92,12.89,80.84,24.14,120.34,2.1,7.38,4.2,14.92,5.33,22.96-28.23,1.28-56.26,1.72-84.3,1.53"/>
    <path class="cls-2" d="M484.25,737.46c-3.25-4.5-.3-9.16.31-13.45.64-4.48,1.64-9.18,3.38-13.54,4.61-11.54-.08-22.57-1.86-33.75-1.62-10.17-2.14-20.39-2.64-30.67-.42-8.48-3.05-16.79-4.71-25.17-2.07-10.43-4.77-20.73-6.22-31.18,2.49-.98,4.99-.67,7.46-.73,30.7-.83,61.35,1.43,92.04,1.35,9.8-.02,19.62.91,29.45,1.19,19.46.55,38.92.25,58.28-1.48,13.77-1.23,27.75-1.64,41.14-5.93,6.41-2.05,7.33-3.17,6.75-9.24-2.1-22.05-3.84-44.13-4.95-66.26-.32-6.36-1.67-12.64-1.08-18.94-4.41-1.57-8.1-.1-11.78-.06-20.66.24-41.32-.49-61.97.55-21.05,1.06-42.15.05-63.19.81-24.96.9-49.92.52-74.86,1.26-17.18.51-34.43-.64-51.66,1.66-2.26,9.29-.17,18.87-1.63,28.24-.18,1.15,1.37,2.64,1.56,3.7.53,3.07-.06,6.32-4.11,6.68-20.6,1.85-31.32,14.34-36.91,33.14-4.19,14.09-5.58,28.46-5.97,42.98-.33,12.26.11,24.54-.1,36.81-.48,28.05,6.21,54.6,16.62,80.37,6.09,15.08,12.59,29.94,22.63,43,7.24,9.42,16.56,13.65,28.28,14.14,26.67,1.12,48.49-11.31,69.89-24.72,7.62-4.77,7.23-12.4,5-20.16-2.7-9.41-3.94-19.06-3.62-28.83.16-4.77-1.46-6.45-6.23-6.22-6.73.33-13.49.09-20.24.08-3.43,0-4.6,1.17-3.79,4.93,1.8,8.35,3.76,16.66,5.17,25.11.66,3.96-.27,6.45-3.13,9.09-3.52-2.32-4.4-5.7-5.76-9.01-1.1-2.68-.8-6.07-3.54-8.03"/>
    <path class="cls-2" d="M776.31,319.61c7.25,9.25,7.16,12.14.7,22.14-2.57,3.97-5.14,7.97-8.17,11.51-3.96,4.61-5.99,9.04-5.02,15.47,1.03,6.82,1.91,13.61,3.91,20.21,1.68,5.55,4.85,8.95,10.99,10.6,22,5.92,42.26,15.78,60.11,29.98,15.13,12.04,22.84,28.61,27.12,47.15,4.36,18.85,7.01,37.96,9.83,57.07,1.43,9.67,4.2,19.12,5.43,28.85.67,5.31,1.69,10.64,1.74,15.95.19,17.59.86,35.23-1.22,52.76-.78,6.59-1.49,13.32-3.68,19.61-2.16,6.21-7.35,9.43-13.36,11.78-6.19,2.42-12.6,3.83-19.07,4.68-4.64.61-5.68,2.54-5.6,6.89.24,14.32.48,28.67-1.13,42.95-2.21,19.51-5.59,38.8-11.19,57.63-.69,2.33-.94,4.5-1.19,8.05,32.22.07,64.33-1.84,96.45-1.26"/>
    <path class="cls-2" d="M351.71,414.1c-1.51-14.9-3.8-29.75-1.28-44.8,2.5-14.91,5.51-29.72,10.01-44.12,2.6-8.31,5.2-16.7,9.26-24.44-2.45-2.61-4.69-.59-6.95-.16-11.65,2.2-22.78,6.09-33.73,10.47-17.47,6.98-27.91,20.89-34.86,37.45-7.25,17.3-14.94,34.43-19.94,52.67-5.1,18.61-9.36,37.11-5.94,56.49,2.03,11.48,7.46,21.8,11.79,32.46,1,2.46,3.54,4.23,7.27,2.66,3.71-1.56,7.87-2.11,11.59-3.84,4.12-1.91,7.82-1.6,12.36-.26,7.86,2.32,16.33,1.25,24.45.73,13.83-.88,27.29-4.79,41.11-6.06,1.02-.09,2.66-.13,3.08-1.76"/>
    <path class="cls-2" d="M855.47,609.22c-2.33-.01-4.68-.13-6.75,1.23-4.9,3.24-10.39,3.24-15.96,3.09-6.39-.17-12.32,2.03-18.44,3.52-10.22,2.49-19.99,6.55-30.63,7.66-8.3.87-9.74,3.33-9.82,12.11-.07,7.16.42,14.35-.15,21.46-.45,5.58,2.68,7.17,6.9,7.94,8.91,1.63,17.99,1.85,27,2.35,6.91.39,13.9.69,20.87-.39,3.8-.58,5.96,1.97,6.7,5.45,1.65,7.71,1.77,15.49.74,23.32-.17,1.26-.64,2.39-.75,3.67-.99,11.44-.95,11.8-12.24,14.04-27.18,5.4-54.33,10.89-82.2,11.94-10.43.4-20.86,1.09-31.3.98-14.77-.15-29.3-2.29-43.56-6.12-3.02-.81-5.94-1.9-6.75-5.5"/>
    <path class="cls-2" d="M719.86,460.73c2.26-5.52,6.56-8.85,11.61-11.74,5.71-3.26,10.48-7.7,14.85-12.73,8.16-9.39,17.32-17.84,26.16-26.6,3.52-3.49,6.35-4.01,10.59-2.36,10.94,4.27,22.13,7.97,32.13,14.72-5.53,15.66-9.39,31.72-11.6,47.95-1.78,13.1-2.8,26.44-1.72,39.86.69,8.54.5,17.2,1.45,25.75,1.68,15.26,3.68,30.46,7.26,45.43,1.03,4.31,3.42,5.44,7.44,5.57,9.51.29,18.41-2.9,27.61-4.39,7.97-1.29,15.88-3.36,23.93-.58"/>
    <path class="cls-2" d="M398.96,341.08c-1.96-4.33.47-8.27,1.33-12.25,1.16-5.37,2.33-10.75,4.02-16.03.86-2.69,1.06-6.17-3.46-7.47-2.51-.72-4.69-2.88-7.41-3.5-8.39-1.9-11.43-.42-15.96,7.34-8.23,14.12-12,29.84-15.8,45.45-3.34,13.71-6.44,27.54-7.46,41.69-.14,1.98-1.32,3.07-2.5,4.29"/>
    <path class="cls-2" d="M409.39,403.06c-.51-5.37-3.19-10.08-6.38-13.91-2.11-2.53-1.7-4.61-.85-6.27,3-5.86,5.9-11.82,9.7-17.23.65-.93,1.61-1.65,2.43-2.47,6.57-6.56,13.49-5.94,17,2.53,3.55,8.58,7.69,17.13,7.77,26.92.02,2.47.16,5.02-.32,7.34-1.24,5.93.09,11.46,1.1,17.24.9,5.14.93,10.72-1,15.91-4.69,12.6-9.22,25.2-11.14,38.64-1.08,7.59-9.66,15.25-18.31,14.09-4.33-.58-9.29,2.07-12.89-2.42"/>
    <path class="cls-2" d="M734.59,624.56c7.81-.33,15.52,1.12,23.31,1.33,9.65.26,11.55,2.71,11.16,10.95-.91,19.02-6.88,36.34-16.06,52.77-5.76,10.32-11.74,20.4-22.05,27.08-1.81,1.17-3.88,2.42-5.56,2.21-6.85-.89-13.38,2.25-20.3.91-4.49-.87-8.17,2.12-11.63,4.77"/>
    <path class="cls-2" d="M438.84,527c7.31,6.08,10.44,14.57,12.13,23.34,3.37,17.46,8.58,34.31,14.84,50.91,5.58,14.8,10.71,29.76,13.57,45.39.09.47.78.83,1.19,1.23"/>
    <path class="cls-2" d="M670.78,314.7c-1.82,15.28,1.62,30.27,2.54,45.4.38,6.3,3.52,11.91,6.78,17.12,3.52,5.63,6.3,11.46,7.84,17.87,2.4,9.98,5.99,9.32,12.92,8.03,4.55-.85,9.15-1.25,13.54-3,1.3-.52,3.22-1.69,4.86-.13"/>
    <path class="cls-2" d="M630.28,596.95c-1.19,6.6-.8,14.4-4.67,19.34-5.22,6.69-8.48,14.29-13.1,21.17-9.04,13.46-17.47,27.35-30.66,37.47-6.7,5.15-13.86,10.69-21.62,12.36-12.99,2.79-25.29,8.11-38.54,9.79-3.88.49-7.8,1.04-11.68,1.67-8.69,1.42-9.16,1-13.5-7.3-4.35-8.32-6.34-17.4-8.51-26.41-.41-1.71-.73-3.09-2.53-3.66"/>
    <path class="cls-2" d="M640.71,725.8c-1.78,7.02-1.75,7.9-8.64,5.03-12.06-5.01-23.99-10.43-36.73-13.76-3.04-.79-5.67-.5-7.96.83-12.22,7.05-24.79,13.48-36.84,20.82-3.38,2.06-8.53,1.61-9.84,6.71"/>
    <path class="cls-2" d="M608.19,495.09c1.43,5.65.94,11.51,1.02,17.18.22,16.57.87,33.13.76,49.7-.06,9.22.89,18.4.68,27.61"/>
    <path class="cls-2" d="M679.37,425.15c-13.03-.86-24.78,4.48-36.74,8.2-5.97,1.86-9.28,7.83-12.35,13.27-6.23,11.04-10.64,22.81-14.17,34.96-.81,2.78-.74,5.34.06,7.99"/>
    <path class="cls-2" d="M739.5,311.02c-.5,1.43-1.07,2.73-.04,4.32,3.12,4.81,7.61,7.94,12.21,11.17,2.43,1.71,3.96.95,5.59-.19,5.77-4.03,11.3-8.11,19.07-7.52,2.31.17,4.57-1.8,5.02-5.3,1.3-10.22-.86-19.57-4.95-28.89-6.41-14.62-16.24-26.27-32.07-28.97-12.3-2.1-24.86-3.55-38.07-.97-18.08,3.54-27.53,13.82-33.11,29.95-1.54,4.46-2.48,8.86-2.37,13.53"/>
    <path class="cls-2" d="M697.16,588.97c8.44.72,16.69-1.81,25.16-1.31,8.05.48,8.63,1.47,9.99,9.25,1.55,8.84.54,17.63.97,26.42.29,5.99-3.4,9.61-8.46,12.36-2.61,1.42-5.21,2.72-8.03,3.58-8.72,2.65-15.61,7.97-21.44,14.77-1.75,2.04-4.55,4.1-2.44,7.3,2.15,3.25,5.08,4.3,9.18,3.2,6.3-1.69,11.91-4.82,17.8-7.38,4.42-1.92,8.3-4.13,10.39-8.67"/>
    <path class="cls-2" d="M878.78,581c-7.57-1.15-13.51,3.69-20.21,5.65-11.64,3.41-23.05,7.48-33.28,14.44-2.82,1.92-4.81,3.65-5.58,7.03,6.89.98,13.67.25,20.41.51,2.29.09,4.77-.69,6.75,1.21"/>
    <path class="cls-2" d="M724.16,656.47c-.13,5.21-4.11,8.6-6.27,12.82-3.94,7.7-7.01,15.75-8.85,24.05-1.52,6.83-4.55,12.34-10.14,15.74-6.14,3.73-9.12,8.85-10.33,15.51"/>
    <path class="cls-2" d="M638.26,673.03c1.65,5.79,6.65,9.71,8.27,15.59,3.74-1.51,7.11-1.92,10.77-.93,4.8,1.3,9.81.39,14.7.75,2.36.17,4.05-.85,4.79-2.58.71-1.67-.66-3.69-1.8-4.77-4.42-4.19-10.32-5.76-15.92-7.29-6.52-1.78-13.48-1.3-20.19-2.15-6-.76-9.26-6.77-14.66-9.24-3.48-1.59-4.09-5.73-3.79-9.63.39-5.16,3.89-8.53,6.77-12.27"/>
    <path class="cls-2" d="M392.82,415.94c-4.22,7.91-4.7,16.69-4.08,25.14.93,12.67,2.63,25.4,7.29,37.39.82,2.11-.45,2.93-.7,4.02-14.2.2-27.41-6.61-41.79-5.24-14.83,1.41-29.57,3.1-43.56,8.63"/>
    <path class="cls-2" d="M718.64,460.73c-1.79-1.77-.88-4.08-1.28-6.13-.56-2.88-.86-5.38-4.04-7.65-4.38-3.13-8.4-7.06-12.65-10.83-2.09.33-4.38,1.16-5.87,2.6-3.28,3.18-6.7,4.16-11.15,3.06-4.04-1-7.06,2.25-10.35,3.74-14.99,6.76-30.33,13.1-41.76,25.65-3.7,4.07-6.95,8.55-11.03,12.29-1.3,1.19-2.45,2.23-4.33,1.8"/>
    <path class="cls-2" d="M770.18,318.38c-9.39-6.76-19.19-11.88-31.19-7.81-6.6-9.68-16.86-11.66-27.11-13.66-13.44-2.63-27-2.1-39.77,2.16-8.4,2.8-17.33,6.28-22.81,14.4"/>
    <path class="cls-2" d="M738.27,313.47c-5.41,4.24-9.82,9.73-16.54,12.35-4.97,1.94-9.23,2.47-14.22-.56-9.47-5.75-20.05-9.16-30.62-12.32-3.12-.93-6.23.37-9.19,1.73-7.41,3.39-13.99,8.51-22.08,10.46"/>
    <path class="cls-2" d="M400.8,385.88c-4.77-2.71-8.02-1.3-8.47,4.3-.32,4.03-.87,8.24.55,12.24.2.56.58.84.58,1.25-.14,19.56,7.34,37.63,10.91,56.47.37,1.95.44,4.1.78,6.1,1.88,10.78,1.94,10.77-8.03,14.74"/>
    <path class="cls-2" d="M398.96,486.5c-1.48,6.53-5.52,12.03-7.34,18.41-.16.57-.02,1.22-.02,2.09,4.22,2.39,9.02.71,13.53,1.4,11.58,1.77,21.55,6.62,30.65,13.68"/>
    <path class="cls-2" d="M557.88,688.99c-2.23,4.17-6.75,5.04-10.51,6.56-3.47,1.41-6.67,3.05-10.04,5.3,3.75,8.31,6.32,17,7.96,26.13.86,4.79-2.24,9.05-.29,13.55"/>
    <path class="cls-2" d="M394.66,356.42c2.79-13.37,10.66-24.53,16.06-36.77,2.06-4.67,6.44-4.82,10.89-.62,8.78,8.29,12.29,19.37,14.56,30.68,1.11,5.55,1.08,11.74-3.49,16.51-.1.1-.4.01-.6.01"/>
    <path class="cls-2" d="M737.04,256.41c8.31,14.2,8.62,29.24,5.02,44.82-.58,2.51-1.13,5.25-.72,7.95"/>
    <path class="cls-2" d="M695.32,438.03c-.39-2.98.67-5.74,1.19-8.6.94-5.13,1.11-10.28-.83-15.51-3.21,1.65-6.97,2.21-10.22,4.41-5.94,4.02-5.42,3.69-3.26,10.56,1.3,4.13,1.93,8.6,3.3,12.81"/>
    <path class="cls-2" d="M647.46,688.99c.98,3.02,3.2,4.4,6.1,5.62,7.45,3.13,15.41,5.8,18.48,14.62.74,2.12,2.19,3.93.02,6.2-1.93,2.01-4.52,1.69-6.11.99-3.07-1.35-6.1-1.65-9.64-1.65,2.43-7.82-4.28-13.24-5.17-20.25"/>
    <path class="cls-2" d="M754.84,376.67c-6.87,3.24-11.96,9.05-18.42,12.86-10.43,6.16-19.18,14.89-30.15,20.06-3.71,1.75-2.44,4.45-2.74,6.39-.71,4.59-.21,9.37-.24,14.08-.01,2.11.46,4.34-1.22,6.14"/>
    <path class="cls-2" d="M719.25,462.27c.41,13.19-2.88,25.97-4.3,38.96"/>
    <path class="cls-2" d="M797.18,422.08c-8.17,6.08-14.37,14.55-23.35,19.58-8.82,4.95-6.78,5.35-15.27-1.83-1.08-.91-2.79-1.66-2.49-3.64"/>
    <path class="cls-2" d="M786.74,429.44c-6.23-.59-11.29,3.38-17.16,4.43-4.71.85-9.48.67-14.15,1.66-2.28.48-2.77-2.11-4.29-3.02"/>
    <path class="cls-2" d="M707.59,589.59c9.07,5.51,17.01,12.06,21.59,22.04.66,1.44-.59,3.64,1.73,4.35"/>
    <path class="cls-2" d="M431.48,370.54c-7.08,9.32-14.49,18.39-20.86,28.23"/>
    <path class="cls-2" d="M627.83,619.04c2.62,2.1,3.18,5.31,2.32,7.93-2.94,8.93-1.01,18.05-1.62,27.05-.22,3.24-1.38,6.54-.08,9.81"/>
    <path class="cls-2" d="M656.66,715.37c-.61.41-.59.85-.65,1.22-.6,4.11-.52,9.45-5.53,10.17-4.66.67-10.04.06-12.85-5.26"/>
    <path class="cls-2" d="M668.94,312.86c-4.3-2.18-8.68-1.75-12.85.09-2.06.91-3.76,2.58-6.17,1.14"/>
    <path class="cls-2" d="M401.41,388.33c-4.28,4.24-3.43,10.94-7.36,15.34"/>
    <path class="cls-2" d="M641.94,705.56c4.59,2.51,8.56,6.06,13.5,7.98"/>
    <path class="cls-2" d="M492.22,720.89c-.24,6.51-4.43,11.29-7.48,16.5-1.33,2.27-2.77,4.12-1.72,6.82"/>
    <path class="cls-2" d="M650.53,315.31c.89,3.35-3.1,5.31-2.45,8.59"/>
  </g>
</svg>