<svg width="1080" height="1080" viewBox="0 0 1080 1080" fill="none" xmlns="http://www.w3.org/2000/svg">
<path d="M290.45 360.62H419.89V191.89C363.88 236.98 319.5 294.87 290.45 360.62Z" fill="#1F522A"/>
<path d="M251.45 532.27H419.89V388.3L279.5 388.22C262.23 434.34 252.75 483.04 251.46 532.26L251.45 532.27Z" fill="#1F522A"/>
<path d="M643.77 532.37L701.41 532.34C720.48 495.51 749.71 463.08 785.01 435.59C779.92 419.43 773.68 403.64 766.34 388.29H617.28C633.55 434.63 642.48 483.25 643.77 532.37Z" fill="#1F522A"/>
<path d="M279.42 704.09H419.89V696.41C415.01 679.43 411.58 662.13 409.33 645.39C406.64 625.14 397.11 583.95 419.89 575.55V560.02L251.45 559.94C252.74 609.19 262.19 657.89 279.42 704.09Z" fill="#1F522A"/>
<path d="M250.23 388.22H101.14C79.7001 433.3 67.7901 482.34 66.1201 532.26H223.77C225.06 483.18 233.99 434.56 250.23 388.22Z" fill="#1F522A"/>
<path d="M419.89 900.48V731.72H290.45C319.49 797.51 363.88 855.37 419.89 900.48Z" fill="#1F522A"/>
<path d="M447.55 191.9V360.63H577.02C547.95 294.88 503.56 237.03 447.55 191.9Z" fill="#1F522A"/>
<path d="M390.63 180.01C387.05 180.42 383.43 180.72 379.85 181.23C375.57 181.9 371.07 182.78 367.06 183.49C363.07 184.23 358.98 184.85 354.77 185.77C350.53 186.66 346.21 187.88 342.22 188.88C338.23 189.87 334.32 190.73 330.27 191.94C326.21 193.16 321.75 194.63 317.9 195.93C314.07 197.18 310.34 198.29 306.36 199.76C302.34 201.24 298.32 203.01 294.48 204.52C290.68 206.03 286.92 207.4 283.08 209.17C279.25 210.94 275.41 212.86 271.8 214.71C268.15 216.56 264.41 218.28 260.73 220.24C257.01 222.19 253.35 224.41 249.8 226.47C246.23 228.5 242.72 230.42 239.07 232.64C235.45 234.89 231.79 237.47 228.44 239.72C225.05 242.01 221.84 244.15 218.33 246.55C214.83 248.94 211.22 252 208.04 254.48C204.9 256.96 201.98 259.02 198.59 261.82C195.19 264.67 191.57 268.02 188.66 270.64C185.71 273.26 182.61 275.73 179.84 278.5C176.59 281.6 173.5 284.92 170.32 288.17C167.78 290.93 164.87 293.7 162.24 296.47C159.15 299.87 156.23 303.44 153.25 306.95C150.77 309.9 148.19 312.71 145.79 315.73C142.77 319.53 139.85 323.52 137.09 327.47C134.95 330.38 132.69 333.23 130.63 336.21C127.43 340.86 124.47 345.72 121.44 350.56C120.01 353 118.34 355.25 116.87 357.79C116.39 358.76 115.95 359.67 115.43 360.56H260.51C289.03 290.93 333.6 229.1 390.65 180.03L390.63 180.01Z" fill="#1F522A"/>
<path d="M260.49 731.72H115.19C115.67 732.72 116.11 733.61 116.63 734.49C118.14 737.07 119.83 739.51 121.42 742.02C124.37 746.78 127.33 751.58 130.47 756.15C132.61 759.26 134.89 762.13 137.11 765.15C139.96 768.99 142.68 772.94 145.67 776.66C148.07 779.69 150.65 782.46 153.09 785.4C156.08 788.91 159 792.52 162.09 795.92C164.86 798.68 167.26 801 170.39 804.22C173.53 807.43 176.93 811.01 179.81 813.78C182.69 816.55 185.41 818.83 188.69 821.75C191.98 824.66 195.48 827.88 198.54 830.45C201.6 833.04 204.56 835.17 207.99 837.84C211.42 840.49 215.01 843.41 218.29 845.77C221.61 848.09 224.82 850.17 228.36 852.53C231.94 854.93 235.59 857.52 239.07 859.65C242.5 861.79 245.97 863.67 249.66 865.78C253.34 867.88 257 870.2 260.73 872.09C264.41 873.97 267.92 875.63 271.8 877.43C275.63 879.28 279.59 881.31 283.31 882.97C287.03 884.63 290.76 886.03 294.67 887.62C298.62 889.21 302.64 890.93 306.52 892.34C310.43 893.77 314.23 894.91 318.33 896.25C322.39 897.58 326.55 899.05 330.5 900.16C334.41 901.3 338.21 902.19 342.46 903.26C346.74 904.29 351.13 905.48 355.04 906.37C358.92 907.25 363.17 907.88 367.22 908.62C371.5 909.39 375.82 910.24 380.13 910.94C383.71 911.45 387.29 911.79 390.9 912.19C333.83 863.15 289.15 801.36 260.51 731.73L260.49 731.72Z" fill="#1F522A"/>
<path d="M223.48 560.01L65.97 559.93C67.66 609.89 79.62 658.96 101.14 704.08H249.97C233.7 657.69 224.77 609.1 223.48 560V560.01Z" fill="#1F522A"/>
<path d="M607.2 360.81H751.98C751.5 359.81 751.06 358.89 750.55 358.04C748.55 354.65 746.38 351.44 744.27 348.16C741.76 344.21 739.14 339.85 736.71 336.34C734.31 332.88 731.76 329.63 729.22 326.16C726.68 322.73 724.13 319.26 721.59 315.86C719 312.43 715.94 309.03 713.28 305.93C710.59 302.83 708.26 299.91 705.28 296.63C702.29 293.31 698.75 290.03 695.98 287.12C693.21 284.17 690.85 281.66 687.68 278.63C684.54 275.64 680.92 272.55 677.94 269.92C674.95 267.3 672.29 264.76 668.97 261.99C665.66 259.22 661.92 256.49 658.75 254.06C655.58 251.58 652.62 249.23 649.19 246.67C645.72 244.16 641.92 241.8 638.57 239.51C635.17 237.26 632 234.97 628.43 232.75C624.89 230.55 621.16 228.55 617.58 226.48C613.96 224.42 610.35 222.34 606.77 220.31C603.15 218.29 599.46 216.66 595.69 214.78C591.9 212.9 588.1 210.95 584.3 209.24C580.5 207.55 576.65 206.11 572.79 204.56C568.91 202.97 565 201.31 561.09 199.87C557.18 198.44 553.27 197.25 549.24 195.93C545.22 194.6 541.13 193.2 537.14 192.05C533.15 190.87 529.35 189.99 525.11 188.95C520.91 187.87 516.47 186.73 512.61 185.85C508.7 184.96 504.45 184.3 500.39 183.56C496.22 182.79 492.09 181.93 487.63 181.56C484.05 181.05 480.43 180.76 476.86 180.34C533.93 229.34 578.61 291.18 607.21 360.77L607.2 360.81Z" fill="#1F522A"/>
<path d="M700.25 731.72H674.79C677.74 750.69 677.48 771.01 673.57 792.53C671.58 803.46 663.13 815.45 663.64 826.36C663.75 828.47 664.16 830.94 664.78 833.7C666.3 832.56 667.73 831.42 669.07 830.34C672.17 827.83 674.89 825.14 678.14 822.3C681.36 819.45 684.86 816.47 687.77 813.7C690.72 810.93 693.16 808.2 696.25 805.1C699.31 801.97 702.67 798.68 705.41 795.74C708.1 792.74 710.38 789.94 713.26 786.55C716.14 783.19 719.28 779.69 721.83 776.47C722.94 775.07 723.97 773.67 725 772.27C717.18 761.6 709.5 750.91 707.07 746.15C704.63 741.32 702.38 736.52 700.24 731.72H700.25Z" fill="#1F522A"/>
<path d="M975.27 374.97C923.36 391.95 866.17 414.89 817.51 446.44C808.94 451.97 800.68 457.8 792.71 463.89C767.03 483.59 744.89 506.25 728.81 532.29C723.35 541.11 718.62 550.3 714.67 559.93C701.14 592.76 696.82 630.47 705.68 673.72C707.63 683.28 710.58 693.64 714.42 704.01C717.88 713.42 722.09 722.83 726.92 731.72C730.76 738.88 735.04 745.71 739.69 751.91C743.52 757.04 747.62 761.72 751.94 765.78C771.12 703.76 796.07 639.41 828.6 582.96C829.12 582.04 829.63 581.11 830.19 580.19C839.82 563.66 895.43 481.38 909.33 478.72C922.98 476.15 924.32 489.31 919.7 499.97C914.13 512.81 886.16 543.22 875.91 559.49C832.66 628.01 803.85 700.36 777.84 776.81C856.5 771.16 941.46 730.1 976.6 656.49C1009.29 587.98 1001.57 487.25 986.96 414.6C985.53 407.37 981.02 375.52 975.26 374.97H975.27Z" fill="#1F522A"/>
<path d="M689.59 704.01C672.21 651.25 673.98 602.95 689.37 559.93H643.98C643.21 589.48 639.67 618.85 633.39 647.63C648.7 663.98 660.44 682.91 667.82 704.01H689.58H689.59Z" fill="#1F522A"/>
<path d="M588.16 388.22H447.55V532.37L616.36 532.26C614.99 483 605.48 434.34 588.17 388.22H588.16Z" fill="#1F522A"/>
<path d="M548.76 834.92C527.77 863.15 503.68 889.09 476.78 912.15C480.36 911.75 483.98 911.44 487.55 910.89C491.87 910.27 496.37 909.41 500.35 908.69C504.37 907.91 508.54 907.28 512.68 906.37C516.81 905.48 521.01 904.34 525.07 903.31C529.16 902.27 533.12 901.36 537.21 900.17C541.3 899.02 545.43 897.55 549.39 896.26C553.3 894.97 557.18 893.82 561.12 892.35C565.11 890.91 569.02 889.24 572.85 887.66C576.7 886.07 580.68 884.6 584.41 882.94C588.13 881.25 591.64 879.37 595.48 877.55C599.28 875.75 603.22 873.93 606.88 872.02C610.5 870.13 613.78 868.11 617.47 865.97C621.19 863.83 625.1 861.72 628.54 859.58C631.97 857.4 635.14 855.19 638.68 852.82C640.23 851.79 641.82 850.71 643.41 849.68C641.67 846.11 639.83 843.23 637.84 841.31C607.44 843.79 577 842.28 548.77 834.92H548.76Z" fill="#1F522A"/>
<path d="M639.15 704.01C635.43 695.34 630.74 687.3 625.25 679.85C618.9 671.22 611.41 663.4 603.03 656.3C563.23 622.69 503.26 606.38 447.55 603.83C443.24 603.61 438.96 603.5 434.71 603.47C437 630.25 440.36 659.48 447.55 687.32C448.99 692.97 450.61 698.58 452.43 704.08C455.49 713.64 459.11 722.89 463.39 731.71C476.86 759.61 496.82 783.19 526.85 797.24C530.57 798.98 534.3 800.56 538.1 802C547.25 805.51 556.55 808.16 566.03 810.08C584.48 813.81 603.48 814.73 622.85 813.7C626.53 810.97 610.34 787.69 592.3 764.22C585.91 755.89 579.28 747.55 573.22 740.1C570.86 737.15 568.57 734.34 566.4 731.72C558.87 722.61 553.04 715.86 551.09 713.94C548.47 711.39 544.23 707.97 539.18 704.05C523.05 691.51 498.92 674.21 495.42 666.02C493.1 660.59 495.45 651.23 502.9 651.15C523.94 650.86 558.77 692.03 576.92 702.88L577.84 704.02L604.67 737.56L644.96 787.92C649.38 767.3 649.87 748.59 647.13 731.73C645.54 721.85 642.82 712.63 639.16 704.02L639.15 704.01Z" fill="#1F522A"/>
<path d="M609.49 626.24C613.4 604.36 615.69 582.22 616.28 559.94H447.55V573.55C479.81 575.44 525.29 586.14 546.28 593.33C569.93 601.41 591.26 612.48 609.49 626.25V626.24Z" fill="#1F522A"/>
<path d="M521.13 825.43C494.97 814.1 471.76 796.43 453.75 770.68C451.58 767.57 449.51 764.37 447.55 761.12V900.47C475.04 878.34 499.69 853.14 521.13 825.42V825.43Z" fill="#1F522A"/>
</svg>
