<svg width="1080" height="1080" viewBox="0 0 1080 1080" fill="none" xmlns="http://www.w3.org/2000/svg">
<path d="M743.58 809.12H713.27C703.85 814.3 697.33 824.16 696.9 835.67C696.29 853.09 709.91 867.69 727.32 868.33C744.73 868.93 759.34 855.32 759.97 837.9C760.4 825.59 753.71 814.67 743.59 809.12H743.58Z" fill="#1F522A" stroke="#1F522A" stroke-width="2" stroke-miterlimit="10"/>
<path d="M826.16 703.16C824.73 702.52 823.05 702.8 821.93 703.9C821.01 704.78 820.59 706.06 820.8 707.3C821.02 708.56 821.83 709.62 823 710.15C824.12 710.66 825.42 710.58 826.5 709.96V703.37C826.39 703.3 826.28 703.22 826.16 703.16Z" fill="#1F522A" stroke="#1F522A" stroke-width="2" stroke-miterlimit="10"/>
<path d="M850.3 841.5C849.68 866.12 863.71 888.56 886.16 898.75C908.75 909.02 935.05 904.73 953.18 887.81C971.32 870.9 977.45 844.96 968.79 821.7C960.13 798.46 938.53 782.85 913.74 781.93C912.1 781.88 910.6 781.87 909.16 781.93C888.7 782.75 869.37 772.36 858.7 754.86C858.41 754.4 858.16 753.84 857.99 753.28L813.25 597.26L777.26 471.84C775.85 472.66 774.61 473.76 773.63 475.06C768.6 481.51 767.23 493.23 767.24 503.4C767.24 510.34 767.88 516.56 768.42 519.88L812.44 744.87L812.52 745.28L812.83 746.87L813.85 752.11L836.6 768.78C838.03 769.83 838.97 771.36 839.25 773.09L850.37 839.6C850.46 839.96 850.51 840.42 850.49 840.93V841.37L850.3 841.53V841.5ZM868.48 841.7C869.32 818.03 889.16 799.49 912.83 800.22C934.99 801.02 952.9 818.57 954.14 840.7V840.72C954.21 842.03 954.25 843.32 954.21 844.6C953.96 851.73 951.94 858.69 948.31 864.82V864.84L947.17 866.6C946.45 867.75 945.64 868.86 944.79 869.93C943.48 871.53 942.07 873.05 940.55 874.46C932.28 882.27 921.24 886.46 909.87 886.08C886.19 885.22 867.68 865.38 868.49 841.7H868.48ZM835.57 718.53C833.36 720.59 830.64 721.99 827.69 722.58L826.49 722.82V721.76C823.72 722.12 820.86 721.73 818.21 720.51C812.63 717.97 809.13 712.32 809.34 706.18L809.41 705.41C809.72 701.66 811.42 698.16 814.17 695.59C817.62 692.41 822.15 691.13 826.49 691.68V690.6L827.68 690.83C831.04 691.48 834.06 693.15 836.41 695.66C839.35 698.83 840.88 702.96 840.72 707.29C840.56 711.52 838.68 715.62 835.56 718.52L835.57 718.53Z" fill="#1F522A" stroke="#1F522A" stroke-width="2" stroke-miterlimit="10"/>
<path d="M893.63 524.21C895.66 515.59 899.25 490.62 891.56 479.19C890.7 477.77 889.58 476.56 888.29 475.62L841.13 604.95L834.54 623.02L851.32 681.65L893.63 524.21Z" fill="#1F522A" stroke="#1F522A" stroke-width="2" stroke-miterlimit="10"/>
<path d="M488.73 744.86H776.01L790.89 704.04L782.33 660.23H488.73V744.86Z" fill="#1F522A" stroke="#1F522A" stroke-width="2" stroke-miterlimit="10"/>
<path d="M789.54 838.71C789.53 838.23 789.6 837.68 789.75 837.08L799.43 796.78L799.98 794.47L805.49 771.55C805.9 769.84 806.94 768.39 808.43 767.45L810.62 766.07L803.7 760.9C803.16 760.51 802.71 760.02 802.31 759.48H802.24L801.95 759C801.79 758.73 801.65 758.44 801.53 758.14C801.5 758.07 801.46 758.01 801.43 757.94C801.29 757.57 801.17 757.19 801.1 756.8L795.87 729.4L788.15 750.64C787.9 751.28 787.64 751.79 787.34 752.22C785.59 754.7 783.63 757.04 781.52 759.18L781.23 759.48H781.21C769.02 771.73 752.19 777.68 734.96 775.79C733.73 775.67 732.08 775.53 730.4 775.47C729.76 775.45 729.13 775.44 728.49 775.44C713.18 775.44 698.14 781.38 686.97 791.91L686.62 792.24C685.29 793.48 684.02 794.78 682.83 796.12L682.81 796.14C681.12 798.03 679.55 800.02 678.1 802.09C676.66 804.17 675.34 806.33 674.17 808.57C668.05 820.28 665.87 833.9 668.03 846.92C671.37 867.16 684.52 884.28 703.21 892.7C704.09 893.1 704.95 893.46 705.76 893.78C711.52 896.08 717.51 897.45 723.55 897.93C732.8 898.67 742.17 897.3 751.01 893.78C754.41 892.44 757.71 890.76 760.84 888.81C778.23 877.92 788.96 859.19 789.54 838.69V838.71ZM718.45 878.81C698.49 874.09 684.64 855.91 685.4 835.4C685.72 825.7 689.35 816.43 695.62 809.12H694.23L695.75 807.45C696.53 806.6 697.4 805.72 698.34 804.84C703.58 799.94 710.01 796.36 716.91 794.52L717.17 794.49H722C726.24 793.86 730.55 793.87 734.8 794.52H739.78C744.88 795.89 749.68 798.17 754.05 801.3C756.18 802.84 758.2 804.58 760.05 806.51C760.06 806.52 760.07 806.53 760.08 806.54C760.1 806.56 760.13 806.59 760.15 806.61C760.26 806.72 760.36 806.83 760.47 806.95C760.63 807.12 760.79 807.29 760.94 807.46L762.46 809.13H761.07C771.68 821.6 774.49 839.4 767.43 854.85C758.91 873.5 738.39 883.54 718.43 878.82L718.45 878.81Z" fill="#1F522A" stroke="#1F522A" stroke-width="2" stroke-miterlimit="10"/>
<path d="M341.68 211.71C338.21 257.07 326.88 300.83 307.99 341.76C291.38 377.99 269.23 411.31 242.13 440.8V596H349.1L349.13 209.06L341.68 211.71Z" fill="#1F522A" stroke="#1F522A" stroke-width="2" stroke-miterlimit="10"/>
<path d="M363.71 203.94V596H399.03V191.4L363.71 203.94Z" fill="#1F522A" stroke="#1F522A" stroke-width="2" stroke-miterlimit="10"/>
<path d="M669.61 191.41V596H704.92V203.95L669.61 191.41Z" fill="#1F522A" stroke="#1F522A" stroke-width="2" stroke-miterlimit="10"/>
<path d="M413.61 595.99H474.09V449.72L526.97 357.22L426.35 184.78C425.08 184.53 423.8 184.2 422.46 183.86L421.34 183.58L413.64 186.29L413.61 595.99Z" fill="#1F522A" stroke="#1F522A" stroke-width="2" stroke-miterlimit="10"/>
<path d="M908.69 874.49L910.36 874.62C921.98 875.02 932.89 868.99 938.75 858.93C944.6 848.88 944.46 836.43 938.36 826.51C937.25 824.85 935.98 823.28 934.58 821.83C927.56 814.11 917.17 810.36 906.83 811.81C896.5 813.3 887.55 819.77 882.95 829.13C878.35 838.5 878.67 849.54 883.83 858.62C888.97 867.69 898.28 873.63 908.68 874.49H908.69Z" fill="#1F522A" stroke="#1F522A" stroke-width="2" stroke-miterlimit="10"/>
<path d="M488.73 596H655V186.31L647.31 183.56L647.09 183.62C645.57 184.03 644.01 184.45 642.44 184.76L488.73 453.61V596Z" fill="#1F522A" stroke="#1F522A" stroke-width="2" stroke-miterlimit="10"/>
<path d="M488.73 794.48H667.1C670.13 790.07 673.62 785.97 677.53 782.3C692.03 768.71 710.94 761.56 730.79 762.19C732.43 762.26 734.28 762.38 736.29 762.55C743.63 763.36 750.94 762.29 757.69 759.48H488.75V794.48H488.73Z" fill="#1F522A" stroke="#1F522A" stroke-width="2" stroke-miterlimit="10"/>
<path d="M674.14 887.47C660.56 872.96 653.44 854.04 654.08 834.2C654.37 825.54 656.14 817.12 659.31 809.13H488.73V893.74H680.79C678.43 891.78 676.2 889.68 674.14 887.47Z" fill="#1F522A" stroke="#1F522A" stroke-width="2" stroke-miterlimit="10"/>
<path d="M534.32 197.16C504.28 197.16 474.45 194.36 445.63 188.83L534.32 340.68L623.01 188.83C594.19 194.36 564.36 197.16 534.32 197.16Z" fill="#1F522A" stroke="#1F522A" stroke-width="2" stroke-miterlimit="10"/>
<path d="M242.12 809.12V893.73L474.11 893.76V809.12H242.12Z" fill="#1F522A" stroke="#1F522A" stroke-width="2" stroke-miterlimit="10"/>
<path d="M242.13 610.64V645.64L474.12 645.61V610.61H413.62L412.64 610.64L349.1 610.68V610.64H242.13Z" fill="#1F522A" stroke="#1F522A" stroke-width="2" stroke-miterlimit="10"/>
<path d="M242.13 660.26V744.86L474.11 744.89V660.26H242.13Z" fill="#1F522A" stroke="#1F522A" stroke-width="2" stroke-miterlimit="10"/>
<path d="M474.11 759.51H242.13V794.51H474.11V759.51Z" fill="#1F522A" stroke="#1F522A" stroke-width="2" stroke-miterlimit="10"/>
<path d="M826.5 809.12H810.1L802.86 839.25C802.14 859.07 793.78 877.43 779.3 890.96C778.29 891.91 777.22 892.83 776.14 893.73H826.49V809.12H826.5Z" fill="#1F522A" stroke="#1F522A" stroke-width="2" stroke-miterlimit="10"/>
<path d="M726.99 211.68L719.54 209.02V595.99H769.78L755.35 522.09C754.95 520.72 753.77 513.06 753.77 503.47C753.77 491.49 755.6 476.48 763.05 466.9C767.37 461.12 774.01 457.51 781.26 457C784.43 456.67 787.38 458.68 788.26 461.77L826.54 595.09V440.76C799.43 411.25 777.27 377.92 760.68 341.72C741.76 300.76 730.43 257.01 726.99 211.68Z" fill="#1F522A" stroke="#1F522A" stroke-width="2" stroke-miterlimit="10"/>
<path d="M488.74 645.61H779.47L772.64 610.61H488.74V645.61Z" fill="#1F522A" stroke="#1F522A" stroke-width="2" stroke-miterlimit="10"/>
<path d="M826.5 777.42L822.16 774.28L817.82 776.99L813.62 794.48H826.5V777.42Z" fill="#1F522A" stroke="#1F522A" stroke-width="2" stroke-miterlimit="10"/>
</svg>
