<svg width="1080" height="1080" viewBox="0 0 1080 1080" fill="none" xmlns="http://www.w3.org/2000/svg">
<path d="M295.8 693.29L328.62 693.35V638.6H295.8V693.29Z" fill="#1F522A" stroke="#1F512A" stroke-width="12" stroke-miterlimit="10"/>
<path d="M727.74 606.43C728.01 586.57 729.51 567.54 727.84 547.53L636.87 608.28C631.99 613.39 615.75 608.98 615.75 603.59V550.27C584 571.44 550.23 590.85 521.46 615.95C521.49 627.25 516.73 703.06 520.03 706.14C521.07 707.1 544.54 703.77 538.98 720.86C536.31 729.08 500.9 726.62 500.9 718.44V558.47C414.16 552.55 326.66 557.33 239.6 555.6C236.8 555 230.17 557.57 230.17 559.84V793.64H702.94C699.26 788.98 696.67 784.98 696.13 782.7C693.89 773.21 709.11 769.04 711.08 761.59C716.44 741.28 694.1 749.88 685.31 741.86C678.91 736.01 682.35 726.33 681.38 725.27C679.48 723.21 648.38 731 648.42 715.67C648.46 701.42 682.53 707.81 684.1 706.13C684.85 705.34 682.59 689.7 689.55 685.6C697.99 680.61 712.01 690.05 717.72 678.02C722.71 667.51 706.15 657.31 706.76 650.03C707.12 645.59 728.55 631.15 730.21 624.85C731.66 619.37 727.65 612.65 727.74 606.43ZM347.77 711.65C341.96 711.65 276.64 711.75 276.66 711.69V626.29C276.66 625.81 276.59 618.58 276.61 618.58H347.77C347.77 618.58 347.76 623.26 347.76 623.55V705.59C347.76 706.07 347.79 711.65 347.77 711.65ZM437.72 711.65C431.92 711.65 366.59 711.75 366.62 711.69V626.29C366.62 625.81 366.54 618.58 366.57 618.58H437.72C437.72 618.58 437.71 623.26 437.71 623.55V705.59C437.71 706.07 437.74 711.65 437.72 711.65ZM585.95 717.76C585.95 721.79 582.68 725.05 578.66 725.05H557.74C553.72 725.05 550.45 721.79 550.45 717.76V714.92C550.45 710.89 553.72 707.63 557.74 707.63H578.66C582.68 707.63 585.95 710.89 585.95 714.92V717.76ZM634.72 717.76C634.72 721.79 631.45 725.05 627.43 725.05H606.51C602.49 725.05 599.22 721.79 599.22 717.76V714.92C599.22 710.89 602.49 707.63 606.51 707.63H627.43C631.45 707.63 634.72 710.89 634.72 714.92V717.76Z" fill="#1F522A" stroke="#1F512A" stroke-width="12" stroke-miterlimit="10"/>
<path d="M418.56 637.52H385.81V692.29H418.56V637.52Z" fill="#1F522A" stroke="#1F512A" stroke-width="12" stroke-miterlimit="10"/>
<path d="M317.68 536.59H262.99L271.19 402.6H309.48L317.68 536.59Z" fill="#1F522A" stroke="#1F512A" stroke-width="12" stroke-miterlimit="10"/>
<path d="M576.4 320.05C572.98 333.81 566.36 343.68 556.71 349.38C545.19 356.2 529.26 357.19 510.65 352.25C498.46 349.02 487.96 347.13 473.11 354.47C464.27 358.84 450.73 362.28 439.23 358.81C438.04 358.45 436.74 358.22 435.23 357.94C433.37 357.61 431.28 357.23 429.28 356.59C427.99 354.89 426.38 353.01 424.33 350.64C412.7 350.64 367.3 347.06 363.25 356.73L350.51 536.61H336.81L322.95 354.94C321.51 352.04 319.35 351.19 316.31 350.64C308.04 349.14 282.65 348.5 267.17 352.04C263.16 338.01 255.77 308.42 266.24 285.89C269.52 278.83 272.3 273.56 278.18 270.09C283.27 267.09 287.55 267.36 292.96 267.71C298.81 268.08 305.43 268.51 312.68 264.21C320.17 259.78 322.24 253.74 324.24 247.9C325.86 243.17 327.7 237.82 332.76 231.11C341.08 220.07 351.15 212.77 362.67 209.41C366.51 208.29 386.61 203.3 405.36 215.15C415.48 221.55 421.2 230.22 424.22 236.38L434.99 231.09C433.93 228.92 432.57 226.49 430.91 223.95C436.95 218.71 462.34 198.8 492.21 205.65C497.55 206.87 511.1 210.91 521.49 221.87C528.31 229.08 533.01 238.1 535.44 248.69C538.08 260.11 542.4 265.98 553.24 272.83C573.53 285.64 581.1 301.09 576.4 320.05Z" fill="#1F522A" stroke="#1F512A" stroke-width="12" stroke-miterlimit="10"/>
<path d="M424.33 536.59H369.64L377.84 402.6H416.12L424.33 536.59Z" fill="#1F522A" stroke="#1F512A" stroke-width="12" stroke-miterlimit="10"/>
<path d="M908.36 708.86C907.2 707.72 893.88 711.27 887.58 706.39C886.29 705.39 876.4 684.56 875.94 682.2C873.64 670.24 888.78 663.97 885.29 656.97C884.47 655.33 869.87 641.24 868.73 641.15C865.11 640.88 856.8 650.86 849.41 651.39C845.26 651.68 828.41 645.88 825.43 643.43C819.44 638.51 821.73 619.54 820.85 618.62C820.02 617.73 797.42 618.11 796.49 618.9C791.72 622.98 800.97 644.21 771.65 647.63C757.28 649.3 751.83 634.44 741.63 639.05C739.95 639.81 728.38 651.82 728.14 653.2C727.42 657.35 738.85 666.68 738.18 674.25C737.87 677.75 726.46 699.25 723.34 700.25C715.21 702.84 702.73 695.81 700.53 707.49C694.75 738.12 711.31 726.05 721.21 736.04C724.72 739.58 731.26 759.5 730.12 764.2C728.4 771.28 714.96 779.12 718.12 785.42C718.98 787.13 736.48 804.08 737.83 804.31C741.76 804.99 751.58 793.81 759.32 793.85C761.6 793.86 778.46 800.6 780.84 802.2C791.68 809.44 789.22 828.82 792.35 829.35C826.45 833.71 810.3 822.4 820.69 808.53C823.59 804.67 840.53 798.2 845.39 797.5C857.49 795.77 861.53 809.03 866.33 809.86C869.12 810.35 889.17 791.09 889.16 789.54C889.16 788.24 876.12 779.44 875.55 770.2C875.32 766.34 883.96 746.57 886.32 743.62C892.1 736.42 907.24 740.03 908.36 738.96C909.46 737.93 909.44 709.91 908.36 708.86ZM805.26 780.82C774.35 780.82 749.29 755.76 749.29 724.85C749.29 693.94 774.35 668.89 805.26 668.89C836.17 668.89 861.23 693.94 861.23 724.85C861.23 755.76 836.17 780.82 805.26 780.82Z" fill="#1F522A" stroke="#1F512A" stroke-width="12" stroke-miterlimit="10"/>
<path d="M927.41 702.11C924.2 684.97 901.74 698.46 895.97 687.01C888.79 672.76 911.79 669.85 907.96 656.14C907.36 653.99 879.74 625.54 877.04 623.94C862.39 615.26 854.08 635.09 844.42 632.15C836.61 629.77 838.23 605.92 833.94 602.77C829.47 599.48 796.04 598.29 789.47 599.56C775.09 602.33 781.77 621.13 772.88 629.54C771.12 630.04 750.86 619.28 750.18 618.21C746.91 613.1 751.73 551.89 749.57 538.13C748.32 530.16 743.06 523.45 734.49 522.96C718.05 522 656.49 578.04 634.89 583.08V537.96C634.89 532.85 622.03 522.62 615.72 526.76L522.8 588.55C523.77 577 524.88 536.59 507.73 536.59H443.47L435.22 376.67C434.98 374.07 434.75 371.9 434.49 370.01C435.01 370.11 435.48 370.21 435.77 370.3C440.41 371.7 445.05 372.25 449.49 372.25C462.91 372.25 474.46 367.19 478.43 365.23C488.75 360.13 495.47 360.64 507.57 363.85C529.37 369.63 548.47 368.2 562.82 359.71C575.34 352.31 583.83 339.94 588.04 322.94C594.07 298.66 584.52 278.39 559.65 262.68C551.5 257.53 549.04 254.26 547.14 245.99C544.21 233.3 538.51 222.41 530.2 213.62C517.56 200.28 501.3 195.42 494.89 193.95C460.11 185.98 431.1 208 423.44 214.55C420.21 211.19 416.36 207.91 411.77 205.01C389.25 190.77 365.92 195.96 359.31 197.89C345.25 201.99 333.09 210.74 323.18 223.88C316.97 232.12 314.61 238.99 312.89 244C311.01 249.48 310.11 251.79 306.57 253.89C302.5 256.3 298.63 256.05 293.73 255.73C287.77 255.35 280.36 254.88 272.09 259.75C262.54 265.39 258.39 274.32 255.36 280.84C242.61 308.27 251.89 342.49 256.1 356.97C255.79 357.3 255.52 357.65 255.31 358L243.86 536.61C232.37 536.36 220.16 534.63 212.39 544.79L210.89 795.15C208.68 799.54 222.21 812.79 223.34 812.79H720.6C728.41 820.16 735.83 825.74 738.95 825.24C744.88 824.29 752.59 815.37 757.91 813.88C780.54 807.54 768.61 840.53 775.95 845.92C780.24 849.06 812.93 849.51 819.42 848.28C832.16 845.85 830.47 830.68 835.03 822.89C846.14 803.92 859.47 833.06 870.3 830.73C872.99 830.15 903.81 803.95 905.76 800.63C916.27 782.66 894.3 777.01 895.17 765.6C896.17 752.48 920.06 760.05 926.17 749.94C928.28 746.46 928.5 707.93 927.41 702.11ZM266.24 285.89C269.52 278.83 272.3 273.56 278.18 270.09C283.27 267.09 287.55 267.36 292.96 267.71C298.81 268.08 305.43 268.51 312.68 264.21C320.17 259.78 322.24 253.74 324.24 247.9C325.86 243.17 327.7 237.82 332.76 231.11C341.08 220.07 351.15 212.77 362.67 209.41C366.51 208.29 386.61 203.3 405.36 215.15C415.48 221.55 421.2 230.22 424.22 236.38L434.99 231.09C433.93 228.92 432.57 226.49 430.91 223.95C436.95 218.71 462.34 198.8 492.21 205.65C497.55 206.87 511.1 210.91 521.49 221.87C528.31 229.08 533.01 238.1 535.44 248.69C538.08 260.11 542.4 265.98 553.24 272.83C573.53 285.64 581.1 301.09 576.4 320.05C572.98 333.81 566.36 343.68 556.71 349.38C545.19 356.2 529.26 357.19 510.65 352.25C498.46 349.02 487.96 347.13 473.11 354.47C464.27 358.84 450.73 362.28 439.23 358.81C438.04 358.45 436.74 358.22 435.23 357.94C433.37 357.61 431.28 357.23 429.28 356.59C427.99 354.89 426.38 353.01 424.33 350.64C412.7 350.64 367.3 347.06 363.25 356.73L350.51 536.61H336.81L322.95 354.94C321.51 352.04 319.35 351.19 316.31 350.64C308.04 349.14 282.65 348.5 267.17 352.04C263.16 338.01 255.77 308.42 266.24 285.89ZM424.33 536.59H369.64L377.84 402.6H416.12L424.33 536.59ZM317.68 536.59H262.99L271.19 402.6H309.48L317.68 536.59ZM711.08 761.59C709.11 769.04 693.89 773.21 696.13 782.7C696.67 784.98 699.26 788.98 702.94 793.64H230.17V559.84C230.17 557.57 236.8 555 239.6 555.6C326.66 557.33 414.16 552.55 500.9 558.47V718.44C500.9 726.62 536.31 729.08 538.98 720.86C544.54 703.77 521.07 707.1 520.03 706.14C516.73 703.06 521.49 627.25 521.46 615.95C550.23 590.85 584 571.44 615.75 550.27V603.59C615.75 608.98 631.99 613.39 636.87 608.28L727.84 547.53C729.51 567.54 728.01 586.57 727.74 606.43C727.65 612.65 731.66 619.37 730.21 624.85C728.55 631.15 707.12 645.59 706.76 650.03C706.15 657.31 722.71 667.51 717.72 678.02C712.01 690.05 697.99 680.61 689.55 685.6C682.59 689.7 684.85 705.34 684.1 706.13C682.53 707.81 648.46 701.42 648.42 715.67C648.38 731 679.48 723.21 681.38 725.27C682.35 726.33 678.91 736.01 685.31 741.86C694.1 749.88 716.44 741.28 711.08 761.59ZM908.36 738.96C907.24 740.03 892.1 736.42 886.32 743.62C883.96 746.57 875.32 766.34 875.55 770.2C876.12 779.44 889.16 788.24 889.16 789.54C889.16 791.09 869.12 810.35 866.33 809.86C861.53 809.03 857.49 795.77 845.39 797.5C840.53 798.2 823.59 804.67 820.69 808.53C810.3 822.4 826.45 833.71 792.35 829.35C789.22 828.82 791.68 809.44 780.84 802.2C778.46 800.6 761.6 793.86 759.32 793.85C751.58 793.81 741.76 804.99 737.83 804.31C736.48 804.08 718.98 787.13 718.12 785.42C714.96 779.12 728.4 771.28 730.12 764.2C731.26 759.5 724.72 739.58 721.21 736.04C711.31 726.05 694.75 738.12 700.53 707.49C702.73 695.81 715.21 702.84 723.34 700.25C726.46 699.25 737.87 677.75 738.18 674.25C738.85 666.68 727.42 657.35 728.14 653.2C728.38 651.82 739.95 639.81 741.63 639.05C751.83 634.44 757.28 649.3 771.65 647.63C800.97 644.21 791.72 622.98 796.49 618.9C797.42 618.11 820.02 617.73 820.85 618.62C821.73 619.54 819.44 638.51 825.43 643.43C828.41 645.88 845.26 651.68 849.41 651.39C856.8 650.86 865.11 640.88 868.73 641.15C869.87 641.24 884.47 655.33 885.29 656.97C888.78 663.97 873.64 670.24 875.94 682.2C876.4 684.56 886.29 705.39 887.58 706.39C893.88 711.27 907.2 707.72 908.36 708.86C909.44 709.91 909.46 737.93 908.36 738.96Z" fill="white" stroke="#1F512A" stroke-width="12" stroke-miterlimit="10"/>
<path d="M804.9 761.11C824.827 761.11 840.98 744.957 840.98 725.03C840.98 705.104 824.827 688.95 804.9 688.95C784.974 688.95 768.82 705.104 768.82 725.03C768.82 744.957 784.974 761.11 804.9 761.11Z" fill="#1F522A" stroke="#1F512A" stroke-width="12" stroke-miterlimit="10"/>
</svg>
