<svg width="1080" height="1080" viewBox="0 0 1080 1080" fill="none" xmlns="http://www.w3.org/2000/svg">
<path d="M771.72 659.7L775.16 334.26C775.25 325.47 768.46 318.22 759.71 317.77C719.5 315.67 679.93 307.74 642.1 294.19C602.93 280.16 566.19 260.32 532.9 235.23C527.52 231.17 520.2 231.15 514.7 235.19C475.12 264.22 431.27 285.56 384.37 298.62C351.36 307.81 317.16 312.74 282.73 313.27C278.28 313.34 274.12 315.11 271.04 318.26C267.98 321.38 266.33 325.51 266.4 329.88L271.54 653.85C303.63 694.73 339.86 732.57 379.28 766.36C422.27 803.22 469.32 835.5 519.23 862.41C574.24 836.51 625.51 803.56 671.71 764.39C708.52 733.19 742.14 697.99 771.7 659.69L771.72 659.7ZM637.75 713.18C602.62 742.96 563.49 767.81 521.45 787.07L519.21 788.09L517.03 786.94C478.94 766.87 443.08 742.5 410.44 714.51C380.84 689.14 353.72 660.63 329.81 629.78L328.79 628.46L325.07 393.87C324.95 386.57 327.7 379.68 332.81 374.47C337.89 369.28 344.71 366.36 352.01 366.24C375.05 365.89 397.93 362.59 420.02 356.44C451.4 347.71 480.74 333.42 507.24 313.99C516.74 307.02 529.41 307.09 538.77 314.14C561.07 330.95 585.69 344.25 611.94 353.65C637.29 362.73 663.81 368.04 690.76 369.45C705.35 370.21 716.66 382.26 716.51 396.89L714.02 632.5L713.02 633.82C690.89 662.91 665.57 689.61 637.77 713.18H637.75Z" fill="#1F522A"/>
<path d="M195.16 499.81C199.53 502.21 230.61 512.09 234.22 511.9C234.9 511.86 236.21 506.64 239.15 502.5L238.91 487.5C221.82 489.58 192.92 491.21 191.07 492.67C189.78 499.93 191.43 497.77 195.16 499.81Z" fill="#1F522A"/>
<path d="M305.67 738.33C291.15 742.71 255.78 743.53 249.07 743.74C215.55 744.75 147.81 742.7 135.12 706.97C116.64 725.27 119.17 744.98 140.88 758.75C173.56 779.47 234.61 778.73 272.77 777.45C307.07 772.35 325.29 769.02 335.61 767.58C325.39 758.09 315.4 748.33 305.66 738.33H305.67Z" fill="#1F522A"/>
<path d="M240.3 575.15L240.01 556.95C220.72 556.66 168.2 545.7 155.14 539.79C145.97 535.64 141.96 524.22 151.51 521.7C159.84 519.5 216.06 540.05 239.77 541.67L239.62 532.28C217.52 527.08 179.21 514.7 175.05 510.2C171.45 506.31 172.82 499.11 170.23 498.99C158.72 498.47 125.14 515.23 123.91 529.65C121.41 559 178.07 568.9 199.46 572.23C205.53 573.17 225.89 574.04 240.3 575.15Z" fill="#1F522A"/>
<path d="M609.16 477.33C607 475.17 604.14 473.99 601.09 473.99C598.04 473.99 595.17 475.18 593.02 477.33L508.91 561.44C501.2 569.15 488.67 569.14 480.96 561.44L449.78 530.26C445.6 526.08 438.8 525.81 434.31 529.64C421.85 540.25 416.42 545.35 414.06 547.75L485.34 619.03C487.5 621.19 490.36 622.37 493.41 622.37C496.46 622.37 499.33 621.18 501.48 619.03L618.1 502.41C620.26 500.25 621.45 497.39 621.45 494.34C621.45 491.29 620.26 488.42 618.1 486.27L609.16 477.33Z" fill="#1F522A"/>
<path d="M690.23 379.44C662.31 377.98 634.83 372.48 608.56 363.07C581.36 353.33 555.85 339.55 532.74 322.13C526.93 317.75 519.06 317.72 513.15 322.06C485.67 342.21 455.24 357.02 422.7 366.08C399.79 372.46 376.06 375.88 352.16 376.24C347.51 376.31 343.18 378.17 339.95 381.46C336.73 384.75 334.99 389.1 335.07 393.71L338.74 624.97C361.98 654.78 388.29 682.35 416.95 706.92C448.41 733.89 482.9 757.43 519.52 776.94C559.88 758.22 597.48 734.2 631.28 705.55C658.12 682.8 682.59 657.08 704.04 629.08L706.5 396.79C706.6 387.54 699.45 379.92 690.23 379.44ZM624 508.31L507.38 624.93C503.53 628.78 498.47 630.71 493.41 630.71C488.35 630.71 483.29 628.78 479.44 624.93L405.64 551.13C404.79 550.28 404.33 549.09 404.37 547.87C404.46 545.58 404.52 544.06 428.9 523.29C436.69 516.66 448.45 517.13 455.68 524.36L486.86 555.54C491.31 559.99 498.56 559.99 503.01 555.54L587.12 471.43C594.83 463.73 607.36 463.73 615.07 471.43L624.01 480.37C627.74 484.1 629.8 489.06 629.8 494.34C629.8 499.62 627.74 504.58 624.01 508.31H624Z" fill="#1F522A"/>
<path d="M159.53 644.15C162.54 653.13 214.26 661.16 241.68 662.39L241.28 637.2C214.92 638.37 183.47 627.58 159.11 620.61C159.95 627.72 157.36 637.7 159.53 644.15Z" fill="#1F522A"/>
<path d="M915.37 750.49L917.84 750.23C917.47 750.32 916.56 750.45 915.34 750.61L905.29 793.83H683.26C673.29 802.04 663.11 809.99 652.72 817.64C653.51 817.21 654.42 816.98 655.38 817.02C658.29 817.16 660.52 819.74 660.38 822.79C660.24 825.84 657.76 828.2 654.86 828.07C651.96 827.94 649.72 825.35 649.86 822.3C649.93 820.78 650.58 819.43 651.57 818.48C644.19 823.89 636.7 829.15 629.12 834.28C658.46 835.59 696.59 837.31 709.67 837.63C762.18 839.9 796.46 839.95 849.19 841.94C877.34 843 905.25 843.94 933.9 844.96C962.11 771.55 989.74 702.16 1014.05 627.52L945.49 620.94L915.37 750.5V750.49ZM675.7 829.06C672.79 828.92 670.56 826.34 670.7 823.29C670.84 820.24 673.32 817.88 676.22 818.01C679.12 818.14 681.36 820.73 681.22 823.78C681.08 826.83 678.6 829.19 675.7 829.06ZM696.54 830.04C693.63 829.9 691.4 827.32 691.54 824.27C691.68 821.22 694.16 818.86 697.06 818.99C699.97 819.13 702.2 821.71 702.06 824.76C701.92 827.81 699.44 830.17 696.54 830.04ZM717.38 831.02C714.47 830.88 712.24 828.3 712.38 825.25C712.52 822.2 715 819.84 717.9 819.97C720.8 820.1 723.04 822.69 722.9 825.74C722.76 828.79 720.28 831.15 717.38 831.02ZM738.22 832C735.31 831.86 733.08 829.28 733.22 826.23C733.36 823.18 735.84 820.82 738.74 820.95C741.65 821.09 743.88 823.67 743.74 826.72C743.6 829.77 741.12 832.13 738.22 832ZM759.06 832.98C756.15 832.84 753.92 830.26 754.06 827.21C754.2 824.16 756.68 821.8 759.58 821.93C762.48 822.06 764.72 824.65 764.58 827.7C764.44 830.75 761.96 833.11 759.06 832.98ZM782.3 833.48C781.57 833.83 780.75 834.01 779.9 833.97C776.99 833.83 774.76 831.25 774.9 828.2C775.01 825.91 776.43 824.01 778.36 823.26C779.09 822.91 779.91 822.73 780.76 822.77C783.67 822.91 785.9 825.49 785.76 828.54C785.65 830.83 784.23 832.73 782.3 833.48ZM801.07 834.8C798.16 834.66 795.93 832.08 796.07 829.03C796.21 825.98 798.69 823.62 801.59 823.75C804.49 823.88 806.73 826.47 806.59 829.52C806.45 832.57 803.97 834.93 801.07 834.8ZM821.91 835.78C819 835.64 816.77 833.06 816.91 830.01C817.05 826.96 819.53 824.6 822.43 824.73C825.34 824.87 827.57 827.45 827.43 830.5C827.29 833.55 824.81 835.91 821.91 835.78ZM842.75 836.76C839.84 836.62 837.61 834.04 837.75 830.99C837.89 827.94 840.37 825.58 843.27 825.71C846.18 825.85 848.41 828.43 848.27 831.48C848.13 834.53 845.65 836.89 842.75 836.76ZM863.59 837.75C860.68 837.61 858.45 835.03 858.59 831.98C858.73 828.93 861.21 826.57 864.11 826.7C867.02 826.84 869.25 829.42 869.11 832.47C868.97 835.52 866.49 837.88 863.59 837.75ZM884.43 838.73C881.52 838.59 879.29 836.01 879.43 832.96C879.57 829.91 882.05 827.55 884.95 827.68C887.86 827.82 890.09 830.4 889.95 833.45C889.81 836.5 887.33 838.86 884.43 838.73ZM905.27 839.71C902.36 839.57 900.13 836.99 900.27 833.94C900.41 830.89 902.89 828.53 905.79 828.66C908.7 828.8 910.93 831.38 910.79 834.43C910.65 837.48 908.17 839.84 905.27 839.71ZM926.11 840.69C923.2 840.55 920.97 837.97 921.11 834.92C921.25 831.87 923.73 829.51 926.63 829.64C929.54 829.78 931.77 832.36 931.63 835.41C931.49 838.46 929.01 840.82 926.11 840.69ZM934.99 816.53C933.91 819.23 930.74 820.51 927.9 819.38C925.06 818.25 923.63 815.14 924.71 812.44C925.79 809.74 928.96 808.46 931.8 809.59C934.64 810.72 936.07 813.83 934.99 816.53ZM942.72 797.15C941.64 799.85 938.47 801.13 935.63 800C932.79 798.87 931.36 795.76 932.44 793.06C933.52 790.36 936.69 789.08 939.53 790.21C942.37 791.34 943.8 794.45 942.72 797.15ZM994.11 637.3C995.19 634.6 998.36 633.32 1001.2 634.45C1004.04 635.58 1005.47 638.69 1004.39 641.39C1003.31 644.09 1000.14 645.37 997.3 644.24C994.46 643.11 993.03 640 994.11 637.3ZM986.39 656.68C987.47 653.98 990.64 652.7 993.48 653.83C996.32 654.96 997.75 658.07 996.67 660.77C995.59 663.47 992.42 664.75 989.58 663.62C986.74 662.49 985.31 659.38 986.39 656.68ZM978.67 676.06C979.75 673.36 982.92 672.08 985.76 673.21C987.84 674.04 989.15 675.92 989.29 677.94C989.49 678.89 989.43 679.9 989.04 680.85C987.96 683.55 984.79 684.83 981.95 683.7C979.87 682.87 978.56 680.99 978.42 678.97C978.22 678.02 978.28 677.01 978.67 676.06ZM970.95 695.44C972.03 692.74 975.2 691.46 978.04 692.59C980.12 693.42 981.43 695.3 981.57 697.32C981.77 698.27 981.71 699.28 981.32 700.23C980.24 702.93 977.07 704.21 974.23 703.08C972.15 702.25 970.84 700.37 970.7 698.35C970.5 697.4 970.56 696.39 970.95 695.44ZM963.23 714.83C964.31 712.13 967.48 710.85 970.32 711.98C972.4 712.81 973.71 714.69 973.85 716.71C974.05 717.66 973.99 718.67 973.6 719.62C972.52 722.32 969.35 723.6 966.51 722.47C964.43 721.64 963.12 719.76 962.98 717.74C962.78 716.79 962.84 715.78 963.23 714.83ZM955.51 734.21C956.59 731.51 959.76 730.23 962.6 731.36C964.68 732.19 965.99 734.07 966.13 736.09C966.33 737.04 966.27 738.05 965.88 739C964.8 741.7 961.63 742.98 958.79 741.85C956.71 741.02 955.4 739.14 955.26 737.12C955.06 736.17 955.12 735.16 955.51 734.21ZM947.79 753.59C948.87 750.89 952.04 749.61 954.88 750.74C956.96 751.57 958.27 753.45 958.41 755.47C958.61 756.42 958.55 757.43 958.16 758.38C957.08 761.08 953.91 762.36 951.07 761.23C948.99 760.4 947.68 758.52 947.54 756.5C947.34 755.55 947.4 754.54 947.79 753.59ZM950.68 774.85C950.88 775.8 950.82 776.81 950.43 777.76C949.35 780.46 946.18 781.74 943.34 780.61C941.26 779.78 939.95 777.9 939.81 775.88C939.61 774.93 939.67 773.92 940.06 772.97C941.14 770.27 944.31 768.99 947.15 770.12C949.23 770.95 950.54 772.83 950.68 774.85Z" fill="#1F522A"/>
<path d="M160.74 585.36C150.49 607.73 183.38 613.38 199.95 616.52C210.48 618.52 228.21 618.41 241 619.36L240.62 595.53C213.49 595.62 187.5 592.25 160.74 585.36Z" fill="#1F522A"/>
<path d="M266.26 882.19C262.12 884.82 257.26 886.15 252.59 887.06C243.44 888.76 234.11 889.09 224.88 889.33C212.77 889.65 182.41 889.27 169.83 889.2C163.72 889.17 157.61 889.14 151.51 889.22C143.37 889.61 121.26 888.72 116.61 895.62C113.4 901.21 118.93 907.42 122.44 911.5C120.33 909.3 118.32 906.96 116.83 904.26C110.35 892.42 124.57 889.98 133.13 889C139.23 888.29 145.35 887.97 151.46 887.73C172.66 886.9 203.56 886.85 224.75 885.84C233.82 885.36 242.89 884.79 251.73 882.9C258.49 881.42 265.77 878.93 268.96 872.36C269.64 871.17 270.19 869.82 270.65 868.54C273.34 860.78 272.88 851.43 268.09 844.69C260.87 834.47 239.46 834.85 227.55 833.71C203.1 832.26 178.68 830.2 154.26 827.46C135.88 825.19 115.95 822.19 99.7301 811.77C71.2801 793.41 49.3001 761.48 51.8401 726.46C51.9101 725.88 52.0001 723.37 52.0601 722.74C52.2801 721.08 52.8801 717.03 53.1201 715.38C53.6301 713.17 54.2701 710.35 54.7901 708.14C55.2801 706.55 56.5301 702.66 57.0301 701.07C57.8801 698.98 58.9601 696.3 59.8101 694.21C62.7201 687.95 66.2401 681.77 70.3101 676.17C71.8801 673.74 74.5801 670.73 76.3501 668.44C87.0901 656.18 100.31 646.09 114.88 638.84C118.83 636.86 123.63 638.47 125.61 642.42C127.63 646.45 125.89 651.39 121.79 653.26C98.9001 663.91 79.3701 682.28 69.9201 705.92C69.4701 707.25 68.3001 710.57 67.8401 711.9C67.3601 713.77 66.7401 716.15 66.2501 718.02C66.0201 719.4 65.4101 722.86 65.1801 724.24C65.0401 726.18 64.7901 728.59 64.6501 730.52C64.6501 730.94 64.6701 735.19 64.6601 735.77C65.3901 763.29 83.3801 787.68 105.48 802.99C120.23 812.9 137.81 815.79 155.44 818.54C179.52 821.91 203.78 824.63 228.09 826.73C234.19 827.31 240.32 827.88 246.51 828.83C256.04 830.34 266.92 832.81 272.76 841.35C280.98 853.1 278.53 874.25 266.24 882.19H266.26Z" fill="#1F522A"/>
<path d="M798.6 673.94C770.82 710.46 739.52 744.33 705.38 774.86L889.15 774.56C890.79 773.5 893.51 765.07 896.76 752.53C896.25 752.56 895.9 752.57 895.78 752.55L896.78 752.44C907.45 711.28 923.84 626.05 926.78 611.61L927.64 608.29C933.6 575.04 941.55 528.38 945.15 496.24C945.33 495.37 970.02 490.4 982.31 486.71C959.14 433.24 901.88 444.83 836.4 446.3C826.05 446.86 815.06 447.28 803.97 447.56L801.62 669.97L798.61 673.92L798.6 673.94ZM732.77 772.53C729.86 772.53 727.5 770.05 727.5 767C727.5 763.95 729.86 761.47 732.77 761.47C735.68 761.47 738.04 763.95 738.04 767C738.04 770.05 735.68 772.53 732.77 772.53ZM753.63 772.53C750.72 772.53 748.36 770.05 748.36 767C748.36 763.95 750.72 761.47 753.63 761.47C756.54 761.47 758.9 763.95 758.9 767C758.9 770.05 756.54 772.53 753.63 772.53ZM774.49 772.53C771.58 772.53 769.22 770.05 769.22 767C769.22 763.95 771.58 761.47 774.49 761.47C777.4 761.47 779.76 763.95 779.76 767C779.76 770.05 777.4 772.53 774.49 772.53ZM795.36 772.53C792.45 772.53 790.09 770.05 790.09 767C790.09 763.95 792.45 761.47 795.36 761.47C798.27 761.47 800.63 763.95 800.63 767C800.63 770.05 798.27 772.53 795.36 772.53ZM924.7 521.89C925.27 518.89 928.05 516.9 930.91 517.44C933.77 517.98 935.62 520.86 935.05 523.86C934.48 526.86 931.7 528.85 928.84 528.31C925.98 527.77 924.13 524.89 924.7 521.89ZM920.81 542.33C921.38 539.33 924.16 537.34 927.02 537.88C929.88 538.42 931.73 541.3 931.16 544.3C930.59 547.3 927.81 549.29 924.95 548.75C922.09 548.21 920.24 545.33 920.81 542.33ZM916.91 562.76C917.48 559.76 920.26 557.77 923.12 558.31C925.98 558.85 927.83 561.73 927.26 564.73C926.69 567.73 923.91 569.72 921.05 569.18C918.19 568.64 916.34 565.76 916.91 562.76ZM913.01 583.2C913.58 580.2 916.36 578.21 919.22 578.75C922.08 579.29 923.93 582.17 923.36 585.17C922.79 588.17 920.01 590.16 917.15 589.62C914.29 589.08 912.44 586.2 913.01 583.2ZM909.12 603.64C909.69 600.64 912.47 598.65 915.33 599.19C918.19 599.73 920.04 602.61 919.47 605.61C918.9 608.61 916.12 610.6 913.26 610.06C910.4 609.52 908.55 606.64 909.12 603.64ZM905.22 624.07C905.79 621.07 908.57 619.08 911.43 619.62C914.29 620.16 916.14 623.04 915.57 626.04C915 629.04 912.22 631.03 909.36 630.49C906.5 629.95 904.65 627.07 905.22 624.07ZM901.32 644.51C901.89 641.51 904.67 639.52 907.53 640.06C910.39 640.6 912.24 643.48 911.67 646.48C911.1 649.48 908.32 651.47 905.46 650.93C902.6 650.39 900.75 647.51 901.32 644.51ZM897.43 664.95C898 661.95 900.78 659.96 903.64 660.5C906.5 661.04 908.35 663.92 907.78 666.92C907.21 669.92 904.43 671.91 901.57 671.37C898.71 670.83 896.86 667.95 897.43 664.95ZM893.53 685.38C894.1 682.38 896.88 680.39 899.74 680.93C902.6 681.47 904.45 684.35 903.88 687.35C903.31 690.35 900.53 692.34 897.67 691.8C894.81 691.26 892.96 688.38 893.53 685.38ZM889.63 705.82C890.2 702.82 892.98 700.83 895.84 701.37C898.7 701.91 900.55 704.79 899.98 707.79C899.41 710.79 896.63 712.78 893.77 712.24C890.91 711.7 889.06 708.82 889.63 705.82ZM885.74 726.26C886.31 723.26 889.09 721.27 891.95 721.81C894.81 722.35 896.66 725.23 896.09 728.23C895.52 731.23 892.74 733.22 889.88 732.68C887.02 732.14 885.17 729.26 885.74 726.26ZM881.84 746.69C882.41 743.69 885.19 741.7 888.05 742.24C890.91 742.78 892.76 745.66 892.19 748.66C891.62 751.66 888.84 753.65 885.98 753.11C883.12 752.57 881.27 749.69 881.84 746.69ZM878.81 761.47C881.72 761.47 884.08 763.95 884.08 767C884.08 770.05 881.72 772.53 878.81 772.53C875.9 772.53 873.54 770.05 873.54 767C873.54 763.95 875.9 761.47 878.81 761.47ZM857.95 761.47C860.86 761.47 863.22 763.95 863.22 767C863.22 770.05 860.86 772.53 857.95 772.53C855.04 772.53 852.68 770.05 852.68 767C852.68 763.95 855.04 761.47 857.95 761.47ZM837.08 761.47C839.99 761.47 842.35 763.95 842.35 767C842.35 770.05 839.99 772.53 837.08 772.53C834.17 772.53 831.81 770.05 831.81 767C831.81 763.95 834.17 761.47 837.08 761.47ZM816.22 761.47C819.13 761.47 821.49 763.95 821.49 767C821.49 770.05 819.13 772.53 816.22 772.53C813.31 772.53 810.95 770.05 810.95 767C810.95 763.95 813.31 761.47 816.22 761.47Z" fill="#1F522A"/>
<path d="M160.74 694.11C157.53 694.02 158.91 705.21 159.73 707.91C165.66 727.34 257.22 729.02 293.09 725.12C287.61 719.23 282.21 713.26 276.9 707.22C252.94 709.1 179.73 703.87 160.74 694.11Z" fill="#1F522A"/>
<path d="M160.74 665.33C157.81 665.25 158.69 673.83 159.49 676.18C162.6 685.29 216.87 693.47 227.9 694.12C243.67 695.05 256.21 694.55 265.59 694.07C261.26 688.93 257 683.73 252.8 678.48C221.58 679.22 190.63 674.36 160.73 665.33H160.74Z" fill="#1F522A"/>
</svg>
