<?xml version="1.0" encoding="UTF-8"?>
<svg id="Layer_1" data-name="Layer 1" xmlns="http://www.w3.org/2000/svg" viewBox="0 0 1024 1080">
  <defs>
    <style>
      .cls-1 {
        fill: none;
        stroke: #fff;
        stroke-linecap: round;
        stroke-linejoin: round;
        stroke-width: 2px;
      }
    </style>
  </defs>
  <path class="cls-1" d="M382.84,625.4c2.68,5.25,3.38,11.21,6.18,16.87,6.92-5.79,12.56-12.63,18.26-19.38,18.5-21.92,36.5-44.23,53.61-67.27,4.37-5.88,5.37-11.33,3.9-18.11-2.65-12.2-4.09-24.63-5.85-36.96-1.76-12.3-3.87-24.55-5.29-36.91-1.27-11.05-3.95-21.82-7.24-32.52-4.92-16.01-8.76-32.34-11.72-48.87-1.88-10.5-3.75-21.03-6.06-31.44-2.44-10.97-4.43-22.02-6.8-33-3.19-14.77-6.74-29.44-11.12-43.9-.25-.81-.93-1.94-2.29-2.73-10.14,3.27-19.82,8.32-29.58,13.18-24.34,12.12-47.83,25.88-72.06,38.13-16.91,8.56-28.93,21.91-41.79,34.77-1.8,1.8-3.27,3.84-6.49,3.63-2.66-.18-4.25,2.53-5.39,4.43-9.74,16.3-20.15,32.18-30.04,48.39-.15.24-.02.65-.02,1.42,3.46,3.79,6.31,8.49,10,12.54,1.09,1.2,2.12,2.31.99,4.01"/>
  <path class="cls-1" d="M306.94,390.22c3.98,7.73,5.39,16.3,7.89,24.5,7.46,24.48,15.03,48.92,22.53,73.38,5.51,17.97,11,35.95,16.58,53.89,3.58,11.51,7.32,22.97,10.85,34.5,4.68,15.31,10.13,30.38,14.09,45.91.1.39.64.67.97,1.01"/>
  <path class="cls-1" d="M268.49,429.17c5.53.72,10.25-.56,13.26-6.68,5.59,9.15,9.09,18.08,13.11,26.7,18.69,40.08,38.07,79.83,57.08,119.76,4.61,9.68,8.93,19.5,13.99,28.95.82,1.53.91,2.96.93,4.53"/>
  <path class="cls-1" d="M647.98,655.86c1.31-32.78,2.83-65.56,1.88-98.36-.3-10.34-.8-20.71-2.76-30.98-1.52-7.97-5.52-12.46-13.57-14.08-5.95-1.2-11.96-2.65-17.5-5.37"/>
  <path class="cls-1" d="M560.59,655.86c-.49,2.38,1.28,4.91,2.21,5.77,3.87,3.6,3.28,7.88,3.28,12.21,0,22.47.1,44.94-.02,67.41-.1,18.81.04,37.63.82,56.41.22,5.23-1.56,9.91-1.45,15,.1,4.97,3.03,6.07,6.66,6.43,18.83,1.88,37.61.25,56.43-.79,14.01-.78,27.98-1.93,41.92-3.26,6.77-.65,13.94-.15,19.98-4.38"/>
  <path class="cls-1" d="M234.54,505.57c.24,1.68-1.7,2.12-2.39,3.85,48.88,45.38,98.04,90.39,146.7,136.02-1.6,1.71-3.09,1.47-4.49,1.44-21.98-.54-43.92,1.5-65.91,1.09-6.98-.13-13.96.96-20.97.92"/>
  <path class="cls-1" d="M704.4,658.86c4.22,4.89,5.56,10.62,5.53,16.98-.1,25.13.32,50.27-.19,75.39-.27,13.49-.65,27.07-2.96,40.43-.62,3.62-1.17,7.54-3.89,10.5"/>
  <path class="cls-1" d="M271.49,493.58c-.03,6.53.26,13.04,1.69,20.49-5.31-.02-10.53-.22-16.3,1.34.47-7.47.07-14.06-2.57-20.72-8.83,2.42-16.17,8.33-25.13,11.88-12.93-12.83-26.34-25.04-38.9-37.8,8.2-17.52,19.92-32.69,31.12-48.33,3.35,1.14,4.33,4.39,6.63,6.26,12.37,10.07,22.33,22.59,31.64,35.18,10.4,14.07,20.92,28.1,31.42,42.1,23.88,31.85,47.81,63.67,71.98,95.31,3.21,4.2,6.58,8.38,9.8,12.63"/>
  <path class="cls-1" d="M567.58,808.16c1.17,6.97,2.45,7.84,9.99,8.02,27.73.64,55.31-1.44,82.9-3.87,10.12-.89,20.41-1.2,30.4-2.49,18.57-2.4,37,.58,55.47-.61,13.79-.89,27.62-1.17,41.44-1.04"/>
  <path class="cls-1" d="M381.84,381.73c15.48,12.58,29.08,26.38,36.2,45.85,3.58,9.8,7.75,19.42,10.06,29.59,1.08,4.76,2.56,9.66.84,14.99-1.99,6.19-7.31,10.45-13.62,8.83-2.83-.72-5.71-1.13-8.52-1.89"/>
  <path class="cls-1" d="M598.04,476.11c5.54-1.56,11.08.13,16.46.71,19.21,2.06,38.35,4.75,57.47,7.62,5.6.84,11.28,1.59,16.95,2.19,5.26.55,7.85,3.55,9.05,8.95,1.47,6.62,1.22,13.36,1.27,19.99.15,17.64,1.32,35.29.56,52.92-.52,11.99.2,23.99-.89,35.96"/>
  <path class="cls-1" d="M689.92,659.36c-4.47,2.25-9.36,1.07-13.99,1.33-16.45.93-32.94,1.27-49.42,1.83-14.31.49-28.66.22-42.94,1.42-3.83.32-7.61,1.18-11.49.92"/>
  <path class="cls-1" d="M403.31,476.11c3.76,1.2,2.92,4.88,3.96,7.5,3.31,8.37,5.49,17.16,9.08,25.43,1.33,3.07.74,5.34-.99,8.06-6.66,10.48-15.47,19.13-23.51,28.44-5.24,6.07-10.28,12.45-16.18,17.76-6.11,5.51-5.9,11.23-4.41,18.19,2.68,12.45,6.21,24.67,9.64,36.91.65,2.3,1.39,4.16.08,6.59-.63,1.17-.35,3.2.28,4.93,1.83,5.1,3.75,10.18,4.83,15.79,5.02.45,9.92.51,14.71.54,24.3.13,48.6.76,72.9.66.91,0,1.67-.33,2.5-.53"/>
  <path class="cls-1" d="M533.38,488.09c-3.25,1.5-6.46,2.41-10.25,2.12-6.56-.51-10.89,4.39-10.22,12.84.36,4.61-.7,8.8-1.45,12.97-2.06,11.44-2.75,23-3.11,34.49-.46,14.46-1.3,28.96-.61,43.43.55,11.49.1,22.98.43,34.46.28,9.75,4.54,14.43,13.47,14.98"/>
  <path class="cls-1" d="M380.84,379.74c1.04,6.07-.52,12.08-1.26,17.94-1.65,13.15-3.2,26.31-4.76,39.48-1.67,14.13-.72,28.3-.97,42.45-.1,5.74.86,11.37,1.98,16.98.78,3.93,2.27,7.57,6.53,8.37,4.15.78,7.8-.47,10.56-4.31,2.06-2.86,3.74-5.81,4.84-9.08.56-1.66.85-3.19,3.05-2.98"/>
  <path class="cls-1" d="M686.42,740.25c2.85,11.2,1.04,22.05-1.83,33-1.1,4.2-1.81,8.44-3.62,12.46-2.19,4.86-5.62,7.23-11.03,7.53-14.91.84-27.11-4.7-37.45-15.05-2.16-2.16-4.3-4.35-6.5-6.49-6.98-6.78-16.13-5.04-19.92,4.01-3.5,8.35-3.35,12.94,3.95,20.45"/>
  <path class="cls-1" d="M518.65,679.33c-3.29,7.25-3.93,14.45-.63,22.03,1.19,2.72,2.5,5.67,5.12,5.67,2.64,0,4.36-2.43,5.13-5.7,2.17-9.24,3.33-17.94-5.42-24.58-9.56,3.8-13.82,10.07-14.22,20.06-.64,15.81-.49,31.64-1.15,47.43-.47,11.36.63,22.65.12,33.96-.1,2.26.57,4.12,1.55,5.99"/>
  <path class="cls-1" d="M562.09,661.36c-5.35-.14-9.7-3.41-14.37-5.27-10.41-4.14-21.28-5.62-32.07-7.68-2.58-.49-3.18.94-3.59,3.45-2.03,12.26-3.33,24.53-2.39,36.97"/>
  <path class="cls-1" d="M686.42,733.26c2.27-9.23,3.29-18.45,1.64-27.99-.79-4.58-.69-9.06-2.92-13.57-2.61-5.29-6.34-7.84-11.7-7.77-5.92.08-10.11,3.37-12.5,8.87-1.04,2.41-1.82,4.95-1.91,7.5-.18,5.36,1.02,9.96,6.34,13.1,5.58,3.29,10.28,1.73,15.03-1.15,3.11-1.89,4.35-5.58,7.01-7.95"/>
  <path class="cls-1" d="M537.13,575.97c2.4,3.84,3.9,8.25,8.45,10.55,6.58,3.33,18.26.7,21.43-5.6,2.71-5.39,2.52-11.46-.62-16.32-3.43-5.31-9.38-7.98-15.76-6.94-4.99.81-7.92,5.08-10.6,9.26-1.06,1.65-1.32,3.74-2.91,5.05"/>
  <path class="cls-1" d="M688.92,589.45c9.88,12.26,9.53,29.39,3.85,42.38-.73,1.68-2.45,3.28-4.2,4.74-9.25,7.73-20.25,11.81-31.1,16.33-1.08.45-2.81.11-3.01,1.96"/>
  <path class="cls-1" d="M538.62,619.91c2.9,2.61,5.27,5.78,8.97,7.53,5.72,2.71,12.53,1.2,17-4.03,4.58-5.37,5.39-13.6,1.46-18.45-5.42-6.68-13.81-11.41-21.94-5.53-5.34,3.86-8.14,13.23-5.98,20.48"/>
  <path class="cls-1" d="M615.02,506.57c-26.64-5.44-53.15-11.5-79.89-16.48"/>
  <path class="cls-1" d="M623.01,587.46c5.54-8.11,1.46-19-6.97-22.52-4.45-1.86-8.96-2.52-12.93.16-4.52,3.05-6.44,8.16-5.43,13.34,2.08,10.68,8.52,17.28,23.33,11.01"/>
  <path class="cls-1" d="M685.42,733.26c-3.51-5.11-7.3-9.54-14.48-9.05-6.85.47-12.16,4.75-12.91,11.56-.42,3.82-.32,7.74.93,11.47,2.52,7.48,14.16,9.35,20.05,3.58,3.14-3.07,4.14-7.14,6.41-10.57"/>
  <path class="cls-1" d="M362.86,272.88c-6.6-1.39-9.1-6.77-12.09-11.92-1.56-2.7-2.22-6.01-4.9-8.64-10.77,13.13-21.44,25.76-32.03,38.47-6.74,8.09-12.86,16.69-19.9,24.53-1.18,1.31-2.65,2.45-1.49,4.5"/>
  <path class="cls-1" d="M259,361.26c-.98,3.46-.63,6.79,1,9.99,6.67,13.12,11.03,27.22,17.31,40.52,3.03,6.42,7.5,7.89,13.65,7.41"/>
  <path class="cls-1" d="M598.04,478.1c-3.97-4.7-9.62-2.72-14.5-3.38-10.23-1.4-19.48,3.28-28.88,6.1-6.91,2.07-14.2,3.45-20.54,7.27"/>
  <path class="cls-1" d="M628,753.23c5.51-4.82,5.23-11.7,5.86-17.99.89-8.95,1.22-17.93-.17-26.98-.58-3.79.67-8.03.62-11.95-.11-8.19-4.31-14.02-11.74-18.09-10.55-5.78-21.92-8.56-33.51-10.89-2.66-.53-5.35-.85-7.99-1.48"/>
  <path class="cls-1" d="M385.33,280.37c-2.12-3.94-2.72-8.44-4.55-12.46-3.08-6.76-4.17-6.85-8.93-2.52-21.11,19.25-44.69,35.44-66.34,54-1.53,1.31-4.27,2.02-4.06,4.91"/>
  <path class="cls-1" d="M554.1,758.72c-3.53-2.81-6.32-1.42-7.92,2.03-3.51,7.55-4.98,15.13-.19,23.01,1.94,3.2,4.2,4.84,7.6,4.34,3.74-.55,4.34-3.97,4.43-6.91.22-7.45,1.31-15.09-2.92-21.97"/>
  <path class="cls-1" d="M632.5,738.25c-2.29-2.22-3.52-5.3-6.47-7.03-8.05-4.73-15.52-1.23-18.95,8.05-2.92,7.92,1.43,16.55,9.46,18.87,3.51,1.02,6.75-.49,9.46-2.92"/>
  <path class="cls-1" d="M626.5,618.41c1.16,12.59-2.28,24.26-7.63,35.39-1.3,2.71-4.46,4.21-7.85,4.59-15.1,1.73-30.07.94-44.94-2.04-.99-.2-2.14.55-3-.49"/>
  <path class="cls-1" d="M539.62,533.53c.61,1.46,1.11,2.97,1.63,4.45,2.15,6.1,8.56,10.33,14.35,10.03,6.24-.32,11.92-4.53,13.97-10.49,2.41-7.01-.41-12.8-5.98-16.47"/>
  <path class="cls-1" d="M615.02,655.86c-5.46-1.11-10.99-.34-16.48-.47-9.49-.23-19.04-.9-28.45-.7-13.4.28-25.38-4.66-37.92-7.48-4.09-.92-7.93-3.02-11.7-5.56-6.89-4.64-7.94-11.41-9.18-18.27-.65-3.61-1.26-7.28-1.62-10.96"/>
  <path class="cls-1" d="M512.16,787.18c16.08,11.55,33.17,21.29,51.39,29.07,1.01.43,1.38-.3,2.04-.11"/>
  <path class="cls-1" d="M683.43,558.99c-3.47-.11-3.48,3.07-4.41,5.03-2.31,4.85-2.63,10.31-3.94,15.47-.47,1.84.54,4.23,2.88,4.91,2.35.68,2.81-1.47,3.46-2.96,2-4.61,1.63-9.65,2.52-14.47.27-1.49-.61-3.1.5-4.49"/>
  <path class="cls-1" d="M291.46,332.8c3.9,15.22,8.17,30.33,12.44,45.45.2.71.71.98,1.04,1.49"/>
  <path class="cls-1" d="M679.93,515.55c5.1,3.68,3.47,9.18,3.29,13.97-.09,2.56.61,5.65-1.67,8.11-.59.63-.45,2.59.81,3.95,1.85,1.99,2.23,4.91,1.97,7.41-.78,7.48,1.53,14.39,3.05,21.49.87,4.09,1.14,8.31,1.49,12.48.22,2.67.62,5.17-2.79,7.22-3,1.8-2.71,6.33-3.68,9.74-.61,2.15-.59,4.38-1.32,6.55-.69,2.03,0,4.66,2.39,5.35,3.12.89,2.91-2.49,3.33-3.94,1.53-5.34,1.54-10.98,2.64-16.44"/>
  <path class="cls-1" d="M507.17,781.69c-1.37,1.83-3.32.95-4.99.96-13.65.05-27.3.2-40.94-.46"/>
  <path class="cls-1" d="M312.93,370.75c-5.78,2.08-7.46,4.76-6.4,11.97.64,4.34.52,8.14-3.62,10.45-4.44,2.48-1.89,6.75-2.77,10.09-.54,2.04-.96,4.47-.39,6.98.48,2.09-.89,4.12-3.79,4.56-1.84.28-4.41.43-4.55,3.31,3.55,7.03,10.24,13.13,17.06,15.58,1.08-7.04.67-14.07-.64-20.97-.88-4.61-2.86-5.12-6.39-2.52"/>
  <path class="cls-1" d="M611.03,695.31c-3.02,4.59-3.41,9.74-2.95,14.98.37,4.22,3.36,6.44,6.95,7.99,4,1.74,7.83,1.3,11.48-1,3.22-2.02,4.63-5.43,6.49-8.49"/>
  <path class="cls-1" d="M332.4,393.72c9.04,4.19,16.12,11.04,23.43,17.52,6.79,6.01,12.84,12.79,19.01,19.43"/>
  <path class="cls-1" d="M625.51,535.53c-3.92-4.86-8.91-8.61-14.56-10.78-4.34-1.67-9.2-2.63-13.91-3.11-11.27-1.13-22.51-2.75-33.96-1.76-3.71.32-7.34-1.8-11.53-.53-3.64,1.1-6.57,2.88-8.32,5.76-4.53,7.46-8.12,15.22-8.24,24.4-.1,7.75-.32,15.4,1.6,22.98.59,2.35-.41,4.68-.95,6.98-2.47,10.61-3.48,21.25-.55,31.97.2.72.71.98,1.04,1.49"/>
  <path class="cls-1" d="M684.43,771.21c-2.59-3.26-4.63-7.01-8.98-8.52-6.46-2.25-11.49-.03-16,4.52-4.43,4.47-5.88,9.52-3.5,15.5.17.43.02.99.02,1.49"/>
  <path class="cls-1" d="M375.84,433.66c4.21,3.88,6.89,8.75,8.98,13.98,3.65,9.13,8.16,17.71,14.88,25.06.81.88,1.36.72,2.1.9"/>
  <path class="cls-1" d="M304.94,303.34c2.19,2.69,1,5-1.02,6.96-4.08,3.94-8.23,7.74-12.77,11.25-5.79,4.48-10.37,10.58-15.11,16.28-4.98,6-9.82,12.13-15.06,17.91-1.21,1.33-2.31,2.57-1.97,4.52"/>
  <path class="cls-1" d="M558.6,766.71c3.2,3.36,4.5,7.33,4.55,11.98.1,9.17-.91,18.41,1.44,27.46"/>
  <path class="cls-1" d="M695.41,491.09c-11.9,5.3-23.79,10.65-35.45,16.48-.76.38-1.92.21-2,1.5"/>
  <path class="cls-1" d="M688.42,697.31c3.1-5.29,2.37-11.27,2.94-16.98.59-5.98-.43-11.97-.52-17.97-.1-6.75-7.36-12.14-14.39-10.95-5.02.85-10.01,1.93-14.96,3.07-7.34,1.69-14.5,2.14-22.02,1.04-6.72-.99-13.65.45-20.45-.65"/>
  <path class="cls-1" d="M604.03,481.1c-1.48,4.44-5.57,2.9-8.51,3.36-4.29.67-8.54-.22-12.1-2.96.82-2.9,3.25-2.2,4.64-2.27,15.87-.78,31.1,2.42,45.94,7.85,2.72,1,5.22,2.52,8.52,1.64,2.63-.7,5.7,1.09,9.05,3.95-3.77,6.62-10.76,7.76-17.09,9.85-5.97,1.98-12.3,2.4-18.46,3.55"/>
  <path class="cls-1" d="M626.5,539.52c1.71,1.88,1.46,4.22,1.5,6.49.15,9.17,0,18.33-.97,27.47-.08.79-.7.99-1.03,1.49"/>
  <path class="cls-1" d="M539.62,714.78c-4.12-1.42-7.1.12-8.43,4.02-2.96,8.69-3.96,17.37,1.94,25.44"/>
  <path class="cls-1" d="M606.53,524.54c-4,3.43-7,7.51-6.93,12.98.08,6.36,6.46,12.78,12.92,13.48,5.95.65,11.14-3.94,12.98-11.48"/>
  <path class="cls-1" d="M247.52,411.19c-1.22,3.7,1.52,6.46,2.65,9.43,3.2,8.43,8.25,16.11,10.33,25.02"/>
  <path class="cls-1" d="M633.49,747.24c1.13,10.04,1.66,20.05-1,29.96"/>
  <path class="cls-1" d="M545.61,729.76c3.59,4.35,3.68,10,5.32,15.04,1.48,4.52,4.33,8.81,3.67,13.93"/>
  <path class="cls-1" d="M530.63,688.82c4.04,4.79,5.16,10.93,7.41,16.51,2.8,6.93,4.33,14.32,6.35,21.5,1.73,6.13-.59,12.48-2.86,18.38-.85,2.21-3.16,2.53-5.41,2.03"/>
  <path class="cls-1" d="M310.43,341.79c-.9,6.27,1.25,12.29,1.73,18.46.38,4.97,1.3,9.98,1.72,15,.15,1.84,1.1,3.31,1.61,5.18,1.35-.7,2.78-1.17,3.94-2.17,4.54,3.54,3.68,9.8,6.93,13.42.23,2.17-1.64,1.05-1.94,2.04"/>
  <path class="cls-1" d="M625.51,584.46c2.53,8.23,2.6,16.57,1,24.97"/>
  <path class="cls-1" d="M640.49,489.59c1.88,3.63-1.61,3.23-3.01,3.38-3.96.42-8.07,1.47-11.94.03-2.33-.87-5.04.71-7.34-1.64,4.96-3.18,10.65-2,15.79-3.26"/>
  <path class="cls-1" d="M703.4,657.86c-4.86-6.53-12.69-7.56-19.53-10.35-1.15-.47-2.4-1.62-3.94-1.13"/>
  <path class="cls-1" d="M280.97,372.75c5.79,4.92,9.26,11.71,14.03,17.44,1.57,1.89,2.46,4.44,4.95,5.53"/>
  <path class="cls-1" d="M538.12,620.41c-.33,8.77,2.64,16.57,6.99,23.97"/>
  <path class="cls-1" d="M279.48,368.75c1.49,6.43,1.69,13.11,3.54,19.46.82,2.81.24,5.92,1.96,8.5"/>
  <path class="cls-1" d="M294.46,391.22c-.68,1.97-2.74.71-4.12,1.85-2.72,2.26-4.95,3.89-4.05,8.17.63,2.99.98,6.26.68,9.45"/>
  <path class="cls-1" d="M323.92,394.72c-1.69,4.51-2.21,9.19-2,13.98.07,1.65-.48,3.7,1.53,4.42,1.99.71,2.66-1.57,4.08-2.36,1.72,1.54.87,4.05,1.86,5.99,1.84,1.04,3.3.5,4.52-1.06.22-2.48-2.98-4.23-1.5-6.99"/>
  <path class="cls-1" d="M254.51,480.6c-4.34-.79-7-4.32-10.45-6.54-5.92-3.81-11.93-7.38-18.42-10.36-1.7,3.34.52,5.6,1.51,7.87,2.11,4.84,2.73,10.52,7.4,14.02"/>
  <path class="cls-1" d="M633.49,698.8c-2.66-2.19-3.02-6.2-6.94-7.62-4.56-1.64-8.45-.17-12.53,1.13"/>
  <path class="cls-1" d="M310.93,342.79c5.49,6.38,10.29,13.08,12.63,21.43,1.02,3.63,1.95,7.84,5.84,10.03"/>
  <path class="cls-1" d="M402.31,467.62c-1.08,17.78.8,35.25,5.9,52.49,1.6.58,3.13-1.42,5.08-1.06"/>
  <path class="cls-1" d="M524.64,491.09c-5.87,2.84-9.05,7.6-10.02,13.98-.08.54-.63.67-.97.5"/>
  <path class="cls-1" d="M643.48,515.05c6.51-3.01,12.75-6.52,20.49-5.63,4.23.49,7.99,2.08,11.97,3.13"/>
  <path class="cls-1" d="M245.02,408.2c5.23,4.24,10.89,8,15.45,13.01,3.67,4.04,8.23,7.44,10.02,12.95"/>
  <path class="cls-1" d="M285.47,461.13c2.59-1.84,4.79-3.75,4.56-7.49-.28-4.46-2.37-6.13-6.53-4.42-.84.34-1.54,1.18-2.77,1.54-.96-3.37-2.6-5.45-6.72-5.85-2.95-.29-4.22,2.13-4.29,2.77-.53,4.55,1.15,8.48,5.08,11.19-2.16,2.98-4.56,5.56-2.8,9.26.74,1.57,1.44,3.56,3.48,3.39,1.5-.12,3.38-.45,3.64-2.88.07-.69.91-1.91,1.86-2.51"/>
  <path class="cls-1" d="M632.5,780.19c-1.75,6.17-3.4,12.39-9.49,15.98"/>
  <path class="cls-1" d="M270.49,495.08c-4.99.3-10.02-.62-14.98.5"/>
  <path class="cls-1" d="M326.91,392.22c5.66.97,11.31,9.85,10.49,16.48-6.92-1.02-8.82-2.57-9.9-9-.35-2.08-1.07-3.99-1.58-5.98"/>
  <path class="cls-1" d="M244.02,475.61c-13.25,9.38-10.18,8.33-4.42,20.44.55,1.17,1.3,2.21,1.43,3.53"/>
  <path class="cls-1" d="M268.99,448.64c-5.05,2.64-4.74,8.7-7.99,12.48"/>
  <path class="cls-1" d="M289.96,468.12c-.98-2.89-4.78-3.39-5.66-6.5-1.45-.12-2.35,1.01-3.47,2.2,1.98,2.81,3.16,6.2,5.59,8.82,2.02-.64,2.36-2.69,3.54-4.01"/>
  <path class="cls-1" d="M272.98,444.15c.04-3.17,2-6.24.48-10-1.93.15-3.76.07-4.47,2.51"/>
  <path class="cls-1" d="M298.45,414.69c2.43,4.81,2.22,5.24-3,5.45-.9.04-1.67.34-2.49.54"/>
  <path class="cls-1" d="M680.93,538.02c-2.09-1.94-3.25-4.64-5.44-6.55-1.42-1.23-2.61-1.05-4.04-.44"/>
  <path class="cls-1" d="M670.44,532.03c-2.15,4.25-5.51,8.28-2.5,13.48"/>
  <path class="cls-1" d="M700.9,656.86c-3.23,1.23-6.41,2.67-9.99,2.5"/>
  <path class="cls-1" d="M621.01,525.54c-3.03-.27-5.63-3.16-8.99-1.5"/>
  <path class="cls-1" d="M406.8,510.56c3.25.77,5.56,3.63,8.99,3.99"/>
  <path class="cls-1" d="M322.42,363.76c-3.94-.22-5.15,4.2-8.49,4.99"/>
  <path class="cls-1" d="M263,425.18c-3.24.75-3.59,4.4-5.99,5.99"/>
  <path class="cls-1" d="M685.92,734.26v4.99"/>
  <path class="cls-1" d="M681.43,541.02c-1.64,1.13-2.34,2.99-3.5,4.49"/>
  <path class="cls-1" d="M700.9,804.16c-1.57.76-2.74,1.93-3.5,3.5"/>
  <path class="cls-1" d="M607.53,601.44c-6.34,2.36-10.93,6.06-11.53,13.48-.64,7.9,3.29,14.03,11.03,16.48,6.07,1.92,12.41-.87,15.89-7.54,1.39-2.67,3.1-5.35,3.57-8.44,1.07-7-5.77-12.97-12.98-13.94-1.8-.24-3.66-.04-5.49-.04"/>
</svg>