<?xml version="1.0" encoding="UTF-8"?>
<svg id="Layer_1" data-name="Layer 1" xmlns="http://www.w3.org/2000/svg" viewBox="0 0 1024 1080">
  <defs>
    <style>
      .cls-1 {
        fill: #fff;
      }
    </style>
  </defs>
  <path class="cls-1" d="M371.53,736.87c-8.85-3.97-15.26-13.93-23.96-19.22-9.24-2.39-54.58,2.35-59.27-1.03-2.36-1.7-3.96-17.16-2.34-20.48,1.24-2.53,32.47-16.49,36.63-17.26,6.71-1.24,15.53,2.58,22.85.97-.59-2.84-5.26-2.59-8.02-4.25-1.07-.64-1.39-2.91-3.02-3.83-1.24-.7-12.03-1.31-8.51-4.91,6.89-7.03,84.42-12.43,97.78-8.15-1.49-5.87,3.12-9.27,3.25-14.67-.26-.34-4.23,2.6-6.03,2.92-28.37,5.06-109.44,2.62-135.23-9.15-14-6.38-11.95-11.7-19.72-22.64-20.51-28.87-50.81-59.6-32.56-98.57,8.05-17.18,39.74-21.87,51.74-6.92,7.06,8.8,19.86,42.26,22.73,53.84,1.75,7.08.26,20.03,6.69,22.76,3.48,1.48,6.73-1.12,10.45-.95,5.32.25,29.93,7.48,32.77,3.42,1.15-1.64-1.99-34.49-2.76-39.78-1.45-10.02-4.96-18.85-6.33-28.71-6.18,5.1-10.42,10.65-19.54,9.79,1.41,11.1,8.93,45.67,4.85,54.3-.8,1.7-2.95,1.53-4.03,1.04-2.26-1.02-12.28-40.54-14.71-47.19-2.47-6.75-9.42-15.76-10.27-22.46-.7-5.55,3.46-8.1,2.21-11.68-1.12-3.21-6.97-8.4-9.07-12.26-7.93-14.61-3.5-21.81-23.65-20.46-41.29,2.77-57.91,70.1-60.85,103.68-.97,11.03.94,22.29-.94,33.27-2.55,14.9-10.85,43.95-15.11,59.81-6.86,25.56-25.49,47.4-24.91,75.27h-30.97v-3.26h27.71c1.02-24.63,17.31-44.62,23.99-66.42,9.01-29.42,14.41-62.4,16.73-92.3,3.37-43.41,22.04-121.53,79.56-112.9,5.01,7.67,7.23,16.84,12.01,24.63,2.24,3.65,7.81,6.97,8.87,10.81,1.06,3.83-3.59,6.98-2.32,13.48,1.05,5.36,8.73,17.7,11.16,24.78,3.98,11.55,6.28,23.85,10.22,35.41.59,1.71.35,4.93,2.74,4.55-1.82-34.36-4.54-69.3-21.47-99.86-3.91-7.06-13.5-16.67-15.28-23.88-1.38-5.61,1.07-8.08.59-11.89-1.13-9.1-12.75-23.1-12.71-37.81.03-14.23,15.3-34.11,27.17-41.23,15.41-9.24,51.93-16.41,64.12.49,6.91,9.58.14,14.21.6,19.57.17,1.98,6.52,10.99,7.33,18.09s-1.53,13.64-1.09,18.99c.57,6.9,8,14.49,7.44,21.23-.57,6.92-7.62,4.65-9.14,6.33-2.74,3.03.06,17.56-5.18,24.94-9.28,13.05-20.38,2.04-24.06,6.05-2.51,2.74-5.93,24.92-13.57,18.16l-25.92-31.54c2.2,9.33,9.06,17.21,12.17,26.09,2.54,7.24,4.37,27.44,8.12,31.06,3.16,3.05,13.63-6.54,14.75-10.05,1.25-3.9-.73-5.66-.88-8.9-.52-11.05,5.52-6.63,7.49.87,1.78,6.78-2.22,6.96-2.45,10.55-.19,3.03,6.86,27.25,7.85,34.44.71,5.17,3.71,36.09,1.66,37.91-10.79,2.29-20.34-1.64-30.16-2.92-8.66-1.13-20.65,3.58-23.11-7.85-1.14-5.3.11-10.96-1.06-16.85-1.79-8.98-17.3-47.16-23.04-53.53-10.78-11.98-37.99-8.17-46.09,5.82-14.12,24.36-.61,52.27,13.08,72.77,4.01,6,27.74,40.47,30.61,42.7,11.44,8.88,44.79,12.86,59.59,13.74,20.13,1.2,50.22,1.61,70.13.07,7.03-.54,16.29-1.05,16.45-9.23.17-8.62-.16-23.93-1.03-32.36-.26-2.53-1.29-8.53-3.24-9.89-1.77-1.24-36.13,1.47-43.19.9-3.81-.31-9.94-1.61-13.59-2.79-2.73-.88-4.3.72-3.55-3.69,17.11.2,34.28-.28,51.4-.08,4.39.05,8.38,2.11,12.95,1.81,11.97-.78,28.25-15.43,39.94-1.74-.17-7.13-7.35-10.46-9.06-17.8-3.85-16.49,5.74-38.58,15.03-52.06,4.76-1.33,19.12,4.92,22.47,4.81,1-.04.1-3.06,3.25-3.48,3.4-.46,25.39-.23,27.08.88,3.44,2.28,12.8,44.54,3.89,49.62l-10.47,9.87c10.5,1.27,26,1.4,35.37,6.2,7.94,4.07,15.47,13.76,21.67,19.88-11.61-6.59-18.9-17.58-32.19-20.76-6.59-1.58-22.02-3.21-28.2-1.31-8.75,2.69-18.65,20.67-7.22,25.32,4.77,1.94,1.03-8.05,1.69-9.84,2.15-5.9,18.79-8.74,18.63-3.99-.08,2.46-13.78,4.29-14.64,8.96h23.63c8.29,0,34.13,39.34,48.61,45.88,11.6,5.24,10.86-.38,19.94-1.8,5.63-.88,16.59,1.55,19.82.33,1.1-.41,10.44-8.05,10.78-8.99,1.24-3.42-2.33-9.29-.48-16.54,6.2-24.28,22.2-67.22,36.08-87.8,2.31-3.43,4.71-8.94,9.49-7.61-10.05,23.51-36.88,64.39-25.88,90.21,8.73,20.49,9.37,5.41,19.37-2.27-1.65,2.62-8.44,17.93-10.6,17.89-19.51-16.44-13.59-30.77-9.68-52,.31-1.69,2.15-5.34-.89-4.96-4.09,10.97-5.93,22.67-9.34,33.83-2.59,8.47-11.14,17.49-5.45,26.92.92,1.53,4.09,2.2,5.74,4.41,4.8,6.42,5.74,15.46,2.51,22.76l76.26,2.91c4.13-2.35,4.77-23.41,3.63-27.8-.38-1.48-3.43-1.68-4.57-3.88-5.2-10.01-15.76-35.01-16.04-45.57-.22-8.38,4.33-18.04,4.27-26.61l-14.93,28.21c-7.31,7.75-11.65,18.03-20.91,23.89,6-9.53,14.23-18.06,20.25-27.81,5.67-9.19,9.03-19.58,15.34-28.39-10.84-8.77-9.66-17.74-6.26-30.1-23.78,9.88-3.42-13.15-5.02-18.48-1.18-3.93-12.38-4.5-11.37-18.15.58-7.92,8.27-13.79,8.22-21.96-9.07-2.33-16.91-3.39-24.97-8.46-10.21-6.42-14.8-15.09-21.23-22.58-2.85-3.32-8.07-3-7.33-8.51,1.25-9.31,14.23-17.49,22.59-19.94,28.47-8.33,26.61,16.79,43.99,30.96,2.69,2.19,21.74,14.2,18.78,5.71-1.68-4.81-11.55-12.51-15.22-17.41-7.14-9.5-24.72-38.68-3.63-42.18,11.1-1.85,7.39,4.39,8.44,11.33,3,19.89,5.62,15.15,19.78,22.58,28.93,15.18-8.6,40.51-10.17,55.93-1.22,11.97,14.17,16.93,9.02,33.33-3.43,10.93-19.12,11.48-22.07,21.08,10.64-11.54,32.92-3.27,36.77-19.43,4.48-18.81-2.71-19.24-9.41-31.54-9.48-17.41,15.2-15.44,16.64-17.44.4-.56-2.24-9.11-1.56-13.72,1.84-12.34,11.37-14.02,3.46-31.34-1.61-3.53-10.91-21.11-12.68-23.16-9.41-10.88-36.46-18.88-48.44-10.06-3.83,2.82-3.88,14.16-4.43,14.7-1.13,1.11-22.24-.32-31.29,3.75-4.41,1.98-23.65,16.86-24.94,20.66-3.06,9.03,2.15,7.96,2.48,9.35s3.36,27.32,3.34,29.06c-.06,5.89-5.85,10.01-5.04,16.21.66,5.07,5.96,3.46,7.6,5.67,1.03,1.4-.81,4.03-.37,5.43,1.24,3.93,4.91,18.19,5.78,19.6,4.76,7.74,22.31-4.21,26.64,4.72,7.73,15.91-21.18,5.94-25.24,17.98-5.24,17.59-43.03,75.97-41.97,89.75.08,1.08,6.67,19.47-.06,14.86-5.38-3.68-1.89-14.45-3.46-16.92-.65-1.02-18.86-4.78-23.23-6.92-5.48-2.69-5.62-4.45-9.17-7.94,10.84,6.16,22.38,9.3,34.21,13.03.08-4.31,1.8-8.14,3.52-11.98,11.29-25.24,27.02-51.39,39.13-76.53,6.09-12.65,29.67-1.01,22.52-17.36-26.38,8.88-24.6-1.85-31.42-21.56-.52-1.49.42-4.07.23-4.27-1.2-1.29-6.38-.82-7.64-4.57-2.42-7.19,2.55-9.14,3.9-13.48,1.22-3.92-1.81-25.81-2.59-31.77-.76-5.77-6.55-6.21-.66-15.47,2.01-3.16,21.87-18.36,25.67-19.94,4.31-1.78,13.87-4.04,18.5-4.47,3.44-.32,8.36,2.5,10.44.87,1.8-1.42,2.3-9.49,4.76-12.78,10.5-14.08,48.38-1.78,56.15,11.94,2.85,5.03,6.64,13.61,9.71,19.61,10.99,21.45-2.9,22.11-3.88,36.59-.28,4.2,4.16,8.06,3.19,11.1-1.4,4.38-10.68,2.25-14.07,3.82-12.69,5.87,1.44,15.34,4.67,22.08,6.16,12.84,3.12,25.66-6.84,35.32,60.02,24.33,33.37,103.49,21.17,150.65l4.89-.8c.76,4.43-1.28,8.77-.89,13.1.62,6.89,8.38,37.91,11.13,44.27.98,2.27,1.4,4.54,3.63,6.14h33.41v3.26h-30.15c-.85,0-5.34-.6-5.65-.82-3.61-2.57-12.54-41.62-14.34-49.24-.66-2.81-.4-5.72-.4-8.56l-9.07,19.41c-12.25,14.59-44.68,6.81-61.34,2.9-6.04-1.42-33.73-8.97-35.51-13.39-1.4-3.49,3.66-2.68,5.58-2.31,8.85,1.68,20.3,6.69,30.25,8.87,16.72,3.66,48.84,13.24,59.02-4.58,15.28-26.76,29.72-109.42,17.89-137.41-4.63-10.95-19.75-27.58-31.21-30.79-4.32-1.21-21.43,6-24.29,10.12-5.65,8.11-2.44,14.9-2.06,22.68.04.73-2.55.6-2.92,1.94-1.68,6.05-4.73,18.21-5.02,24.09-.79,15.88,11.34,36.58,17.13,51.25l-.81-53.75c4.77-5.46,6.47,19.68,6.59,21.9.74,13.86-.32,36.62-1.73,50.54-.32,3.12-2.94,13.86-5.2,15.14-1.8,1.02-23.87.55-28.25.42-16.88-.52-43.76-1.84-58.9-7.92-19.88-7.97-19.57-18.76-42.9-3.55.24-.39-.37-1.46.02-2.17.99-1.82,3.84-.11,3.23-2.7-24.18,1.22-37.24-27.24-52.17-41.53-9.11-8.72-17.75-5.17-29.31-5.7.51,3.1,5.66,1.64,8.17,4.03,8.96,8.53-9.85,4.7-9.77,8.17,3.36,5.5,13.02,2.85,13.01,10.59h-35.86c-.3-7.67,9.56-5.67,13.03-8.95,7.45-7.03-3.65-11.35-4.83-18.02-1.54-8.72,4.73-12.36,3.79-16.59l-10.34-15.05c.94,10.65-18.49,12.25-19.75,14-5.34,7.44,4.38,13.92,3.56,22.65-.26,2.74-4.79,11.37-6.69,12.97-1.23,1.03-17.42,5.73-18.77,5.66-5.26-.28-6.42-4.8-2.38-8.05-25.26,1.57-16.97,10.11-19.63,26.78-.63,3.92-6.73,7.84-.72,12.28l4.21-13.67c9.95-7.62,29.11-15.97,39.64-5.73,4.12,4,9.73,19.82,6.64,24.34-.75,1.09-3.41,1.22-3.84,1.88-1.2,1.87,4.32,8.19-2.88,12.49-4.41,2.64-14.78,4.98-20.11,5.99-42.62,8.12-85.42-4.19-128.04-2.54l-28.47,11.42c20.88.6,41.93-.72,62.81-.05,89.72,2.88,181.18-1.55,270.56,3.26,3.71.2,18.84,1.31,20.86,1.95,4.1,1.31,2.51,7.23,5.95,7.88-.6-3.12,1.42-11.5-.96-13.2-1.17-.84-26.15-7.42-27.81-7.5-4.27-.21-9.17,4.41-14.2,2.61-2.07-.74-2.11-3.74-3.03-4.3-3.15-1.91-14.32.21-12.68-8.55-4.49-1.73-3.63,6.25-7.3,4.87-2.38-.9-4.7-8.28-5.71-6.49-.77,9.04-17.01,15.71-25.28,15.94-11.16.31-47.89-3.37-58.28-6.58-6.67-2.06-12.86-9.65-20.77-9.39,3.47-3.95,11.81-6.34,17.08-8.15,23.71-8.16,59.19-7.43,83.24-.05,1.81.55,4.27,3.07,4.83,3.07,1.88,0,3.97-5.75,5.75-7.03,1.2-.86,2.74-.56,3.19-.85-3.83,6.31-7.23,8.45-4.87,16.29,2.41-1.5,15.27-19.02,17.9-16.28.46,8.24-14.05,9.37-5.69,17.9-1.21-4.01,11.7-12.92,13.03-12.99.84-.04,3.05,1.68.85,4.07-3.61,3.92-9.98,4.07-8.17,12.18,4.13.51,3.85-3.43,6.97-5.39,3.1-1.95,7.25-3.06,10.95-2.73l-11.39,11.38c5.8.66,11.13-2.52,16.98-1.57,2.32.38,4.32,2.55,6.81,3.04,5.9,1.18,16.86,1.12,20.03,6.03,2.96,4.58-.58,25.39-1.68,32.17-.53,3.24-2.17,17.21-5.47,17.3-5.92.17,1.36-23.9-.81-26.03l-135.3,1.63c.11,3.63-.14,21.03-1.63,22.81-2.33,2.78-2.82-.65-3.43-2.27-2.43-6.49-1.2-13.78-1.45-20.54h-44.01c-1.06,7.34,1,15.82.95,22.73-.01,1.86.15,2.39-2,3.09-25.03-1.78-55.29,3.19-79.68.27-6.33-.76-8.04-2.66-12.19-6.55,2.74,1.23,7.63,2.98,10.55,3.31,24.55,2.74,54.01-2.14,79.09-.05v-22.8h-103.5c-.39,0-2.41,1.5-1.65,3.26.45,1.03,13.43,14.35,15.5,16.29ZM372.66,369.29c-3.61-4.58-15.68-8.08-21.52-8.6-31.27-2.75-65.31,19.22-64.37,52.87.05,1.88.91,10.01,3.24,10.62,1.19-4.65-1.66-9.59-1.5-13.71.41-10.66,16.48-26.21,25.11-31.92,12.3-8.14,56.16-24.25,56.42.85.21,21.11-21.35-2.83-29.33,10.07-.79,1.28-3.45,14.41-3.48,16.07-.11,5.52,4.92,18.8-1.51,22.8-6.98,4.34-8.38-12.82-21.96-10.68s3.1,27.13-12.26,33.4l38.28,48.02c3.22.66,1.99-.69,2.78-2.04,2.52-4.26,4.25-14.94,7.77-16.71,4.75-2.4,9.74,1.66,15.11.6,11.5-2.27,8.96-13.3,9.85-21.26.29-2.61,4.05-5.75,1.13-11.04,18.84,1.47,4.71-12.57,3.41-22.14-1.44-10.54,1.24-19.09-2.26-30.31-.81-2.6-3.64-4.73-4.17-7.38-1.1-5.58,4.5-12.87-.73-19.5ZM335.67,423.37c1.14-3.99,0-18.82,0-24.43,0-.55,2-9.53,2.37-10.66,4.35-12.98,31.13,4.77,30.23-8.74-1.3-19.38-35.57-8.17-46.75-2.88-11.11,5.25-29.93,22.31-30,35.29-.02,4.71,7.25,35,10.73,35,7.04.01,2.38-16.85,2.31-20.33-.24-12.53,12.51-15.15,21.4-8.22,2.44,1.9,7.5,12.66,9.71,4.97ZM713.8,391.6c-25.15,2.9-5.24,30.29,3.31,41.49,2.19,2.87,24.99,24.82,6.83,20.95-32.95-7.02-30.89-60.75-69.35-34.47-4.25,2.9-9.54,8.11-9.4,13.61.08,3.16,3.56,3.15,5.91,5.57,8.24,8.45,15.38,20.56,26.84,25.33,5.75,2.39,16.3,2.33,19.47,6.72,4.08,5.65-9.32,18.46-7.82,27.08,1.23,7.06,11.4,9.09,12.57,13.77,1.38,5.55-8.16,11.88-6.29,18.38,2.93,3.39,12.03-15.4,16.3-7.28-6.81,10.64-14.26,27.88.79,34.99-2.77-8.85,1.76-14.79,4.07-22.82-2.55,2.08-9.96,13.08-9.47,4.42,1-17.7,32.52-17.25,26.35-38.31-2.96-10.09-10.94-10.44-8.6-25.45,2.06-13.22,32.46-34.32,13.75-48.15-7.28-5.38-14.31-3.08-20.1-12.49-4.23-6.88-4.55-15.43-5.17-23.35ZM470.94,591.92c-1.77-11.16,8.66-8,14.66-12.23,9.47-6.67,15.04-38.22,13.06-48.84-1.22-6.51-24.09-11.8-28.43-5.59-6.9,9.89-12.72,34.11-10.32,45.94,1.32,6.51,6.99,9.16,8.57,12.61,1.4,3.05-.55,7.92,2.45,8.11ZM522.88,522.13l-22.58-.22c3.81,7.28,3.87,13.76,3.22,21.96-1.24,15.68-12.46,29.32,4.08,41.15,28.93-13.83,23.78-36.92,15.27-62.88ZM467.68,595.18c.74-3.06-1.06-3.15-2.71-4.61-12.53-11.02-24.69-.76-38.09,2.18l-1.18,1.54c3.16,9.24,3.16,18.92,2.89,28.58,6.42-2.83,33.13-14.04,21.17,1.61,3.92,1.09,13.82-1.75,14.53-5.89.45-2.62-9.74-11.02-3.91-11.99,5.05-.84,6.74,11.23,6.49,14.64,13.98-11.24.37-16.95-5.71-26.85l6.53.79ZM477.45,657.05c1.23-1.22-3.24-12.28-4.49-14.19-5.76-8.77-17.89-5.2-26.1-2.53-11.42,3.7-13.27,5.99-11.75,18.37,3.55.38,5.51-2.99,9.04-3.23,5.21-.34,12.34,5.26,18.65,3.22.75-4.22-4.37-5.47-5.73-8.11-4.54-8.84,14.81-2.82,11.99,6.9-.63,2.19-3.83,3.13-2.99,6.09,4.54,1.09,5.06-4.7,7.04-6.09,1.33-.93,4.06-.16,4.34-.44ZM474.2,668.49c-37.67-8.92-77.64-7.42-115.73-2.46l115.73,2.46ZM490.52,671.71c15.27-3.54,31.07,1.22,46.38,1.71,12.47.4,28.68.92,40.89,0,20.81-1.56-9.94-8.79-16.58-9.64-21.69-2.79-40.44-3.45-61.25,3.53-2.49.84-8.49,2.11-9.44,4.39ZM353.26,663.92c-3.22-1.96-17.51,4.37-22.47,2.94-.33,2.36,4.42,2.49,6.15,2.78,4.75.8,11.04,1.6,15.86,2.07,31.04,3.05,62.54,1.03,93.69,1.63.38-2.84-3.7-1.53-5.68-1.61-15.73-.64-31.63.7-47.35.07-6.55-.26-33.72-1.64-37.17-3.63-2.11-1.22-2.4-3.86-3.03-4.24ZM474.2,673.38c-31.21,2-62.39,4.64-93.78,3.31-3.02-.13-33.28-4.66-33.36-2.51,6.31,4.98,14.44,6.01,22.22,7.13,28.47,4.07,71.21,5.53,98.35-3.93,1.82-.64,6.58-1.75,6.57-3.99ZM575.27,679.89l-81.49-4.89c1.98,3.03,9.24,5.42,12.6,6.11,10.97,2.28,50.01,6.84,59.55,4.9,2.8-.57,8.09-3.21,9.34-6.13ZM343.82,712.47c-6.19-2.16-10.11-7.85-16.22-10.69-11.82-5.49-18.59-2.83-30.18-4.06-2.23-.24-4.3-2.86-4.97-2.85-5.65.06-5.04,18.41-1.33,19.27,7.95,1.85,28.99-.37,38.92-.14,4.92.11,11.34,4.42,13.79-1.53ZM651.49,701.43l-335.4-6.09c14.28,1.5,22.89,13.48,34.7,19.96,22.72-1.65,45.96-1.59,68.9-1.31,51.83.65,104.16-2.55,156.33-3.25,26.22-.35,53.25-.89,79.12,1.68-2.21-2.58-2.19-9.26-3.64-11Z"/>
</svg>