<?xml version="1.0" encoding="UTF-8"?>
<svg id="Layer_1" data-name="Layer 1" xmlns="http://www.w3.org/2000/svg" viewBox="0 0 1024 1080">
  <defs>
    <style>
      .cls-1 {
        fill: none;
        stroke: #fff;
        stroke-linecap: round;
        stroke-linejoin: round;
        stroke-width: 2.86px;
      }
    </style>
  </defs>
  <path class="cls-1" d="M443.84,557.56c-7.14,2.66-14.63,2.85-22.01,2.26-11.11-.89-22.24.06-33.34-1.04-25.11-2.48-49.21,2.89-73.22,9.39-10.06,2.73-20.52,3.47-30.92,3.57-6.16.06-12.28.83-18.45.77-2.48-.03-5.21.94-5.27,4.08-.06,3.02,2.53,2.63,4.66,3.05,3.56.7,7.13,1.26,10.73,1.72,14.82,1.9,29.79,1.48,44.64,2.94,10,.98,19.61,3.52,29.18,6.49,12.18,3.78,24.94,4.67,37.48,6.54,10.41,1.55,20.24,4.47,29.15,10.18,10.57,6.77,22.56,7.03,34.52,7.78,13.56.85,26.68-1.75,39.89-4.15,8.14-1.48,16.34-1.13,24.39,1.11,1.98.55,4.55.32,4.08,4.26-8.76-1.69-17,3.88-26.16,1.32-3.38-.94-7.32.88-9.63,4.17.73,1.85,2.02,1.58,3.15,1.54,12.37-.43,24.64-1.77,36.93-3.3,4.94-.62,10.4-2.77,15.44.34"/>
  <path class="cls-1" d="M399.2,620.6c-13.93-2.82-27.79-.11-41.65.72-8.14.49-16.19,2.25-24.41,2.27-5.01.01-8.78-1.53-9.29-7.39-8.42-1.45-16.26.85-24.02,2.71-17.05,4.1-34.36,5.88-51.79,7.08-39.24,2.69-78.53,3.4-117.83,2.81-23.02-.34-46.08-.49-69.04-2.79-2.34-.23-4.83-.51-7.57.72,3.52,4.25,8.62,3.72,12.95,4.47,14.94,2.57,30.1,3.06,45.21,3.6,30.54,1.1,61.1.93,91.64.58,24.99-.28,50.01-.28,74.98-1.26,34.51-1.36,68.98-4.36,103.55-3.22,8.31.27,16.79-.74,25,1.6"/>
  <path class="cls-1" d="M564.05,383.91c-9.07-1.34-17.73,1.41-26.13,3.76-23.07,6.45-44.2,16.96-63.26,31.77-7.4,5.75-8.24,12.91-8.21,20.97.05,12.65,4.6,16.88,17.22,14.67,4.89-.86,9.79-1,14.27-.15,8.36,1.58,16.75,1.07,25.05,1.3,16.26.46,32.5,2.28,48.79,1.39,2.64-.14,5.13.83,7.74.63"/>
  <path class="cls-1" d="M664.02,427.33c-.59-10.32-1.98-20.49-5.32-30.34-.85-2.5-2.62-5.03-.07-7.75,2.53-2.7,5.55-1.09,7.72-.39,14.34,4.59,27.97,10.8,41.19,18.14,19.07,10.59,37.1,22.34,51.71,38.77,1.53,1.72,3.73,3.11,2.26,6.19-27.03-10.3-54.44-18.34-83.78-10.89-3.83.97-8.02,1.77-10.26,6.14,1.51,4.32,5.23,4.3,9.05,4.54,24.37,1.54,48.61,4.23,72.6,8.9,2.4.47,4.77,1.08,7.16,2.96-3.66,2.87-7.79,2.56-11.33,2.82-23.37,1.72-46.79,1.89-70.21.77-6.19-.3-10.23-2.66-9.35-10.81-2.55,2.43-4.18,3.83-5.49,5.47-2.23,2.79-5.32,3.45-8.35,2.86-12.21-2.38-24.57-3.44-36.69-4.58-2.49-4.97.91-10.07-.81-14.96"/>
  <path class="cls-1" d="M590.23,424.35c1.23.97,2.8,1.19,4.19,1.72,6.07,2.31,7.6,4.23,7.7,10.77.19,11.99-1.86,23.82-3.13,35.66-3.39,31.71-6.59,63.45-10.08,95.15-1.81,16.47-3.04,33.01-5.77,49.38-.32,1.92-.42,4.03.54,5.94"/>
  <path class="cls-1" d="M408.13,449.92c14.46,7.88,20.97,21.37,24.9,36.3,4.38,16.63,5.2,15.6,19.73,15.38,4.13-.06,8.1.57,11.88,1.9,9.36,3.3,12.67,9.24,11.28,19.95,17.04,1.79,34.07,3.8,51.22,3.07,5.68-.24,11.08,1.38,16.67,1.31"/>
  <path class="cls-1" d="M833.03,552.21c-1.88-2.2-4.32-3.2-7.14-2.95-18.42,1.65-36.92.44-55.34,1.79-4.53.33-8.64-.68-12.5-2.99-3.1-1.85-5.08-2.28-7.92,1.64-10.6,14.65-19.43,30.41-29.64,45.28-.94,1.37.52,3.53-1.72,4.21"/>
  <path class="cls-1" d="M539.05,529.02c-2.45,1.24-5.09,1.13-7.74,1.21-26.97.76-53.93,1.93-80.93,2.04-12.45.06-25.09-1.02-37.49,1.51"/>
  <path class="cls-1" d="M755.67,493.93c.19-2.58-.51-5.22.73-8.07-7.38-6.17-15.54-4.74-23.95-2.69-8.89,2.16-16.39,6.75-23.12,12.63-1.94,1.69-4.06,3.13-6.13,4.52-1.26.84-3.51,1.77-5.29-.41-6.9-8.48-16.35-6.86-26.18-1.27-7.13,4.05-13.68,9.37-22.58,9.67-6.17.2-12.08,3.18-18.45,2.28"/>
  <path class="cls-1" d="M555.72,639.63c-21.19,2.07-42.41,2.14-63.68,1.3-12.93-.51-25.43-3.36-38.11-5.31-6.72-1.03-13.69-.46-20.21,2.22"/>
  <path class="cls-1" d="M855.65,511.18c-4.26-1.5-8.7-1.18-13.09-1.18-5.28,0-9.9-.36-13.29-5.83-2.95-4.78-9.02-4.31-14.09-4.84-7.02-.74-6.99-.64-7.15-7.76-.13-5.77-3.78-9.49-7.71-13.1-9.18-8.43-28.92-10.17-36.42-4.28-3.74,2.94-7.35,5.55-8.82,10.25"/>
  <path class="cls-1" d="M855.65,512.37c-1.88,1.26-3.98.55-5.95.55-33.72.06-67.44.03-101.17.08-1.97,0-4.07-.71-5.95.55"/>
  <path class="cls-1" d="M661.05,410.68c-3.06-3.26-4.01-7.73-6.53-11.31-10.45-14.85-25.6-20.21-42.86-21.4-14.44-1-28.41,1.68-42.25,5.35-1.18.31-2,1.26-3,1.73-13.75,6.49-26.04,14.87-35.69,26.81-1.32,1.64-3.91,2.18-4.15,4.77"/>
  <path class="cls-1" d="M662.83,427.92c-5.55,4.03-11.16.57-16.65-.08-17.43-2.05-34.8-4.64-52.38-5.27-21.82-.78-43.65-1.07-65.46-.43-15.92.47-31.91,1.31-47.61,4.59"/>
  <path class="cls-1" d="M816.97,627.73c10.66,3.32,21.72,4.07,32.73,4.69,24.18,1.37,48.4.42,72.6.66"/>
  <path class="cls-1" d="M693.78,633.68c-8.33-.23-16.71-.47-24.98.16-10.13.77-20.25.44-30.37.85-15.65.64-31.35.55-47.01,1.37"/>
  <path class="cls-1" d="M629.51,509.99c-6.7-1.62-13.43-1.49-20.24-.66-3.15.38-4.36,1.77-5.49,4.77-3.09,8.18-1.34,16.74-2.72,25.05-1.89,11.42-2.24,23.05-4.28,34.47"/>
  <path class="cls-1" d="M740.2,517.12c-.2.2-.41.58-.59.57-22.26-1.04-44.41,2.33-66.65,1.74-6.15-.16-12.25-1.92-18.45-.52"/>
  <path class="cls-1" d="M427.77,633.08c5.55,4.96,9.49,11.21,13.69,17.25,1.43,2.06,3.29,4.29.55,6.48-2.11,1.69-4.03.1-5.92-1.1-4.42-2.81-7.73-7.61-13.59-7.87-4.69,5.96-3.96,14.39-9.1,19.83-2.62-.41-2.93-1.84-2.91-3.66.03-4.2.37-8.34,1.14-12.5,1.32-7.06-.68-9.4-8.26-10.05-2.89-.25-5.61-.75-8.37-1.71-1.8-.62-2.87-1.18-3.06-4.25,8.62-.15,17.02-2.3,25.72-1.82"/>
  <path class="cls-1" d="M759.84,553.99c-14.23,18.33-25.38,38.73-38.62,57.73-.64.92-2.02,1.39-1.39,3.56,6.95,24.13,12.28,48.67,18.07,73.09.12.51.36,1.45,1.11,1.8"/>
  <path class="cls-1" d="M600.35,526.04c-3.45,9.82-3.71,20.14-4.75,30.33-1.59,15.62.53,31.38-1.8,46.98"/>
  <path class="cls-1" d="M830.06,704.45c-2.96-14.28-6.07-28.54-8.67-42.86-1.71-9.42-3.62-18.9-4.42-28.5-.03-.39.04-.8-.01-1.19-.45-3.49-1.31-7.86-5.32-7.46-4.89.49-2.73,5.57-2.21,8.01,4.59,21.76,8.2,43.72,12.9,65.46.43,1.98,1.18,3.96,0,5.95"/>
  <path class="cls-1" d="M545.6,435.65c-1.18,8.7-2.4,9.66-12.5,10.12-13.88.64-27.8.43-41.66,1.76-4.2.4-8.41.61-12.5,1.8.44,4.38,4.56,2.02,6.55,3.57"/>
  <path class="cls-1" d="M832.44,557.56c-21.84-.23-43.62,1.79-65.46,1.77-2.69,0-5.57.59-7.74-1.77"/>
  <path class="cls-1" d="M833.63,565.29c4.71-3.09,5.53-8.25,7.23-13.05,1.06-3-.24-4.54-2.5-5.29-2.8-.93-2.61,1.95-3.59,3.45-2.58,3.95-1.1,8.4-1.53,12.54-.81,7.78-4.03,14.08-8.47,20.25-5.56,7.73-10.02,16.18-14.93,24.34-7.39,12.26-14.81,24.5-22.06,36.85-1.43,2.44-3.18,4.7-2.95,7.75"/>
  <path class="cls-1" d="M825.89,583.73c1.27,2.15-.43,3.69-1.21,5.34-9.88,20.71-20.88,40.91-35.39,58.63-7.38,9.01-12.82,19.54-22.16,27.19-9.9,8.11-20.44,14.29-32.91,16.9-1.65.35-3,1.5-4.73,1.35"/>
  <path class="cls-1" d="M567.62,671.74c-11.98-16.59-29.14-18.39-46.35-11.72-5.34,2.07-9.4,6.52-10.2,12.91-.68,5.5,2.3,8.78,7.75,8.32,4.58-.39,8.59-2.11,11.9-5.34"/>
  <path class="cls-1" d="M412.3,535.56c1.38,1.9,3.68,2.79,5.5,3.92,1.55.97,2.54,1.51,2.18,3.2-.37,1.75-1.76,2.08-3.5,2.48-10.21,2.4-20.58,2.67-30.97,2.87-2.9.06-5.87-.28-8.46,1.9,4.83,3.23,10.39,2.4,15.6,2.78,15.85,1.15,31.7,2.41,47.6,2.48,1.27,0,2.51.38,3.57,1.17"/>
  <path class="cls-1" d="M709.85,615.24c4.19,10.57,6.06,21.81,8.68,32.77,4.68,19.59,9.71,39.11,13.97,58.81.56,2.59,1.83,5.05.56,7.74"/>
  <path class="cls-1" d="M664.62,428.52c.69,5.82,0,11.58-1.25,17.23-1.09,4.97-3.04,5.84-8.87,4.77-13.19-2.42-26.37-4.9-39.87-4.76"/>
  <path class="cls-1" d="M612.25,445.76c-2.96,18.96-4.77,38.06-7.08,57.1-.26,2.13-1.72,4.35-.06,6.53"/>
  <path class="cls-1" d="M665.22,684.82c15.36,14.02,32.95,24.69,51.12,34.6,3.8,2.08,7.61,4.25,11.44,6.29,2.1,1.12,5.12,1.96,7.07-1.05"/>
  <path class="cls-1" d="M547.98,435.65c1.11.81.67,2.02.55,2.97-.61,4.69,1.92,6.04,6,5.96,8.73-.19,17.45,0,26.19-.48,10.7-.58,21.41.74,32.13,1.07"/>
  <path class="cls-1" d="M739.01,691.36c1.73,10.72,5.57,20.91,7.71,31.52.49,2.42,1.93,3.35,4.15,4.25,5.88,2.4,12.01,4.06,17.9,6.42,3.91,1.57,8.56,1.96,9.08,7.74.1,1.15,1.84,2.86,4,2.41,3.35-.69,5.7,1.55,8.33,2.96"/>
  <path class="cls-1" d="M736.03,724.67c.2.2.55.38.57.6.91,8.58,6.82,11.21,14.25,13.27,7.51,2.08,14.82,5.11,22.08,8.1,4.9,2.02,9.91.6,14.87.03"/>
  <path class="cls-1" d="M802.09,709.8c-9.87,1.42-19.84,1.04-29.76,1.71-6.33.43-12.7-.02-19.04.61-1.59.16-3.56.83-4.75-1.13"/>
  <path class="cls-1" d="M769.95,673.52c.92,2.44-1.28,3.94-1.83,6.47,9.51,5.17,19.81,9.13,29.77,13.81,16.61,7.82,33.82,14.44,49.42,24.32q5.35,3.39,1.1,8.43c-12.2-5.46-23.78-12.65-36.33-17.02-15.05-5.24-29.1-12.57-43.94-18.12-.79-.3-1.16-.86-1.76-1.25"/>
  <path class="cls-1" d="M677.12,680.06c-13.76,20.56-26.42,41.86-40.32,62.18-3.13-1.42-5.41-2.64-7.06-5.07,6.75-11.47,14.08-22.34,21.31-33.25,4.1-6.18,7.14-13.09,12.38-18.51"/>
  <path class="cls-1" d="M795.54,704.45c-3.49,3.17-7.92,1.84-11.91,2.29-11.67,1.33-23.47,1.22-35.1,3.06"/>
  <path class="cls-1" d="M581.31,625.35c-9.81,4.74-20.2,3.04-30.33,2.17-4.73-.41-9.68-.56-14.3-2.17"/>
  <path class="cls-1" d="M684.26,515.34c-12.86-1.51-25.66-3.72-38.68-3.61-1.37.01-2.93.73-4.17-.55"/>
  <path class="cls-1" d="M679.5,680.06c14.07,10.77,29.08,20.06,44.6,28.61,5.79,3.19,11.63,6.76,11.34,14.8"/>
  <path class="cls-1" d="M567.62,672.93c-4.41,3.95-7.86,8.93-13.66,11.37-7.65,3.21-20.2,3.13-23.24-7.8"/>
  <path class="cls-1" d="M728.3,692.55c-9.53,1.65-18.79.02-27.97-2.39-2.16-.57-4-2.81-6.55-1.17"/>
  <path class="cls-1" d="M592.02,617.03c-3.55,2.35-5.6,6.65-9.52,6.94-1.56,16.15-2.89,31.47-5.95,46.58"/>
  <path class="cls-1" d="M716.39,601.57c-15.06,23.08-29.21,46.73-44.63,69.58"/>
  <path class="cls-1" d="M652.72,657.47c-3.9.76-6.75,2.85-8.73,6.71,5.77,7.32,12.81,13.19,19.22,19.87,2.9-3.57,5.35-6.89,7.43-10.66-5.99-5.03-10.6-11.61-17.33-15.92"/>
  <path class="cls-1" d="M590.83,636.65c-5.98-.75-11.85-1.01-17.88.47-6.81,1.68-13.86,2.13-20.8.12"/>
  <path class="cls-1" d="M539.05,621.79c-3.62,3.64-8.19,4.86-13.09,4.7-4.13-.14-7.76,2.4-11.9,1.85"/>
  <path class="cls-1" d="M426.58,630.71c-6.31-6.08-8.68-15.09-14.97-20.9-2.68.35-2.78,2.5-2.76,3.65.09,7.43,1.32,14.78,3.01,21.97.87,3.69,4,4.72,7.59,2.43,2.41-1.53,4.64-3.23,6.53-5.37"/>
  <path class="cls-1" d="M711.63,626.54c-10,17.44-22.65,33.16-32.73,50.55"/>
  <path class="cls-1" d="M556.91,391.65c-4.45,5.62-10.68,9.16-16.11,13.63-.47.39-1.54.05-2.34.05"/>
  <path class="cls-1" d="M678.31,658.66c-6.35-.2-12.7,1.48-19.04,0"/>
  <path class="cls-1" d="M593.8,612.87c-1.15,7.49-1.87,15.01-1.79,22.6"/>
  <path class="cls-1" d="M427.77,630.71c4.14-4.58,9.31-7.63,15.46-9.84-.69,7.04-7.49,10.52-10.11,16.38"/>
  <path class="cls-1" d="M752.1,517.72c-5.57.59-10.13-3.2-15.47-3.57"/>
  <path class="cls-1" d="M528.94,672.93c-5.49,1.11-11.45,1.02-15.47,5.95"/>
  <path class="cls-1" d="M568.81,672.33c7.12-1.09,14.29-.3,21.42-.59"/>
  <path class="cls-1" d="M868.74,512.37c-3.98.07-7.9-1-11.9-.59"/>
  <path class="cls-1" d="M716.99,598.59c-1.59-2.93-2.91-1.45-4.83-.1-2.45,1.72-5.3,2.73-4.14,6.65.44,1.49.52,3.07,1.83,4.15"/>
  <path class="cls-1" d="M816.37,703.85c-3,1.48-6.68.26-9.52,2.38"/>
  <path class="cls-1" d="M547.38,675.31c-.12-2.27.73-4.74-2.95-5.48-2.6-.52-4.78-.22-6.51,1.38-1.82,1.68-.27,3.57.53,5.29"/>
  <path class="cls-1" d="M718.18,602.16c1.76,2.95-.83,6.72,1.79,9.51"/>
  <path class="cls-1" d="M547.98,424.95c-1.34,2.85.14,6.07-1.19,8.92"/>
  <path class="cls-1" d="M692.59,653.3c-3.46-.46-5.55,3.2-8.93,2.97"/>
  <path class="cls-1" d="M718.77,615.84c-2.49,1.85-2.44,5.61-5.36,7.14"/>
  <path class="cls-1" d="M671.76,674.12c1.45,2.68,5.34,2.38,6.55,5.35"/>
  <path class="cls-1" d="M697.35,633.08c2.29,1.22,5.45.32,7.14,2.97"/>
  <path class="cls-1" d="M674.74,515.93c-1.75,1.57-4.2-.38-5.95,1.19"/>
</svg>