<?xml version="1.0" encoding="UTF-8"?>
<svg id="Layer_1" data-name="Layer 1" xmlns="http://www.w3.org/2000/svg" viewBox="0 0 1024 1080">
  <defs>
    <style>
      .cls-1 {
        fill: none;
        stroke: #fff;
        stroke-linecap: round;
        stroke-linejoin: round;
        stroke-width: 2px;
      }
    </style>
  </defs>
  <path class="cls-1" d="M403.71,435.68c25.22-9.87,51.48-15.19,78.38-17.42,18.26-1.51,36.61-2.35,54.9-1.42,21.71,1.11,43.39,2.62,64.94,6.17,16.31,2.69,32.56,5.35,48.41,10.11,1.4.42,2.71.69,4.04,1.44,1.05.6,2.9.61,3.43-1.38,1.99-7.56-2.05-13.97-7.48-15.99-14.14-5.24-28.61-9.3-43.45-11.92-13.22-2.34-26.52-4.14-39.93-5.06-14.13-.97-28.3-1.19-42.44-1.34-19.22-.21-38.36,1.77-57.41,4.37-15.08,2.06-30.07,4.73-44.89,8.14-2.06.47-3.99-1.3-5.78.33"/>
  <path class="cls-1" d="M717.72,648.35c-33.11-1.09-66.23-.63-99.34-.36-26.13.22-52.24,1.74-78.38,1.83-30.78.11-61.57.02-92.36.04-.68,0-1.49-.33-2,.49"/>
  <path class="cls-1" d="M717.22,643.35c-2.02,1.26-4.28.96-6.49,1-16.97.31-34.07,1.12-50.89.03-18.2-1.18-36.31-.51-54.45-.93-17.8-.42-35.62-.55-53.41.04-16.81.56-33.62.28-50.43.68-17.45.41-34.95.84-52.42-.27-1.13-.07-2.46-.62-3.49.46"/>
  <path class="cls-1" d="M705.24,483.1c1.16-10.3.13-20.64.53-30.95.09-2.27-1.17-2.89-3.02-2.99-12.81-.67-25.65-.94-38.44-2.03-.66-.06-.85.81-2,.3,0,6.54,0,12.87,0,19.2,0,6.16.28,12.33-.1,18.47-.25,4.07,1.44,5.48,5.09,5.49,4.49.01,8.99,0,13.48,0h24.92c.07-2.63.03-4.81.05-6.99"/>
  <path class="cls-1" d="M655.32,417.71c7.07-.66,13.97,1.08,20.97,1.52,5.01.32,10,.89,14.97,1.52,7.48.93,15.08.82,22.47,2.47,5.82,1.3,6.01,1.4,4.96,6.97-4.22,22.49-3.6,45.22-3.37,67.9.16,15.14.67,30.28.97,45.43.48,24.79.83,49.59,1.07,74.38.07,7.48-.54,15.09.55,22.44,1.41,9.56-.04,19,.3,28.48.08,2.23.28,4.3,2.52,5.49"/>
  <path class="cls-1" d="M459.13,356.3c6.13.56,12.04-1.2,17.95-2.16,21.36-3.47,42.81-5.4,64.42-5.28,19.99.11,39.63,3.15,58.88,8.53.79.22,1.49,1.01,2.52.92.83-.07,1.66-.01,2.49-.01-.17-.33.4-.62.44-1,.97-8.62,4-8.8-7.88-14.08-16.78-7.46-34.19-11.74-52.47-12.9-10.54-.67-20.96-.11-31.47.84-7.45.67-14.99.8-22.45,1.7-5.52.67-10.96,1.88-16.48,2.43-2.39.24-3.23,1.73-3.99,3.55"/>
  <path class="cls-1" d="M466.11,625.38c-.86,2.39-1.23,4.15,2.5,4.06,8.15-.21,16.31-.06,25.02-.06-.4-10.48.5-20.46-.53-30.46-.48-4.64,1.14-9.26.07-14-.46-2.03-.5-3.6-3.1-3.49-6.15.27-12.32-.39-18.48.47-3.09.43-4.39,1.73-4.59,5.03-.34,5.83-.6,11.66-.34,17.48.31,6.83-1.59,13.65-.06,20.47"/>
  <path class="cls-1" d="M528.02,552.99c6.01.39,11.97-.52,17.97-.56,4.53-.03,6.17-1.8,5.94-6.42-.59-11.98-.01-24-1.4-35.95-.31-2.64-1.24-4.37-4.04-4.47-6.5-.24-12.94-1.16-19.47-1.09-3.07.03-3.96,1.01-4.07,4.07-.46,12.48-.44,24.96-.4,37.44.02,5.77.63,6.42,4.97,6.49"/>
  <path class="cls-1" d="M636.35,439.17c-6.12-1.22-12.11-3.28-18.97-2.97,0,5.96-.74,12.07.18,17.92,1.18,7.49.68,15.03,1.66,22.51.77,5.9,1.25,7.14,7.14,7.99,4.65.67,9.32.36,13.92.52,1.76-3.92,1.22-8.05.98-12.02-.53-8.82-.79-17.63-1-26.46-.09-3.65,1.66-4.47,4.56-3.95,3.13.56,6.27,1.33,8.5,3.94"/>
  <path class="cls-1" d="M592.92,553.49c1.09-.71,2.34-.29,3.49-.53,2.63-.54,4.06-1.83,4.08-4.96.09-11.67-.21-23.32-1.1-34.94-.42-5.45-2.55-7.13-9.47-7.46-6.32-.3-12.63-.88-19.43-.41-1.13,7.99-.72,16.21-.39,24.34.24,6,.5,12.01.23,17.97-.2,4.42,2,5.74,6.12,5.61,5.31-.16,10.68-.71,15.97.39"/>
  <path class="cls-1" d="M418.69,553.49c.51,3.51,3.71,5.39,8.49,4.99,6.71-.56,8.5-2.14,8.42-8.99-.14-12.49.84-24.96.55-37.44-.02-.68.34-1.5-1.15-2.39-3.77-.74-8.06.59-12.3,1.47-3.86.81-4.02,4.19-4.01,7.41,0,11.48,0,22.96,0,34.45"/>
  <path class="cls-1" d="M704.24,554.49c1.15-8.63.32-17.31.46-25.96.16-10.07.01-9.76-9.94-10.57-9.32-.76-18.67-.83-27.97-1.85-1.45-.16-3.08-.54-5.05.69.34,14.91.79,30.05.52,45.73,14.35-.32,28.17.57,42.73-.73-.92-2.47.39-4.64-.77-6.8"/>
  <path class="cls-1" d="M703.24,622.88c1.17-11.81.15-23.63.53-36-14.35.46-28.14-.93-42.46-.32-.03,4.36-.1,8.86,0,13.36.22,8.82-.07,17.64.21,26.47.12,3.62,1.06,3.98,3.76,3.99,8.82.02,17.64-.02,26.46,0,4.02,0,8.06.23,11.98-1,.71-1.99.57-3.99,0-5.99"/>
  <path class="cls-1" d="M704.74,694.27c-1.17-1.86-1.04-3.93-1-5.99.16-7.53-.05-15.04-1.52-22.99-12.97.22-25.94.89-39.42.4,0,6.28-.25,11.95.06,17.6.43,7.82-.32,15.65.78,23.49.6,4.29-.13,4.36,4.16,3.5.96-.19,1.99-.03,2.99-.03"/>
  <path class="cls-1" d="M712.73,422.2c.15-8.59-.86-17.31,3.66-25.76-7.04-1.45-13.61-2.24-20.14-2.6-18.12-1.01-36.24-2.68-54.41-1.97-6.18.24-9.77-1.68-12.18-7.52-1.35-3.26-3.33-6.51-5.37-9.52-3.27-4.83-8.86-6.2-13.94-7.96-14.93-5.17-30.13-9.41-45.91-11.02-16.11-1.65-32.26-1.5-48.42-.55-9.82.58-19.6,1.82-29.45,2.02"/>
  <path class="cls-1" d="M643.84,413.71c-1.46-4.12-4.96-5.99-8.46-8.03-5.91-3.45-12.46-4.67-19-5.92-11.08-2.12-22.27-3.61-33.46-4.87-8.77-.99-17.61-1.82-26.44-2.06-12.64-.34-25.29-1.08-37.94-.57-19.26.77-38.4,2.74-57.41,5.97-13,2.21-26.08,4.06-38.45,8.97-1.63.65-3.23,1.25-4.48,2.52"/>
  <path class="cls-1" d="M649.33,724.73c-.88-15.8-.47-31.65-1.96-47.43-.45-4.74-.9-5.45-6.03-5.47-13.31-.05-26.62-.02-39.94-.02"/>
  <path class="cls-1" d="M466.11,551c-.86,2.04-1.11,3.57,2,3.53,6.49-.1,12.98-.12,19.47,0,3.95.07,5.28-2.07,4.97-5.52-1.15-12.63-1.04-25.29-.92-37.94.04-4.05-1.49-5.7-5.55-5.54-4.82.19-9.65.07-14.48.04-3.06-.02-4.96,1.38-4.96,4.5-.03,12.48-.86,24.95-.58,37.44.02.93,1.02,1.54.44,2.51,5.92-.92,11.8-.78,17.57-.33,2.76.21,3.52-.12,3.52-2.68-.02-10.65-.03-21.3,0-31.95,0-2.42-1.09-3.54-3.51-3.51-3.66.04-7.33-.12-10.98.06-2.71.13-4.39,1.35-3,4.45"/>
  <path class="cls-1" d="M587.42,547.5c-.17.17-.33.48-.5.48-4.33-.04-10.04,1.63-12.56-.9-2.13-2.13-.66-7.92-.99-12.06-.58-7.2,2.16-14.26.62-21.48-.35-1.64.03-2.49,2.44-2.65,4.9-.32,9.65.78,14.49.77,1.54,0,2.47,1.46,2.54,3.39.42,10.65.57,21.3.39,32-2.1.64-3.77.64-5.92-.01-.02-7.18,0-14.34-.01-21.5,0-9.02-4.58-12-12.98-8.49"/>
  <path class="cls-1" d="M529.52,655.33c-5.66-.32-11.32.05-16.97.04-20.97-.04-41.92-1.63-62.9-1.1-3.78.09-4.79.66-4.71,5.07.34,17.13,1.1,34.27.71,51.42-.24,10.67.48,21.31.98,31.95.11,2.37,1.87,4.49,1.02,6.99"/>
  <path class="cls-1" d="M654.82,587.94c1.15-7.97.78-16.01.37-23.96-.71-13.82-.03-27.63-.36-41.44-.04-1.84.18-3.71-.46-5.33-3.04-.96-5.93-2.24-9.03-2.62-2.84-.35-4.95-.2-5.12,3.95-.35,8.67-.44,17.3.01,25.97.21,4.11,1.18,8.45-.88,12.47"/>
  <path class="cls-1" d="M419.19,479.11c-2.4,2.01-1.84,3.24,1,4,8.13,2.2,13.77-2.18,14.03-10.49.34-10.52-.84-20.97-1.04-31.45-.07-3.52-1.35-4.66-5.04-3.65-1.72.47-3.67.81-5.41,1.28-3.85,1.05-5.11,4.11-3.46,7.84.63,1.41.38,2.7.39,4.02.07,9.15.04,18.3.04,27.45,4.49.83,8.99-.07,13.48,0"/>
  <path class="cls-1" d="M639.34,515.55c-1.2-3.24-4.01-4.49-7-4.89-2.49-.34-4.9-1.41-7.47-1.09-2.67.33-5.67-2.76-7.88.08-1.66,2.13-.76,5.27-.99,7.91-.95,11.12-.49,22.29-.69,33.44-.06,3.16,1.18,5.07,4.07,5.43,7.95.99,15.96,1.21,23.96,1.56"/>
  <path class="cls-1" d="M443.65,627.88c5.83,5.09,5.94,6.5,1,11.98-7.09-1.34-8.06-4.91-3-10.98,2.29-2.75,2.19-5.2-1.04-6.37-5.17-1.87-5.46-5.76-5.45-10.11.01-7.82-.1-15.64.06-23.46.05-2.41-.53-4.17-3.04-3.9-2.67.29-5.41-.02-7.98.5-4.07.82-6.17,3.39-6.07,7.9.25,10.48-.24,20.98.77,31.45,2.79-.05,5.91,2.08,8.77-.49"/>
  <path class="cls-1" d="M403.21,636.36c-1.1-4.12-.35-8.32-.47-12.48-.33-10.65.48-21.31-.51-31.95-.41-4.44-3.2-6.85-8-7.01-13.66-.46-27.31-1.12-41.54.88.48,12.12-.53,24.6.6,37.08"/>
  <path class="cls-1" d="M510.54,791.12c-5.51.57-11.02,1.32-16.49-.45-1.05-.34-2.31-.05-3.48-.05h-61.9"/>
  <path class="cls-1" d="M396.72,466.13c-1.69-5.22,1.13-10.29.4-15.79-12.38.89-24.94-.62-37.8,1.73-.69,9.03-1.05,18.02-1.06,27.04,0,2.94,1.95,3.25,4.01,2.96,11.1-1.62,22.39-.4,33.46-2.44,1.68-.31,3.28.81,4.99.49"/>
  <path class="cls-1" d="M399.22,548c-.03-10.69.52-21.35,1.69-32.31-2.29-1.9-5.39-2.15-8.68-2.17-12.84-.1-25.62,1.32-38.44,1.54"/>
  <path class="cls-1" d="M620.37,632.37c-.29-14.49.88-28.95.46-43.31,3.78-1.47,6.87.12,10.03.31,2.55.15,2.84,2.39,2.86,3.56.22,11.98.13,23.96.13,35.95-5.78-.1-6.54-.73-5.97-5,1.26-9.49-.65-18.96-.08-28.46.24-4.09-3.6-3.15-5.93-3.99"/>
  <path class="cls-1" d="M639.34,588.44c-1.74-3.92-4.91-5.1-8.99-5.04-3.84.06-7.57-1.35-11.49-1-2.07.19-3.05.81-3.02,3.05.17,14.98-.82,29.95-.51,44.93.02.78.55,1.29.58,2.24,6.29.41,12.5.77,18.97.15,4.93-.47,9.94-1.51,14.94-1.3,1.78.08,2.65-1.14,4-1.59"/>
  <path class="cls-1" d="M537,711.75c-1.72-.08-3.61.75-4.63-1.14-2.33.92-2.09,2.71-1.8,4.13.9,4.49.12,9.01.47,13.49.14,1.74-.36,3.29-2.03,3.41-2.89.2-.87,2.68-2.2,3.21,1.21,2.03,2.84,1.33,4.2,1.34,14.65.09,29.31-.34,43.93,1.05,1.57.15,2.97-.63,4.5-.52"/>
  <path class="cls-1" d="M405.71,382.26c2.45,1.12,4.72,2.67,7.45,3.18,1.17-3.8-1.93-4.61-3.99-5.59-4.52-2.15-9.13-3.45-14.46-2.72-7.59,1.05-15.28,1.57-22.94,2.2-4.85.4-9.58,1.72-14.47,2.06-2.36.16-3.55,1.91-3.62,4.87-.26,11.18,1.95,22.27,1.12,33.45"/>
  <path class="cls-1" d="M483.59,548.5c1.11-7.96-.12-16,.99-23.96.94-6.75-4.46-9.43-9.96-7.92-1.37.37-2.67.31-4.02.48-2.34,10.38-1.34,20.9-.99,31.41"/>
  <path class="cls-1" d="M659.31,645.35c1.38,2.87-.15,5.27-1.55,7.45-2.89,4.51-3.05,9.37-3.01,14.51.16,21.3.07,42.6.07,63.9"/>
  <path class="cls-1" d="M712.23,401.73c-18.24-2.35-36.49-4.58-54.91-5.05-5.34-.14-10.65-.94-15.98.06"/>
  <path class="cls-1" d="M402.21,518.05c1.06,1.57.46,3.34.46,4.99.05,19.64.05,39.27,0,58.91,0,1.65.59,3.42-.46,4.99"/>
  <path class="cls-1" d="M530.01,656.83c-6.05,3.37-5.45,9.59-5.87,14.99-1.02,12.94-.21,25.96-.77,38.92-.3,7.03.25,13.98.15,20.97"/>
  <path class="cls-1" d="M574.94,628.88c5.16,1.5,10.32-.16,15.48-.1,1.56.02,2.58-1.48,2.51-3.39-.4-10.99.63-21.96.55-32.95-.02-3.13-1.83-3.86-4.07-3.93-5.32-.18-10.66-.06-15.62-.06-2.09,2.83-.19,5.16-.19,7.49-.01,9.68-1.92,19.27-1.14,28.95.08,1-.56,2.14.48,3"/>
  <path class="cls-1" d="M521.03,758.67c.96.25,1.04-1.25,2-1,12.11,3.19,24.28.83,36.44.55,8.65-.2,17.31.03,25.96-.57,1.66-.12,3.42.58,4.99-.48"/>
  <path class="cls-1" d="M717.72,762.67c2.6,3.35,6.37,1.11,9.53,1.78,9.16,1.91,18.62,1.88,27.92,3.13,1.87.25,3.52,1.14,5.46,1.29,1.13.08,2.98,1.75,2.48,3.78-.65,2.67-1.8,4.92-4.96,5.53-7.45,1.42-14.93,2.63-22.47,3.45-7.47.81-14.95,1.56-22.45,2.15-11.81.93-23.64,1.65-35.44,2.6-9.36.76-18.69-.01-27.97.83-11.97,1.08-23.98,1.44-35.95,2.43-11.13.92-22.31,1.17-33.45,2.03-19.68,1.51-39.28-.5-58.91-1-10.31-.26-20.23-3.47-30.46-3.9-8.37-.35-16.65-1.45-24.94-2.3-12.16-1.25-24.33-.22-36.47-1.24-4.45-.37-8.98-.14-13.47-.07-18.45.27-36.69-1.81-54.93-4.37-11.73-1.65-23.35-3.69-34.93-6.12-9.78-2.05-19.23-5.17-28.46-8.97-4.8-1.97-6.51-6.59-8.56-10.58-1.54-3.01,1.09-4.6,4.05-5.47,2.97-.87,6.23.41,9.01-1.43"/>
  <path class="cls-1" d="M390.73,588.94c-10.69-.3-21.33.3-32.38,1.36-.22,10.78.22,21.45-.57,32.09"/>
  <path class="cls-1" d="M457.63,658.83c0,6.49,0,12.99,0,20,14.65-1.31,28.78.05,42.93-.03"/>
  <path class="cls-1" d="M540.5,623.88c1.33.93,2.66.73,4.49-.2,0-11.62,0-23.43,0-35.29-6.27-1.3-12.13-.87-18.19-.97-1.29,12-.94,23.98-.07,36.06,4.54,1.17,8.92.87,13.27.9"/>
  <path class="cls-1" d="M598.91,658.33c37.44.64,74.88.49,112.32.46,2.04,0,3.97.62,5.99.54"/>
  <path class="cls-1" d="M334.82,514.06c-1.02-3.52-2.9-6.32-5.95-8.54-4.35-3.16-7.91-2.21-9.49,3.06-1.03,3.44-.72,6.98-.03,10.47.3,1.5.98,3-.14,4.7-9.34-.98-18.89-.06-28.32-1.7"/>
  <path class="cls-1" d="M591.42,471.12c1.5-.01,3,1.27,5.04-.46-.16-10.57-1.28-21.52-2.09-32.49-.21-2.85-3.07-3.37-4.95-3.35-4.56.05-8.92-1.77-13.77-1.03-1.26,12.35-.46,24.84-.8,37.32h16.06"/>
  <path class="cls-1" d="M451.64,797.61c-19.99.75-39.93-1.34-59.91-1"/>
  <path class="cls-1" d="M527.02,736.71c-.52,1.11-1.31,2.15-.86,3.65.38.46.91.88,1.85.88,17.47-.09,34.95,0,52.42.06,1.73,0,4.38.03,4.46,2.91.08,3.17-2.49,1.97-3.96,1.94-16.98-.3-33.94.78-50.92.54-1.67-.02-3.39.32-4.99-.46-.41-1.75-1.31-3.52.49-5.02"/>
  <path class="cls-1" d="M467.11,624.88c3.38-1.55,7.06-.51,10.5-.67,3.25-.16,6.64-.6,10.53.43-.5-12.74.57-24.71.42-37.33-6.16.6-11.81,1.19-17.71,1.43-.28,1.85-.63,3.52.26,5.18"/>
  <path class="cls-1" d="M545.49,547c.2-11.83-1.07-23.62-.35-35.48-5.56-1.54-10.63-.71-15.62-.99-1.92-.11-3.02.96-2.93,2.52.63,11.31-1.69,22.66.15,34.39,6.27.09,12.26.06,18.26.06"/>
  <path class="cls-1" d="M487.58,471.62c.07-10.82-.81-21.65.52-32.45.44-3.57-.93-4.85-4.52-4.56-3.48.28-7,.06-10.6.06-1.25,12.95-.77,25.45-.9,38.1,5.24,1.46,10.35-.25,15.5-.66"/>
  <path class="cls-1" d="M654.82,642.85c.98-5.36-.39-10.65-.53-15.97-.28-10.66.71-21.29.55-31.95-.09-5.81-1.59-7.8-7.51-8.39-2.13-.21-4.81-1.22-6.48,1.4"/>
  <path class="cls-1" d="M434.16,681.79c-5.99.15-11.98-.24-17.98.41-2.15.23-4.34.55-6.56-1.31-6.17-5.18-13.14-5.78-20.37-1.96-3.79-1.97-1.57-5.11-1.43-7.62.25-4.49-.38-5.28-4.58-5.02-9.65.6-19.29,1.3-29.47,1.7.28,11.32-1.1,22.8.93,34.29.39,2.22.56,4.7-.41,6.97"/>
  <path class="cls-1" d="M593.42,754.68c-.89-4.17-4-4.78-7.49-4.47-15.28,1.33-30.6,1.84-45.93,1.87-4.49,0-8.91,1.03-13.52.38-1.72-.24-2.31-.57-2.96-1.76"/>
  <path class="cls-1" d="M632.35,800.61h-53.92"/>
  <path class="cls-1" d="M399.72,446.66c-2.1-1.95-4.78-1.24-6.97-.89-10.97,1.74-21.98.56-32.97.85-7.49.19-7.9.53-6.49,8.02"/>
  <path class="cls-1" d="M400.72,447.16c2.64.51,2.49-1.31,2.5-3,0-2.67.01-5.35-.06-8.35-19.7,2.13-39.07,1.91-58.35,3.36"/>
  <path class="cls-1" d="M553.48,806.6c-17.66.71-35.27-1.08-52.92-1"/>
  <path class="cls-1" d="M648.33,596.43c-.65,9.48-.5,18.97-.47,28.46,0,1.15-.77,3,1.47,2.95,1.79-.04,2.03-1.43,2.01-2.95-.04-5.32-.02-10.65-.02-15.97"/>
  <path class="cls-1" d="M402.21,448.16c-.04,13.03.47,26.1-2.37,39.06-16.24,1.6-32.39,1.53-48.75,1.29-.34-2.08-.34-3.74-.14-4.95,2.08-2.77,4.91-.39,6.83-1.96"/>
  <path class="cls-1" d="M598.91,669.31c-2.06-2.98-1.14-6.42-.77-9.46.24-1.98-1.06-3.31.11-5.26-12.82-.75-24.84-.19-36.77.47-8.02.44-15.97.62-23.98.3-2.33-.09-4.7-.23-6.99.48"/>
  <path class="cls-1" d="M646.83,671.81c1.02-2.13.87-3.47-2-3.51-12.65-.18-25.29.78-37.94.67-1.38-.01-3,.26-4.49.31-4.84.18-5.36,1.01-3.49,6.02"/>
  <path class="cls-1" d="M366.77,523.54c.11,7.49-.16,14.98.43,22.47.38,4.83-.53,5.54-5.43,5.47-3.5-.05-6.99.05-10.49.02-.84,2.5-.32,4.99-.63,8.46,16.2-.76,31.76-.3,47.54-.56-.54-2.14-.67-3.52-2.48-3.41"/>
  <path class="cls-1" d="M450.14,308.38c-1.97,5.87-.97,12-1.31,17.98-.42,7.46-.72,14.96-.72,22.45,0,3.22,1.67,6.22,1.03,9.49"/>
  <path class="cls-1" d="M362.78,591.93c1.2,2.05,3.31,1.8,4.97,1.42,4.71-1.07,9.28-.51,14.01-.29,3.8.18,7.96-.45,11.96-.61.68-.03,1.5-.35,2.48,1.3-.54,4.52-1.75,9.77-1.57,15.16.11,3.34.81,6.64.58,9.98-.07,1.03.06,2.4,1.01,2.42,7.29.17,1.68,4.73,2.66,7.23-5.53,1.67-11.18.93-16.64,1.16-8.3.35-16.63.77-24.95.69-5.71-.05-5.71-.03-6.49-6,4.39-2.53,9.51.02,13.98-1.99"/>
  <path class="cls-1" d="M580.94,740.7c-3.44-9.72-5.01-19.66-3.48-29.95.15-1-.66-2.69.5-2.9,4.83-.9,2.85-4.4,2.97-7.08.4-9.33-.47-18.63-.53-27.96-.04-5.5-2.57-10.91-9.94-12.98"/>
  <path class="cls-1" d="M589.92,655.33c1.57,16.46.04,32.95.5,49.42"/>
  <path class="cls-1" d="M557.47,335.33c-16.3-.92-32.61-1.02-48.92-1"/>
  <path class="cls-1" d="M718.22,430.19c-12.32-1.09-24.61-2.6-36.95-3.43-7.49-.51-14.91-1.97-22.46-1.56"/>
  <path class="cls-1" d="M545.99,470.12c.06-11.99-.88-23.96-.48-35.61-3.09-1.97-5.96-1.26-8.47-.66-1.76.42-3.19.74-5.05.41-4.3-.76-5.56.35-5.43,4.91.3,10.32-1.59,20.64.16,30.89,7.07,1.56,14.43.93,21.76,1.06"/>
  <path class="cls-1" d="M635.35,554.99c-1.08-5.11-.38-10.32-.89-15.49-.54-5.45-.17-10.97-.54-16.47-.39-5.79-.84-6.65-6.56-7.45-1.65-.23-3.37.15-5.65-.86-1.32,12.42-1.53,24.58-1.18,37.22,4.66.12,9,0,13.33.06"/>
  <path class="cls-1" d="M390.73,711.25c-1.11,8.8-.48,17.64-.4,26.46.05,5.15.38,10.31.39,15.48,1.47,1.31,3.52-.32,4.99.99"/>
  <path class="cls-1" d="M653.82,556.49c-3.19,1.73-6.49,2.32-9.9,1.19-.35-1.09.18-1.65.91-1.66,7.5-.1,6.99-6.07,6.79-10.5-.3-6.53-.08-12.99.2-19.48.3-6.93-.23-7.28-7.49-6.97,0,12.29,0,24.6,0,36.92"/>
  <path class="cls-1" d="M644.34,402.23c.48,9.82,6.97,11.48,14.97,10.94,1.26-.09,2.3.62,3.64.55,2.6-3.36.74-7.35,1.59-11.63-6.61,1.2-12.77-2.21-19.21-.36"/>
  <path class="cls-1" d="M339.31,665.32c3.09,1.78,4.18,4.26,4.1,7.99-.26,12.48.4,24.98.51,37.44.05,5.11.61,10.86-1.67,15.95-.44.98-.52,1.57.01,2.54,3,5.48,2.48,11.52,2.53,17.45"/>
  <path class="cls-1" d="M398.22,626.38c-14.98-.37-29.95.7-44.93.5-.56,0-1.14-.1-1.5.5"/>
  <path class="cls-1" d="M640.34,419.2c-11.25-2.77-22.6-5.47-33.99-7.21-16.6-2.54-32.89-6.78-49.87-7.54-15.68-.7-31.3-.07-46.94-.4-17.75-.37-35.05,2.8-52.39,5.36-15.03,2.22-30.16,4.61-44.47,10.26-4.24,1.67-8.39,3.52-12.45,5.56-.98.49-1.69.74-2.52-.04"/>
  <path class="cls-1" d="M637.35,481.11c-2.43-3.84-1.96-8.36-2.3-12.5-.44-5.44-.71-10.96-.7-16.46.02-7.94-2.55-10.03-11.11-8.97-1.1,11.65.58,23.28.04,35.62,4.6-.68,8.52.53,12.56.31"/>
  <path class="cls-1" d="M388.24,660.33c-2.28,3.55-5.89,3.5-9.49,3.5-12.04-.02-23.99,1.3-35.94,2.49"/>
  <path class="cls-1" d="M702.74,697.27c-.83.83-1.66,1.66-3.49,3.49v-31.95c-10.98,0-21.47,0-32.45,0,0,7.15-.02,13.81,0,20.47.02,6.86-.52,13.76,1.49,20.47"/>
  <path class="cls-1" d="M304.87,364.29c-1.29,1.28-2.93.97-4.49,1-1.72.03-3.33.43-5.02.88-7.66,2.04-12.39,8.44-18.77,12.38-3.58,2.21-4.7,7.47-4.69,12.2,0,1.33.66,2.78-.85,3.86-11.78-4.18-16.46-3.1-19.09,4.63"/>
  <path class="cls-1" d="M685.27,793.62h-44.93"/>
  <path class="cls-1" d="M533.01,683.79h38.87c.84,7.31,1.26,14.07.7,20.98-.6,7.44,0,14.97-.18,22.45-.13,5.3-.06,5.5,5.53,4.49"/>
  <path class="cls-1" d="M696.25,769.66c-17.35.17-34.63,1.93-51.93,2.71-9.93.45-19.93,2.43-29.94.78"/>
  <path class="cls-1" d="M714.73,441.67c-9.75-1.76-19.65-2.21-29.46-3.48-8.99-1.16-18.06-1.61-26.96-3.51"/>
  <path class="cls-1" d="M492.57,686.29c1.88,14.76.3,29.64,1.5,44.43"/>
  <path class="cls-1" d="M450.64,655.33c-1.11,15.29-.06,30.63-.92,45.93-.44,7.79-.01,15.7.39,23.43.24,4.56.31,9.87,2.88,14.58,3.69,6.74,7.8,7.81,13.12,2.43,3.17-3.21,6.59-6.14,4.21-11.58-.34-.78-.69-3.46.97-4.67-1.85-2.24-3.82-.84-5.55-.72-1.26,2.87-.98,6.86-5.62,6.98.27,1.2-.94,1.91-1,3"/>
  <path class="cls-1" d="M415.19,412.71c-8.18,4.84-17.26,5.64-26.46,6-10,.39-20.01.61-29.97,1.9-3.92.51-7.99-.14-11.97.15-5.29.38-6,1.91-3.5,6.43"/>
  <path class="cls-1" d="M399.22,484.6c-15.82-.01-31.63.02-47.43,1"/>
  <path class="cls-1" d="M640.34,588.94c-.03,10.98.01,21.97,0,32.95,0,3.49,0,6.99,0,10.48"/>
  <path class="cls-1" d="M404.71,728.72c-1.41-6.27.41-12.7-1.01-18.97-1.7,0-2.23.02-2.16,2.5.39,13.82.19,27.65-1.32,41.43"/>
  <path class="cls-1" d="M393.73,554.99c-13.98-.08-27.96-.12-41.93,0"/>
  <path class="cls-1" d="M464.62,685.79v8.96c8.13.98,16.29.67,25.03-.07-.34-2.91.46-5.9-.57-8.9"/>
  <path class="cls-1" d="M666.8,523.04c-.75,10.14-.91,20.29-1.04,31,12.7-.37,25.32.72,37.99.45"/>
  <path class="cls-1" d="M703.24,626.38c-12.32.37-24.62-.71-36.94-.47-1.32.03-2.77-.59-3.99.47"/>
  <path class="cls-1" d="M461.12,685.79c.09,11.65.75,23.29.5,34.95-.04,1.97-.03,3.94,1.49,5.49"/>
  <path class="cls-1" d="M408.2,680.79v70.77c3.72.43,4.38-.71,4.06-3.38-.66-5.58.31-6.42,5.92-5.98,2.48.19,2.71-.34,2.01-3.5-2.02-9.11-4.17-18.2-5.51-27.45"/>
  <path class="cls-1" d="M663.31,557.99c11.65,0,23.3.03,34.95-.03,1.87-.01,3.66.37,5.49.53"/>
  <path class="cls-1" d="M704.74,487.1c-13.17.49-26.28-1.34-39.44-1"/>
  <path class="cls-1" d="M669.3,453.15c-2.02,1.21-1.48,3.2-1.49,4.99-.03,7.82-.01,15.64-.01,24.04,12.34-.61,24.6,1.04,36.94.92"/>
  <path class="cls-1" d="M386.24,711.25c-1.04,3.79-.43,7.66-.47,11.48-.09,10.82-.03,21.63-.03,32.45"/>
  <path class="cls-1" d="M653.32,483.6c-3.29.69-5.07.63-4.67-4.01.7-7.93.17-15.96-.04-23.94-.02-.93,1.66-5.22-2.82-4.15-.12.03-1-2.18.06-3.38,2.7-.21,4.77.46,5.51,3.52.26,1.07,1.17,1.9,2.45,2.01"/>
  <path class="cls-1" d="M645.83,452.15c-.89,10.3-1.07,20.62-1,30.95.02,2.47.22,5.23-3.49,2.5"/>
  <path class="cls-1" d="M621.87,518.05c4.93.46,6.25,3.11,6.14,7.99-.19,8.31,1.31,16.61.85,24.96"/>
  <path class="cls-1" d="M698.25,622.39c0-10.32,0-20.64,0-30.79-2.45-.49-4.21.21-5.99.84"/>
  <path class="cls-1" d="M370.76,746.69c-.56-6.33,1.48-12.94-1.99-19.41-5.34,4.62-4.88,10.61-5,16.42"/>
  <path class="cls-1" d="M599.41,697.27c3.57,1.36,7.4-.23,11.52.97-.23,15.34.41,30.64.97,46.01-4.26,1.12-8.24-.31-11.98.95"/>
  <path class="cls-1" d="M395.72,550c-.29-10.17.11-20.32,1.92-30.99-13.58.23-26.24-.74-38.93.76-1.17,10.4-.9,20.57-.93,30.73"/>
  <path class="cls-1" d="M591.42,709.75c-.3,11.98.62,23.98-.5,35.94"/>
  <path class="cls-1" d="M409.7,668.81c6.49,0,12.99.16,19.47-.06,3.77-.13,4.9,1.57,5.62,5.03.91,4.33-1.2,8.92,1.37,13.01"/>
  <path class="cls-1" d="M699.25,553.99c0-10.49,0-20.97,0-31.54-5.57.99-10.52-.27-15.47-.97-5.17-.73-10.33-.19-15.48-.46-.87-.05-1.19.16-1,1.02"/>
  <path class="cls-1" d="M336.32,395.24c-.21-8.45-1.19-16.62-6.95-23.5-3.19-3.8-6.35-7.44-11.52-8.45"/>
  <path class="cls-1" d="M630.36,478.11c-1.15-9.8.22-19.65-1.22-30.07-1.07-.78-2.86-2.2-5.27-2.38"/>
  <path class="cls-1" d="M426.68,443.67c-2.66.09-2.96,2.35-2.91,3.99.3,10-.63,19.97-.59,29.96"/>
  <path class="cls-1" d="M353.29,516.05c-2.16,2.36-.41,5-.44,7.49-.14,9.15-.06,18.3-.06,27.46"/>
  <path class="cls-1" d="M309.86,585.94h-34.95"/>
  <path class="cls-1" d="M344.8,643.85c7.82,1.33,15.65-.4,23.46.07,5.9.36,11.33-1.69,16.99-2.43,5.78-.75,10.95-3.19,16.45-4.65.98-.26,1.84-.5,2.5.52"/>
  <path class="cls-1" d="M426.18,519.55c0,9.15-.02,18.3.01,27.46,0,1.71-.47,3.55.98,4.99"/>
  <path class="cls-1" d="M401.72,382.76c-12.55-.16-24.88,2.83-37.44,2.49-2.83-.08-3.62,1.4-3.53,4,.14,3.99.04,7.99.04,11.98"/>
  <path class="cls-1" d="M400.22,588.44c-.92,7.13-.5,14.34-1.44,21.47-.47,3.62-.72,7.3-.56,10.98"/>
  <path class="cls-1" d="M402.21,482.1c.82,10.65.82,21.3,0,31.95"/>
  <path class="cls-1" d="M583.43,820.58c-10.68-.59-21.27,1.51-31.95,1"/>
  <path class="cls-1" d="M400.72,683.29c-13.84-.34-27.62,1.24-41.44,1.45-2.62.04-3.62.92-3.55,3.54.05,1.82.57,3.74-.44,5.49"/>
  <path class="cls-1" d="M647.83,553.99c-.44-10.2-.44-20.37,1.11-30.69-.83-.53-2.16-.88-3.6-.76"/>
  <path class="cls-1" d="M423.18,592.93c-1.86,3.18-1.17,6.7-.89,9.98.62,7.17.2,14.32.39,21.48"/>
  <path class="cls-1" d="M470.11,623.38c0-7.16.1-14.31-.04-21.47-.07-3.6,1.31-6.8,4.13-8.3,2.62-1.4,5.94.49,8.84,1.06,1.31.26,2.19,2.94,2.13,5.25-.22,7.82-.08,15.64-.08,23.46"/>
  <path class="cls-1" d="M437.66,649.34c-9.82.26-19.66.25-29.45.2-6.29-.03-12.65.26-18.97-.17-2.81-.19-4.79-2.38-7.99-2.19-12.16.7-24.31,1.55-37.13,2.72-1.53-73.94,1.45-147.84-.09-222.24,17.82.65,35.67-2.52,53.7-2.47"/>
  <path class="cls-1" d="M478.59,518.55c-2.72,2.02-3.01,4.94-3,7.99.01,7.49,0,14.98,0,22.46"/>
  <path class="cls-1" d="M700.25,482.6c-.44-9.49.82-18.97.42-28.57-10.41-.39-20.28-3.21-30.38-1.38"/>
  <path class="cls-1" d="M405.21,678.8c-1.11,8.3-.17,16.64-.53,24.96-.07,1.66.59,3.42-.47,4.99"/>
  <path class="cls-1" d="M633.85,675.8c-.2,4.49.55,8.98-.42,13.5-.69,3.2.26,5.65,4.42,5.01,1.3-.2,2.67-.15,3.99,0,2.7.28,3.87-1.18,3.43-3.5-.71-3.68-.41-7.33-.41-11,0-3.42-1.08-5.15-5.01-5.07-11.98.23-23.96.08-35.94.08-5.59,0-6.61,1.68-6.13,7,.38,4.26,1.87,8.72-.36,12.97"/>
  <path class="cls-1" d="M649.83,761.67c2.18,2.61,5.21,1.71,7.98,2.04,5.65.66,11.36.5,16.99,1.4,1.3.21,2.98.7,3.98-.94"/>
  <path class="cls-1" d="M410.2,643.35c9.3,1.24,18.64,0,28.46.67,0,9.31.48,18.83-.1,28.28-1.29,20.98-.08,41.94-.39,62.91-.03,2.22.03,4.44-1.01,6.49"/>
  <path class="cls-1" d="M548.98,690.28c-3.15-2.9-6.98-1.13-10.49-1.4-1.39-.11-2.16,1.3-2,2.9.36,3.65.02,7.31.33,11,.35,4.09,2.24,5.25,5.67,4.94,6.82-.6,13.65-.42,20.95-.48-.71,7.55,2.96,14.82,1.02,22.47"/>
  <path class="cls-1" d="M365.77,593.93c-1.14,9.32-.15,18.64-.57,28.42,10.24.19,19.88-.29,29.53-.96"/>
  <path class="cls-1" d="M766.15,617.89c-9.32-.24-18.65.55-27.95-.53-.82-.09-1.28.58-2,.53"/>
  <path class="cls-1" d="M645.33,597.92c-.68,9.14-.65,18.32-1.45,27.46-.17,1.97-.45,4.05.45,5.99"/>
  <path class="cls-1" d="M762.15,774.15c-4.33-2.18-8.69.17-12.97.29-5.78.16-11.6,1.4-17.48,1.79-10.48.69-20.95,1.49-31.45,1.98-17.14.8-34.29,1.61-51.41,2.67-15.31.95-30.66,1.32-45.94,2.76-5.65.53-11.31.46-16.97.53-1.52.02-3.3-.76-4.49.96"/>
  <path class="cls-1" d="M431.17,534.02c2.37-6.6.08-13.32,1.36-20.56-4.07.29-7.44-.71-9.85,2.59"/>
  <path class="cls-1" d="M574.45,593.93c2.68-2.17,9.77-2.66,12.5-1.04,1.15.68,1.04,1.56.97,2.53-.75,10.8-.11,21.65-.99,32.45"/>
  <path class="cls-1" d="M481.09,442.17c-3.14,1.8-3.26,5.14-3.38,7.99-.31,7.16-.39,14.35.89,21.46"/>
  <path class="cls-1" d="M539.5,514.06c2.98,10.84,1.81,21.94,2,32.95"/>
  <path class="cls-1" d="M292.39,756.68c6.94-.66,12.78,3.15,18.89,5.22,15.97,5.4,32.52,7.2,48.98,9.88,12.11,1.98,24.37,2.05,36.47,3.84,1.63.24,3.32.03,4.99.03"/>
  <path class="cls-1" d="M324.84,561.98c-5.91-8.56-12.49-10.43-20.04-6.63-3.32,1.67-4.16,4.35-5.52,7.35-3.19-1.5-5.98-4.75-9.86-3.62-2.86.84-6.19,1.48-7.52,4.89"/>
  <path class="cls-1" d="M677.28,524.04c.07,9.66-1.9,19.28-.5,28.95"/>
  <path class="cls-1" d="M403.71,736.21v34.45"/>
  <path class="cls-1" d="M408.7,659.83h28.95"/>
  <path class="cls-1" d="M382.25,402.73c-6.85-2.4-13.97-1.11-21.47-1.61,0,5.09,0,10.09,0,15.16,7.16,1.29,14.31-.28,21.47-.18,5.17.07,10.37-1.32,15.47.61"/>
  <path class="cls-1" d="M470.61,699.76c-1.66.18-3.4-.38-5.37.5-.2,7.81-1.43,15.61-.12,23.46"/>
  <path class="cls-1" d="M591.42,442.17c.09,7.49-.24,14.98.45,22.47.18,1.97.45,4.05-.45,5.99"/>
  <path class="cls-1" d="M538,707.25c-1.4,6.79.49,13.67-1.4,20.66,12.27.43,23.41,3.35,34.85,3.3"/>
  <path class="cls-1" d="M325.83,596.93h-27.96"/>
  <path class="cls-1" d="M684.27,593.93c2.51,0,5.01,0,7.55-.67-7.86-4.18-16.41-1.05-24.74-3.12-2.39,10.67-.8,20.76-1.28,30.75"/>
  <path class="cls-1" d="M399.72,552c-.33-2.46-2.25-1.43-3.5-1.46-8.66-.2-17.3.75-25.96.44-.84-.03-1.82.45-2.5-.48"/>
  <path class="cls-1" d="M479.09,595.93c-2.01,2.3-2.4,5.25-2.4,7.99,0,6.49-.67,13,.4,19.47"/>
  <path class="cls-1" d="M694.26,523.54c-4.14,5-4.37,11.01-3.89,16.97.35,4.34.26,8.66.39,12.99"/>
  <path class="cls-1" d="M604.4,808.59c-9.05-.16-17.87,2.73-26.96,2"/>
  <path class="cls-1" d="M382.25,593.93c-.51,8.98,1.11,18.04-1,26.96"/>
  <path class="cls-1" d="M691.26,594.43c-1.71,2.97-1.53,6.23-1.51,9.49.04,5.82.01,11.65.01,17.47"/>
  <path class="cls-1" d="M402.71,388.25c-.31,8.98.62,17.99-.5,26.96"/>
  <path class="cls-1" d="M569.95,679.8c-1.26-10.53-11.51-17.29-24.47-15.02-10.39,1.82-12.34,5.54-13.33,15.98-.81,8.53-.82,17-1.09,25.5-.05,1.48-.66,3.1.45,4.49"/>
  <path class="cls-1" d="M303.37,539.52c-.83.01-1.68.15-2.49.17-9,.12-17.94,1.4-26.96,1.33"/>
  <path class="cls-1" d="M478.59,699.76c0,6.16-.04,12.31.04,18.47.01.93-.34,1.79-.63,2.46-1.91,4.39-2.63,8.82-1.45,13.52.25,1-1.02,1.28-1.46,1.99"/>
  <path class="cls-1" d="M354.79,452.15c-2.75,4.01-1.94,8.57-1.98,12.98-.06,5.49-.01,10.98-.01,16.47"/>
  <path class="cls-1" d="M363.28,524.04c1.03,6.78.81,13.66,1.49,20.47.2,1.99-.39,4.05.51,5.99"/>
  <path class="cls-1" d="M503.06,357.3c7.16,8.15,13.31,17.06,19.47,25.96"/>
  <path class="cls-1" d="M533.51,444.16c-2.68,5.39-1.9,11.29-2.45,16.98-.27,2.8-.05,5.65-.05,8.48"/>
  <path class="cls-1" d="M667.3,592.43c.33.5.67.51,1,.52,8.33.29,8.59.32,7.91,8.46-.54,6.5-.24,12.99-.42,19.48"/>
  <path class="cls-1" d="M334.82,568.97c-8.6,1.83-17.31.67-25.96,1"/>
  <path class="cls-1" d="M402.21,679.3c-1.33,2.93-.7,6.03-.42,8.98.55,5.85.7,11.65-.05,17.48-.17,1.32-.23,2.73.47,3.99"/>
  <path class="cls-1" d="M676.29,475.12v-19.57c-1.98-.62-4.14-.79-5.99-1.89"/>
  <path class="cls-1" d="M692.26,405.23c5.38-.59,10.62,1.12,15.97.61.02,1.05,0,.22,0,.89.11,9.31.13,9.1-9,8.09-3.84-.43-7.88.35-6.98-5.59"/>
  <path class="cls-1" d="M679.28,456.15c-2.02.44-.93,2.02-.94,3-.1,7.32-.05,14.64-.05,21.96"/>
  <path class="cls-1" d="M531.51,521.04c-1.17,8.45-1.71,16.93-1.5,25.46"/>
  <path class="cls-1" d="M382.25,523.54c-.75,8.5,1.74,16.95.5,25.46"/>
  <path class="cls-1" d="M654.32,447.16c-.16,7.99-.05,15.97-.33,23.97-.19,5.44-1.09,10.96,1.09,16.56,1.3,3.32.34,7.57.21,11.39-.19,5.66.63,11.34-.47,16.97"/>
  <path class="cls-1" d="M532.51,595.93c-3.85,8.84-1.68,18.34-3,27.46"/>
  <path class="cls-1" d="M574.94,522.54c2.63.79,1.35,2.94,1.45,4.5.43,6.65-.62,13.33.54,19.97"/>
  <path class="cls-1" d="M426.68,448.16c1.55,8.25,2.23,16.57,2,24.96"/>
  <path class="cls-1" d="M517.53,656.33c0,6.49.27,13-.13,19.46-.18,2.86,1.51,2.86,3.12,3.5"/>
  <path class="cls-1" d="M630.36,703.76v24.96"/>
  <path class="cls-1" d="M688.77,745.19c1.67,0,2.88,1.32,3.89,2.13,2.65,2.14,5.12,3.08,8.61,2.46,5.27-.94,9.07,1.46,11.22,6.4"/>
  <path class="cls-1" d="M367.27,455.65c-1.06,8.32-.45,16.64,0,24.96"/>
  <path class="cls-1" d="M614.38,701.76v42.93"/>
  <path class="cls-1" d="M368.77,803.6c-8.42.58-16.57-2.16-24.96-2"/>
  <path class="cls-1" d="M536.01,435.68c5.52,3.32,5.95,9.07,6.38,14.49.48,5.95.11,11.97.11,17.96"/>
  <path class="cls-1" d="M422.68,529.03v23.96"/>
  <path class="cls-1" d="M698.25,684.79c-2,.1-3.99-1.4-6.39.25-.55,5.75-1.51,11.74.4,17.73"/>
  <path class="cls-1" d="M744.18,512.06c-7.99-.02-15.99.15-23.96-.5"/>
  <path class="cls-1" d="M436.66,697.77h-11.63c-2.9,3.74-.09,8.15-1.85,11.98"/>
  <path class="cls-1" d="M595.41,349.31c-7.31-2.21-14.5-4.8-21.96-6.51-11.18-2.57-22.49-4.2-33.95-4.42-7.49-.14-14.97-.85-22.46-.52-10.86.47-21.73.89-32.45,2.96"/>
  <path class="cls-1" d="M472.6,699.76c1.97.92,1.03,2.73.92,3.99-.59,6.51-.5,12.99.08,19.48"/>
  <path class="cls-1" d="M500.06,685.79c0,3,0,6.01,0,9.49h19.47"/>
  <path class="cls-1" d="M697.25,454.65c-6.29,3.05-5.86,9.13-5.8,14.48.04,4.14.1,8.32.31,12.48"/>
  <path class="cls-1" d="M625.86,373.28c.89-3.87-1.88-5.1-4.39-7.12-4.55-3.65-10.56-3.91-15.08-7.36"/>
  <path class="cls-1" d="M521.53,656.33c-.03,12.83-.04,25.64-1.3,38.46-.48,4.87.7,9.97-.2,14.96"/>
  <path class="cls-1" d="M342.81,545.51c-8.99.22-14.92,2.01-18.47,13.48"/>
  <path class="cls-1" d="M398.72,399.23h-37.44"/>
  <path class="cls-1" d="M326.83,749.69c2.19,3.73,5.23,4.35,8.99,2.51,1.25-.61,2.35-.93,4.01-.66,5.35.89,10.69,1.42,16.01-1.24,4.72-2.36,9.93.09,14.92-.11"/>
  <path class="cls-1" d="M768.14,482.1h-22.96"/>
  <path class="cls-1" d="M429.67,529.03c.58,4.98.44,9.98.53,14.98.05,2.74-.22,5.3-2.03,7.49"/>
  <path class="cls-1" d="M537.5,592.43c3.99,4.66,3.99,10.32,3.99,15.98,0,2.16,0,4.33,0,6.49"/>
  <path class="cls-1" d="M594.41,755.18c4.36,2.8,9.27,2.13,13.97,1.9,4.68-.23,9.32-.58,13.98.1"/>
  <path class="cls-1" d="M439.66,370.28c-3.21,5.47-6.95,10.28-11.7,14.77-4.98,4.7-7.42,11.93-10.7,18.21-.43.82-1.12,1.26-1.56,1.96"/>
  <path class="cls-1" d="M388.24,650.34q0,10.48,10.98,10.49c2.85,0,5.77.45,8.3-2.27.74,6.25,2.35,12.24-.31,18.23"/>
  <path class="cls-1" d="M455.13,319.36c-1.02,8.96-.56,17.98-.94,26.96-.15,3.66-.91,7.3-.56,10.98"/>
  <path class="cls-1" d="M667.8,670.81q8.49,0,8.49,11.15c4.32-.9,8.74,1.14,12.98-1.17"/>
  <path class="cls-1" d="M520.03,718.74c1.05,7.65.28,15.3.06,22.97-.15,5.48-.54,11.01.54,16.56-5.05-.59-7.14,4.88-11.59,5.4"/>
  <path class="cls-1" d="M434.66,684.29c-3.4,1.37-7.08-.28-11.1,1.03.45,3.79-.47,7.62.61,11.45"/>
  <path class="cls-1" d="M427.18,596.93c-.92,7.38-.65,14.7,1,21.97"/>
  <path class="cls-1" d="M554.48,707.75c-.08,7.2-.12,14.39,1.5,21.47"/>
  <path class="cls-1" d="M633.85,694.77c-.41,14.48.88,28.95.51,43.43-.07,2.84.2,5.67.49,8.49"/>
  <path class="cls-1" d="M485.58,316.36c-8.01-3.25-16.26-5.82-24.48-8.44-2.8-.89-5.1-3.56-8.47-2.55"/>
  <path class="cls-1" d="M477.6,359.3c-11.88.93-23.4,3.83-34.89,6.71-1.51.38-2.71.19-4.05.27"/>
  <path class="cls-1" d="M515.54,656.33v21.47"/>
  <path class="cls-1" d="M280.4,667.32c-.33-.33-.78-.61-.98-1.01q-3.84-7.62-13.37-6.43c-.15,1.85.44,3.64.94,5.72-2.39.59-3.73,2.23-3,4.7.72,2.43,1.29,5.32,4.93,5.01"/>
  <path class="cls-1" d="M284.9,733.71c-7.04-.77-13.94,1.42-20.97,1"/>
  <path class="cls-1" d="M595.41,694.77c1.47-.22,2.62.32,3.16,1.06.92,20.4-.45,40.38.84,60.34"/>
  <path class="cls-1" d="M570.45,680.79c-5.44-1.26-11.03-.69-16.48-.76-6.95-.08-13.96.77-20.96.76"/>
  <path class="cls-1" d="M382.74,456.64c.34,7.65-.51,15.33.5,22.96"/>
  <path class="cls-1" d="M387.24,677.8c-10.08,1.7-20.3,2.02-30.45,3"/>
  <path class="cls-1" d="M632.35,810.59c-7.03-.55-13.93,1.67-20.97,1"/>
  <path class="cls-1" d="M549.98,684.79c2.37,3.9.27,8,.39,11.98.33,10.64.11,21.3.11,31.95"/>
  <path class="cls-1" d="M325.83,719.98c.85.29,1.26.93.98,1.74-1.68,4.77-2.29,10.02-4.73,14.34-1.15,2.04-1.05,3.34-.74,5.13"/>
  <path class="cls-1" d="M644.84,694.77c0,10.48-.01,20.97,0,31.45,0,4.5-.2,9.01.49,13.48"/>
  <path class="cls-1" d="M418.19,625.88c-.82,1.16-1.06,2.71.05,3.42,3.55,2.28,7.71,1.29,11.41.85,3.09-.37,5.31-3.17,5.51-6.77.05-.83-1.22-1.66,0-2.5"/>
  <path class="cls-1" d="M693.26,797.61h-19.97"/>
  <path class="cls-1" d="M413.2,385.76c1.63,3.08.08,6.37.17,9.49.15,5.27,1.77,10.01,2.83,14.97"/>
  <path class="cls-1" d="M360.78,723.73c.66,6.66-1.42,13.31,0,19.97"/>
  <path class="cls-1" d="M357.78,763.67c2.5-3.09,6.27-2.77,9.49-2.85,6.16-.16,12.3-.97,18.47-.64"/>
  <path class="cls-1" d="M628.36,716.74c-1.07,1.86-2.43,3.33-2.15,6.01.52,4.94.14,9.97.15,14.96.02,5.88,1.59,6.77,6.99,3.99"/>
  <path class="cls-1" d="M484.59,766.66c-1.49,7.93-1.7,7.95-9.99,7.05-3.79-.41-7.65-.01-11.48-.5-2.05-.26-3.99-.46-5.48-2.05"/>
  <path class="cls-1" d="M575.44,608.91c0,5.33.06,10.65-.04,15.97-.03,1.53.9,3.76-1.96,3.99"/>
  <path class="cls-1" d="M430.67,604.91c0,3.49-.27,7.02.08,10.48.33,3.19-3.21,5.24-2.08,8.49"/>
  <path class="cls-1" d="M495.57,804.6h-18.97"/>
  <path class="cls-1" d="M306.86,570.97h-18.97"/>
  <path class="cls-1" d="M357.28,725.72c1.11,6.3.2,12.65.5,18.97"/>
  <path class="cls-1" d="M654.32,799.61h-18.97"/>
  <path class="cls-1" d="M481.59,721.73c1.37,3.22,2.17,6.6,3.09,9.96.91,3.34.92,6.65.76,10.66,2.47-2.47,4.56-4.56,6.64-6.64"/>
  <path class="cls-1" d="M451.89,302.39c.89,7.33-.93,14.64-.25,21.97"/>
  <path class="cls-1" d="M299.87,628.38c-4.53-4.22-4.45-4.18-7.53,1.98-1.13,2.26-3.11,3.97-4,6.49-3.83,10.86-2.99,15.17-1.57,25,.27,1.85.86,3.99-.34,6-1.21,2.01-1.28,3.97,1.46,4.97"/>
  <path class="cls-1" d="M554.98,688.78c-.86,5.99-.75,11.98,0,17.97"/>
  <path class="cls-1" d="M549.48,730.22c-2.64,1.93-5.65.77-8.49.95-3.15.2-6.32.05-9.48.05"/>
  <path class="cls-1" d="M455.63,317.36c10.08,2.85,20.12,5.86,29.95,9.49"/>
  <path class="cls-1" d="M352.79,725.72c-.87,5.96-.19,12.01-1,17.97"/>
  <path class="cls-1" d="M315.85,693.77c.41.97-.99,2.45.99,3.02,5.82,1.66,9.47,6.44,13.98,9.96"/>
  <path class="cls-1" d="M311.86,699.76c1.33,1.92,3.62,2.6,5.51,2.87,7.24,1.01,10.1,6.05,11.92,12.12.69,2.31,1.03,4.85-2.45,5.48"/>
  <path class="cls-1" d="M420.69,696.77c-2.83.2-5.7-.47-8.6,1.11,2.51,1.32,5.39.63,8.63.98-.17,3.45.21,7,1.47,10.38"/>
  <path class="cls-1" d="M599.41,683.79h29.45"/>
  <path class="cls-1" d="M334.82,464.13c-5.69.18-11.35-.03-16.97-1"/>
  <path class="cls-1" d="M731.2,501.08c-1.12-7.59-3.62-10.09-11.98-11.98"/>
  <path class="cls-1" d="M344.8,710.75c6.76-1.6,13.68-.66,20.47-.77,11.79-.19,23.62.55,35.44.77"/>
  <path class="cls-1" d="M356.29,721.73c-2.05-1.47.11-5.05-3.36-6.12-4.58,4.43-3.08,10.74-4.63,16.11"/>
  <path class="cls-1" d="M460.62,341.82c-.45,2.34-1.46,4.52-1.54,6.99-.25,8.48-.31,8.48-8.45,9.99-9.39,1.74-19.61,13.49-19.97,22.96"/>
  <path class="cls-1" d="M674.79,671.81c-1.25,3.1.03,6.34-.77,9.97-1.87.03-4.04,0-6.22.01"/>
  <path class="cls-1" d="M352.79,397.24c-5.26-1.45-10.47-3.5-15.98-1"/>
  <path class="cls-1" d="M677.28,692.78c3.88,7.38,7.65,14.8,7.46,23.46-.02.95.43,1.47,1.03,2"/>
  <path class="cls-1" d="M568.95,693.03c-2.75-6.22-8.74-4.13-13.48-5.24"/>
  <path class="cls-1" d="M399.72,402.23c-3.17-.01-6.33-.22-9.49-.43-6.35-.41-7.47.81-7.48,6.92,0,.83,0,1.66,0,2.5"/>
  <path class="cls-1" d="M319.34,619.89c-3.89.95-7.73,2.03-11.56,3.24-6.31,1.99-8.34,5.87-8.41,11.74"/>
  <path class="cls-1" d="M458.63,767.16c-3.06-.06.06,3.74-4.12,3.69-3.14-.82-8.05-1.07-12.87-1.52-4.7-.43-6.03-2.61-5.98-6.67.02-1.66,0-3.33,0-4.99"/>
  <path class="cls-1" d="M551.48,355.8c2.23,5.87,6.95,10.13,9.98,15.48"/>
  <path class="cls-1" d="M402.71,661.32c-1.07,5.11-1.07,10.29-1,15.48"/>
  <path class="cls-1" d="M363.77,726.72c.16-3.59.43-7.19-1.45-10.76-3.79,1.87-4.52,5.42-5.54,8.77"/>
  <path class="cls-1" d="M566.96,693.77c-1.91,3.17-1.12,6.7-.88,9.98.37,5.03.71,9.99-.12,14.99"/>
  <path class="cls-1" d="M367.27,593.93c1.12,4.96.19,9.99.5,14.98"/>
  <path class="cls-1" d="M673.29,593.93v14.98"/>
  <path class="cls-1" d="M288.89,700.76c-3.9-.06-7.76-.04-9.8,5.33,4.96,2.56,9.95,5.11,15.79,5.65"/>
  <path class="cls-1" d="M396.22,456.64c-.96.25-1.03-1.1-2-1.02-8.69.71-17.29-1.9-25.94-.84-2.37.29-4.27-1.36-6.51-.63"/>
  <path class="cls-1" d="M359.28,522.04c1.25.7,2.7,1.65,3.98,1.42,10.98-2.03,21.98-.37,32.96-.42"/>
  <path class="cls-1" d="M508.55,657.83c-.04,5.02.38,10,1,14.98"/>
  <path class="cls-1" d="M450.64,337.33c-.3,4.99.62,10.02-.5,14.98"/>
  <path class="cls-1" d="M367.27,730.72c1.12,4.96.19,9.99.5,14.98"/>
  <path class="cls-1" d="M587.42,704.76c-3.74,5.41-4.22,11.82-5.48,17.97-1.38,6.72,1.25,12.61,3.98,18.47"/>
  <path class="cls-1" d="M507.55,739.7c1.19-1.41,2.81-1.55,4.99-1.48,0,5.13,0,10.3,0,15.46"/>
  <path class="cls-1" d="M443.65,396.24c-5.09-.07-9.89,2.07-14.98,2"/>
  <path class="cls-1" d="M325.33,718.74c-3.36-4.56-4.72-4.66-8.47-.49-1.52,1.68-2.62,3.69-4.02,5.5-2.12-2.23-3.62-5-5.98-7-1.59-1.35-2.52-.03-3.49.99"/>
  <path class="cls-1" d="M356.79,763.67c5.01,2.66,10.45,3.04,15.98,3"/>
  <path class="cls-1" d="M552.48,664.82c1.21,4.75-.45,9.8,1.5,14.48"/>
  <path class="cls-1" d="M584.43,776.64c-6.69-.44-13.31.75-19.97,1"/>
  <path class="cls-1" d="M674.29,685.29c.3,4.82-.6,9.68.5,14.48"/>
  <path class="cls-1" d="M379.25,643.85c4.78,1.47,9.62,1.35,14.48.5"/>
  <path class="cls-1" d="M384.24,384.76c.85,4.63-.94,9.36.5,13.98"/>
  <path class="cls-1" d="M759.16,736.21c-1.48,1.54-2.99,2.79-2.61,5.51.45,3.22-3.44,4.2-4.97,4.65-3.19.94-4.15,3.11-4.24,5.33-.13,3.13,3.07,3.14,5.31,4.05,2.55,1.03,6.67.25,6.51,4.93"/>
  <path class="cls-1" d="M761.65,713.24c2.6,2.75.32,4.93-1.07,6.94-1.25,1.82-3.1,3.22-4.73,4.85,2.27,1.72.58,4.21,1.8,5.93-3.86,2.7-7.09,6.04-9.98,9.74"/>
  <path class="cls-1" d="M734.2,670.81c3.76-4.38,3.61-5.69-1-8.49-2.37,1.07-.43,5.28-3.99,5.49"/>
  <path class="cls-1" d="M493.57,758.67c1.92-2.41,4.65-3.47,6.88-1.38,2.62,2.46,5.11.48,7.6.86,2.49.38,5.18-.77,7.49,1.02"/>
  <path class="cls-1" d="M575.94,441.17c4.96,1.41,10.63,1.72,12.48,7.99"/>
  <path class="cls-1" d="M740.19,752.68c-2.68,1.95-4.95,4.44-7.59,6.35-2.01,1.45-2.28,3.24-2.89,5.13"/>
  <path class="cls-1" d="M299.37,737.71c-.92,3.79,1.99,6.52,4.13,7.75,5.66,3.29,11.61,7.32,18.81,4.65,1.67-.62,3.76-.25,5.02-1.92"/>
  <path class="cls-1" d="M315.85,676.8c.03,2.33-.17,4.66.72,7.13-3.99,1.06-5.4-2.08-7.71-3.13"/>
  <path class="cls-1" d="M694.76,729.72c.9,2.25-2,4.2-.32,6.51,1.21,1.41,3.51-.68,4.85,1.46,2.82,4.49,6.68,2.91,10.45,1.52"/>
  <path class="cls-1" d="M691.26,673.81v6.86c2.62.84,4.73,1.7,6.99.63"/>
  <path class="cls-1" d="M599.41,692.78c8.82,0,17.64.02,26.46-.02,2.18-.01,2.96,1.14,2.46,3-1.08,4.03-.19,8,.04,11.99"/>
  <path class="cls-1" d="M438.66,755.68c.16,2.16-.43,4.39.49,6.49,2.7.39,2.7-2.29,4.04-3.45,1.38-1.2,3.02-1.93,3.46.96"/>
  <path class="cls-1" d="M395.23,684.29c-.07,8.69.11,17.36,1.5,25.96"/>
  <path class="cls-1" d="M283.9,683.79c.17-.33-.06-1.02-.49-.95-5.38.87-10.19-2.47-15.48-2.05"/>
  <path class="cls-1" d="M409.2,710.75c9.33-.29,18.63.6,27.96.5"/>
  <path class="cls-1" d="M664.3,621.89c12.84-.67,25.62,1.11,38.44,1"/>
  <path class="cls-1" d="M380.25,697.77c-4.46,1.06-8.99.23-13.48.5"/>
  <path class="cls-1" d="M336.32,737.21c3.59,3.73,2.96,8.43,3,12.98"/>
  <path class="cls-1" d="M400.22,756.68c1.15,2.94.38,5.99.46,8.99.15,5.87,2.32,7.25,7.5,4.44.5-.27,1.22-.32,1.52-.95"/>
  <path class="cls-1" d="M503.56,379.27c-4.43-1.03-8.61,1.17-12.98,1"/>
  <path class="cls-1" d="M399.22,755.18c-6.82,1.45-13.65.63-20.47,0"/>
  <path class="cls-1" d="M576.44,438.17c4.35.02,8.57,1.76,12.98,1"/>
  <path class="cls-1" d="M334.82,756.18c1.91,2.47,5.19,2.86,7.48,2.75,5.23-.25,9.21,2.2,13.49,4.24"/>
  <path class="cls-1" d="M652.32,598.92c.3-7.85-.4-7.72-6.99-7.49"/>
  <path class="cls-1" d="M361.78,651.84v7c4.35-.09,8.7.31,12.98-1.01"/>
  <path class="cls-1" d="M380.25,684.79c.02,8.18,1.59,16.27,1.5,24.46"/>
  <path class="cls-1" d="M692.76,525.54c-4.16-.49-8.27-1.38-12.48-1.5"/>
  <path class="cls-1" d="M489.08,725.72c-.84,4.16-.78,8.32,0,12.48"/>
  <path class="cls-1" d="M290.89,695.77c3.99,4.14,8.93,3.8,13.98,3"/>
  <path class="cls-1" d="M760.65,745.69c-1.24,3.67-4.05,5.27-7.32,7.27-4.29,2.63-8.37,5.5-13.15,7.21"/>
  <path class="cls-1" d="M555.97,405.23c-.26,4.18-1.33,8.16-3,11.98"/>
  <path class="cls-1" d="M531.51,380.26c-1.97,4.69-8.01,5.87-9.49,10.98"/>
  <path class="cls-1" d="M343.81,659.83c1.37-.13,2.34,1.75,4.05.58.87-.6,1.72-1.01,1.41-2.06-.56-1.89-2.05-2.68-3.96-2.76"/>
  <path class="cls-1" d="M451.14,684.79c13.64.45,27.29-.12,40.94.27,6.09.17,12.32.45,18.46-.27"/>
  <path class="cls-1" d="M396.22,467.13c-.8,3.99-.8,7.99,0,11.98"/>
  <path class="cls-1" d="M343.31,504.57q-6.23,0-7.99,6.99"/>
  <path class="cls-1" d="M539,517.05c-3.83-.5-7.31-3.65-11.48-1.5"/>
  <path class="cls-1" d="M742.18,684.79c6.25-5.12,6.3-5.23,4.51-10.45-1.06-.24-1.87.08-2.52.95-.47.63-1.01,1.29-1.95.99-.29-.97-.73-1.83-1.53-2.48"/>
  <path class="cls-1" d="M473.1,323.85c-.61,3.86-1.28,7.72.5,11.48"/>
  <path class="cls-1" d="M610.39,377.27c2.81,3.55,4.87,7.65,7.99,10.98"/>
  <path class="cls-1" d="M286.89,689.78c-2.34.28-4.89-.9-6.99,1-1.23,1.11-1.95.12-3.04-.41-1.67-.82-3.37-1.99-5.45-1.59"/>
  <path class="cls-1" d="M323.34,722.23c-2.31,2.75-2.74,6.29-4.01,9.52-1.3.25-2.72-.24-3.98.46"/>
  <path class="cls-1" d="M624.87,700.26c-2.85-2.16-6.59.07-9.53-1.93-.42-.28-.82.79-.95,1.43"/>
  <path class="cls-1" d="M335.82,699.76c-.09,6.01,1.94,11.66,3,17.47"/>
  <path class="cls-1" d="M758.16,761.17c-1.55,1.52-3.58,1.22-5.48,1.58-1.9.37-4.66.12-4.51,3.41"/>
  <path class="cls-1" d="M676.79,698.77c-2.77,3.38-3.8,7.62-5.36,11.54-1.38,3.49,2.88,5.67,3.34,8.82-2.14,2.23-3.02-2.01-5.5-.31-.33,2.08.21,4.55,1.52,6.91"/>
  <path class="cls-1" d="M724.21,747.69c-3.83.31-7.65-3.54-11.48,0"/>
  <path class="cls-1" d="M265.93,675.3c-1.2,1.33-1.12,2.6-.02,4.01,3.44,4.4,5.18,9.51,6,14.97.57,3.78,3.79,4.78,6.56,5.83,1.15.43,1.65,1.73,2.93,1.66"/>
  <path class="cls-1" d="M667.8,735.71c-.45,2.41.54,4.37,2.53,5.42,2.18,1.15,2.78,3.06,3.46,5.06"/>
  <path class="cls-1" d="M384.24,404.23c1.15,3.62.18,7.33.5,10.98"/>
  <path class="cls-1" d="M501.81,707.75c.68,1.07.85,2.17.81,3.5-.12,4.17,1.82,5.89,5.93,5.48,2.86-.29,5.52-1.79,8.49-1.48"/>
  <path class="cls-1" d="M599.91,718.74h25.96"/>
  <path class="cls-1" d="M709.73,759.17c-5.88,1.19-11.65,3-17.71,3.58-.75-3.8-2.24-6.8-2.76-10.07"/>
  <path class="cls-1" d="M646.33,745.19c-3.58-1.69-6.55-4.89-10.98-4.49"/>
  <path class="cls-1" d="M455.13,341.32c9.13-1.38,18.26-2.77,27.46-.5"/>
  <path class="cls-1" d="M623.87,759.67c9.25,4.07,18.58,4.64,27.94.45,1.17-.52,2.23-1.03,3.52-.95"/>
  <path class="cls-1" d="M341.81,718.74c-2.72.65-5.23,1.92-7.94,2.66-2.11.58-3.14-.41-4.54-1.17"/>
  <path class="cls-1" d="M404.21,662.32c1.04,3.45.25,6.99.5,10.48"/>
  <path class="cls-1" d="M576.44,594.43c3.35,1.61,7.08,2.07,10.48,3.49"/>
  <path class="cls-1" d="M655.82,424.2c-3.82.12-6.79-2.68-10.48-3"/>
  <path class="cls-1" d="M655.32,435.68c-.31,3.49.6,7.03-.5,10.48"/>
  <path class="cls-1" d="M691.76,457.64c-3.52-.34-6.88-1.79-10.48-1.5"/>
  <path class="cls-1" d="M436.16,767.66c-7.5.71-14.96,1.17-21.97-2.48-1.24-.65-2.49-1.65-3.99-.51"/>
  <path class="cls-1" d="M342.31,596.93c-2.88-.89-6.28-.75-8.21-4.93-3.83,4.37-8.49,8.01-10.78,12.18-2.27,4.13-4,9.95-3.29,15.18.56,4.11-.37,7.72-1.19,11.51"/>
  <path class="cls-1" d="M753.17,717.74c2.13-.93,3.74-2.65,5.94-3.6,2.77-1.2,2.62-1.55,2.03-6.02-2.36-1.36-3.56,1.45-5.47,1.63"/>
  <path class="cls-1" d="M722.71,737.71c-1.68,3.21,1.15,5.63,1.52,8.48.2,1.57,1.63,2.5,1.64,4.5.01,5.04.21,5.12-4.66,4.02-2.28-.51-4.55-1.84-6.98-.52"/>
  <path class="cls-1" d="M732.2,747.69c-2.56,4.99-4.24,10.35-6.49,15.48"/>
  <path class="cls-1" d="M655.32,742.7c2.59,2.44,4.94,4.81,4.1,9.01-.48,2.41,2.43,3.51,3.36,5.56-1.1,3.41-2.82,1.54-4.46.41"/>
  <path class="cls-1" d="M515.54,684.79v9.98"/>
  <path class="cls-1" d="M481.59,379.27c-2.43,3.05-5.01,5.98-7.54,8.94-1.33,1.56-1-.55-1.45-.96"/>
  <path class="cls-1" d="M483.09,342.32c-.79,3.33-.79,6.66,0,9.98"/>
  <path class="cls-1" d="M303.87,752.68c-3.32.26-6.7-.57-9.98.5"/>
  <path class="cls-1" d="M644.34,698.27c-3.33-.79-6.66-.79-9.98,0"/>
  <path class="cls-1" d="M431.17,593.93c.79,3.33.79,6.66,0,9.98"/>
  <path class="cls-1" d="M669.3,723.73c-1.15.3-2.46-2.15-3.55.47-1.45,3.45-.26,9.97,3.13,11.33,2.38.95,3.46,4.8,6.92,3.18"/>
  <path class="cls-1" d="M698.25,698.27c-3.21-.19-4.53,2.76-5.28,4.58-1.65,4-4.6,4.93-8.2,5.41"/>
  <path class="cls-1" d="M500.56,764.16c3.19,1.45,7.14.3,10.03,2.94.32.29,1.45.37,1.95-.45"/>
  <path class="cls-1" d="M677.28,700.26c2.74,2.73,1.89,6.21,2,9.49"/>
  <path class="cls-1" d="M320.34,704.26c-1.33,1.19-2.2,2.77-3.59,4.08-4.38-4.56-7.73.27-11.34,1.53-3.14,1.09-5.74,3.93-9.53,2.37"/>
  <path class="cls-1" d="M717.72,680.79c-3.79,2.28-.52,6.79-3.11,9.49-1.55-.93-3.22-1.96-4.88,0-2.39,2.83.62,4.41,1.5,6.49"/>
  <path class="cls-1" d="M503.56,736.71c-4.21-.06-6.88,1.57-8.15,5.94-.52,1.79-.13,4.1.27,4.38,3.84,2.58,1.55,5.88,1.39,8.9"/>
  <path class="cls-1" d="M404.71,644.85c-2.9-2.19-6.27-1.32-9.49-1.5"/>
  <path class="cls-1" d="M300.37,717.24c3.6,3.67,4.82,7.98,3.49,12.98"/>
  <path class="cls-1" d="M331.33,722.23c-.86,4.39-3.29,8.21-4.49,12.48"/>
  <path class="cls-1" d="M441.65,373.28c2.02,5.98,5.62,11.44,5.99,17.97"/>
  <path class="cls-1" d="M731.2,729.72c2.46-.61,3.88-3.16,6.77-3.92,1.26,5.2,1.33,9.7-2.8,13.4-2.8-.25-5.55-1.79-8.47-.5"/>
  <path class="cls-1" d="M678.28,760.17c.43,2.19,2.24,3.74,3.96,3.34,3.19-.75,6.63,2.08,9.52-.84"/>
  <path class="cls-1" d="M527.52,591.93c3.99-.28,8.03.59,11.98-.5"/>
  <path class="cls-1" d="M734.69,739.7c.86,3.94,3.9,6.3,6.49,8.99"/>
  <path class="cls-1" d="M667.8,684.79c7.16-.04,14.31.02,21.47,0"/>
  <path class="cls-1" d="M409.2,752.18c-.67,4.99,1.09,9.94.13,15-.31,1.62,1.95,2.37,3.37,2.39,2.32.03,4.73.69,6.99-.41"/>
  <path class="cls-1" d="M397.22,467.13c1.15,2.94.18,6,.5,8.99"/>
  <path class="cls-1" d="M643.84,683.29h-8.99"/>
  <path class="cls-1" d="M394.73,696.27c-2.87,1.47-6.12-.47-8.99,1"/>
  <path class="cls-1" d="M519.03,709.75c-.63-1.68-.96-3.48-1.97-4.96-2.03-.66-3.51,1.59-5.56.92-1.01-1.08-1.2-2.53-.85-3.92-4.11-.22-4.62,2.6-5.59,4.96"/>
  <path class="cls-1" d="M365.77,689.28c-.24,3.49.5,7.03-.5,10.48"/>
  <path class="cls-1" d="M653.32,740.7c-1.66-.03-3.23-.31-4.87-1.7,2.59-1.83,2.59-4.61,2.28-7.69,5.34-.48,9.83,2.32,14.57,1.4"/>
  <path class="cls-1" d="M707.24,430.19c-1.63,2.93-2.02,6.48-4.49,8.99"/>
  <path class="cls-1" d="M493.57,775.65c-2.99-.32-6.05.65-8.99-.5"/>
  <path class="cls-1" d="M384.74,528.03c-.32,2.99.65,6.05-.5,8.99"/>
  <path class="cls-1" d="M486.58,337.33c-3.1-.11-6.08.46-8.99,1.5"/>
  <path class="cls-1" d="M428.17,445.16c2.19,2.79,1.77,5.87,1,8.99"/>
  <path class="cls-1" d="M309.36,729.72q.21,5.6,3.01,8.5c-.33,1.23-1.79,1.98-1.51,3.48"/>
  <path class="cls-1" d="M397.72,426.19c1.18,2.9-.26,6.09,1,8.99"/>
  <path class="cls-1" d="M538.5,691.78c3.62,1.03,7.33.25,10.98.5"/>
  <path class="cls-1" d="M404.21,653.34c-3.66,2.39-8.17,2.52-11.98,4.49"/>
  <path class="cls-1" d="M376.75,729.72c1.15,4.59-.23,9.45,1.51,14,2.23.08,2.54-2.69,4.48-3.02"/>
  <path class="cls-1" d="M540,443.17c-2.86-.3-5.44-2.25-8.49-1.5"/>
  <path class="cls-1" d="M549.48,339.83c-.29,2.82.61,5.71-.5,8.49"/>
  <path class="cls-1" d="M341.31,728.22c-2.75,1.51-5.74-1.03-8.49.5"/>
  <path class="cls-1" d="M471.61,735.21c4.79,1.34,2.68,5.66,3.25,8.54.37,1.85-.1,4.28-.25,6.44"/>
  <path class="cls-1" d="M749.67,757.67c-.87,3.73-4.46,4.54-6.99,6.49"/>
  <path class="cls-1" d="M417.19,755.18c-.45,4.93-4.84,1.96-6.99,3.49"/>
  <path class="cls-1" d="M635.35,718.74h8.49"/>
  <path class="cls-1" d="M452.64,375.27c-3.53,1.31-3.66,5.57-6.49,7.49"/>
  <path class="cls-1" d="M496.57,766.66c-.41,3.94-2.07,5.98-6.51,5.1-1.74-.34-3.59-.94-5.47-.61"/>
  <path class="cls-1" d="M285.9,663.82c-1.89.19-2.39-1.61-3.47-2.53-1.61-1.37-3.02-1.47-4.52.03"/>
  <path class="cls-1" d="M629.86,675.8c0,4.66,0,9.32,0,13.98"/>
  <path class="cls-1" d="M610.89,675.3c.65,2.63.47,5.32.5,7.99"/>
  <path class="cls-1" d="M454.13,308.38c1.9,2.47-.7,5.5,1,7.99"/>
  <path class="cls-1" d="M510.05,768.16c-2.51,2.44-4.65,5.33-9.08,3.18-1.17-.57-3.26,2.19-5.4.81"/>
  <path class="cls-1" d="M442.65,622.88c2.69-1.43,5.84-2.36,6.53-6.03-4.2-2.69-8.36-.25-12.52.04"/>
  <path class="cls-1" d="M450.14,753.18c1.73,4.01,1.49,8.26,1.5,12.48"/>
  <path class="cls-1" d="M342.31,734.71c-1.66,2.57.12,5.35-.5,7.99"/>
  <path class="cls-1" d="M462.12,755.18c2.17,2.12,4.39,3.73,7.5,1.51,3.09-2.2,4.68-.7,4.93,2.48.3,3.94-1.48,7.62-1.95,11.48"/>
  <path class="cls-1" d="M752.17,724.73c-.77,2.32-1.42,4.46-4.47,5.11-2.05.44-3.44,2.46-4.52,4.37"/>
  <path class="cls-1" d="M426.68,594.93c2.4,2.52,3.09,5.7,3.49,8.99"/>
  <path class="cls-1" d="M420.69,741.7c1.3-1.22,2.95-.23,4.55-.83,6.9-2.57,9.21-1.4,12.92,5.33"/>
  <path class="cls-1" d="M525.02,338.83v7.49"/>
  <path class="cls-1" d="M503.56,339.83c-1.36,2.5.25,4.99,0,7.49"/>
  <path class="cls-1" d="M710.23,725.23c7.95-4.39,7.88-4.37,10.01,4.49,1.58,6.58,7,10.53,10.96,15.48"/>
  <path class="cls-1" d="M652.82,486.1c-2.39,1.83-4.94,1.11-7.49.5"/>
  <path class="cls-1" d="M381,652.34c-1.11-1.31-2.81-1.38-4.25-2.01-1.23.49-.95,1.56-.99,2.51"/>
  <path class="cls-1" d="M454.63,720.73c1.54,3.59,5.14,5.77,6.49,9.49"/>
  <path class="cls-1" d="M466.61,758.67c-3.19,4.06-2.63,8.81-2.5,13.48"/>
  <path class="cls-1" d="M330.83,703.76c-.93,4.48,3.48,7.02,3.99,10.98"/>
  <path class="cls-1" d="M324.84,616.89c-.77-2.02,1.88-5.47-2.5-5.99"/>
  <path class="cls-1" d="M695.26,725.72c-.1,3.57-2.59,4.51-5.49,4.99"/>
  <path class="cls-1" d="M768.14,745.69c-3.53-1.47-7.55.67-10.98-1.5"/>
  <path class="cls-1" d="M687.77,712.74c.55,7.15,1.62,14.26.57,21.48-.43,2.93-.1,5.98-.06,8.98.04,3.75-1.09,6.99-4,9.49"/>
  <path class="cls-1" d="M680.28,717.74c-1.17,3.78,2.31,7.77-1.37,12.03-1.11.71-4.06-1.18-5.58,1.6,1.89,6.35,2.22,6.71,8.94,9.33-.45-2.79-1.19-4.5-3-6.99"/>
  <path class="cls-1" d="M446.15,745.19c-3.27.54-7.92-1.93-8.74,3.99"/>
  <path class="cls-1" d="M601.9,766.66c-3.49-1.04-6.99.59-10.48,0"/>
  <path class="cls-1" d="M588.42,743.7c1.36,2.14,3.2,4.11,2.5,6.99"/>
  <path class="cls-1" d="M474.1,312.87c-1.28,2.19.31,4.8-1,6.99"/>
  <path class="cls-1" d="M722.21,725.72c2.68,1.53,4.37,3.98,5.99,6.49"/>
  <path class="cls-1" d="M725.21,705.76c-1.03,4.09-2.06,4.77-4.49,3"/>
  <path class="cls-1" d="M356.29,725.72c-1.11,2.26-.22,4.67-.5,6.99"/>
  <path class="cls-1" d="M565.96,342.82c.07,2.33-.12,4.66,0,6.99"/>
  <path class="cls-1" d="M462.62,348.31c1.11,2.22-.13,4.77,1,6.99"/>
  <path class="cls-1" d="M476.6,685.79v6.99"/>
  <path class="cls-1" d="M480.59,440.67c-2.33-.77-4.66-1.81-6.99,0"/>
  <path class="cls-1" d="M638.35,395.24c2.21,1.75,2.93,4.63,4.99,6.49"/>
  <path class="cls-1" d="M621.37,394.24c1.97,1.71,3.44,3.66,3,6.49"/>
  <path class="cls-1" d="M296.88,728.22c.04,1.29,2.6-.76,2.14,2.02-.95,5.7-.6,5.74,5.34,7,.39.08.67.63,1.01.97"/>
  <path class="cls-1" d="M287.89,665.32c1.98,1.19,3.33,3.46,5.99,3.49"/>
  <path class="cls-1" d="M597.91,363.79c.45,2.89,2.75,4.49,4.49,6.49"/>
  <path class="cls-1" d="M652.32,752.68c-3.68,1.66-2.88,4.99-3,7.99"/>
  <path class="cls-1" d="M485.58,742.2c-.1,3.52-2.36,6.83-1,10.48"/>
  <path class="cls-1" d="M744.68,742.7c-4.4,6.67-4.39,14.54-5.99,21.97"/>
  <path class="cls-1" d="M674.29,524.04c-1.53-2.38-4.26.05-5.99-1.5"/>
  <path class="cls-1" d="M482.09,763.17c3.91-2.45,7.25,1.43,11.22.71-.77,2.66-1.81,4.88-2.23,7.28"/>
  <path class="cls-1" d="M572.45,382.26c2.94.94,2.56,4.63,5.04,5.93,1.07-1.48,2.07-3.14,3.95-3.93"/>
  <path class="cls-1" d="M729.2,670.81c.06-1.68.24-3.41-1.54-4.48-2.88.94-2.71,4.46-4.95,5.98"/>
  <path class="cls-1" d="M368.77,670.81c-2.13.46-4.16,1.08-5.49,3"/>
  <path class="cls-1" d="M708.74,415.21c.95,2.16.64,4.33,0,6.49"/>
  <path class="cls-1" d="M411.7,690.78v6.96c-.94.38-1.56-.81-2.5-.47"/>
  <path class="cls-1" d="M499.56,695.27c-1.89,1.92-.61,4.34-1,6.49"/>
  <path class="cls-1" d="M489.58,752.68c1.23,4.13-2.29,6.16-3.99,8.99"/>
  <path class="cls-1" d="M577.94,344.82c-.06,2.17.39,4.38-.5,6.49"/>
  <path class="cls-1" d="M288.89,638.36c1.34,1.95,3.48,3.66,2,6.49"/>
  <path class="cls-1" d="M674.79,748.19c-1.43,2.54-1.7,5.77-4.63,7.29,1.48,2.15,1.55,5.16,4.83,5.85,3.12-.87,4.53-4.19,7.29-5.66"/>
  <path class="cls-1" d="M765.15,729.72c-2.16.17-4.39-.44-6.49.5"/>
  <path class="cls-1" d="M419.19,749.19c1.92,4.29,5.69,4.17,9.49,3.99"/>
  <path class="cls-1" d="M621.37,628.88c1.99-.23,4.07.55,5.99-.5"/>
  <path class="cls-1" d="M700.75,731.22c-1.57,1.6-4.63,1.86-4.49,4.99"/>
  <path class="cls-1" d="M305.37,655.33c.89,1.94.37,3.99.51,6.12-2.09-.43-3-2.09-4.01-3.62"/>
  <path class="cls-1" d="M481.09,738.7c-2.67,4.02-1.85,8.57-2,12.98"/>
  <path class="cls-1" d="M589.92,348.31c-1.05,1.92-.27,4-.5,5.99"/>
  <path class="cls-1" d="M738.19,747.19c-2.04.72-3.65,2.5-5.99,2.5"/>
  <path class="cls-1" d="M486.58,749.69c-.46,4.51-4,5.88-7.52,6.87-1.3.37-2.67.62-3.96,1.12"/>
  <path class="cls-1" d="M699.25,736.21c2.04-1.85,4.38-1.96,7-1.55,3.1.49,5.73.55,3.7,5.14-.69,1.57.76,4.17-1.21,5.9"/>
  <path class="cls-1" d="M481.59,756.18c.48,5.01-.6,9.17-5.99,10.98"/>
  <path class="cls-1" d="M750.17,701.76c1.65.64,2.64-.87,3.39-1.6,1.2-1.17,2.15-2.11,3.56-.85,1.15,1.03,1.06,3.3.44,3.84-3.09,2.63-2.22,6.44-3.39,9.6"/>
  <path class="cls-1" d="M547.99,785.63c-1.51,2,.38,3.99,0,5.99"/>
  <path class="cls-1" d="M536.01,670.31c2.09,1.64,3.35,3.97,4.99,5.99"/>
  <path class="cls-1" d="M358.78,669.81c1.92,3.24-.38,6.69.5,9.98"/>
  <path class="cls-1" d="M758.66,732.21c1.67,1.1.33,4.55,3.49,4.49"/>
  <path class="cls-1" d="M475.6,768.16c1.26,2.05,4.07,1.25,5.49,3"/>
  <path class="cls-1" d="M474.1,741.2c-4.22,1.1-4.39,6.26-7.99,7.99,1.2,1.07-.38,3.18,1.5,3.99"/>
  <path class="cls-1" d="M748.17,691.78c-.02-1.12-.26-2.31,1.27-3.1,2.82,1.3,2.79,3.87,1.59,6.02-.8,1.43-1.82,2.42-.86,4.07"/>
  <path class="cls-1" d="M562.46,786.13c.39,1.88-.67,3.63-.5,5.49"/>
  <path class="cls-1" d="M721.22,757.67c.13,2.03,2.37,3.28,2,5.49"/>
  <path class="cls-1" d="M343.81,770.15v5.49"/>
  <path class="cls-1" d="M444.15,640.36c1.6,4.4-.42,9.07,1,13.48"/>
  <path class="cls-1" d="M698.75,779.14c.17,1.83.74,3.62.5,5.49"/>
  <path class="cls-1" d="M382.25,653.84c.44,1.33,2.27,2.77-.02,3.96-2.14,1.11-3.33-.5-4.48-1.96"/>
  <path class="cls-1" d="M430.67,777.14v5.49"/>
  <path class="cls-1" d="M457.63,751.68c-.76,4.29-1.56,8.58-1,12.98"/>
  <path class="cls-1" d="M593.42,785.13v5.49"/>
  <path class="cls-1" d="M428.67,521.04c.07-.88-.16-2.47-.46-2.38-2.2.69-5.45-1.29-6.53,2.38"/>
  <path class="cls-1" d="M423.68,761.67c.64,1.84,2.79,3.13,2,5.49"/>
  <path class="cls-1" d="M369.76,755.18c-.99,1.94-4.2,2.1-3.99,4.99"/>
  <path class="cls-1" d="M317.85,723.73c.44,2.54-1.74,4.9-.5,7.49"/>
  <path class="cls-1" d="M421.18,777.14c.84,1.77.39,3.66.5,5.49"/>
  <path class="cls-1" d="M685.27,750.69c-2.53-3.54-3.84-.3-5.72,1.23-3.37-3.16-7.22-3.31-11.25-1.23"/>
  <path class="cls-1" d="M411.2,682.79c-1.06,1.57-.23,3.34-.5,4.99"/>
  <path class="cls-1" d="M601.4,412.21c-.68,1.66-.92,3.49-2,4.99"/>
  <path class="cls-1" d="M455.63,723.73c-1.69,1.51,1.34,3.49-.5,4.99"/>
  <path class="cls-1" d="M324.84,737.71c.02,1.68-.13,3.37.5,4.99"/>
  <path class="cls-1" d="M512.54,716.74v4.99"/>
  <path class="cls-1" d="M371.76,651.84c-1.27-2.19-2.97-.56-4.49-.5,1.28,1.9.42,3.99.49,5.99"/>
  <path class="cls-1" d="M356.79,428.19c.12,1.71,1.49,3.16,1,4.99"/>
  <path class="cls-1" d="M642.34,757.67c1.44,1.15,2.16,2.63,2,4.49"/>
  <path class="cls-1" d="M305.37,726.72c5.35,2.67,10.9,5.17,10.98,12.48"/>
  <path class="cls-1" d="M739.69,734.21c4.65-1.06,4.53,3.08,5.99,5.49"/>
  <path class="cls-1" d="M675.79,780.64c1.06,1.57.23,3.34.5,4.99"/>
  <path class="cls-1" d="M419.19,552.99c4.55,1.43,8.98-.56,13.48-.5"/>
  <path class="cls-1" d="M664.3,781.14v4.99"/>
  <path class="cls-1" d="M304.87,703.76c1.51,1.15,3.37,1.85,4.49,3.49"/>
  <path class="cls-1" d="M508.55,709.75c-1.81-.39-3.14,1.61-4.99,1"/>
  <path class="cls-1" d="M720.22,733.71c-1.37-.24-2.66.4-2.92,1.52-.77,3.29-3.2,2.96-5.57,2.98"/>
  <path class="cls-1" d="M372.76,671.81c2.75.03,5.59-.41,7.99,1.5.3,1.66-1.69,3.33,0,4.99"/>
  <path class="cls-1" d="M477.1,733.21c.82-.37,1.77-.4,2.58-.99,1.43,1.51,1.44,3.58,1.91,5.48"/>
  <path class="cls-1" d="M364.77,700.76c-.4,2.83-.97,5.66,0,8.49"/>
  <path class="cls-1" d="M424.68,747.69c-.94,1.77-.44,3.41.5,4.99"/>
  <path class="cls-1" d="M649.33,740.7c-.53,2.25-2.78,4.55.71,6.56,1.72.99.13,3.44,1.29,4.92"/>
  <path class="cls-1" d="M620.37,745.69c1.81,1.59,1.13,4.43,3,5.99-.58.51-.46,2.4-2,1"/>
  <path class="cls-1" d="M737.19,668.31c1.36,1,2.55,2.11,2.5,3.99"/>
  <path class="cls-1" d="M442.15,762.17c.46.83,1.49,1.36.08,2.59-1.13.99-2.7,1.17-3.58,2.4"/>
  <path class="cls-1" d="M509.05,404.73c-.74,1.43-.45,2.98-.5,4.49"/>
  <path class="cls-1" d="M460.12,779.14c1.49,1.68-.75,2.95-.5,4.49"/>
  <path class="cls-1" d="M512.54,706.25c.27,1.49-.61,3.1.5,4.49"/>
  <path class="cls-1" d="M711.73,778.64c1.11,1.39.23,3.01.5,4.49"/>
  <path class="cls-1" d="M334.82,733.21c2.92,4.04-1.39,6.07-2.5,8.99"/>
  <path class="cls-1" d="M376.75,738.2c-2.59,1.49-2.81,3.89-2.5,6.49"/>
  <path class="cls-1" d="M524.02,752.68c-.49,1.46-1.08,2.9-1,4.49"/>
  <path class="cls-1" d="M302.37,759.67c-1.23,1.3.19,3.18-1,4.49"/>
  <path class="cls-1" d="M334.32,768.66c-.42,1.48-.45,3.04-1,4.49"/>
  <path class="cls-1" d="M696.75,752.68c-1.92,3.26.97,5.66,1.5,8.49"/>
  <path class="cls-1" d="M599.41,352.31v4.49"/>
  <path class="cls-1" d="M698.75,746.19c-1.06-3.31-3.74-.7-5.49-1.5"/>
  <path class="cls-1" d="M632.35,783.13c.04,1.35-.2,2.73.5,3.99"/>
  <path class="cls-1" d="M475.6,664.82c-.62-3.27-3.7-2.46-4.89-1.8-2.04,1.12-3.43.59-5.1-.19"/>
  <path class="cls-1" d="M342.81,650.34c-1.04,1.27-2.4,1.69-3.99,1.5"/>
  <path class="cls-1" d="M353.29,702.76c-1.06,1.22-.23,2.68-.5,3.99"/>
  <path class="cls-1" d="M735.19,777.14v3.99"/>
  <path class="cls-1" d="M599.41,768.66c2.33-.05,4.66.02,6.99,0"/>
  <path class="cls-1" d="M502.06,759.67c-1.3,1.57-1.03,4.24-3.49,4.99"/>
  <path class="cls-1" d="M321.84,693.77c-.87,1.46,2.16,2.43.5,3.99"/>
  <path class="cls-1" d="M497.07,747.69c2.83-3.14,6.55-1.85,9.98-2q1.33,5.7-5.49,5.5"/>
  <path class="cls-1" d="M479.09,749.69c-2.28-.18-4.39.13-5.99,2"/>
  <path class="cls-1" d="M322.34,766.16c-1.05,1.15.05,2.84-1,3.99"/>
  <path class="cls-1" d="M337.32,730.22c-1.78,2.43-4.86,3.04-6.99,4.99"/>
  <path class="cls-1" d="M474.1,780.64c-1.06,1.22-.23,2.68-.5,3.99"/>
  <path class="cls-1" d="M355.79,764.16c-1.22,1.06-2.68.23-3.99.5"/>
  <path class="cls-1" d="M578.94,337.83c-1.09.71-2.31.44-3.49.5"/>
  <path class="cls-1" d="M486.58,722.73c2.63,1.27,3.86,3.81,5.49,5.99"/>
  <path class="cls-1" d="M304.37,625.38c.71,1.09.44,2.31.5,3.49"/>
  <path class="cls-1" d="M746.68,682.29c2.13,1.71-.13,4.78,2.31,6.33-1.04.77-2,.79-2.81,1.16"/>
  <path class="cls-1" d="M465.12,766.16c2.33,2.46,4.66-.41,6.99,0"/>
  <path class="cls-1" d="M315.85,743.7c-2.33-1.33-6.16-.04-6.99-3.99"/>
  <path class="cls-1" d="M644.34,782.64c.06,1.18-.21,2.41.5,3.49"/>
  <path class="cls-1" d="M754.66,710.25c-1.24-.36-2.25.86-3.49.5"/>
  <path class="cls-1" d="M299.87,729.72c2.53-.06,4.64.7,5.99,3"/>
  <path class="cls-1" d="M583.93,746.69c.43,1.03,1.68,1.66,1.5,3"/>
  <path class="cls-1" d="M489.58,659.83c.21,2.29.04,4.11-3,2.5"/>
  <path class="cls-1" d="M497.07,661.32c-.5,1.83,5.57,2.35,1,4.99"/>
  <path class="cls-1" d="M730.7,730.72c-1.73,1.6-3.32,3.34-4.99,4.99"/>
  <path class="cls-1" d="M497.57,725.72c.67.19,1.38-1.27,1.97.01.19.41.23,1.13-.01,1.46-.54.76-1.29,1.36-1.96,2.03"/>
  <path class="cls-1" d="M681.78,741.7c-1.28,1.09-2.23,2.27-1,3.99"/>
  <path class="cls-1" d="M712.23,723.73c-.56-2.44-1.45-3.26-3.53-1.03-1.41,1.51-1.01-.55-1.46-.96"/>
  <path class="cls-1" d="M727.71,719.23c-.67,2.08-1.95,1.98-3.49,1"/>
  <path class="cls-1" d="M673.29,403.23c-1.38.26-2.37,1.14-1.94,2.48.79,2.47.04,5.09.83,8.05,4.96-.26,9.78.31,14.6,1.12,1.01-3.45.2-6.83.58-10.59-4.59-.06-9.1-.41-13.57-1.06"/>
  <path class="cls-1" d="M525.02,426.69c-2.55.66-1.99,2.72-1.99,4.49-.01,13.48.04,26.96-.05,40.44-.02,2.64.48,3.78,3.53,4.11,7.36.8,14.66-.22,21.98-.09,2.85.05,3.96-1.15,4.04-4.02.37-13.35-.77-26.64-1.53-39.94-.15-2.56-1.46-3.76-4-4.02-7.14-.73-14.29-1.24-21.47-.97"/>
  <path class="cls-1" d="M571.95,426.69c-2.55.66-1.95,2.72-2,4.49-.35,13.15.71,26.28.55,39.44-.07,5.65.51,6,5.94,5.99,7.36-.02,14.64,1.01,21.97,1.48,1.17.08,2.41.23,4.03-.85-.16-5.96.23-12.28-.53-18.61-.91-7.63-.46-15.33-1.41-22.97-.4-3.18-1.33-5.4-4.59-5.96-7.78-1.32-15.64-2-23.46-3.02"/>
  <path class="cls-1" d="M472.11,427.69c-3.08.88-3.55,3.29-3.49,5.99.26,13.15-.74,26.28-.59,39.44.04,3.51,1.04,4.72,4.58,4.56,5.65-.25,11.31-.05,16.97-.08,3.01-.01,5.55-.61,5.5-4.48-.18-14.15.12-28.29.53-42.43.02-.79-.55-1.29-.56-1.91-7.41-1.58-14.94-.98-22.44-1.09"/>
  <path class="cls-1" d="M570.45,581.95c-2.94,1.68-1.75,4.85-1.81,6.99-.37,13.97-.18,27.95-.23,41.93,0,.65.81.85.52,1.52,5.76,1.74,11.76,1.43,17.45.68,3.02-.4,5.9,1.33,9.17-.43,1.97-1.06,3.22-1.57,3.35-3.77.75-13.48.9-26.96-.05-40.43-.32-4.5-1.96-5.77-7.94-5.93-6.66-.17-13.3-.93-19.97-.56"/>
  <path class="cls-1" d="M527.52,580.95c-1.31,1.16-3.18-.18-4.99,1.39v46.51c8.27,1.09,16.64.38,24.96.41,1.85,0,3.08-1.46,3.06-3.89-.14-12.15.06-24.3-.11-36.44-.09-6.03-1.79-7.33-7.93-7.51-4.83-.14-9.68.53-14.48-.48"/>
</svg>