<?xml version="1.0" encoding="UTF-8"?>
<svg id="Layer_1" data-name="Layer 1" xmlns="http://www.w3.org/2000/svg" viewBox="0 0 1024 1080">
  <defs>
    <style>
      .cls-1 {
        fill: none;
        stroke: #fff;
        stroke-linecap: round;
        stroke-linejoin: round;
        stroke-width: 2px;
      }
    </style>
  </defs>
  <path class="cls-1" d="M874.01,730.13H154.99"/>
  <path class="cls-1" d="M209.41,701.18c-2.01,5.88,1.71,11.25,1.21,17.47h604.35c1.19-5.28,1.99-10.11,2.77-14.95.29-1.79-.26-2.52-1.16-3.52"/>
  <path class="cls-1" d="M498.52,581.9c.76-2.63.47-5.32.49-7.99.16-18.3-.89-36.61-.38-54.9.44-15.65.3-31.28.36-46.92.09-25.12.04-50.24.03-75.36,0-5.44,1.89-10.22,4.39-15.03,4.21-8.08,15.25-7.06,19.17,1.01,3.51,7.23,3.82,14.86,3.84,22.5.12,56.23.06,112.46.06,168.7,0,2.66.03,5.32,0,7.99"/>
  <path class="cls-1" d="M642.82,440.65v149.72c-20.31.16-40.11-.85-59.92-.49"/>
  <path class="cls-1" d="M465.56,440.15h-82.39v150.12c17.48.6,34.45-.75,51.43-.36,1.66.04,3.42-.59,4.99.47"/>
  <path class="cls-1" d="M160.98,566.93c5.26-2.15,7.13-7.49,9.77-11.62,6.21-9.7,13.87-18.37,19.66-28.33,1.51-2.59,3.84-3.72,6.61-4.5,1.56,5.71-.71,11.14-1.77,16.46-3.19,16.03-4.99,32.15-5.85,48.45-2.01,38.34,1.84,76.2,9.06,113.79.57,2.99.71,6,.9,8.99.51,8.09,2.24,9.6,10.55,8.48"/>
  <path class="cls-1" d="M826.07,517.51c4.24,4.08,2.19,9.72,3.23,14.53,2.58,11.98,4.76,24.09,5.87,36.37.76,8.32,1.5,16.63,1.84,24.97,1.27,31.5-1.34,62.77-6.54,93.81-1.48,8.82-3.4,17.59-4.24,26.48-.3,3.21-1.24,4.58-4.16,4.98"/>
  <path class="cls-1" d="M203.42,528.99c-3.84,2.89-2.41,7.42-2.79,11-2.36,22.37-3.79,44.84-3.16,67.36.57,20.37,1.96,40.71,4.98,60.89.61,4.07,2.96,7.65,5.63,10.32,3.29,3.31,8.12,4.94,11.4,8.57.47.51,1.16,1.24,1.92,1.55,2.33.95,3.83-3.05,6.52-1.02,1.8,1.36,2.54,4.19,5.46,4.06.33-.01.66-.02,1-.52"/>
  <path class="cls-1" d="M461.57,552.45c.93-1.33.73-2.66-.2-4.49h-72.78c.57,4.41,2.97,5.14,6.57,5.07,11.65-.21,23.3-.06,34.95-.07,10.32-.02,20.64.02,30.96,0"/>
  <path class="cls-1" d="M638.33,496.05c-1.6-.8-3.32-.49-4.99-.49-21.47-.01-42.94-.02-64.41,0-5.72,0-5.72.03-3.99,5.49,21.8,0,43.61-.07,65.41.07,3.81.02,5.8-1.05,5.49-5.06"/>
  <path class="cls-1" d="M822.58,529.49c3.55,3.16,2.39,7.72,2.81,11.5,2.57,22.86,3.67,45.84,3.14,68.85-.44,19.37-1.94,38.68-4.53,57.89-.3,2.25-.52,4.49-3.79,5.81-2.52,1.02-4.81,3.88-6.3,7.09-2.01,4.36-6.61,6.43-10.76,8.55-1.97.54-2.11-2.49-4.83-1.75-2.44,2.25-5.62,4.78-10.05,5.55q-4.24-2.58-7.14-.78"/>
  <path class="cls-1" d="M466.56,370.28v211.62"/>
  <path class="cls-1" d="M558.94,370.28v211.62"/>
  <path class="cls-1" d="M688.76,384.26c0-4.5,0-9,0-13.42-2.09-.93-3.83-.53-5.49-.53-36.62-.03-73.23-.09-109.85.02-10.08.03-19.91-2.4-29.96-2.69-1.42-.04-3.01-.31-4.5-.32-16.98-.05-33.96-.35-50.93.11-6.99.19-14.16-.08-21,2.29-1.53.53-3.31-1.13-4.97.06"/>
  <path class="cls-1" d="M461.07,370.28c-39.61,0-79.23.05-118.84-.06-5.28-.02-6.39.77-6.02,6.06.19,2.65.03,5.32.03,7.98"/>
  <path class="cls-1" d="M564.93,384.75c36.45.71,72.9.6,109.35.41,8.82-.05,17.64-.32,26.46-.45,2.01-.03,3.26.59,3.46,2.55.2,2.04-.04,2.96-2.98,2.77-2.51-.16-5.31.18-7.97.18-42.78.05-85.55.04-128.33.04"/>
  <path class="cls-1" d="M460.57,385.25c-45.94,0-91.88.14-137.74-.75-1.05,3.77-1.05,6.13,3.95,5.44,1.58-.22,3.64.27,5.47.28,42.78.04,85.55.03,128.33.03"/>
  <path class="cls-1" d="M718.72,441.65c0,42.26,0,84.51.02,126.77,0,2.19-.61,4.28-.57,6.49.09,4.86,2.01,8.61,5.42,12.1,1.68,1.72,2.21,4.67,2.12,7.37"/>
  <path class="cls-1" d="M306.78,441.65c0,45.58-.03,91.17.05,136.75,0,3.47-.9,6.87-3.64,8.3-4.02,2.1-3.56,4.88-2.9,8.17"/>
  <path class="cls-1" d="M337.74,611.35c-.66,3.6-3.38,6.38-3.96,9.99-.26,1.63-1.28,3.32.31,5.49h112.5"/>
  <path class="cls-1" d="M678.27,611.35c.66,3.6,3.38,6.38,3.96,9.99.26,1.63,1.28,3.32-.31,5.49h-103.01"/>
  <path class="cls-1" d="M446.59,609.85c-15.15-.26-30.27.67-45.44.14-16.96-.6-33.95-.05-50.93-.19-4.85-.04-9.66.37-14.48.61-7.2.36-11.6,5.03-13.01,12.92-1.07,5.99-.27,11.99-.38,17.97-.28,15.13-.08,30.28-.12,45.42,0,1.06.15,2.03.52,2.99"/>
  <path class="cls-1" d="M221.89,700.68c3.86,2.99,8.33,1.33,12.48,1.41,13.48.24,26.96.03,40.44.11,15.31.09,30.61.38,45.94.14,33.11-.51,66.24-.16,99.36-.16"/>
  <path class="cls-1" d="M426.87,692.7c-.29,4.43-3.63,4.55-6.74,4.45-32.29-1.05-64.58-.17-96.87-.45-1.67-.01-3.39-.31-4.99.49"/>
  <path class="cls-1" d="M692.75,689.7c0-15.47,0-30.94,0-46.42,0-6.16.05-12.31-.01-18.47-.1-8.97-5.34-13.09-14.44-14.21-8.91-1.09-17.67-.12-26.49-.33-20.81-.48-41.61-.41-62.42-.44-3.5,0-6.99,0-10.49,0"/>
  <path class="cls-1" d="M316.27,694.2c.9-3.38,3.64-4.06,6.49-3.95,28.29,1.07,56.59.15,84.89.46,3,.03,6.02-.15,8.99.5"/>
  <path class="cls-1" d="M804.1,700.68c-1.15,1.54-2.8,1.55-4.49,1.5-16.82-.51-33.62.74-50.43.49-44.27-.66-88.55-.46-132.82-.5"/>
  <path class="cls-1" d="M472.55,362.29c-.16-2.55,2-2.51,3.5-2.96,16.01-4.86,32.52-4.48,48.92-3.84,8.72.34,17.36,2.54,25.98,4.3.54.11,1.16-.1,1.49.52,2.41,4.56,6.96,3.9,11.49,4.03,0,24.08,0,47.71,0,71.83,53.59,0,106.69,0,159.78,0-.74,4.71-1.1,5.16-5.48,4.43-2.68-.45-5.33-.42-8-.42-50.1-.01-100.2-.01-150.3-.01"/>
  <path class="cls-1" d="M553.44,362.29c-4.75,2.36-9.67.65-14.48.44-18.15-.79-36.3-.86-54.42.18-6.49.37-13.04-.24-19.51,1.25-2.35.54-4.14.73-3.97,3.61,1.09,17.63.21,35.27.49,52.9.08,4.99.01,9.98.01,14.91-1.95.77-3.98.56-5.99.56-22.3,0-44.61,0-66.91,0-23.97,0-47.93-.03-71.9.03-3.68,0-7.29-.75-10.99-.58-5.33.25-5.34.09-2.99,5.04"/>
  <path class="cls-1" d="M707.73,694.69c-2.98-.33-6.16-1.98-8.5,1.49-.75,1.11-1.99.48-2.98.48-25.63.04-51.26.03-76.9.05-.33,0-.67-.02-1-.52"/>
  <path class="cls-1" d="M660.8,638.3v37.9c2.66.05,4.83.05,7.49,0v-37.9"/>
  <path class="cls-1" d="M553.94,705.68c-.89.6-1.29,2.14-2.49,1.95-5.81-.93-11.24,1.68-16.99,1.61-14.14-.19-28.3-.25-42.44.03-5.73.11-11.23-2.22-16.98-1.09"/>
  <path class="cls-1" d="M703.24,615.34c1.18,14.79-.24,29.64,1.03,44.42.83,9.65.26,19.3.45,28.95.03,1.67.32,3.39-.48,4.99"/>
  <path class="cls-1" d="M389.17,496.05c1.6,1.29,1.01,3.46,2.03,4.99,22.1,0,44.24,0,66.37-.02,1.89,0,4.34.8,4.5-2.48.17-3.53-2.36-2.99-4.5-2.99-21.97,0-43.94,0-65.91-.02-.81,0-1,.69-1.5,1.01"/>
  <path class="cls-1" d="M357.21,638.3v37.43c-2.83-.05-5.16.26-7.99-.67,0-12.13,0-24.45,0-36.76"/>
  <path class="cls-1" d="M382.68,440.65c-1.58-1.06-3.34-.46-4.99-.46-19.47-.05-38.96-.55-58.42.1-21.31.72-42.61.82-63.92.87-4.51.01-9.08-.61-13.61.66.45,4.39,4.22,5.37,6.6,5.13,19.14-1.92,38.31-.18,57.44-.8"/>
  <path class="cls-1" d="M564.93,423.18h128.33c5.49,0,10.99.14,16.48-.05,3.39-.12,5.02.83,4.55,4.55-.31,2.46-.06,4.98-.06,7.48"/>
  <path class="cls-1" d="M592.89,456.13v-5.46c-4.49-.05-8.99-.01-13.98-.03v25.46c4.83,0,9.15,0,14.12,0-.5-6.82.5-13.14-.64-19.46"/>
  <path class="cls-1" d="M310.77,435.16c0-2.33.22-4.68-.05-6.98-.43-3.59,1.1-5.04,4.54-5.01,5.33.05,10.65.07,15.98,0,23.47-.3,46.94.05,70.41-.25,13.79-.18,27.63-.09,41.44.24,5.82.14,11.65.02,17.48.02"/>
  <path class="cls-1" d="M701.24,693.7c-1.45-5.14-6.22-3.35-8.98-3.26-23.81.74-47.61-.03-71.41.24-3.49.04-6.99-3.34-10.49.02"/>
  <path class="cls-1" d="M582.4,583.89c-.9,4.82.17,9.65-.02,14.38-2.62.6-5.24.73-7.97.78-9.32.17-18.63-.26-27.99.42-5.42.4-11.28-.43-16.95-.58-6.49-.17-13.1-.13-19.44.73-7.14.96-13.53,5.06-18.94,9.81-10.57,9.28-16.76,20.81-16.07,35.35.34,7.15-.55,14.33.51,21.46"/>
  <path class="cls-1" d="M539.46,670.24c8.57.05,17.1-.4,25.38-1.63.26-2.71-1.36-2.86-2.43-3.33-7.17-3.17-14.59-5.47-22.46-6-4.51-.3-5.83,1.36-5.96,7.46-.08,3.43,2.48,3.51,4.97,3.49"/>
  <path class="cls-1" d="M605.37,680.22c-14.13-1.08-28.27-2.08-42.44-2.63-3.32-.13-6.67-.32-9.99-.33-22.97-.06-45.94-.03-68.91-.03"/>
  <path class="cls-1" d="M363.2,408.21c0-.67,0-1.33,0-2q.08-10.09-9.99-9.97c-.84.01-1.8-.38-3,.98,0,5.82,0,12.14,0,18.96,4.65,0,8.81,0,13.05,0-.41-2.48.48-5.05-.57-7.49"/>
  <path class="cls-1" d="M519.99,600.37c3.93,3.3,9.03,4.65,13.01,7.96,11.59,9.64,17.92,21.78,17.92,36.96,0,3.49.58,7.03-.46,10.48"/>
  <path class="cls-1" d="M326.75,412.2c-13.26-1.84-26.58-2.1-39.95-2.08-7.75,0-15.34,1.28-22.95,2.2-7.68.93-9,3.33-9,12.86"/>
  <path class="cls-1" d="M779.14,613.84c-4.97,20.63-1.43,41.6-2.53,62.39-.03.66.8.86.53,1.5"/>
  <path class="cls-1" d="M614.36,688.71c-.02-3.4-.04-6.71-1.43-10.01-3.06-7.24-9.95-8.84-16.06-9.18-15.28-.85-28.81-7.23-42.91-11.79-21.57-6.98-43.05-7.93-64.4.61-3.49,1.4-7.19,3.03-9.91,5.53-4.98,4.59-10.44,4.56-16.59,4.01-6.96-.63-14.05-.25-20.95.96-11.64,2.04-18.54,9.13-20.49,20.88"/>
  <path class="cls-1" d="M202.92,517.51c.23,5.37,1.11,10.44,4.42,15.02,3.7,5.12,5.47,11.09,6.11,17.41.26,2.55.49,4.87,2.71,7.22,1.98,2.09,2.99,5.88,2.67,9.25-.27,2.86.71,5.03,2.56,6.99"/>
  <path class="cls-1" d="M323.26,637.3c3.5-1.24,6.99.03,10.49.02,16.31-.04,32.62-.02,48.93-.01,10.99,0,21.97-.34,32.9-.11.9,2.72.53,5.43.54,8.09.03,12.98.01,25.95.02,38.93,0,2.37-.18,4.78,1,6.99"/>
  <path class="cls-1" d="M776.14,609.35c-.26,2.11,2.1,3.24,2.83,3.53,4.96,1.93,4.64,5.98,4.65,9.95.03,16.8,0,33.61.05,50.41,0,.92-.33,1.67-.53,2.5"/>
  <path class="cls-1" d="M771.15,425.18c0-1.5-.06-3,.01-4.49.22-4.29-1.66-6.57-5.98-7.57-6.11-1.42-12.34-2.55-18.5-2.74-15.67-.49-31.4-.72-46.93,2.33"/>
  <path class="cls-1" d="M675.78,401.22c-1.53-1.35,1.07-3.15-1.08-4.99-4.08,0-8.74,0-13.9,0v19.96c4.98,0,9.48,0,13.99,0,1.44-4.75-.47-9.73.99-14.47"/>
  <path class="cls-1" d="M660.3,527c7.99.03,15.98-.02,24.47,0v-25.96c-10.98,0-21.47,0-32.39,0-1.19,8.62-.24,17.3-.64,25.88q8.06,1.09,8.06-5.91v-18.97"/>
  <path class="cls-1" d="M248.36,621.33c2.26,1.82.38,4.04.4,5.99.18,16.47.2,32.94.03,49.41-.05,4.52,3.54,6.92,5.06,10.48"/>
  <path class="cls-1" d="M723.71,440.65c1.6.8,3.32.52,4.99.48,15.81-.31,31.63.56,47.44-.32,2.16-.12,4.76-.22,6.99.91.26,4.32-2.55,5.12-6,4.91-17.47-1.08-34.95-.18-52.43-.48-1.66-.03-3.33,0-4.99,0"/>
  <path class="cls-1" d="M296.79,610.35c1.64,17.44,1.66,34.92,1.51,52.41-.03,3.41-.29,6.76-1.51,9.98"/>
  <path class="cls-1" d="M483.04,581.9c.34-10.64-.83-21.31,1.48-31.94-5.03-1.23-8.95.89-13.66-.43,1.18,8.09,1.66,15.24,2.19,22.39"/>
  <path class="cls-1" d="M486.53,705.68c5.96,1.14,11.99.39,17.98.46,12.32.14,24.63.04,36.95.04-.07-11.85.63-23.73-2-35.44"/>
  <path class="cls-1" d="M245.86,613.34c-3.14.79-3.93,3.37-3.94,5.99-.1,18.8-.05,37.6-.05,56.4"/>
  <path class="cls-1" d="M728.21,612.34c-.45,14.64-2.12,29.24-1.53,43.92.22,5.4-.04,10.77,1.92,16.01.81,2.18-.35,4.55-1.89,6.45"/>
  <path class="cls-1" d="M465.06,717.15c1.13-2.27,3.29-3.69,4.58-5.94,4.19-7.31,2.89-14.78-4.08-21.01-5.52-4.93-15.86-5.6-21.42-.93-3.95,3.31-7.05,7.19-7.69,12.9-.66,5.95-7.47,8.78-12.85,6.02-3-1.54-2.33-4.59-2.81-7.04-.12-.62.08-1.97.32-2.96"/>
  <path class="cls-1" d="M465.56,599.87c1.71,4.77.45,9.73.29,14.47-.61,17.64.03,35.28-.29,52.91"/>
  <path class="cls-1" d="M447.09,604.36c-17.47-.69-34.96.69-52.43-.5"/>
  <path class="cls-1" d="M584.4,717.65c2.33-4.35,6.05-7.78,6.14-13.47.15-9.73-6.67-15.62-12.16-17.39-8.04-2.59-16.3,1.14-20.95,8.9-3.63,6.06-3.27,11.58.98,16.98,1.32,1.68,3.76,2.45,4.01,4.98"/>
  <path class="cls-1" d="M401.15,563.93v18.97c5.16,0,9.82,0,15.12,0-.5-6.82-.19-13.13-.34-19.47-.07-3.04-1.56-2.79-2.8-2.89-3.3-.28-6.65-.12-9.98-.09-2.38.02-2.54,1.22-1.5,2.99"/>
  <path class="cls-1" d="M363.7,637.8v50.41c-3.31,0-6.65,0-9.99,0"/>
  <path class="cls-1" d="M654.81,637.8c-.98,2.27-.46,4.66-.47,6.99-.05,13.81-.03,27.62-.03,41.43"/>
  <path class="cls-1" d="M595.89,668.74c0-10.48,0-20.97,0-31.62-5.99.67-11.48-.48-16.98.18"/>
  <path class="cls-1" d="M522.49,411.71v58.89"/>
  <path class="cls-1" d="M874.01,718.65c-13.81,0-27.63.02-41.44-.02-1.86,0-3.88.57-5.49-.98"/>
  <path class="cls-1" d="M198.93,717.65c-1.61,1.55-3.63.97-5.49.98-13.48.04-26.96.02-40.44.02"/>
  <path class="cls-1" d="M402.65,640.29v44.92"/>
  <path class="cls-1" d="M306.28,584.39c2.12,2.36.16,5.48,1.55,8.29,9.36-1.64,18.5-.99,27.45,2.58,3.2,1.28,5.58,4.44,9.45,4.1"/>
  <path class="cls-1" d="M551.45,359.3c-.65-15.37-8.11-26.8-20.46-35.45-11.55-8.09-27.39-7.2-38.47,1.98-10.54,8.74-16.64,19.7-17.46,33.46"/>
  <path class="cls-1" d="M559.44,599.87c.37.96.52,1.94.52,2.99-.03,17.63-.03,35.27,0,52.9,0,1.06-.15,2.03-.52,2.99"/>
  <path class="cls-1" d="M630.84,605.36c-.61-2.43-2.66-1.53-3.99-1.43-9,.73-17.97.5-26.97-.02-6.48-.37-12.98,1.27-19.47-.05"/>
  <path class="cls-1" d="M659.8,555.45c-2.5-.92-4.99-.3-7.99-.62v29.57c10.82,0,21.64,0,32.96,0v-29.55c-8.49.39-16.48-.43-24.47.6"/>
  <path class="cls-1" d="M533.97,658.76c-.71-.44-.94-1.5-2-1.5-11.96.06-24.03-.95-35.47,3.96-1.38.59-3.29.85-3.89,2.07-2.99,6.07-8.79,5.61-14.07,6.45"/>
  <path class="cls-1" d="M818.58,533.49c-2.8,3.71-4.86,7.74-4.97,12.48-.14,5.79-3.41,10.42-5.56,15.45-.28.67-1.15,1.06-.96,2.02,1.32,6.79-3.53,10.4-7.48,14.47"/>
  <path class="cls-1" d="M776.14,440.15c0-2.99.05-5.99-.01-8.98-.08-3.75-1.9-5.65-5.48-5.47-18.47.91-36.95.27-55.43.48"/>
  <path class="cls-1" d="M366.2,554.95h6.49c0,9.64,0,19.3,0,29.45h-31.96v-29.52c8.65.27,16.81-.33,24.97.57"/>
  <path class="cls-1" d="M250.36,440.15c0-3.16.21-6.34-.05-9.48-.33-3.9,2.36-5.01,5.04-4.89,18.14.75,36.29.19,54.43.4"/>
  <path class="cls-1" d="M188.94,497.55c-6.67-2.65-13.26-5.95-20.48-6.35-7.06-.39-14.42-1.26-20.96,2.85"/>
  <path class="cls-1" d="M659.3,448.64c-2.33-1.01-4.66-.24-7.49-.66v28.11c11.15,0,21.8,0,32.96,0v-27.95c-8.65,0-16.81,0-24.97,0"/>
  <path class="cls-1" d="M880,495.55c-3.93-.84-6.53-4.32-10.97-4.66-7.76-.6-15.28.37-22.42,2.85-4.56,1.58-9.82,2.9-12.55,7.8"/>
  <path class="cls-1" d="M366.2,448.14h6.49c0,9.32,0,18.63,0,27.95h-31.96c0-9.15,0-18.3,0-28.02,8.65.27,16.81-.33,24.97.57"/>
  <path class="cls-1" d="M232.88,461.62c-16.33,4.46-27.04,14.71-31.96,30.94"/>
  <path class="cls-1" d="M793.12,461.62c12.53,3.63,22.27,10.76,28.5,22.44,1.46,2.74,3.07,5.36,3.46,8.5"/>
  <path class="cls-1" d="M691.76,637.3c-9.32,0-18.65.29-27.96-.07-14.82-.56-29.63-.33-44.44-.43-3-.02-6.01-.08-9.49.6,0,9.7,0,19.52,0,29.34,0,2.04.34,4.16-.99,5.99"/>
  <path class="cls-1" d="M471.56,672.24c-13.44-1.93-26.64-1.91-38.95,4.99"/>
  <path class="cls-1" d="M178.95,458.62c1.83,1.71,4.48,1.64,6.5,2.98,8.95,5.94,11.82,15.02,12.94,24.97.22,1.99-.09,4.03.53,5.99"/>
  <path class="cls-1" d="M366.2,501.04h6.49c0,8.65,0,17.3,0,25.95h-31.96c0-8.48,0-16.97,0-26.01,8.65.35,16.81-.5,24.97.56"/>
  <path class="cls-1" d="M575.91,709.67c2.46.75,4.89,3.09,7.47.48,2.94-2.99,2.62-7.06,1.85-10.42-1.5-6.53-8.89-10.27-15.31-8.52-6.82,1.85-10.71,8.55-8.99,15.47,1.19,4.81,5.09,6.86,9.49,4.99"/>
  <path class="cls-1" d="M814.09,506.53c-9.3-12.64-21.63-20.61-36.95-23.96"/>
  <path class="cls-1" d="M846.05,458.62c-3.79,3.58-9.05,4.86-12.2,9.85-4.76,7.55-6.1,15.62-6.78,24.09"/>
  <path class="cls-1" d="M436.1,561.44v21.46c9.81,0,19.15.33,28.46-.12,6.17-.3,12.35-.12,18.48-.15,14.48-.07,28.97-.15,43.44-.02,15.64.14,31.29-.14,46.94.26,5.49.14,10.99-.07,16.48.06,2.96.07,4.07-1.07,4.04-4.03-.06-5.65-1.4-11.31.09-17.46-4.82-1.83-9.76-.53-15.11-1.17v21.62"/>
  <path class="cls-1" d="M247.86,483.08c-13.97,2.22-24.59,9.91-33.44,20.47-.83,1-2.2,1.55-2.51,2.99"/>
  <path class="cls-1" d="M553.44,572.42c-3.33.6-6.63.85-10,.06-1.75-.41-3.62-.02-3.44,2.44.15,2.11,1.09,2.66,3.49,2.14,2.86-.61,5.98-.33,8.95-.08,2.18.18,2.87-.93,2.45-2.54-2.12-7.97-.57-15.98-.48-23.99-4.46-.96-8.95-.21-13.37-.59-.78,7.84,1.79,14.85,1.42,22.07"/>
  <path class="cls-1" d="M729.2,598.37c-3.31-4.2-8.25-5.15-13-5.9-10.78-1.71-21.11-.23-30.44,5.91-1.07.7-2.45.25-3.5.99"/>
  <path class="cls-1" d="M248.86,447.64c0,12.98-.06,25.95.07,38.93.02,1.73-.4,2.91-1.57,3.99"/>
  <path class="cls-1" d="M876,495.06c-3.22,2.55-7.43,2.17-11.07,3.8-7.24,3.24-14.81,6-22.88,6.68"/>
  <path class="cls-1" d="M850.54,517.51c.42,2.49,2.3,3.97,4.02,5.47,8.2,7.14,13.49,16.28,17.91,26,.26.58.92,1.21.53,1.97-2.31,4.52,1.53,7.69,2.5,11.48"/>
  <path class="cls-1" d="M776.64,447.64c.3,11.81-.53,23.63.38,35.45.12,1.53-.2,3.52-1.38,4.98"/>
  <path class="cls-1" d="M174.96,518.01c-.1.68.25,1.41-.49,2.01-10.44,8.56-17.02,19.85-22.48,31.93"/>
  <path class="cls-1" d="M402.65,516.52c-1.11,3.33-.16,6.65-.7,10.65,5.36-.43,10.02.32,15.08-.72.21-5.93,0-11.92.13-18.41-5.19,0-9.85,0-15.13,0,.32,2.99-.3,5.49.62,7.99"/>
  <path class="cls-1" d="M611.36,516.52c-1.11,3.33-.16,6.65-.68,10.48,5.01,0,9.34,0,14.16,0,0-6.49,0-12.48,0-18.97-4.83,0-9.15,0-14.1,0,.32,2.99-.3,5.49.62,7.99"/>
  <path class="cls-1" d="M579.41,516.52c-1.11,3.33-.16,6.65-.68,10.48,5.01,0,9.34,0,14.16,0,0-6.49,0-12.48,0-18.97-4.83,0-9.15,0-14.1,0,.32,2.99-.3,5.49.62,7.99"/>
  <path class="cls-1" d="M533.97,668.74c-1.65,1.15-3.44,1.57-5.49,1.54-7.16-.11-14.31-.07-21.47-.03-2.97.01-5.88-.43-8.57,1.89-2.19,1.89-4.64.79-6.41-1.4"/>
  <path class="cls-1" d="M791.12,514.02c-1.81,4.21-5.74,5.7-9.48,7.5-12.26,5.87-20.38,15.22-24.02,28.42-.56,2.03-.46,3.75.55,5.5"/>
  <path class="cls-1" d="M211.91,515.52c6.76-1.36,13.5-2.71,20.48-2.03,1.78.17,3.24-.1,3.59,2.52.5,3.72,4.42,3.78,6.94,4.89,11.66,5.18,19.75,13.34,24.06,25.52,1.42,4.03-.54,8.33,1.89,12.01.3.46.64.68.47,1.02"/>
  <path class="cls-1" d="M435.6,516.52c-1.11,3.33-.16,6.65-.68,10.48,5.01,0,9.34,0,14.16,0,0-6.49,0-12.48,0-18.97-4.83,0-9.15,0-14.1,0,.32,2.99-.3,5.49.62,7.99"/>
  <path class="cls-1" d="M778.14,495.06c-1.77,2.19-4.26,1.57-6.49,1.45-8.07-.4-15.43,2.73-22.28,5.95-3.12,1.47-5.69,5.76-9.18,8.07"/>
  <path class="cls-1" d="M589.89,422.19v-25.95h-14.98v25.95"/>
  <path class="cls-1" d="M451.08,422.19c0-7.15-.11-14.31.05-21.46.07-3.03-1.21-4.41-4.05-4.47-3.5-.08-7.01-.02-10.98-.02v25.95"/>
  <path class="cls-1" d="M402.15,422.19v-25.95c4.83,0,9.15,0,13.98,0v25.95"/>
  <path class="cls-1" d="M289.8,640.79c-6,0-11.99,0-18.47,0v25.91c2.63.07,4.82.02,7.49.05,0-8.32,0-16.64,0-24.97"/>
  <path class="cls-1" d="M247.86,561.44c-3.98,1.43-5.74,5.12-5.81,8.49-.21,11.14-.76,22.3.31,33.44"/>
  <path class="cls-1" d="M337.74,597.87c-1.04,1.07-2.43.64-3.48.43-3.58-.72-6.64-.31-10.09,1.4-4.38,2.18-9.19,3.65-13.92,5.1-3.87,1.18-4.48.63-7.18-4.31-1.69-.21-3.48.48-5.29.88"/>
  <path class="cls-1" d="M623.35,395.73c-2.37,2.07-5.44,1.05-8.01,1.19-1.9.1-4.5.84-7.47-.73v25.99"/>
  <path class="cls-1" d="M447.59,599.87v67.38"/>
  <path class="cls-1" d="M446.59,636.8c-5.65.63-11.31.5-17.68.5.97,11.98-1.08,23.99,1.2,35.94"/>
  <path class="cls-1" d="M746.68,641.79v24.48c2.16.66,3.83.66,5.99,0v-25.48c-5.98,0-11.48,0-16.98,0"/>
  <path class="cls-1" d="M782.63,592.38c-10.82-7.5-22.96-10.3-35.95-9.98"/>
  <path class="cls-1" d="M778.14,564.43c3.99,1.18,5.18,5,5.29,7.99.38,10.46.52,20.97-.3,31.44"/>
  <path class="cls-1" d="M747.18,502.04c-4.25-2.1-8.65-.41-13.48-1.25v25.7c6.16,0,12.32,0,19.01,0-.22-6.49.36-12.48-.53-18.47"/>
  <path class="cls-1" d="M289.8,612.34c.41,10.15,1.26,20.27,1.01,30.45-.17,7.04-.35,13.98-1.75,21.01-1.23,6.18-.69,12.87,2.24,18.91"/>
  <path class="cls-1" d="M173.71,505.04c-.24-3.42-3.75-2.4-5.39-3.19-5.29-2.57-10.63-5.63-16.83-5.79-1.98-.05-3.73.33-4.49,2.49"/>
  <path class="cls-1" d="M630.34,640.29c0,14.97,0,29.95,0,44.92"/>
  <path class="cls-1" d="M486.04,669.24c.97,3.78-2.84,6.05-2.76,9.99.11,6.09.78,12.02,1.79,17.96.55,3.19.88,6.33-.03,9.49"/>
  <path class="cls-1" d="M385.67,641.29v41.92"/>
  <path class="cls-1" d="M278.32,508.53c.29-3.48-.98-5.6-4.45-7.09-6.6-2.84-13.2-5.34-20.52-4.84-2.09.14-3.66-1.06-5.5-1.54"/>
  <path class="cls-1" d="M577.41,599.87c.97,4.96.48,9.98.49,14.97.03,14.81.01,29.61,0,44.42,0,2.17.16,4.36-.5,6.49"/>
  <path class="cls-1" d="M365.7,555.95v27.45"/>
  <path class="cls-1" d="M659.8,555.95v27.45"/>
  <path class="cls-1" d="M515.99,319.37c6.52,7.84,10.15,16.91,11.48,26.95"/>
  <path class="cls-1" d="M511.5,319.37c-7.03,7.62-10.3,16.84-11.48,26.95"/>
  <path class="cls-1" d="M618.36,691.2c.13,4.58-3.59,8.24-3.06,12.98.19,1.73-1.16,2.7-2.93,3-7.14,1.23-14.26,2.6-21.47.49"/>
  <path class="cls-1" d="M822.58,673.23c-.46,8.02-1.32,16.04-4.6,23.41-2.56,5.75-7.1,6.08-11.63,1.55"/>
  <path class="cls-1" d="M477.55,351.31c5.74-.55,11.21-2.44,16.94-3.26,5.73-.82,11.36-.42,17.02-.71,12.85-.66,25.53.43,37.95,3.97"/>
  <path class="cls-1" d="M754.17,679.22c2.24,3.72,5.94,6.53,6.96,10.99.24,1.06.33,2.31-1.23,3.1-2.92-1.23-4.46-5.1-8.73-4.75-3.58.29-5.56,2.18-7.51,5.55-2.48-2.43-5.4-.68-7.95-1.91"/>
  <path class="cls-1" d="M659.3,449.14c.77,8.64.44,17.3.5,25.95"/>
  <path class="cls-1" d="M365.7,449.14v25.95"/>
  <path class="cls-1" d="M222.89,524.5c2.98,5.38,4.76,11.59,10.01,15.44,3.48,2.55,7.42,4.57,8.65,9.09,4.86-1.23,7.33,1.05,7.34,5.91.02,10.98-.57,21.97.46,32.94"/>
  <path class="cls-1" d="M776.64,589.88c-.07,1.95.82,4.16-1.71,6.02-2.15-4.23-5.45-7.4-9.77-7.35-8.29.08-17.04-.05-21.99,8.81-.33.59-.98,1.01-1.48,1.51"/>
  <path class="cls-1" d="M506.01,599.87c-3.52-1.85-7.32-.93-10.99-.95-16.32-.1-16.33-.05-26.44,12.95-.6.77-1.13,1.54-2.02,1.98"/>
  <path class="cls-1" d="M610.87,563.93v18.97c5.16,0,9.82,0,14.98,0,0-7.49,0-14.47,0-21.42-4.41-1.35-8.46-.96-12.48-1.05-2.35-.05-3.29.71-2,3.01"/>
  <path class="cls-1" d="M217.4,687.21c-3.49,2.17-6.61,4.46-7.58,8.96-.85,3.94.32,5.56,4.58,5,2.19-.29,4.08-2.11,6.49-1.24"/>
  <path class="cls-1" d="M435.1,457.12v19.1c5.16-.38,9.82.25,14.94-.67.11-7.45-.01-14.94.05-22.43.02-2.08-1.48-2.43-3-2.47-3.83-.09-7.67-.03-12.08-.03.34,2.33-.43,4.16.6,5.99"/>
  <path class="cls-1" d="M443.59,397.23v25.45"/>
  <path class="cls-1" d="M735.2,611.35c-.19,7.11,3.45,12.62,7.2,18.17,2.31-1.68.62-3.53.78-5.2"/>
  <path class="cls-1" d="M615.86,397.73c-1.11,8.3-.21,16.64-.5,24.95"/>
  <path class="cls-1" d="M582.4,397.73v24.95"/>
  <path class="cls-1" d="M402.15,457.12v18.97c4.83,0,9.15,0,13.98,0,0-7.81-.06-15.14.04-22.46.03-2.27-1.18-2.94-3.03-2.98-3.5-.07-7.01-.02-11.08-.02.34,2.33-.43,4.16.6,5.99"/>
  <path class="cls-1" d="M622.85,397.73v24.46"/>
  <path class="cls-1" d="M797.61,679.72c.93-3.94,3.77-7.64,1.47-11.96-5.48,3.66-8.59,12.98-7.96,23.94"/>
  <path class="cls-1" d="M252.35,594.38c2.23-4.63,6.08-6.12,10.99-6.02,8.29.17,15.98,1.36,19.97,10.01"/>
  <path class="cls-1" d="M365.7,502.04v23.96"/>
  <path class="cls-1" d="M229.88,537.98c-1.51,1.71-1.03,3.55-.52,5.5,1.38,5.23,1.13,10.73,2.52,15.97.35,1.31-.91,1.71-1.49,2.49"/>
  <path class="cls-1" d="M227.39,668.24c4.35,1.91,5.62,6.28,6.28,10.02,1.35,7.57,3.44,15.11,3.2,22.92"/>
  <path class="cls-1" d="M773.14,547.96c0,1.16-.37,3.18.06,3.37,6.13,2.65,4.4,8.83,4.02,12.56-.75,7.38-.07,14.69-.53,22.01-.06.9-.87,1.56-.55,2.49"/>
  <path class="cls-1" d="M796.11,538.98c1.72,1.32.83,3.14.41,4.47-1.53,4.91-.79,10.13-2.39,15.01-.49,1.48.32,2.6,1.48,3.49"/>
  <path class="cls-1" d="M761.66,513.02c3.29-2.46,6.4-5.51,10.6-1.1.71.75,3.15.62,4.34.02,4.83-2.47,9.15-.44,13.52,1.12,3.06,1.09,6.02-.32,8.99,0,5.03.55,10.04,1.32,14.98,2.45"/>
  <path class="cls-1" d="M307.78,605.86c2.86,7.29,2.9,14.83,2,22.46"/>
  <path class="cls-1" d="M745.68,454.63c-3.83-1.07-7.66-.19-11.98-.67v22.13c6.49,0,12.48,0,18.97,0v-22.17c-2.5.54-4.49-.39-6.49.71"/>
  <path class="cls-1" d="M745.68,553.95c-3.83-1.07-7.66-.19-11.98-.67v19.24c5.07,1.17,9.88-.34,14.58,1.66,2.65,1.13,4.54-1.46,4.44-4.76-.15-5.15-.04-10.31-.04-15.47-2.16-.57-4.33-1-6.49,0"/>
  <path class="cls-1" d="M698.75,391.24v30.94"/>
  <path class="cls-1" d="M271.33,581.9c-2.34,2.21-5.35.79-8.02,1.37-7.4,1.61-14.13,4.56-20.44,8.61"/>
  <path class="cls-1" d="M799.61,556.44c-.65,2.32-.85,4.85-2.13,5.81.32,8.11,2.02,15.52.63,23.13"/>
  <path class="cls-1" d="M327.75,390.74v31.44"/>
  <path class="cls-1" d="M612.36,700.18c-1.99,3.96-5.51,4.63-9.49,4.52-3.83-.11-7.66-.02-11.48-.02"/>
  <path class="cls-1" d="M726.71,681.22c-2.06-5.55-5-10.57-8.97-14.99-.73-.81-1.49-1.09-2.52-.99-1.29.12-1.65,1.55-1.42,1.96,3.02,5.44-.26,13.64,7.41,17.01"/>
  <path class="cls-1" d="M717.22,606.35c-1.58,6.9-2.37,13.88-2,20.96"/>
  <path class="cls-1" d="M739.19,606.35c5.32,5.67,7.06,13.53,11.96,19.48,2.86,3.48,5.32,7.2,7.12,11.42.96,2.25,1,4.04-.11,6.03"/>
  <path class="cls-1" d="M617.36,643.29v19.96"/>
  <path class="cls-1" d="M271.33,511.53c-2.28,4.58-.13,9.32-1.38,14.47,8.37,0,15.86,0,23.85,0,0-8.32,0-16.64,0-25.13-6.15.69-11.85-.49-17.48.68"/>
  <path class="cls-1" d="M735.7,621.33c-2.02,13.81-1.38,27.66.18,41.4.68,6,.4,11.69-.84,17.83,4.11.07,3.38,3.07,2.54,5.1-1.55,3.79-3.17,7.68-6.38,10.53"/>
  <path class="cls-1" d="M784.13,528.49c-3.21,3.48-4.76,7.92-7.03,11.96-1.56,2.78-1.35,7.63-7,6.18-.79-.2-2.04,2.11-3.45,2.82"/>
  <path class="cls-1" d="M281.81,701.18c.05-3.17,1.73-6.53-.53-9.46-3.71-4.8-10.77-4.03-15,1.54-2.36-.23-2.53-2.5-1.84-3.48,2.85-4.03,2.38-8.23,1.37-12.55-.19-.82.57-1.28.52-2"/>
  <path class="cls-1" d="M829.57,523c3.07,1.37,5.26,3.21,7.23,6.34,3.2,5.06,7.15,9.8,10.57,14.75,4.57,6.62,9.75,12.94,13.16,20.34"/>
  <path class="cls-1" d="M242.87,529.49c4.58,5.48,5.7,12.79,9.82,18.58,1.04,1.46.81,4.8-2.83,4.88"/>
  <path class="cls-1" d="M443.09,583.89c0,4.83,0,9.66,0,14.35,2.62.84,4.7.87,7,.77,8.97-.36,17.97-.13,26.96-.16,1.02,0,1.75.47,2.5,1.01"/>
  <path class="cls-1" d="M623.35,452.13c-4.33-1.58-8.65,1.21-13.45-.79-.3,8.61,0,16.43-.04,24.75,4.83,0,9.16,0,13.58,0,.86-2.74-.15-5.26.99-7.48-2.02-1.79-4.41-.69-6.57-1"/>
  <path class="cls-1" d="M314.77,682.22c-5.76-3.7-5.91-4.35-3.57-11.5.24-.75.72-1.52.62-2.48-.12-1.11.21-2.47-1.06-2.93-1.02-.37-2.23-.23-2.98.93-1.88,2.91-4.66,5.16-6.03,8.47-.79,1.91-1.64,3.85-3.22,5.85-1.5-5.65-4.02-10.46-8.72-13.82"/>
  <path class="cls-1" d="M285.81,606.35c-4.39,5.72-6.6,12.79-11.07,18.4-3.5,4.4-5.85,9.42-8.9,14.04"/>
  <path class="cls-1" d="M871.51,555.95c-1.73.21-2.85-1.43-4.7-1.58-.72,6.7-2.02,13.31-.79,20.04"/>
  <path class="cls-1" d="M434.61,560.44c3.98.56,7.98-.09,12,.28,2.7.25,3.54.83,3.47,3.22-.19,5.99.51,12-.49,17.97"/>
  <path class="cls-1" d="M463.57,684.21c-5.9-1.97-11.93-1.61-17.98-1"/>
  <path class="cls-1" d="M206.42,679.72c-1.24,2.02-1.96,4-1.06,6.51,1.28,3.56.53,7.71,3.06,10.96"/>
  <path class="cls-1" d="M732.7,588.89c-1.66-3.26-2.91-6.82-5.54-9.44-2.11-2.1-4.44-4.28-7.94-3.04"/>
  <path class="cls-1" d="M683.77,462.11h-16.98"/>
  <path class="cls-1" d="M305.78,575.91c-4.79.43-7.43,3.47-9.56,7.45-1.09,2.02-1.94,4.22-3.42,6.03"/>
  <path class="cls-1" d="M358.21,462.11h-16.48"/>
  <path class="cls-1" d="M522.49,546.46v31.94"/>
  <path class="cls-1" d="M292.8,464.61c1.99-3.41.55-6.98,1.13-10.98-7.94,0-15.27,0-22.89,0-1.09,7.29-.56,14.63-.75,22.46,7.87,0,15.19,0,23.01,0,0-3.98,0-7.48,0-10.98"/>
  <path class="cls-1" d="M341.73,570.42h16.48"/>
  <path class="cls-1" d="M667.29,570.42h16.48"/>
  <path class="cls-1" d="M688.26,597.87c6.91-1.14,12.95,2.56,19.48,3.42,1.95.26,3.12,1.7,4.91,2.3,6.86,2.31,6.74,2.65,10.62-3.31,1.47,1.13,3.41.07,4.94,1.08"/>
  <path class="cls-1" d="M357.71,513.02c-5.33,0-10.65,0-15.98,0"/>
  <path class="cls-1" d="M263.84,611.35c-3.12-1.39-4.88,1.52-6.89,2.68-3.15,1.81-7.13,2.71-9.09,6.31"/>
  <path class="cls-1" d="M760.66,610.85c5.22.65,9.21,3.83,13.53,6.4,1.14.68,1.77,2.31,3.45,2.08"/>
  <path class="cls-1" d="M262.84,623.32c-.48,6.7-.19,13.24,3.99,18.97"/>
  <path class="cls-1" d="M760.66,611.84c3.47,6.2,1.38,12.98,1.9,19.47.22,2.72-.7,5.47-2.9,7.48"/>
  <path class="cls-1" d="M248.86,589.38c.31,5.65-.79,10.09-5.72,14.29-3.59,3.06-5.01,8.95-5.69,14.17-.2,1.57-.71,2.99-1.08,4.48"/>
  <path class="cls-1" d="M276.32,509.53v15.47"/>
  <path class="cls-1" d="M172.46,506.04c-1.61,1.26-3.69,1.37-5.44,2.12-8.19,3.51-11.66,10.66-13.53,18.85"/>
  <path class="cls-1" d="M226.39,556.44c2.27,5.67,1.39,11.61,1.51,17.47.03,1.69.04,3.34-1.51,4.49"/>
  <path class="cls-1" d="M775.64,595.87c1.77,4.04,5.71,6.33,8.01,9.97,3.19,5.06,4.35,10.68,4.97,16.48"/>
  <path class="cls-1" d="M853.54,506.04c2.3,1.23,4.6,2.5,7.01,3.45,7.78,3.07,9.18,10.5,11.89,17.04.01.03-.29,1.16-.92,1.46"/>
  <path class="cls-1" d="M287.31,572.42c-1.15-6.32-.11-12.64-.67-19.18,2.48-.23,4.32-.29,7.16-.29,0,6.63,0,13.29,0,19.89-5.22,1.48-10.47-.88-14.98,2.07"/>
  <path class="cls-1" d="M618.36,564.43v14.97"/>
  <path class="cls-1" d="M820.58,672.73c-1.07-4.2-4.35-2.82-6.43-1.87-4.55,2.09-8.63,5.04-10.05,10.35"/>
  <path class="cls-1" d="M546.45,600.37c4.44,4.06,8.02,8.94,12.48,12.98"/>
  <path class="cls-1" d="M359.21,555.95v27.45"/>
  <path class="cls-1" d="M666.29,555.95c-.19,9.15.51,18.32-.5,27.45"/>
  <path class="cls-1" d="M823.08,518.51c.07,5.06-1.98,9.51-3.99,13.97"/>
  <path class="cls-1" d="M803.1,524.5c-2.17,2.96-3.78,6.4-5.21,9.61-1.76,3.94-4.31,6.07-7.75,7.91-.84.45-2.01.35-2.53,1.45-1.52,3.2-3.34,5.79-7.47,6.16-1.44.13-2.44,2.41-3.51,3.83"/>
  <path class="cls-1" d="M218.9,675.23c-2.5-.57-3.66-3.13-5.99-4.01-2.61-.98-5.16-2.09-7.5.52"/>
  <path class="cls-1" d="M402.15,563.43h12.98"/>
  <path class="cls-1" d="M771.15,488.07c2.35.06,4.96-.6,6.48,2,2.49,4.28,6.02,5.26,10.5,3.49"/>
  <path class="cls-1" d="M666.29,502.04v24.46"/>
  <path class="cls-1" d="M416.13,516.02h-12.98"/>
  <path class="cls-1" d="M359.21,449.14v25.95"/>
  <path class="cls-1" d="M665.79,449.14v25.95"/>
  <path class="cls-1" d="M190.94,511.53c-3.33,1.76-7.46,1.43-10.49,3.99-.25-.85-3.16.29-1.5-2"/>
  <path class="cls-1" d="M268.33,412.7c-.69,4.14-.46,8.31-.5,12.48"/>
  <path class="cls-1" d="M756.67,412.7c.54,4.14.55,8.31.5,12.48"/>
  <path class="cls-1" d="M358.71,502.04v23.96"/>
  <path class="cls-1" d="M286.81,513.02v12.48"/>
  <path class="cls-1" d="M159.48,552.45c-.04,3.83-.84,7.92.24,11.4,1.09,3.5-.08,6.4-.24,9.56"/>
  <path class="cls-1" d="M835.06,489.07c.92.66,1.97.48,3.05.5.21,3.2-3.63,5.49-2.05,8.98"/>
  <path class="cls-1" d="M437.1,563.43h11.98"/>
  <path class="cls-1" d="M835.06,511.53c3.33,1.66,7.18,1.74,10.52,3.43.55.28,1.67-.23,1.46-1.43"/>
  <path class="cls-1" d="M623.85,516.02h-11.98"/>
  <path class="cls-1" d="M708.23,681.72c1.42.48,2.54,1.08,3.58,2.43,3.39,4.4,7.18,8.49,10.4,13.04"/>
  <path class="cls-1" d="M591.89,516.02h-11.98"/>
  <path class="cls-1" d="M448.09,516.02h-11.98"/>
  <path class="cls-1" d="M436.1,705.18c1.49,4.56,4.45,8.27,6.99,12.23"/>
  <path class="cls-1" d="M287.81,591.38c-1.69-4.73-5.93-5.21-9.99-5.99"/>
  <path class="cls-1" d="M265.34,609.35c-.27,4.6-4.64,8.43-2.48,13.47.03.06.35.07.47,0,.2-.12.34-.32.51-.49"/>
  <path class="cls-1" d="M809.1,686.71c3.04,2.73,6.69,4.98,7.49,9.48"/>
  <path class="cls-1" d="M491.53,665.75c3.57.36,8.37-1.76,8.99,4.49"/>
  <path class="cls-1" d="M683.77,513.02c-5.49-.15-10.99.3-16.48,0"/>
  <path class="cls-1" d="M794.12,470.6c8.88-.93,12.65,5.72,16.96,11.49,2.55,3.42,4.75,7.02,6.62,10.92,2.23,4.67,3.62,9.47,4.39,14.53"/>
  <path class="cls-1" d="M777.14,512.52c-.77,3.66-.77,7.32,0,10.98"/>
  <path class="cls-1" d="M285.81,622.33c-2.46,3.05-2.61,7.49-5.99,9.98"/>
  <path class="cls-1" d="M472.05,576.91c3.49.31,7.04-.6,10.49.5"/>
  <path class="cls-1" d="M751.67,517.02h-16.98"/>
  <path class="cls-1" d="M591.89,456.62h-10.49"/>
  <path class="cls-1" d="M751.67,653.77c-5.33,0-10.65,0-15.98,0"/>
  <path class="cls-1" d="M745.18,563.43c-3.45,1.1-7,.19-10.49.5"/>
  <path class="cls-1" d="M847.54,515.02c2.33,2.84,6.1,2.28,9.08,3.82,5.22,2.7,9.17,7.1,14.39,9.66"/>
  <path class="cls-1" d="M177.95,515.52c-1.84,3.06-5.44,1.89-8.13,3.21-5.43,2.68-9.72,6.81-14.84,9.76"/>
  <path class="cls-1" d="M235.88,513.02c3.89-2.77,8.23-1.74,13.14-2.09-.45,4.26.39,7.92-.66,11.58"/>
  <path class="cls-1" d="M289.3,653.27c-5.66,0-11.32,0-16.98,0"/>
  <path class="cls-1" d="M276.32,454.63c0,6.82,0,13.64,0,20.46"/>
  <path class="cls-1" d="M292.8,563.93c-6.99,0-13.98,0-20.97,0"/>
  <path class="cls-1" d="M745.68,455.13v19.96"/>
  <path class="cls-1" d="M286.31,464.61h-14.48"/>
  <path class="cls-1" d="M286.81,455.13c.32,6.65-.59,13.33.5,19.96"/>
  <path class="cls-1" d="M747.43,574.91c-1.26,2.18-2.54,4.1-1.39,7.04.94,2.39-.59,4.47-3.36,4.91-1.94.31-2.75,1.91-3.99,3.02"/>
  <path class="cls-1" d="M174.46,503.79c3.14.72,6.56-.09,9.49,1.75"/>
  <path class="cls-1" d="M362.2,408.71h-9.49"/>
  <path class="cls-1" d="M745.68,554.45c0,5.99,0,11.98,0,17.97"/>
  <path class="cls-1" d="M275.82,553.95c3.66-.99,7.32-1.94,10.99,0"/>
  <path class="cls-1" d="M270.83,561.44c.8,3.97-.96,8.04.5,11.98"/>
  <path class="cls-1" d="M234.88,466.61c-8.48,1.88-14.92,7.56-19.15,14.18-5.19,8.12-10.8,16.56-11.8,26.75"/>
  <path class="cls-1" d="M719.22,582.9c-1.99,2.81-.59,6-1,8.98"/>
  <path class="cls-1" d="M482.54,571.42c-3.23,1.35-6.66.07-10.02.85-2.19.51-3.21,2.14-2.32,3,2.1,2.04.64,4.64,1.86,6.63"/>
  <path class="cls-1" d="M717.22,692.2c-.56-.02-1.07.36-1.51.43q-8.23,1.37-6.98,9.05"/>
  <path class="cls-1" d="M317.76,681.22c-4.23,1.77-6.38,5.61-8.98,8.99-1.74,2.27-3.57,4.42-6,5.98"/>
  <path class="cls-1" d="M287.31,681.72c-.5.33-.62.65-.51,1,2.08,6.68,1.95,7.01-3.99,10.48"/>
  <path class="cls-1" d="M215.9,665.75c1.74,1.04,3.71,1.57,5.49,2.5,4.82,2.53,5.63,7.41,6.99,11.97"/>
  <path class="cls-1" d="M286.81,502.04c-.29,2.82.61,5.71-.5,8.48"/>
  <path class="cls-1" d="M745.68,509.53v15.97"/>
  <path class="cls-1" d="M181.95,464.61c2.42,1.37,6.02,1.75,4.99,5.99"/>
  <path class="cls-1" d="M273.32,509.03c3.84-.29,7.82-.19,10.9,2.11,2.78,2.08,5.89.6,8.57,1.88"/>
  <path class="cls-1" d="M807.6,668.24c-.03,2.75-3.24,4.9-1.5,7.99"/>
  <path class="cls-1" d="M751.17,599.37c5.69,1.02,11.92.61,15.98,5.99"/>
  <path class="cls-1" d="M274.82,599.37c-5.66.61-11.4.93-15.98,4.99"/>
  <path class="cls-1" d="M235.38,677.73c1.45-1.02,2.14-.55,3.07.96,1.86,3.02,3.26,6.46,6.42,8.53"/>
  <path class="cls-1" d="M265.34,677.23c-3.29,1.18-3.17,5.05-5.49,6.99"/>
  <path class="cls-1" d="M767.15,505.04c-4.85,3.33-10.72-.06-15.77,2.41-1.37.67-2.36-1.42-3.7-1.91"/>
  <path class="cls-1" d="M744.68,578.9c-3.59.14-4.47,3.49-6.49,5.49"/>
  <path class="cls-1" d="M218.4,667.74c.47,4.67,1.28,9.25,3.5,13.48"/>
  <path class="cls-1" d="M772.65,684.21c2.21-.41,2.31-2.72,3.39-4.08,2.92-3.66,6.32-4.6,11.77-2.34-1.24,3.11-4.86,4.79-5.18,8.41"/>
  <path class="cls-1" d="M844.05,464.61c-2.96.9-4.95,2.53-4.49,5.99"/>
  <path class="cls-1" d="M788.62,693.7c.76,2.46.44,4.98.5,7.49"/>
  <path class="cls-1" d="M743.19,694.2c.76,2.46.44,4.98.5,7.49"/>
  <path class="cls-1" d="M759.66,675.23c1.54,3.45,4.16,6.11,6.49,8.98"/>
  <path class="cls-1" d="M579.91,568.42c2.33.2,4.72-.48,6.99.5"/>
  <path class="cls-1" d="M617.36,454.63v9.98"/>
  <path class="cls-1" d="M735.2,666.25c-2.66,1.55-2.98,5.27-5.99,6.49"/>
  <path class="cls-1" d="M252.85,539.48c3.1,2.47,1.61,7.83,5.99,9.48.49.19.91.61,1.5.5"/>
  <path class="cls-1" d="M751.67,465.11c-5.65.5-11.31.5-16.98.5"/>
  <path class="cls-1" d="M610.87,467.6h6.49c0,2.47,0,4.98,0,7.49"/>
  <path class="cls-1" d="M282.81,578.4c-1.51-3.31-4.13-1.86-6.49-1.5"/>
  <path class="cls-1" d="M151.99,527.5c1.13-1.32,1.68.26,2.45.27.82,3.63-2.88,4.94-3.45,7.71"/>
  <path class="cls-1" d="M611.86,563.43h12.98"/>
  <path class="cls-1" d="M808.6,666.75c-3.23.48-5.5,2.69-7.99,4.49"/>
  <path class="cls-1" d="M287.81,690.7c1.78,1.93,4.36,2.89,5.99,4.99"/>
  <path class="cls-1" d="M772.65,539.48c-.31,2.21-2.72,3.93-1.5,6.49"/>
  <path class="cls-1" d="M188.44,491.06c.7,3.65.79,7.5,3.5,10.48"/>
  <path class="cls-1" d="M625.35,452.13c-3,.39-.35,2.9-.98,3.97-4.94,1.36-9.57-.22-14,1.02"/>
  <path class="cls-1" d="M223.39,574.91c2.67,2.99,4.47,6.27,3.5,10.48"/>
  <path class="cls-1" d="M773.14,594.38c-2.23,1.05-3.77-2.02-5.99-1"/>
  <path class="cls-1" d="M183.95,469.6c1.89.63,3.69,1.4,4.61,3.09,1.05,7.9,1.87,15.86,6.37,22.86"/>
  <path class="cls-1" d="M306.78,592.88c-2.72,2.51-7.46,1.18-9.49,4.99"/>
  <path class="cls-1" d="M747.68,622.33c-1.57,1.88-1.15,3.93-.5,5.99"/>
  <path class="cls-1" d="M791.12,466.61c1.97.89,4.31.9,5.99,2.5"/>
  <path class="cls-1" d="M838.56,482.08c-.66,1.17-3.1-.4-3.01,2,.17,4.46-3.41,7.49-4.48,11.48"/>
  <path class="cls-1" d="M436.1,456.62c4.32.25,8.69-.56,12.98.5"/>
  <path class="cls-1" d="M310.02,679.72c-2.65.97-3.84,3.34-5.24,5.49"/>
  <path class="cls-1" d="M272.33,507.53c-1.18-1.37-2.85-2.83-4.43-1.89-3.34,1.98-6.1.34-9.05-.6"/>
  <path class="cls-1" d="M248.86,506.04c1.99,1.11,4.4,1.65,5.49,3.99"/>
  <path class="cls-1" d="M776.64,506.04c-1.53,1.74-4,2.2-5.49,3.99"/>
  <path class="cls-1" d="M264.34,513.52c-1.99-3.74-5.35-4.66-8.94-3.36-2,.73-4.14.91-6.04,1.86"/>
  <path class="cls-1" d="M790.62,541.97c.53,1.83.88,3.66,0,5.49"/>
  <path class="cls-1" d="M235.38,541.97c-.53,1.83-.88,3.66,0,5.49"/>
  <path class="cls-1" d="M238.62,677.98c3.01-2.51,6.12-1.44,9.24-.25"/>
  <path class="cls-1" d="M271.83,679.22c-1.32,1.67-2.53,3.46-4.49,4.49"/>
  <path class="cls-1" d="M403.15,456.62h9.49"/>
  <path class="cls-1" d="M760.16,678.72c-1.18,1.64.36,4.03-1.5,5.49"/>
  <path class="cls-1" d="M842.05,469.6c-5.83,2.56-5.39,8.01-5.99,12.98"/>
  <path class="cls-1" d="M615.86,697.69c-1.46-1.67-4.05-.25-5.49-2"/>
  <path class="cls-1" d="M751.67,563.93h-5.49"/>
  <path class="cls-1" d="M623.85,457.12c2.27,1.45-.06,3.37.5,4.99"/>
  <path class="cls-1" d="M292.3,464.61c-1.67.09-3.39-.3-4.99.5"/>
  <path class="cls-1" d="M219.9,482.58c-1.1,2.11-2.95.87-4.49,1"/>
  <path class="cls-1" d="M248.86,609.35c-2.86,2.6-1.95,5.83-1.5,8.98"/>
  <path class="cls-1" d="M298.79,666.25c4.53-2.25,3.84,2.02,4.99,3.99"/>
  <path class="cls-1" d="M778.14,689.2c1.14-2.35,3.39-2.9,5.45-2.34,1.09.3,3.14,1.72,1.54,3.83"/>
  <path class="cls-1" d="M150.99,552.45c1.6,1.54,2.74,3.93,1.93,4.94-1.18,1.49-1.68,3.5-3.43,4.54"/>
  <path class="cls-1" d="M770.15,680.22c-3.63,1.97-4.65,5.11-3.99,8.98"/>
  <path class="cls-1" d="M583.4,604.86c.48,1.68-1.76,2.75-1,4.49"/>
  <path class="cls-1" d="M861.52,564.68c-2.24,1.03-1.24,3.08-1.5,4.74"/>
  <path class="cls-1" d="M255.35,676.23c-.07,2.37.83,4.39,2.52,5.97,1.79,1.69,2.26,3.7,1.98,6.01"/>
  <path class="cls-1" d="M770.15,676.23c-.8,3.84,3.54,6.97,1.5,10.98"/>
  <path class="cls-1" d="M807.1,482.58c.74,3.12,2.32.4,3.5.5"/>
  <path class="cls-1" d="M308.78,691.7c.33.5.7.47.99.53,7.19,1.42,7.91,2.34,7.5,9.45"/>
  <path class="cls-1" d="M765.65,545.46c-.22,2.66.91,5.32,0,7.99"/>
  <path class="cls-1" d="M726.21,665.75c-3.8-1.13-3.28,2.04-3.99,3.99"/>
  <path class="cls-1" d="M765.65,549.96c-4.65,1.59-7.09,5.28-8.99,9.48"/>
  <path class="cls-1" d="M425.62,691.7c-2.53-2.3-5.26-1.36-7.99-.5"/>
  <path class="cls-1" d="M228.39,470.6c1.17.97,2.33-.33,3.5,0"/>
  <path class="cls-1" d="M803.6,474.09c-1.09.71-2.31.44-3.5.5"/>
  <path class="cls-1" d="M749.68,587.39c-.57-1.88-2.63-.29-3.5-1.5"/>
  <path class="cls-1" d="M624.35,463.11c.78,1.74.34,3.22-1,4.49"/>
  <path class="cls-1" d="M254.85,594.38c-1.85-.6-3.19,1.34-4.99,1"/>
  <path class="cls-1" d="M332.74,643.79c-.9.1-1.48.6-1.49,1.5-.02,9.98-.01,19.97-.01,30.44,4.16,0,7.82,0,11.98,0v-31.94c-3.64,0-6.82,0-9.99,0"/>
  <path class="cls-1" d="M677.28,643.79c-2.58.07-1.99,1.98-1.99,3.49-.02,9.32,0,18.63,0,27.95,3.66.77,7.32.77,11.48-.1,0-10.21,0-20.53,0-30.67-3.29-1.04-6.16-.54-8.99-.67"/>
  <path class="cls-1" d="M565.43,547.96q-1.37,2.26-.5,4.99c17.48,0,34.95.01,52.43,0,4.33,0,8.62.43,12.99.18,3.41-.2,5.77-.87,7.24-5.16h-71.66"/>
</svg>