<?xml version="1.0" encoding="UTF-8"?>
<svg id="Layer_1" data-name="Layer 1" xmlns="http://www.w3.org/2000/svg" viewBox="0 0 1024 1080">
  <defs>
    <style>
      .cls-1 {
        fill: none;
        stroke: #fff;
        stroke-linecap: round;
        stroke-linejoin: round;
        stroke-width: 2px;
      }
    </style>
  </defs>
  <path class="cls-1" d="M607,872.78v-411.44h143.5v378.49c0,9.49-.1,18.98.05,28.46.06,4.14,1.04,5.47-5.55,5.48-25.5.03-51,.01-76.5.01h-233c-51.17,0-102.33,0-153.5,0-7.73,0-6.52-.71-6.52-6.48.03-64.41.02-128.82.02-193.24v-212.71h143.5v410.94"/>
  <path class="cls-1" d="M605.5,325.02h97v24.97c-4.99,0-9.49,0-14,0-117.67,0-235.33,0-353,0-2.83,0-5.69-.22-8.49.06-3.27.32-4.42-1.39-3.93-4.04.99-5.37-.04-10.67-.13-15.99-.07-3.7,1.09-5.09,5.06-5.08,32.83.15,65.67.08,98.5.08"/>
  <path class="cls-1" d="M727.5,815.36v-131.32h-98v131.32"/>
  <path class="cls-1" d="M396.5,815.36v-131.32h-98v131.32"/>
  <path class="cls-1" d="M693.5,350.99c-.01,2.18.02,4.35-.02,6.99-6.97,0-13.47,0-19.98,0h-336q-7,0-7-6.99"/>
  <path class="cls-1" d="M605,325.02c-.8-1.6-.49-3.32-.49-4.99-.02-20.31-.01-40.61-.01-61.42h-176.88c-.58,22.47.56,44.45-.53,66.41-.05,1.05.37,2.31.4,3.49q.22,8.99,9.5,8.99c53.83,0,107.67,0,161.5,0,2.01,0,4.05.21,5.89-.52.55-3.79-.61-7.68.61-11.46"/>
  <path class="cls-1" d="M574.5,576.18c-2.48-4.16-.78-8.7-.84-12.98-.34-21.3-.51-42.62.05-63.91.18-6.92-1.42-12.16-6.16-17.03-10.78-11.05-22.36-21.01-37.07-26.35-17.42-6.32-33.69-2.81-48.98,6.91-10.61,6.75-19.51,15.34-27.54,24.93-1.6,1.91-1.45,3.92-1.45,6.03,0,25.8-.11,51.6.04,77.39.07,12.32-.24,24.63.2,36.96.16,4.39.15,8.99-.25,13.47"/>
  <path class="cls-1" d="M428.5,674.55c0,59.09,0,118.17.01,177.26,0,6.99-.31,14,.49,20.97"/>
  <path class="cls-1" d="M596.5,674.55c1.34,2.66-.08,5.33-.07,7.99.1,60.92.09,121.83.02,182.75,0,2.53.78,4.97.55,7.49"/>
  <path class="cls-1" d="M512.5,674.55v197.73"/>
  <path class="cls-1" d="M586.5,621.62c-5.05,2.19-10.35.81-15.5.9-16.66.28-33.37.83-49.98-.14-11.58-.68-22.99,1.01-34.52.35-11.31-.65-22.66-.02-34-.43-5-.18-10.02.71-15-.65-2.06-.56-3.35,2.12-5.99.44,0,4.36,0,7.69,0,11.52h162c.88-2.96-.79-6.01.4-9.03.25-.64-.14-2.39-1.9-1.96-1.35.33-2.3-.79-3.5-1"/>
  <path class="cls-1" d="M432.5,427.38c.8-1.6.49-3.32.49-4.99.02-14.65.02-29.29,0-43.94,0-1.84.19-3.71-.53-5.49h-40.97v54.93h41"/>
  <path class="cls-1" d="M499.5,427.38c1.07-3.42,1.01-6.95,1.01-10.49-.01-14.48,0-28.96,0-43.94h-42v54.93h41"/>
  <path class="cls-1" d="M633.5,427.38c.5-1.97,1.02-3.92,1.02-5.99-.03-15.48-.02-30.96-.01-46.44,0-.56.13-1.15-1.49-2h-40.51v54.93h41"/>
  <path class="cls-1" d="M420.5,650.58h185"/>
  <path class="cls-1" d="M728.5,490.3c4.43-1.21,9.05.07,14-.82,0-3.51,0-6.83,0-10.66h-125c0,3.83,0,7.16,0,10.99,5.99,0,11.49,0,17,0,30.33,0,60.67,0,91,.02.83,0,1.82-.45,2.5.48"/>
  <path class="cls-1" d="M396,576.68c1.12,11.3.57,22.65.24,33.95-.08,2.87,1.33,4.65,1.77,6.99.58,3.04,2.86,3.21,5.46,3.65,2.16.37,4.21,1.67,7.03,1.21,0,3.96,0,7.29,0,11.12h-125c-.77-3.66-.77-7.32-.03-10.86,2.94-.42,5.57-1.83,8.51-2.21,1.95-.25,5.21-7.43,5-10.39-.78-10.66-.75-21.3-.01-31.96.36-5.15-3.27-9.23-8.97-10.48-1.72,1.09-1.5,2.83-1.5,4.49,0,14.65,0,29.29-.01,43.94,0,1.69-.03,3.34,1.51,4.49"/>
  <path class="cls-1" d="M629.5,815.86c-2.79.97-5.7.63-8.49.42-3.99-.31-5.31,1.38-5.03,5.08.15,2-.18,4.04.78,6.49h122.58c.38-1.82.71-3.11.68-4.49-.17-7.75,0-7.03-7.03-7.02-32.67.06-65.33.04-98,0-1.66,0-3.42.59-5-.46"/>
  <path class="cls-1" d="M410,488.8c.82-3.16.37-6.32.58-9.99h-125.08c-.77,3.66-.77,7.32,0,10.99,35.17,0,70.33,0,105.5,0,6.17,0,12.36.53,18.5-.49"/>
  <path class="cls-1" d="M622,620.62c-1.55-1.15-1.51-2.8-1.51-4.49.02-14.65.03-29.29,0-43.94,0-1.61.16-3.11,1.08-4.49,6.6.94,9.12,4.79,9.06,11.48-.1,10.31-.77,20.65.38,30.96.32,2.86-1.68,5-2.42,7.51-.89,3.04-3.06,3.19-5.57,3.53-3.59.49-6.4,1.9-5.54,6.44.34,1.8-.29,3.72.51,5.99h124.52c0-3.83,0-7.16,0-11.09-3.73,1-6.2-1.52-9.5-1.57-2.72-.04-4.67-6.22-4.58-10.31.24-10.65.06-21.3.12-31.95,0-.79-.59-1.28-.54-2"/>
  <path class="cls-1" d="M298.5,815.86c-4.3,1.16-8.68.11-13.02.59-.75,3.58-.75,7.24.02,10.9h119.5q5.47,0,5.5-5.49c0-1.68,0-3.36,0-5.49h-18c-30.33,0-60.67,0-91-.02-.83,0-1.82.45-2.5-.48"/>
  <path class="cls-1" d="M304.5,731.47c-.67,1.44-.5,2.98-.5,4.49,0,23.3,0,46.6,0,69.91,0,1.51-.2,3.05.85,4.99h85.42c.91-2.28.72-4.15.73-5.99,0-22.64,0-45.27,0-67.91,0-13.98.03-27.96-.01-41.94-.02-6.58-1.35-5.55-5.49-5.54-25.5.09-51,.08-76.5,0-3.04-.01-5.06.34-5.03,4.05.09,11.48.02,22.97.05,34.45,0,1.07.32,2.11.98,3"/>
  <path class="cls-1" d="M635.5,731.47c-.67,1.44-.5,2.98-.5,4.49,0,23.3,0,46.6,0,69.91,0,1.51-.2,3.05.85,4.99h85.42c.91-2.28.72-4.15.73-5.99,0-22.64,0-45.27,0-67.91,0-13.98.03-27.96-.01-41.94-.02-6.58-1.35-5.55-5.49-5.54-25.5.09-51,.08-76.5,0-3.04-.01-5.06.34-5.03,4.05.09,11.48.02,22.97.05,34.45,0,1.07.32,2.11.98,3"/>
  <path class="cls-1" d="M391.5,577.18c-.65-2.13-.5-4.32-.5-6.49,0-22.97,0-45.94,0-68.91,0-2.01.21-4.04-.56-5.99h-86.44v69.91"/>
  <path class="cls-1" d="M724.25,577.43c-1.55-1.85-1.25-4.08-1.25-6.24,0-23.14,0-46.27,0-69.41,0-2.01.21-4.04-.56-5.99h-85.38c-.93,2.09-.53,3.83-.53,5.49-.03,24.13-.01,48.27-.04,72.4,0,1.86.57,3.88-.98,5.49"/>
  <path class="cls-1" d="M678.5,358.98v101.36"/>
  <path class="cls-1" d="M347.5,358.98v101.36"/>
  <path class="cls-1" d="M605.5,673.55h-185"/>
  <path class="cls-1" d="M347.5,731.47v77.89"/>
  <path class="cls-1" d="M678.5,731.47v77.89"/>
  <path class="cls-1" d="M396.5,490.8c0,23.14.03,46.27-.04,69.41,0,3.13.34,6.06,2.04,8.74"/>
  <path class="cls-1" d="M728.5,490.8c0,23.3.04,46.6-.05,69.9-.01,3.04.34,5.75,2.55,7.99"/>
  <path class="cls-1" d="M298.5,490.8c0,23.3-.06,46.6.07,69.9.02,3.3-.43,6.2-2.57,8.74"/>
  <path class="cls-1" d="M630.5,490.8c0,23.3-.06,46.6.07,69.9.02,3.3-.43,6.2-2.57,8.74"/>
  <path class="cls-1" d="M457.5,581.17c.9-6.31.48-12.65.49-18.97.03-21.14.06-42.28-.05-63.41-.02-2.8.53-5.36,2.11-7.46,9.91-13.18,21.83-24.13,37.49-29.88,16.89-6.21,32.39-1.97,46.43,8.41,8.59,6.35,16.66,13.25,22.66,22.35,1.41,2.14,1.33,4.03,1.33,6.08.05,24.97-.29,49.94.25,74.89.14,6.56-.54,10.74-7.09,13.77-3.23,1.5-7,3.67-9.13,7.21"/>
  <path class="cls-1" d="M513,459.84c0,34.45-.02,68.91.06,103.36,0,1.72-1.45,4.69,2.44,4.49"/>
  <path class="cls-1" d="M347.5,496.79v123.83"/>
  <path class="cls-1" d="M679.5,496.79v123.83"/>
  <path class="cls-1" d="M522,760.43c.8,1.6.49,3.32.49,4.99.02,19.31.01,38.61.01,57.92"/>
  <path class="cls-1" d="M502.5,761.43v61.92"/>
  <path class="cls-1" d="M335.5,657.57h-59"/>
  <path class="cls-1" d="M324.5,337.01c17,0,34,0,51,.01,1.67,0,3.4-.31,5,.49"/>
  <path class="cls-1" d="M749.5,854.3h-54"/>
  <path class="cls-1" d="M435.5,564.7c0,5.16,0,10.32,0,15.48,0,11.82-.02,23.63.02,35.45,0,1.86-.57,3.88.98,5.49"/>
  <path class="cls-1" d="M589.5,564.7c0,4.99,0,9.99,0,14.98,0,12.15.01,24.3-.01,36.45,0,1.94.54,4.08-1.85,5.64-3.58-3.85-7.99-6.92-12.65-9.62-1.4-.81-2.18-1.9-1.98-3.51,1.18-9.47.34-18.98.38-28.46.01-2.35.69-3.41,2.57-4.55,3.66-2.21,7.49-4.29,10.04-7.93"/>
  <path class="cls-1" d="M723.5,621.62c-.83-2.79-1.36-6.11-.28-8.38,1.74-3.64-.31-5.39-2.28-7.02-4.4-3.64-7.97-8.03-12.59-12.03,4.54-4.12,8.69-8.02,12.47-12.17,3.07-3.36,7.81-5.48,8.79-10.8.5-2.69,3.1-4.03,5.87-3.45,2.66.56,2,3.03,2,4.92.03,14.31.02,28.63.01,42.94,0,1.81.31,3.72-1.5,4.99"/>
  <path class="cls-1" d="M513.5,568.19c-1.05,8.14-.34,16.31-.47,24.47-.12,7.49-.02,14.98-.03,22.47,0,1.89-.09,3.8,1,5.49"/>
  <path class="cls-1" d="M404,568.69c1.32,1.28.99,2.93,1,4.49,0,13.98-.01,27.96.03,41.94,0,1.77-.09,3.45-1.02,4.99"/>
  <path class="cls-1" d="M588.5,567.19c-7.37-2.42-15.09-1.27-22.5-1.2-14.83.13-29.67-.11-44.5.21-1.71.04-3.56-.47-5,.99"/>
  <path class="cls-1" d="M569.5,275.09v38.5c4.22,1.7,8.41.64,12.5.94"/>
  <path class="cls-1" d="M566.25,492.3c-1.67.74-3.39,1.04-5.25,1.03-32-.05-64-.03-96-.04-1.57,0-3.22.32-4.5-.99"/>
  <path class="cls-1" d="M458.5,566.19c15.17,0,30.34.15,45.5-.13,2.92-.05,5.57,2.09,8.5.63"/>
  <path class="cls-1" d="M582,824.84c-13.48,7.52-26.68,15.55-40.47,22.52-1.75.89-3.79,1.75-4.53,3.94"/>
  <path class="cls-1" d="M490.5,700.01c-15.24,8.36-30.47,16.73-45.5,25.47"/>
  <path class="cls-1" d="M629.5,621.12c2.95,3.06,6.72,1.24,10,1.35,11.15.37,22.39.83,33.48-.07,8.92-.73,17.66.82,26.52.32,8.64-.49,17.33-.14,25.99-.08,1.6.01,2.96-.26,4-1.52"/>
  <path class="cls-1" d="M728.5,566.19c-12.33-.28-24.68.6-37-.53-1.74-.16-3.45.13-4.98.6-8.05,2.49-15.99-.7-24.03-.24-7.79.45-15.67.7-23.5-.29-2.63-.33-5.33-.01-7.99-.05"/>
  <path class="cls-1" d="M297.5,621.12c2.95,3.06,6.72,1.24,10,1.35,11.15.37,22.39.83,33.48-.07,8.92-.73,17.66.83,26.52.32,8.47-.49,16.99-.12,25.49-.09,1.7,0,3.35.03,4.5-1.51"/>
  <path class="cls-1" d="M389.5,730.97h-84"/>
  <path class="cls-1" d="M346.5,567.19c-5.43-1.44-10.98-.97-16.5-.99-10.34-.05-20.67.16-31-.5"/>
  <path class="cls-1" d="M720.5,730.97h-84"/>
  <path class="cls-1" d="M678.5,690.53c0,11.65.01,23.3-.01,34.95,0,1.67.31,3.39-.49,4.99"/>
  <path class="cls-1" d="M347.5,690.53c0,11.65.01,23.3-.01,34.95,0,1.67.31,3.39-.49,4.99"/>
  <path class="cls-1" d="M520.5,276.09v37.95"/>
  <path class="cls-1" d="M510,621.62c-3.57-5.52-9.57-8.13-14.55-11.91-10.82-8.22-21.99-15.98-32.91-24.09-.98-.73-2.01-1-3.04-1.45"/>
  <path class="cls-1" d="M516,568.69c11.09,7.87,21.8,16.25,32.98,23.99.46.32,1.15.67,1.02,1.47"/>
  <path class="cls-1" d="M479,694.52c-4.03,4.69-10.03,6.32-15.09,9.34-5.99,3.58-12.07,7.13-18.41,10.13"/>
  <path class="cls-1" d="M510,567.69c-10.82,9.17-22.95,16.61-34,25.47"/>
  <path class="cls-1" d="M571,820.35c-11.43,5.68-22.06,12.8-33.5,18.47"/>
  <path class="cls-1" d="M568.5,621.62c-.96-3.79-1.09-7.84-.26-11.43.7-3.02-.29-4.44-2.27-5.49-5.45-2.89-9.88-7.18-15.02-10.62-11.19,8.52-22.74,16.56-33.95,25.04"/>
  <path class="cls-1" d="M556,274.59c-3.5,0-7,.03-10.5-.01-2.41-.03-3.62,1.1-3.49,3.5.26,4.99.13,9.99.29,14.99.17,5.45-.12,10.98-.35,16.47-.16,3.76,1.3,5.38,5.05,5.01,3.16-.31,6.38.53,9.5-.51"/>
  <path class="cls-1" d="M306.5,669.06c-8.15-1.09-16.34-.22-24.5-.49-1.83-.06-3.67,0-5.5,0"/>
  <path class="cls-1" d="M497,520.26c-8.57,5.61-18.03,9.68-26.55,15.4-.64.43-1.85.99-2.95.58"/>
  <path class="cls-1" d="M749.5,844.82h-29"/>
  <path class="cls-1" d="M487.5,713c-9.32,3.74-17.34,9.94-26.46,14.06-.02,0-.8.78-.54,1.42"/>
  <path class="cls-1" d="M676,569.19c-10.08,10.09-20.26,20.07-31.03,29.43-4.55,3.95-7.9,9.12-12.97,12.51"/>
  <path class="cls-1" d="M299.5,577.68c1.49.35,3.31.81,3.91,2.04,2.69,5.51,8.45,7.89,12.17,12.37,4.06,4.89,9.31,8.66,13.91,13.06,4.86,4.63,9.29,9.71,14.51,13.98"/>
  <path class="cls-1" d="M683,569.19c8.65,8.01,16.93,16.38,25.49,24.97-8.79,8.85-17.63,17.16-26.49,25.46"/>
  <path class="cls-1" d="M350,568.69c8.67,8.49,17.59,16.72,26.53,25.48-9.02,8.66-17.98,16.85-26.53,25.46"/>
  <path class="cls-1" d="M579.5,837.83c-9.16,3.74-17.26,9.46-26,13.98"/>
  <path class="cls-1" d="M344,569.19c-8.43,7.89-16.49,16.17-25,23.97"/>
  <path class="cls-1" d="M651,595.16c8.73,7.58,16.26,16.4,25,23.97"/>
  <path class="cls-1" d="M350.5,567.19c3.01-1.8,6.31-.98,9.5-.99,12.17-.02,24.33,0,36.5,0"/>
  <path class="cls-1" d="M722,582.67c1.74,7.91,1.5,15.81,0,23.72"/>
  <path class="cls-1" d="M376,762.43c-6.39,5.5-14.08,8.75-21.5,12.48"/>
  <path class="cls-1" d="M707,762.43c-6.39,5.5-14.08,8.76-21.5,12.48"/>
  <path class="cls-1" d="M501.5,530.24c-7.44,3.97-14.91,7.9-22,12.48"/>
  <path class="cls-1" d="M707.5,547.22c-7.75,3.03-14.38,8.2-22,11.48"/>
  <path class="cls-1" d="M470.25,274.59c.47,13.32.1,26.63.32,39.96.38.02.97.97,1.93.99"/>
  <path class="cls-1" d="M376.5,546.72c-7.79,2.96-14.17,8.61-22,11.48"/>
  <path class="cls-1" d="M637,583.67c-.75,7.18-1.28,14.35.5,21.47"/>
  <path class="cls-1" d="M664,512.27c-7.02,4.26-14.11,8.39-21.5,11.98"/>
  <path class="cls-1" d="M662,706.5c-4.28,4.7-10.5,6.39-15.54,9.93-1.46,1.03-3.73.9-4.46,3.05"/>
  <path class="cls-1" d="M331,706.5c-3.45,4.89-9.57,5.59-14.08,8.87-1.92,1.39-3.86,3.17-6.42,3.61"/>
  <path class="cls-1" d="M549,538.23c-6.87,3.59-13.21,8.17-20.5,10.99"/>
  <path class="cls-1" d="M332,511.77c-5.92,5.23-13.36,7.94-20,11.98"/>
  <path class="cls-1" d="M567.5,584.17c.51,6.84,1.42,13.69-.5,20.47"/>
  <path class="cls-1" d="M453.5,579.68c3.75,1.15,5.74,2.43,4.82,7.55-1,5.57-1.3,11.69.68,17.42"/>
  <path class="cls-1" d="M454.5,275.09v38.95"/>
  <path class="cls-1" d="M390,582.67c1.92,7.08,1.56,14.44.67,21.43-.6,4.72.81,6.46,4.33,8.03"/>
  <path class="cls-1" d="M457.5,607.64c1.24,4.6-.24,9.39,1,13.98"/>
  <path class="cls-1" d="M469.5,294.56h-14"/>
  <path class="cls-1" d="M451.5,611.63c-4.69,2.67-9.71,4.93-12.5,9.99"/>
  <path class="cls-1" d="M473,594.66c-6.24,5.02-12.2,10.44-19.5,13.98"/>
  <path class="cls-1" d="M457.5,565.7c-7.03.01-14.09-.24-21,1.5"/>
  <path class="cls-1" d="M439,567.69c3.5,3.91,7.74,6.82,12.5,8.99"/>
  <path class="cls-1" d="M403.5,567.69c-2.24-.07-4.56.17-5.44,2.52-1.21,3.23-3.89,5.24-5.7,7.73-4.49,6.16-11.28,9.89-15.64,16.53,4.53,3.68,7.58,8.95,13.03,11.67"/>
  <path class="cls-1" d="M636,609.64c1.09,3.96.22,7.99.5,11.98"/>
  <path class="cls-1" d="M304.5,566.69c-1.47,3.87.78,8.21-1.5,11.98"/>
  <path class="cls-1" d="M317,594.66c-3.96,3.36-6.96,7.68-11.4,10.64-1.65,1.1-2.7,3.43-1.8,6.4.93,3.07-.03,6.63.69,9.93"/>
  <path class="cls-1" d="M631.5,577.68c4.05,0,4.64,4.02,7,5.99,3.86,3.23,7.66,6.51,10.5,10.74"/>
  <path class="cls-1" d="M304.5,584.17c-.43,7.1-1.55,14.22.75,21.22"/>
  <path class="cls-1" d="M548.5,398.42c-3.76.81-6.24,4.18-10,4.99"/>
  <path class="cls-1" d="M414.5,398.42c-3.74.86-6.32,4.02-10,4.99"/>
  <path class="cls-1" d="M481.5,398.42c-3.74.86-6.32,4.02-10,4.99"/>
  <path class="cls-1" d="M392,611.63c-2.15,3.08-.14,6.79-1.5,9.99"/>
  <path class="cls-1" d="M615.5,398.42c-3.74.86-6.32,4.02-10,4.99"/>
  <path class="cls-1" d="M543.5,294.06c3.12,1.05,6.34.25,9.5.5"/>
  <path class="cls-1" d="M574,612.63c-1.52,2.92,1.02,6.07-.5,8.99"/>
  <path class="cls-1" d="M529,274.59c-5.67,0-11.33,0-17,0"/>
  <path class="cls-1" d="M455.5,730.97c-2.51.58-4.49,2.41-7,3"/>
  <path class="cls-1" d="M491,687.53c-1.24,2.86-4.41,3.23-6.5,4.99"/>
  <path class="cls-1" d="M547.5,855.8c-2.51.58-4.49,2.41-7,3"/>
  <path class="cls-1" d="M583,813.36c-2.28.95-3.94,3.06-6.5,3.5"/>
  <path class="cls-1" d="M507,513.77c-.91,2.27-3.23,2.8-5,3.99"/>
  <path class="cls-1" d="M600,378.95c-.9.1-1.49.6-1.49,1.5-.02,13.65-.01,27.3-.01,41.44h30v-42.94h-28"/>
  <path class="cls-1" d="M533,378.95c-.9.1-1.49.6-1.49,1.5-.02,13.65-.01,27.3-.01,41.44h30v-42.94h-28"/>
  <path class="cls-1" d="M466,378.95c-.9.1-1.49.6-1.49,1.5-.02,13.65-.01,27.3-.01,41.44h30v-42.94h-28"/>
  <path class="cls-1" d="M399,378.95c-.9.1-1.49.6-1.49,1.5-.02,13.65-.01,27.3-.01,41.44h30v-42.94h-28"/>
  <path class="cls-1" d="M527,372.96c-1.93.29-1.49,1.78-1.49,3-.01,16.81,0,33.62-.03,50.43,0,.33.02.67,1.27,1.5h40.74c0-18.31.02-36.12,0-54.93h-39.99"/>
  <path class="cls-1" d="M489.5,274.59c-3.35,1.13-4.99,3.71-4.94,6.99.15,8.82-.77,17.67.45,26.46.74,5.31,2.52,6.69,7.98,6.49,3.57-.13,6.86-3.14,6.94-6.99.18-8.48.29-16.98-.03-25.46-.2-5.53-3.19-7.49-9.92-7.49"/>
</svg>