<svg width="95" height="97" viewBox="0 0 95 97" fill="none" xmlns="http://www.w3.org/2000/svg">
<path d="M94.6 46.3V40.7C94.6 40.4 92.8 34.7 88.9 22.3C88.6 21.2 87.9 20.3 87 19.7C86.1 19.1 85.1 18.7 83.9 18.7H77.1V16.1H79.8C81.2 16.1 82.4 14.9 82.4 13.5V2.6C82.4 1.2 81.2 0 79.8 0H14.7C13.3 0 12.1 1.2 12.1 2.6V13.5C12.1 14.9 13.3 16.1 14.7 16.1H17.4V18.7H10.6C8.3 18.7 6.4 20.1 5.7 22.3C3.3 29.8 0 40.4 0 40.7V46.3C0 49.2 1.7 51.8 4.2 53.1V59.6V94.1H1C0.5 94.1 0 94.5 0 95.1C0 95.7 0.4 96.1 1 96.1H93.8C94.3 96.1 94.8 95.7 94.8 95.1C94.8 94.5 94.4 94.1 93.8 94.1H90.6V53.1C93.1 51.8 94.8 49.3 94.8 46.3H94.6ZM79.1 39.8H67.9L65.3 20.7H74.8L79.1 39.8ZM23.4 18.8V16.2H71V18.8H23.4ZM52.8 39.8H41.6L42.5 20.7H52L52.9 39.8H52.8ZM54.8 41.7H66.1V46.3C66.1 49.4 63.6 52 60.4 52C57.2 52 54.7 49.5 54.7 46.3V41.7H54.8ZM72.9 18.8V16.2H75.1V18.8H72.9ZM14.7 14.2C14.3 14.2 14 13.9 14 13.5V2.6C14 2.2 14.3 1.9 14.7 1.9H79.8C80.2 1.9 80.5 2.2 80.5 2.6V13.5C80.5 13.9 80.2 14.2 79.8 14.2H14.7ZM21.5 16.1V18.7H19.3V16.1H21.5ZM19.6 20.7H29.1L26.5 39.8H15.3L19.6 20.7ZM39.6 41.7V46.3C39.6 49.4 37.1 52 33.9 52C30.7 52 28.2 49.5 28.2 46.3V41.7H39.5H39.6ZM1.8 46.3V41.7H13.1V46.3C13.1 49.4 10.6 52 7.4 52C4.2 52 1.7 49.5 1.7 46.3H1.8ZM5.9 60.6H27.6C27.9 60.6 28.2 60.9 28.2 61.2V80.1H5.9V60.6ZM57.5 94.1H36.8V61.8C36.8 61.1 37.4 60.5 38.1 60.5H56.2C56.9 60.5 57.5 61.1 57.5 61.8V94.1ZM88.5 80.1H66.2V61.2C66.2 60.9 66.5 60.6 66.8 60.6H88.5V80.1ZM88.5 58.7H66.8C65.4 58.7 64.3 59.8 64.3 61.2V86.6C64.3 88 65.4 89.1 66.8 89.1H88.5V94.1H59.5V61.8C59.5 60 58.1 58.6 56.3 58.6H38.2C36.4 58.6 35 60 35 61.8V94.1H6V89.1H27.7C29.1 89.1 30.2 88 30.2 86.6V61.2C30.2 59.8 29.1 58.7 27.7 58.7H6V53.8C6.5 53.8 7 54 7.5 54C10.3 54 12.8 52.4 14.1 50.1C15.4 52.4 17.9 54 20.7 54C23.5 54 26 52.4 27.3 50.1C28.6 52.4 31.1 54 33.9 54C36.7 54 39.2 52.4 40.5 50.1C41.8 52.4 44.3 54 47.1 54C49.9 54 52.4 52.4 53.7 50.1C55 52.4 57.5 54 60.3 54C63.1 54 65.6 52.4 66.9 50.1C68.2 52.4 70.7 54 73.5 54C76.3 54 78.8 52.4 80.1 50.1C81.4 52.4 83.9 54 86.7 54C89.5 54 87.7 54 88.2 53.8V58.7H88.5ZM87 52C83.9 52 81.3 49.5 81.3 46.3V41.7H92.6V46.3C92.6 49.4 90.1 52 86.9 52H87Z" fill="#1F512A"/>
</svg>
