<svg width="70" height="81" viewBox="0 0 70 81" fill="none" xmlns="http://www.w3.org/2000/svg">
<path d="M34.5 73.9H3.80005V14.2H12V16.1C12 17.2 12.9 18 13.9 18H43.2001C44.3001 18 45.1 17.1 45.1 16.1V14.2H53.3V44.1C53.3 45.2 54.2001 46 55.2001 46C56.2001 46 57.1 45.1 57.1 44.1V12.3C57.1 11.2 56.2001 10.4 55.2001 10.4H45.1V8.5C45.1 7.4 44.2001 6.6 43.2001 6.6H34.7001V5.89999C34.7001 2.59999 32 0 28.8 0C25.6 0 22.8 2.69999 22.8 5.89999V6.6H13.9C12.8 6.6 12 7.5 12 8.5V10.4H1.90002C0.800024 10.4 0 11.3 0 12.3V75.9C0 77 0.900024 77.8 1.90002 77.8H34.5C35.6 77.8 36.4 76.9 36.4 75.9C36.4 74.9 35.5 74 34.5 74V73.9ZM15.8 10.3H24.7001C25.8001 10.3 26.6 9.39999 26.6 8.39999V5.8C26.6 4.6 27.5001 3.7 28.7001 3.7C29.9001 3.7 30.8 4.6 30.8 5.8V8.39999C30.8 9.49999 31.7001 10.3 32.7001 10.3H41.2001V14.2H15.7001V10.3H15.8ZM21 27.8L16.2001 32.6C15.8001 33 15.3 33.2 14.8 33.2C14.3 33.2 13.8 33 13.4 32.6L10.7001 29.9C10.0001 29.2 10.0001 27.9 10.7001 27.2C11.4001 26.5 12.7 26.5 13.4 27.2L14.7001 28.5L18.1 25.1C18.8 24.4 20.1 24.4 20.8 25.1C21.5 25.8 21.5 27.1 20.8 27.8H21ZM46.8 28.9C46.8 30 45.9 30.8 44.9 30.8H26.8C25.7 30.8 24.9 29.9 24.9 28.9C24.9 27.9 25.8 27 26.8 27H44.9C46 27 46.8 27.9 46.8 28.9ZM21 43L16.2001 47.8C15.8001 48.2 15.3 48.4 14.8 48.4C14.3 48.4 13.8 48.2 13.4 47.8L10.7001 45.1C10.0001 44.4 10.0001 43.1 10.7001 42.4C11.4001 41.7 12.7 41.7 13.4 42.4L14.7001 43.7L18.1 40.3C18.8 39.6 20.1 39.6 20.8 40.3C21.5 41 21.5 42.3 20.8 43H21ZM46.8 44.1C46.8 45.2 45.9 46 44.9 46H26.8C25.7 46 24.9 45.1 24.9 44.1C24.9 43.1 25.8 42.2 26.8 42.2H44.9C46 42.2 46.8 43.1 46.8 44.1ZM21 55.5C21.7 56.2 21.7 57.5 21 58.2L16.2001 63C15.8001 63.4 15.3 63.6 14.8 63.6C14.3 63.6 13.8 63.4 13.4 63L10.7001 60.3C10.0001 59.6 10.0001 58.3 10.7001 57.6C11.4001 56.9 12.7 56.9 13.4 57.6L14.7001 58.9L18.1 55.5C18.8 54.8 20.1 54.8 20.8 55.5H21ZM46.8 59.3C46.8 60.4 45.9 61.2 44.9 61.2H26.8C25.7 61.2 24.9 60.3 24.9 59.3C24.9 58.3 25.8 57.4 26.8 57.4H44.9C46 57.4 46.8 58.3 46.8 59.3ZM48 57.2C48 61.2 51.3 64.5 55.3 64.5C59.3 64.5 62.6 61.2 62.6 57.2C62.6 53.2 59.3 49.9 55.3 49.9C51.3 49.9 48 53.2 48 57.2ZM58.7001 57.2C58.7001 59.1 57.2001 60.6 55.3 60.6C53.4 60.6 51.9 59.1 51.9 57.2C51.9 55.3 53.4 53.8 55.3 53.8C57.2001 53.8 58.7001 55.3 58.7001 57.2ZM62.3 65.4H48.1C43.9 65.4 40.5 68.8 40.5 73V78.6C40.5 79.7 41.4 80.5 42.4 80.5H67.8C68.9 80.5 69.7001 79.6 69.7001 78.6V73C69.7001 68.8 66.3 65.4 62.1 65.4H62.3ZM66 76.7H44.4V73C44.4 70.9 46.1 69.3 48.1 69.3H62.3C64.4 69.3 66 71 66 73V76.7Z" fill="#1F512A"/>
</svg>
