<svg width="99" height="60" viewBox="0 0 99 60" fill="none" xmlns="http://www.w3.org/2000/svg">
<path d="M61.3696 8.2C61.3696 8.2 61.3697 7.99999 61.2697 7.89999C61.2697 7.69999 61.0696 7.5 60.9696 7.3C59.5696 4.7 57.3697 2.5 54.2697 1.2C54.0697 1.2 53.8696 1 53.6696 1C53.5696 1 53.4696 0.999994 53.3696 0.899994C51.8696 0.399994 50.2696 0.1 48.6696 0C46.9696 0 45.3696 0.299994 43.8696 0.899994C43.7696 0.899994 43.6696 0.9 43.4696 1C43.2696 1 43.0696 1.1 42.8696 1.2C39.7696 2.5 37.5696 4.7 36.1696 7.3C36.0696 7.5 35.9696 7.69999 35.8696 7.89999C35.8696 7.89999 35.8697 8.1 35.7697 8.1C34.8697 9.9 34.3696 12 34.3696 14.2C34.3696 16.4 34.8697 18.4 35.7697 20.3C35.7697 20.3 35.7696 20.5 35.8696 20.5C35.8696 20.7 36.0696 20.9 36.1696 21.1C37.5696 23.7 39.7696 25.9 42.8696 27.2C43.0696 27.2 43.2696 27.4 43.4696 27.4C43.5696 27.4 43.6697 27.4 43.7697 27.5C45.2697 28 46.8696 28.3 48.4696 28.4C50.1696 28.4 51.7697 28.1 53.2697 27.5C53.3697 27.5 53.4696 27.5 53.5696 27.4C53.7696 27.4 53.9696 27.3 54.1696 27.2C57.2696 25.9 59.4696 23.7 60.8696 21.1C60.8696 20.9 61.0696 20.8 61.1696 20.6C61.1696 20.5 61.1697 20.4 61.2697 20.3C62.1697 18.5 62.6696 16.4 62.6696 14.2C62.6696 12 62.1697 10 61.2697 8.1L61.3696 8.2ZM58.7697 18.9C57.6697 21.4 55.6696 23.4 53.1696 24.5C51.8696 25 50.3696 25.4 48.5696 25.5C46.7696 25.5 45.2696 25.1 43.9696 24.5C41.4696 23.4 39.4697 21.4 38.2697 18.9C37.6697 17.4 37.3696 15.8 37.3696 14.2C37.3696 12.6 37.6697 11 38.2697 9.6C39.3697 7.1 41.4696 5.1 43.9696 4C45.2696 3.5 46.7696 3.1 48.5696 3C50.3696 3 51.8696 3.4 53.1696 4C55.6696 5.1 57.6696 7.1 58.8696 9.6C59.4696 11.1 59.7697 12.7 59.7697 14.2C59.7697 15.7 59.4696 17.4 58.8696 18.8L58.7697 18.9Z" fill="#1F512A"/>
<path d="M59.7697 14.3C59.7697 15.9 59.4696 17.5 58.8696 18.9C57.7696 21.4 55.7697 23.4 53.2697 24.5C51.9697 25 50.4696 25.4 48.6696 25.5C46.8696 25.5 45.3696 25.1 44.0696 24.5C41.5696 23.4 39.5696 21.4 38.3696 18.9C37.7696 17.4 37.4696 15.8 37.4696 14.2C37.4696 12.6 37.7696 11 38.3696 9.6C39.4696 7.1 41.5696 5.1 44.0696 4C45.3696 3.5 46.8696 3.1 48.6696 3C50.4696 3 51.9697 3.4 53.2697 4C55.7697 5.1 57.7696 7.1 58.9696 9.6C59.5696 11.1 59.8696 12.7 59.8696 14.2L59.7697 14.3Z" fill="#1F512A"/>
<path d="M77.1696 6.30002C69.8696 6.60002 66.4696 12.1 66.4696 17.1C66.4696 22.1 69.7696 27.6 77.1696 27.9C83.0696 27.9 87.9696 23.1 87.9696 17.1C87.9696 11.1 83.1696 6.30002 77.1696 6.30002ZM77.2697 24.8C71.8697 24.6 69.4696 20.8 69.4696 17C69.4696 13.2 71.8696 9.50002 77.1696 9.20002C81.4696 9.20002 84.9696 12.7 84.9696 17C84.9696 21.3 81.4697 24.8 77.2697 24.8Z" fill="#88BC92"/>
<path d="M84.9696 17.1C84.9696 21.4 81.4697 24.9 77.2697 24.9C71.8697 24.7 69.4696 20.9 69.4696 17.1C69.4696 13.3 71.8696 9.60002 77.1696 9.30002C81.4696 9.30002 84.9696 12.8 84.9696 17.1Z" fill="#88BC92"/>
<path d="M95.7697 36.2C95.7697 36.2 95.7697 36.1 95.7697 36C94.0697 32.3 91.2697 29.8 87.6697 28.5C87.6697 28.5 87.6696 28.5 87.5696 28.5H87.3696C87.0696 28.3 86.7696 28.2 86.3696 28.1C86.3696 28.1 86.2697 28.1 86.1697 28.1C85.4697 28.1 84.8697 28.4 83.7697 28.9C82.1697 29.6 79.6696 30.8 77.3696 30.8C75.0696 30.8 72.5696 29.7 70.9696 28.9C69.7696 28.4 69.1696 28.1 68.5696 28.1C68.5696 28.1 68.4696 28.1 68.3696 28.1C67.9696 28.1 67.6696 28.3 67.3696 28.4H67.0696C66.4697 28.7 65.9696 28.9 65.4696 29.2C64.6696 28.8 63.7696 28.4 62.8696 28.1H62.4696C62.0696 27.8 61.6697 27.7 61.1697 27.6C61.1697 27.6 61.0696 27.6 60.9696 27.6C60.1696 27.6 59.3696 28 57.8696 28.6C55.5696 29.6 52.1696 31.2 48.8696 31.2C45.5696 31.2 42.0696 29.6 39.8696 28.6C38.3696 27.9 37.5697 27.5 36.7697 27.6C36.7697 27.6 36.6696 27.6 36.5696 27.6C36.0696 27.6 35.6697 27.8 35.2697 28H34.8696C33.9696 28.4 33.1696 28.8 32.3696 29.2C31.8696 28.9 31.2697 28.7 30.6697 28.5H30.3696C30.0696 28.3 29.7696 28.2 29.3696 28.1C29.3696 28.1 29.2697 28.1 29.1697 28.1C28.4697 28.1 27.8697 28.4 26.7697 28.9C25.1697 29.6 22.6696 30.8 20.3696 30.8C18.0696 30.8 15.5696 29.7 13.9696 28.9C12.8696 28.4 12.1696 28.1 11.5696 28.1C11.5696 28.1 11.4696 28.1 11.3696 28.1C10.9696 28.1 10.6696 28.3 10.3696 28.4H10.0696C8.06965 29.2 6.36964 30.2 4.96964 31.6C3.76964 32.8 2.76964 34.3 1.96964 36C1.96964 36 1.96964 36.1 1.96964 36.2C-0.330357 41.3 -0.0303511 46.8 0.0696489 47.5C0.0696489 49.1 1.56964 50.8 10.9696 51.6C14.1696 51.9 17.3696 52 20.5696 52C23.7696 52 21.2696 52 21.5696 52C21.5696 52.8 21.5696 53.4 21.5696 53.6C21.5696 55.5 23.4696 57.6 35.9696 58.8C40.3696 59.2 44.7696 59.4 49.0696 59.4C53.3696 59.4 57.8697 59.2 62.2697 58.8C74.8697 57.6 76.6697 55.6 76.6697 53.6C76.6697 53.4 76.6697 52.8 76.6697 52C76.9697 52 77.3697 52 77.6697 52C80.8697 52 84.0697 51.9 87.2697 51.6C90.1697 51.3 92.5697 50.9 94.2697 50.5C95.2697 50.2 98.0696 49.5 98.0696 47.5C98.0696 46.8 98.4697 41.3 96.1697 36.2H95.7697ZM23.5696 38.3C21.8696 42.1 21.2696 46.1 21.0696 49C17.5696 49 14.0697 49 10.6697 48.6C5.46966 48.1 3.16964 47.4 2.46964 47C2.46964 45.9 2.36965 41.3 4.16965 37.3C4.16965 37.3 4.16965 37.2 4.16965 37.1C4.76965 35.8 5.56964 34.7 6.46964 33.8C7.56964 32.7 8.86964 31.9 10.3696 31.4C10.4696 31.4 10.5697 31.4 10.7697 31.3C10.8697 31.3 10.9696 31.3 11.0696 31.3C11.3696 31.3 11.7697 31.6 12.2697 31.8C14.1697 32.6 16.9696 33.9 19.9696 33.9C22.9696 33.9 25.7696 32.6 27.5696 31.8C27.9696 31.6 28.4697 31.4 28.7697 31.3C28.7697 31.3 28.8696 31.3 28.9696 31.3C26.7696 33.1 25.0697 35.4 23.7697 38.2C23.7697 38.2 23.7697 38.3 23.7697 38.4L23.5696 38.3ZM73.1697 53.3C72.5697 53.9 69.4696 55 61.4696 55.8C52.9696 56.6 44.2697 56.6 35.6697 55.8C27.6697 55.1 24.5696 53.9 23.9696 53.3C23.9696 52.4 23.5696 45.4 26.3696 39.4C26.3696 39.4 26.3696 39.3 26.3696 39.2C28.3696 35.1 31.3697 32.3 35.2697 30.9C35.4697 30.9 35.5697 30.9 35.6697 30.8C35.8697 30.8 36.1696 30.7 36.3696 30.6C36.7696 30.7 37.4697 31.1 38.1697 31.4C40.6697 32.6 44.4696 34.3 48.4696 34.3C52.4696 34.3 56.2697 32.6 58.7697 31.4C59.3697 31.1 60.1696 30.8 60.5696 30.6C60.7696 30.6 60.9697 30.7 61.2697 30.8C61.4697 30.8 61.5697 30.9 61.6697 30.9C65.6697 32.3 68.6697 35.1 70.6697 39.2C70.6697 39.2 70.6697 39.3 70.6697 39.4C73.4697 45.4 73.1696 52.4 73.0696 53.3H73.1697ZM94.6697 47C94.4697 47.1 93.9697 47.4 93.0696 47.6C91.4697 48 89.2696 48.4 86.5696 48.6C83.1696 48.9 79.6697 49.1 76.1697 49C75.9697 46 75.3697 42.1 73.5696 38.3C73.5696 38.3 73.5696 38.2 73.5696 38.1C72.2696 35.3 70.4696 33 68.3696 31.2C68.3696 31.2 68.4697 31.2 68.5696 31.2C68.8697 31.2 69.3697 31.5 69.6697 31.7C71.5697 32.5 74.3696 33.8 77.3696 33.8C80.3696 33.8 83.1696 32.5 85.0696 31.7C85.4697 31.5 85.9697 31.3 86.1697 31.2C86.1697 31.2 86.3696 31.2 86.4696 31.3C86.5696 31.3 86.6696 31.3 86.8696 31.4C89.6696 32.4 91.6696 34.3 93.0696 37.1C93.0696 37.1 93.0696 37.2 93.0696 37.3C94.9697 41.3 94.8697 45.9 94.7697 47H94.6697Z" fill="#88BC92"/>
<path d="M27.5696 31.7L73.1696 53.4C72.5696 54 69.4696 55.1 61.4696 55.9C52.9696 56.7 44.2696 56.7 35.6696 55.9C27.6696 55.2 24.5696 54 23.9696 53.4C23.9696 52.5 23.5696 45.5 26.3696 39.5C26.3696 39.5 26.3696 39.4 26.3696 39.3C28.3696 35.2 31.3697 32.4 35.2697 31C35.4697 31 35.5696 31 35.6696 30.9C35.8696 30.9 36.1696 30.8 36.3696 30.7C36.7696 30.8 37.4696 31.2 38.1696 31.5C40.6696 32.7 44.4696 34.4 48.4696 34.4C52.4696 34.4 56.2697 32.7 58.7697 31.5C59.3697 31.2 60.1696 30.9 60.5696 30.7C60.7696 30.7 60.9697 30.8 61.2697 30.9C61.4697 30.9 61.5696 31 61.6696 31C65.6696 32.4 68.6696 35.2 70.6696 39.3C70.6696 39.3 70.6696 39.4 70.6696 39.5C73.4696 45.5 73.1696 52.5 73.0696 53.4L27.5696 31.7ZM69.5696 31.7L76.1696 49.1C75.9696 46.1 75.3696 42.2 73.5696 38.4C73.5696 38.4 73.5696 38.3 73.5696 38.2C72.2696 35.4 70.4696 33.1 68.3696 31.3L65.3696 29.3C64.5696 28.9 63.6697 28.5 62.7697 28.2H62.3696C61.9696 27.9 61.5696 27.8 61.0696 27.7C61.0696 27.7 60.9696 27.7 60.8696 27.7C60.0696 27.7 59.2697 28.1 57.7697 28.7C55.4697 29.7 52.0697 31.3 48.7697 31.3C45.4697 31.3 41.9697 29.7 39.7697 28.7C38.2697 28 37.4696 27.6 36.6696 27.7C36.6696 27.7 36.5696 27.7 36.4696 27.7C35.9696 27.7 35.5696 27.9 35.1696 28.1H34.7697C33.8697 28.5 33.0697 28.9 32.2697 29.3L29.2697 31.3C27.0697 33.1 25.3696 35.4 24.0696 38.2C24.0696 38.2 24.0696 38.3 24.0696 38.4C22.3696 42.2 21.7696 46.2 21.5696 49.1V52.1C21.5696 52.9 21.5696 53.5 21.5696 53.7C21.5696 55.6 23.4696 57.7 35.9696 58.9C40.3696 59.3 44.7696 59.5 49.0696 59.5C53.3696 59.5 57.8697 59.3 62.2697 58.9C74.8697 57.7 76.6696 55.7 76.6696 53.7C76.6696 53.5 76.6696 52.9 76.6696 52.1C76.6696 51.9 76.3696 49.2 76.5696 48.9" fill="#1F512A"/>
<path d="M28.8696 31.2C26.6696 33 24.9696 35.3 23.6696 38.1C23.6696 38.1 23.6696 38.2 23.6696 38.3C21.9696 42.1 21.3696 46.1 21.1696 49C17.6696 49 14.1696 49 10.7696 48.6C5.56965 48.1 3.26963 47.4 2.56963 47C2.56963 45.9 2.46965 41.3 4.26965 37.3C4.26965 37.3 4.26965 37.2 4.26965 37.1C4.86965 35.8 5.66963 34.7 6.56963 33.8C7.66963 32.7 8.96963 31.9 10.4696 31.4C10.5696 31.4 10.6696 31.4 10.8696 31.3C10.9696 31.3 11.0696 31.3 11.1696 31.3C11.4696 31.3 11.8696 31.6 12.3696 31.8C14.2696 32.6 17.0696 33.9 20.0696 33.9C23.0696 33.9 25.8696 32.6 27.6696 31.8C28.0696 31.6 28.5696 31.4 28.8696 31.3C28.8696 31.3 28.9696 31.3 29.0696 31.3L28.8696 31.2Z" fill="#88BC92"/>
<path d="M94.6696 47C94.4696 47.1 93.9696 47.4 93.0696 47.6C91.4696 48 89.2696 48.4 86.5696 48.6C83.1696 48.9 79.6696 49.1 76.1696 49C75.9696 46 75.3696 42.1 73.5696 38.3C73.5696 38.3 73.5696 38.2 73.5696 38.1C72.2696 35.3 70.4696 33 68.3696 31.2C68.3696 31.2 68.4696 31.2 68.5696 31.2C68.8696 31.2 69.3696 31.5 69.6696 31.7C71.5696 32.5 74.3696 33.8 77.3696 33.8C80.3696 33.8 83.1696 32.5 85.0696 31.7C85.4696 31.5 85.9696 31.3 86.1696 31.2C86.1696 31.2 86.3696 31.2 86.4696 31.3C86.5696 31.3 86.6696 31.3 86.8696 31.4C89.6696 32.4 91.6696 34.3 93.0696 37.1C93.0696 37.1 93.0696 37.2 93.0696 37.3C94.9696 41.3 94.8697 45.9 94.7697 47H94.6696Z" fill="#88BC92"/>
<path d="M73.1697 53.3C72.5697 53.9 69.4696 55 61.4696 55.8C52.9696 56.6 44.2697 56.6 35.6697 55.8C27.6697 55.1 24.5696 53.9 23.9696 53.3C23.9696 52.4 23.5696 45.4 26.3696 39.4C26.3696 39.4 26.3696 39.3 26.3696 39.2C28.3696 35.1 31.3697 32.3 35.2697 30.9C35.4697 30.9 35.5697 30.9 35.6697 30.8C35.8697 30.8 36.1696 30.7 36.3696 30.6C36.7696 30.7 37.4697 31.1 38.1697 31.4C40.6697 32.6 44.4696 34.3 48.4696 34.3C52.4696 34.3 56.2697 32.6 58.7697 31.4C59.3697 31.1 60.1696 30.8 60.5696 30.6C60.7696 30.6 60.9697 30.7 61.2697 30.8C61.4697 30.8 61.5697 30.9 61.6697 30.9C65.6697 32.3 68.6697 35.1 70.6697 39.2C70.6697 39.2 70.6697 39.3 70.6697 39.4C73.4697 45.4 73.1696 52.4 73.0696 53.3H73.1697Z" fill="#1F512A"/>
<path d="M19.8696 6.30002C12.5696 6.60002 9.16965 12.1 9.16965 17.1C9.16965 22.1 12.4696 27.6 19.8696 27.9C25.7696 27.9 30.6696 23.1 30.6696 17.1C30.6696 11.1 25.8696 6.30002 19.8696 6.30002ZM19.9696 24.8C14.5696 24.6 12.1696 20.8 12.1696 17C12.1696 13.2 14.5696 9.50002 19.8696 9.20002C24.1696 9.20002 27.6696 12.7 27.6696 17C27.6696 21.3 24.1696 24.8 19.9696 24.8Z" fill="#88BC92"/>
<path d="M27.6696 17.1C27.6696 21.4 24.1696 24.9 19.9696 24.9C14.5696 24.7 12.1696 20.9 12.1696 17.1C12.1696 13.3 14.5696 9.60002 19.8696 9.30002C24.1696 9.30002 27.6696 12.8 27.6696 17.1Z" fill="#88BC92"/>
</svg>
