<svg width="96" height="81" viewBox="0 0 96 81" fill="none" xmlns="http://www.w3.org/2000/svg">
<path d="M88.8 17.7H66.8V4C66.8 1.8 65.1 0 63 0H32.1C30 0 28.3 1.8 28.3 4V17.7H6.3C2.8 17.7 0 20.5 0 24V74.1C0 77.6 2.8 80.4 6.3 80.4H88.8C92.3 80.4 95.1 77.6 95.1 74.1V24C95.1 20.5 92.3 17.8 88.8 17.8V17.7ZM30.2 4C30.2 2.8 31.1 1.79999 32.2 1.79999H63.1C64.2 1.79999 65.1 2.8 65.1 4V17.7H60.5V9.69998C60.5 8.19998 59.2 6.89999 57.7 6.89999H37.7C36.1 6.89999 34.9 8.19998 34.9 9.69998V17.7H30.3V4H30.2ZM58.5 17.7H36.7V9.69998C36.7 9.19998 37.1 8.69998 37.6 8.69998H57.6C58.1 8.69998 58.5 9.09998 58.5 9.69998V17.7ZM93.2 74.1C93.2 76.5 91.2 78.5 88.8 78.5H6.3C3.9 78.5 1.90001 76.5 1.90001 74.1V44.2C4.20001 48.2 9.10001 53.5 18.4 53.5H18.9C20.7 53.5 22.5 53.3 24.3 53.1C26.3 52.9 28.3 52.7 30.4 52.7C32.5 52.7 34.6 52.9 36.7 53.2C37.3 53.2 38 53.3 38.6 53.4V59.4C38.6 61.2 40.1 62.7 41.9 62.7H53C54.8 62.7 56.3 61.2 56.3 59.4V53.4C57 53.4 57.6 53.3 58.3 53.2C60.4 53 62.5 52.7 64.6 52.7C66.7 52.7 68.7 52.9 70.7 53.1C72.5 53.3 74.3 53.4 76.1 53.5H76.6C85.9 53.5 90.8 48.1 93.1 44.2V74.1H93.2ZM93.2 39.8C92.9 40.9 89.2 52 76.2 51.7C74.5 51.7 72.7 51.5 70.9 51.3C68.8 51.1 66.7 50.9 64.6 50.9C62.4 50.9 60.2 51.1 58.1 51.4C57.5 51.4 56.9 51.5 56.4 51.6V48.4C56.4 46.6 54.9 45.1 53.1 45.1H42C40.2 45.1 38.7 46.6 38.7 48.4V51.6C38.1 51.6 37.5 51.5 37 51.4C34.9 51.2 32.7 50.9 30.5 50.9C28.4 50.9 26.3 51.1 24.2 51.3C22.5 51.5 20.7 51.6 18.9 51.7H18.5C5.8 51.7 2.3 41 2 39.8V24C2 21.6 4.00001 19.6 6.40001 19.6H88.9C91.3 19.6 93.3 21.6 93.3 24V39.8H93.2Z" fill="#88BC92"/>
<path d="M65 4V17.7H60.4V9.69998C60.4 8.19998 59.1 6.89999 57.6 6.89999H37.6C36 6.89999 34.8 8.19998 34.8 9.69998V17.7H30.2V4C30.2 2.8 31.1 1.79999 32.2 1.79999H63.1C64.2 1.79999 65.1 2.8 65.1 4H65Z" fill="#88BC92"/>
<path d="M93.2 24V39.8C92.9 40.9 89.2 52 76.2 51.7C74.5 51.7 72.7 51.5 70.9 51.3C68.8 51.1 66.7 50.9 64.6 50.9C62.4 50.9 60.2 51.1 58.1 51.4C57.5 51.4 56.9 51.5 56.4 51.6V48.4C56.4 46.6 54.9 45.1 53.1 45.1H42C40.2 45.1 38.7 46.6 38.7 48.4V51.6C38.1 51.6 37.5 51.5 37 51.4C34.9 51.2 32.7 50.9 30.5 50.9C28.4 50.9 26.3 51.1 24.2 51.3C22.5 51.5 20.7 51.6 18.9 51.7H18.5C5.8 51.7 2.3 41 2 39.8V24C2 21.6 4.00001 19.6 6.40001 19.6H88.9C91.3 19.6 93.3 21.6 93.3 24H93.2Z" fill="#348243"/>
<path d="M54.6 48.4V59.5C54.6 60.3 53.9 61 53.1 61H42C41.2 61 40.5 60.3 40.5 59.5V48.4C40.5 47.6 41.2 46.9 42 46.9H53.1C53.9 46.9 54.6 47.6 54.6 48.4Z" fill="#88BC92"/>
<path d="M93.2 44.2V74.1C93.2 76.5 91.2 78.5 88.8 78.5H6.29999C3.89999 78.5 1.89999 76.5 1.89999 74.1V44.2C4.19999 48.2 9.09999 53.5 18.4 53.5H18.9C20.7 53.5 22.5 53.3 24.3 53.1C26.3 52.9 28.3 52.7 30.4 52.7C32.5 52.7 34.6 52.9 36.7 53.2C37.3 53.2 38 53.3 38.6 53.4V59.4C38.6 61.2 40.1 62.7 41.9 62.7H53C54.8 62.7 56.3 61.2 56.3 59.4V53.4C57 53.4 57.6 53.3 58.3 53.2C60.4 53 62.5 52.7 64.6 52.7C66.7 52.7 68.7 52.9 70.7 53.1C72.5 53.3 74.3 53.4 76.1 53.5H76.6C85.9 53.5 90.8 48.1 93.1 44.2H93.2Z" fill="#1F512A"/>
</svg>
