<svg width="96" height="95" viewBox="0 0 96 95" fill="none" xmlns="http://www.w3.org/2000/svg">
<path d="M72.9 41.6L63.8 53C64.4 57.4 61.3 61.5 56.9 62.1C52.5 62.7 48.4 59.6 47.8 55.2C47.2 50.8 50.3 46.7 54.7 46.1C55.5 46 56.2 46 57 46.1L68.4 37C69.8 35.9 71.8 36.1 73 37.5C74 38.7 74 40.4 73 41.6H72.9ZM39.9 69.8C39.9 67.5 38.1 65.7 35.8 65.7H18.4C16.1 65.7 14.3 67.5 14.3 69.8C14.3 72.1 16.1 73.9 18.4 73.9H35.8C38.1 73.9 39.9 72.1 39.9 69.8ZM92.1 25.5C93 24.7 93.5 23.6 93.7 22.4C94.1 19.6 92.1 17 89.2 16.6C88.8 16.6 88.3 16.6 87.9 16.6C86.7 16.8 85.6 17.3 84.8 18.2L80.5 22.5C74.9 18.1 68.1 15.3 61 14.3V10.4H64.7C67.4 10.4 69.7 8.39998 70.1 5.69998C70.4 2.79998 68.3 0.3 65.4 0C65.2 0 65.1 0 64.9 0H46.8C44.1 0 41.8 1.99998 41.4 4.69998C41.1 7.59998 43.2 10.1 46.1 10.4C46.3 10.4 46.4 10.4 46.6 10.4H50.6V14.3C43.9 15.2 37.5 17.8 32.1 21.8C29.9 23.6 29.5 26.8 31.3 29.1C33 31.2 36 31.7 38.2 30.2C51.5 20.4 70.1 23.3 79.9 36.5C89.7 49.8 86.8 68.4 73.6 78.2C63.7 85.5 50.4 86 40.1 79.5C37.9 78.1 35.1 78.5 33.4 80.5C31.6 82.7 31.8 85.9 34 87.8C34.2 87.9 34.3 88.1 34.5 88.2C42.7 93.4 52.4 95.4 62 94C81.4 90.9 95.7 74.4 96 54.8C96.1 45.8 93.2 37.1 87.8 30L92.1 25.7V25.5ZM35.7 44.5C38 44.5 39.8 42.7 39.8 40.4C39.8 38.1 38 36.3 35.7 36.3H4.10001C1.80001 36.3 0 38.1 0 40.4C0 42.7 1.80001 44.5 4.10001 44.5H35.7ZM35.7 51H11.9C9.59999 51 7.79999 52.8 7.79999 55.1C7.79999 57.4 9.59999 59.2 11.9 59.2H35.7C38 59.2 39.8 57.4 39.8 55.1C39.8 52.8 38 51 35.7 51Z" fill="#1C3A21"/>
</svg>
