<svg width="75" height="88" viewBox="0 0 75 88" fill="none" xmlns="http://www.w3.org/2000/svg">
<path d="M34.1 56.1L16.5 38.7L20.9 34.3L34.1 47.3L54 27.6L58.4 32L34.1 56V56.1Z" fill="#1F512A"/>
<path d="M38.4 87.6C36.6 87.6 34.8 87.2 33.1 86.2L21 79.6C8.1 72.6 0 58.9 0 43.8V8.8L37.5 0L75 8.8V44.4C75 59.1 67.3 72.6 54.9 79.7L44 86C42.3 87 40.4 87.5 38.5 87.5L38.4 87.6ZM6.20001 13.8V43.9C6.20001 56.7 13 68.3 23.9 74.2L36 80.8C37.5 81.6 39.3 81.6 40.8 80.8L51.7 74.5C62.2 68.5 68.7 57.1 68.7 44.6V13.9L37.5 6.5L6.20001 13.9V13.8Z" fill="#1F512A"/>
</svg>
