<svg xmlns="http://www.w3.org/2000/svg" width="500" height="361" fill="none"><path fill="#191C4C" d="M94.886 229.951a26.401 26.401 0 0 0-19.12 7.529 25.904 25.904 0 0 0-7.778 18.872 24.849 24.849 0 0 0 7.715 18.665 25.333 25.333 0 0 0 19.12 6.924 25.825 25.825 0 0 0 18.898-7.552 25.836 25.836 0 0 0 7.56-18.724 24.84 24.84 0 0 0-7.371-18.723 24.955 24.955 0 0 0-19.024-6.991Zm.945 49.931c-14.93 0-20.347-14.48-20.284-25.652 0-16.539 10.205-21.907 18.016-21.907 14.489 0 19.969 13.544 19.969 25.901-.189 14.792-8.63 21.595-17.7 21.595v.063Zm78.554-48.495c.281.203.446.529.44.874.047.343-.069.689-.315.936h-1.826a4.548 4.548 0 0 0-3.78 1.81 73.479 73.479 0 0 0-1.008 15.104v8.55a25.8 25.8 0 0 1-5.354 17.913 19.375 19.375 0 0 1-14.426 5.492 20.922 20.922 0 0 1-14.111-4.182 21.162 21.162 0 0 1-5.921-17.725v-17.663c0-7.864 0-9.112-4.473-9.549h-1.952c-.441 0 0-1.56 0-1.81h18.709c.441 0 .567 1.498 0 1.81h-1.827c-4.347.375-4.473 1.623-4.473 9.487v16.29c0 12.482 3.78 20.159 15.308 20.159s15.118-8.613 15.181-20.035v-8.737a56.786 56.786 0 0 0-1.448-15.666 4.499 4.499 0 0 0-3.78-1.498h-1.89a1.302 1.302 0 0 1 0-1.81h16.505l.441.25Zm31.496 23.03c-.818 0-1.448-.374-1.448-1.123 4.56-1.447 7.678-5.617 7.748-10.361.183-3.999-2.078-7.716-5.733-9.424a29.585 29.585 0 0 0-12.598-2.122c-6.993 0-12.095 0-16.253.562a1.184 1.184 0 0 0-.504.936c.015.376.173.732.441.998h2.394c3.402 0 3.717 1.748 3.717 7.365v28.585c0 7.864 0 8.738-4.095 9.424h-1.386c-.441.5-.315 1.748 0 1.873h17.764c13.607 0 20.095-5.742 20.095-14.48.123-6.026-4.118-11.278-10.079-12.483l-.063.25Zm-16.126-18.287c0-1.373 0-1.747 1.071-1.935a11.559 11.559 0 0 1 9.575 1.498 11.848 11.848 0 0 1 5.291 8.176c0 7.178-4.157 9.425-11.905 9.737-3.843 0-3.906 0-3.906-2.185l-.126-15.291Zm7.433 43.127a7.217 7.217 0 0 1-5.921-2.122 14.367 14.367 0 0 1-1.386-8.301v-11.296c0-1.561.315-1.997 4.347-1.997 12.094 0 15.055 6.99 14.992 12.919 0 7.552-5.102 10.61-11.843 10.548l-.189.249Zm62.994-8.113a59.402 59.402 0 0 1-2.772 10.173H221.756a1.487 1.487 0 0 1 0-1.872h2.331c4.346-.375 4.472-1.561 4.472-9.425v-27.274c0-7.926 0-9.175-4.85-9.487h-1.89a1.487 1.487 0 0 1 0-1.872h19.15a1.487 1.487 0 0 1 0 1.935h-1.827c-4.409.312-4.598 1.56-4.598 9.486v26.026c0 4.744 0 6.679 1.575 8.114 1.574 1.436 2.267 1.81 8.252 1.872 5.984.063 8-.436 9.197-1.123a15.588 15.588 0 0 0 5.039-7.427c.567-.187 2.016.125 2.016.624l-.441.25Zm43.466 0a58.73 58.73 0 0 1-2.961 10.173H263.332c-.504 0-.63-1.435 0-1.872h2.52c4.283-.375 4.661-1.561 4.724-9.425v-27.212c0-7.864 0-8.987-4.598-9.486h-1.197c-.441-.312 0-1.685 0-1.873H287.9c3.399.188 6.806.188 10.205 0 .585 3.325.984 6.68 1.196 10.049a1.522 1.522 0 0 1-1.889 0c-1.134-3.683-1.827-6.241-5.733-7.24a40.692 40.692 0 0 0-7.307-.437h-5.481c-2.267 0-2.267 0-2.267 2.996v15.041c0 2.122 0 2.122 2.456 2.122h4.347c2.11.094 4.223-.053 6.299-.437.882 0 1.386-.749 1.827-2.621l.567-3.121c.378-.374 1.701-.374 1.953 0v14.855a1.459 1.459 0 0 1-2.016 0l-.63-2.871a3.375 3.375 0 0 0-2.331-2.934 29.767 29.767 0 0 0-5.669-.499h-4.41c-2.204 0-2.456 0-2.456 2.06v10.672c0 3.932 0 6.241 1.448 7.802 1.449 1.56 2.394 1.81 9.072 1.81a21.873 21.873 0 0 0 9.638-1.186 18.756 18.756 0 0 0 5.606-7.053 1.394 1.394 0 0 1 1.764.624l-.441.063ZM44.05 224.397a57.875 57.875 0 0 0-19.591-2.684c-7.56 0-14.867 0-22.426.687a1.307 1.307 0 0 0-.63 1.061c-.043.451.177.887.567 1.123l1.638.562c3.717.499 4.22 2.371 4.158 8.55v33.828c0 9.424 0 10.423-5.355 11.234H.332c-.504.562-.378 1.935 0 2.185h11.15c3.717 0 8.82.686 14.552.686a44.444 44.444 0 0 0 20.032-4.182c9.846-5.239 15.885-15.517 15.622-26.587.613-11.699-6.538-22.428-17.638-26.463Zm-16.315 54.361c-5.607 0-9.008-.936-10.961-3.682a17.214 17.214 0 0 1-1.764-9.674V232.51c0-3.994 0-6.241.945-6.803a20.076 20.076 0 0 1 9.197-1.185c23.37 0 28.095 16.601 28.095 26.4-.315 16.477-8.126 27.836-25.512 27.836Zm289.772-56.171h44.095c0 3.557-.63 8.425-.693 11.296 0 .812-1.826.625-2.267 0 0-2.246-.882-5.554-2.205-6.241a19.417 19.417 0 0 0-10.394-2.496h-6.3c-2.708 0-2.645 0-2.645 3.058v39.569c0 9.362 0 10.735 5.354 11.235h2.835c.567.312 0 1.997 0 2.184H320.908a1.246 1.246 0 0 1-.567-1.061 1.43 1.43 0 0 1 .567-1.123h3.15c5.103-.437 5.543-1.81 5.543-11.172v-39.632c0-2.809 0-2.809-2.708-2.809h-4.914a18.61 18.61 0 0 0-10.961 2.122 16.385 16.385 0 0 0-3.59 6.242c-.693.499-2.457 0-2.331-.625.693-4.056.819-6.927 1.323-10.485 3.842-.187 7.496-.249 11.15-.125l-.063.063Zm135.122 48.245a18.746 18.746 0 0 1-5.418 7.24 22.305 22.305 0 0 1-9.701 1.248c-6.677 0-8.252-.936-9.134-1.873-.882-.936-1.449-3.869-1.449-7.801v-10.673c0-1.934 0-2.059 2.52-2.059h4.409c1.943-.077 3.887.07 5.796.437a3.253 3.253 0 0 1 2.394 2.871l.63 2.933c.553.5 1.399.5 1.952 0v-14.854a1.523 1.523 0 0 0-1.89 0l-.692 3.12c0 1.873-.819 2.372-1.764 2.684a27.815 27.815 0 0 1-6.3.375h-4.346c-2.331 0-2.52 0-2.52-2.06v-15.291c0-2.871 0-2.934 2.331-2.934h5.165a35.757 35.757 0 0 1 7.308.437c3.905.999 4.598 3.558 5.732 7.178a1.46 1.46 0 0 0 1.827 0 89.16 89.16 0 0 0-.882-10.423h-33.261a1.427 1.427 0 0 0 0 1.935h1.26c4.41.499 4.536 1.685 4.536 9.486v27.15c0 7.864-.378 9.237-4.725 9.549l-2.961.312a8.24 8.24 0 0 1-5.228-1.311 82.266 82.266 0 0 1-15.182-20.096c0-.562-.693-1.311 0-1.81 5.44-1.842 9.188-6.793 9.449-12.483.201-4.459-2.268-8.617-6.299-10.61a27.37 27.37 0 0 0-12.599-2.247c-7.433 0-12.599 0-16.819.562a1.184 1.184 0 0 0-.504.936 1.24 1.24 0 0 0 .378.936h2.394c3.149.312 3.338 1.685 3.275 8.863v27.024c0 7.864 0 8.801-4.535 9.425h-1.89c-.441.561 0 1.747 0 1.872h18.457c.441 0 .63-1.498 0-1.872h-1.575c-4.409-.624-4.535-1.561-4.535-9.425v-8.862c0-1.56 0-1.623 3.59-1.623a5.312 5.312 0 0 1 5.355 2.372c2.331 3.37 5.417 8.55 7.37 11.421 5.355 7.552 8.945 9.487 15.371 9.487a34.799 34.799 0 0 0 4.346-.624h37.104a61.155 61.155 0 0 0 3.401-10.423 1.521 1.521 0 0 0-2.078-.562l-.063.063Zm-69.294-14.043c-3.842 0-4.913 0-5.165-.437-.252-.437 0-1.123 0-2.434v-17.725c0-2.06 0-2.372 4.976-2.372a11.21 11.21 0 0 1 8.693 3.121 11.175 11.175 0 0 1 3.339 8.55 10.746 10.746 0 0 1-3.78 9.237 12.683 12.683 0 0 1-7.937 1.997l-.126.063Zm116.602 14.667a61.128 61.128 0 0 1-3.402 10.423h-37.166c-.441 0-.63-1.436 0-1.873h2.583c4.346-.312 4.661-1.56 4.724-9.424V243.12c0-7.801 0-8.925-4.598-9.486h-1.197a1.61 1.61 0 0 1 0-1.935H494.267c.567 3.308.945 6.678 1.197 10.048a1.52 1.52 0 0 1-1.952 0c-1.134-3.62-1.764-6.241-5.67-7.177a36.585 36.585 0 0 0-7.37-.437h-5.544c-2.267 0-2.267 0-2.267 2.933v15.104c0 2.06 0 2.06 2.519 2.06h4.41a27.748 27.748 0 0 0 6.299-.375c.882 0 1.386-.811 1.827-2.683l.567-3.121a1.652 1.652 0 0 1 1.953 0v14.854c-.553.5-1.4.5-1.953 0l-.693-2.933a3.314 3.314 0 0 0-2.331-2.871 25.421 25.421 0 0 0-5.795-.437h-4.41c-2.267 0-2.519 0-2.519 2.06v10.672c0 3.932 0 6.241 1.448 7.802 1.449 1.56 2.457 1.872 9.072 1.872a21.407 21.407 0 0 0 9.701-1.248 17.928 17.928 0 0 0 5.354-7.24 1.402 1.402 0 0 1 1.064-.111c.355.106.652.348.826.673l-.063.312ZM154.289 319.077a11.962 11.962 0 0 0-8 3.307v-13.918h-8.63v1.561h2.205v32.08l-2.205.312v1.56h8.63v-1.31a10.723 10.723 0 0 0 6.299 1.81c7.56 0 11.843-4.869 11.843-13.294-.063-7.115-4.346-12.108-10.142-12.108Zm-2.457 23.467a8.999 8.999 0 0 1-5.543-2.122v-15.915a12.293 12.293 0 0 1 4.41-1.249c4.22 0 6.74 3.683 6.74 9.425 0 5.742-2.079 9.861-5.607 9.861Zm32.19-22.968h7.182v1.747l-2.016.375-9.953 24.154c-2.268 5.554-4.347 10.36-9.197 10.36a15.863 15.863 0 0 1-4.221-.437v-5.804h1.449l.945 2.184a3.04 3.04 0 0 0 2.079.624c2.96 0 4.913-4.431 6.299-7.364v-.624l-10.079-23.155-1.953-.437v-1.685h11.024v1.809l-2.142.375 6.3 15.229 6.299-15.354-2.205-.374.189-1.623Zm41.135-10.049h11.78v1.748l-2.394.312v30.582h2.394v1.81h-11.78v-1.498h2.52v-14.23h-15.055v13.918h2.33v1.81h-11.591v-1.498h2.331v-30.582l-2.331-.312v-1.747h11.591v1.747l-2.33.312v13.044h15.055v-13.356l-2.52-.312v-1.748Zm25.198 32.892 2.205.312v1.56h-10.52v-1.622h2.204v-21.221h-2.204v-1.56h8.63l-.315 22.531Zm-6.426-30.52a3.737 3.737 0 0 1 1.761-3.39 3.811 3.811 0 0 1 3.846-.105 3.613 3.613 0 0 1 1.89 3.308 3.785 3.785 0 0 1-1.008 2.871 3.735 3.735 0 0 1-2.709 1.186 3.48 3.48 0 0 1-2.772-1.124 3.726 3.726 0 0 1-1.008-2.746Zm22.3 30.52 2.205.312v1.56h-10.835v-1.622h2.142v-32.33h-2.142v-1.56h8.63v33.64Zm19.591-.811c1.152.126 2.314.126 3.465 0v1.685a25.392 25.392 0 0 1-8 1.56c-4.977 0-6.3-2.247-6.3-6.616v-16.352h-4.157v-2.309h4.661v-5.18l6.3-1.935v7.115h5.858v2.309h-5.858v14.73c0 3.807.819 4.993 4.22 4.993h-.189Zm17.828-22.843a12.66 12.66 0 0 0-9.638 3.619 12.417 12.417 0 0 0-3.654 9.612 11.166 11.166 0 0 0 3.043 9.577 11.398 11.398 0 0 0 9.556 3.342 12.666 12.666 0 0 0 9.575-3.432 12.417 12.417 0 0 0 3.716-9.487 11.79 11.79 0 0 0-3.179-9.532 12.025 12.025 0 0 0-9.419-3.699Zm0 24.216c-3.654 0-6.3-3.246-6.3-11.11 0-7.864 2.331-11.234 6.3-11.234 3.968 0 6.299 3.433 6.299 11.234 0 7.802-2.205 11.11-6.299 11.11Zm41.828-.687 2.204.312v1.561h-11.024v-1.623h2.142v-14.23c0-3.932-1.449-5.68-4.409-5.68-1.85.245-3.607.954-5.103 2.06v17.725l2.205.312v1.56h-10.898v-1.622h2.205v-21.096l-2.205-.312v-1.685h8.693v3.433a13.79 13.79 0 0 1 8.945-3.932c4.851 0 7.056 2.871 7.056 8.488l.189 14.729Zm2.078-33.016h6.867v1.498h-.567v-.812h-1.827v6.242h.756v.499h-3.213v-.499h.819v-6.242h-1.89v.812h-.63l-.315-1.498Zm16.127.624v6.241h.693v.5h-3.024v-.5h.693v-5.492l-2.709 6.241-2.645-6.241v5.367h.692v.5h-2.141v-.5h.693v-6.241h-.693v-.374h2.645l2.079 4.805 2.142-4.805h2.52v.499h-.945ZM355.933 96.638c.798 35.078-18.464 67.595-49.765 84.008a137.532 137.532 0 0 1-62.994 13.356c-18.142 0-36.284-2.247-46.174-2.247-11.843 0-24.253 0-37.797.749a5.517 5.517 0 0 1-.567-7.115l6.3-.811c16.441-2.247 21.103-5.555 21.166-35.201v-4.619a.93.93 0 0 0-.315.375c-.882.874-1.323 0-1.008 1.123.315 1.124.819 1.997.315 2.122-.504.125-.567.687-.819 0-.252-.686 0-.624-.504 0s-1.071 1.248-.945.375c.126-.874 1.575-1.561 0-1.373-1.575.187-1.26.686-1.323 0-.063-.687 1.26-1.498-.378-.999s-1.386 1.186-1.512.312c-.126-.874 0-.437 0-1.186 0-.749 0-1.061-.693-.686-.693.374-1.386-.375-1.008.499.378.874.504 1.061 0 1.685a.994.994 0 0 0-.315 1.061v.687c0 .499.945 1.31 0 1.31-.944 0-.944.375-1.007 0-.063-.374 0-.873-.378-.749-.378.125-.945 0-.63-.436.315-.437 1.071-.999.63-1.249a.763.763 0 0 0-.882 0c.02.3-.158.578-.441.687h-.693c-.315 0 0 0-.693.437h-.63c-1.008.437-1.071 0-.63-.437.441-.437.819 0 1.071-1.311s0-.374.315-1.186c.408-.487.85-.946 1.323-1.373.378-.374 1.071-.374.945-.811-.126-.437 0 0-.441-.624s-.315-1.373-.819-.749-.441 1.373-.693 1.373a.699.699 0 0 0-.63 0c-.378 0-.63.624-1.071.624h-1.512s.315-.624-.504-.687c-.819-.062-.882-.499-1.134 0-.252.5-.63.437-1.008.749s-.504 1.249-.63.625c-.126-.625 1.386-2.622 1.449-2.996.063-.375-.567-.874-.756-.562-.189.312 0 .749-.756.749-.755 0-.755 0-1.007.687-.252.686-.504 1.622-.945 1.622-.441 0 0-.312 0-1.061v-1.186c0-.624.504-1.061-.378-.749-.882.312-1.071-.374-1.197.375-.126.749 1.134 0 0 1.123-1.134 1.124-1.134.437-1.008.937.126.499 1.323-.313 1.134.436-.189.749 0 .749-.693.625-.693-.125 0-.812-.504 0-.504.811 0 .748-.693.748H156.432c-.756 0-.63 0-.756-.624s.756-.437 0-.561a3.493 3.493 0 0 0-2.394 0c-.315 0 .441 0 0 .873-.441.874 0 1.498-1.071.937-1.071-.562-.693-.812-.945-.812a.868.868 0 0 0 0-1.186c-.882-.998-.378-.998-.882-.998s-.504-.499-1.008-.499h-.441l-1.701.811c-.378 0 0-.936 0-1.685s0-.936-.567-1.373c-.566-.437-.629-.687 0-1.061.63-.375 1.197-.749.882-1.436a.88.88 0 0 0-.567-.562.953.953 0 0 0-.818 0c-.441.375-.693 0-1.134 0-.441 0-.441 1.686-.693.749-.252-.936-.315-.749-.315-1.31v-.999c0-.312-.756-.749-1.008-.499-.252.249-1.008.499-.567 1.248.441.749.693.936.378 1.186-.315.25-.693 0-.819.562-.126.561 0 0 0 .749s.567.686 0 .686-1.134-.374-1.575 0c-.441.375 0 .811-.63.811h-.378c-.378 0 0 .437-1.008.749s-1.071 0-1.512.312c-.441.313 0 .375-.504.749-.503.375-.881 0-.944.437-.063.437.755 0 0 .874a2.526 2.526 0 0 1-1.323.749s.882-1.748.504-1.872c-.378-.125 0-.687-.693-.687s0-.562-1.008 0-.63.312-.63.749.378.562-.504.562h-1.071c-.378 0 .693-.624.945-1.124.252-.499.819 0 0-1.31-.819-1.311 0-1.436-.63-1.061-.63.374-1.197 1.061-1.26.374-.063-.686 0-.874 0-1.373.071-.331.199-.648.378-.936 0 0 1.197 0 1.449-1.061s.567-.499 0-1.186c-.567-.686 0-1.311-.63-.999-.63.313-.567.562-.819 1.061-.252.5 1.008.5-.819.625-1.827.124-1.386.749-1.701 0-.315-.749.441-1.061.441-1.498 0-.437 1.008-.937 1.008-2.31v-2.246c0-1.061-1.008-1.498-.378-1.498s.567.437.945.499h.819c.315 0 .567.936 1.197 0 .63-.936.882 0 .504-1.56-.378-1.561-.63-1.561 0-1.685.63-.125.504 0 .882 0s0 .998.756 0c.756-.999 0-1.436.441-.999.441.437 0 .562.441.374.441-.187 1.7-.624 1.386-1.061-.315-.437-.945 0-1.827 0a2.352 2.352 0 0 0-1.575 0c0 .312.378-1.185.756-2.122.251-.504.381-1.06.378-1.622 0-.812 0-.812.315-1.061.315-.25 0-1.249 0-1.873 0-.624.441-1.061 0-.437-.441.624 0-.374-1.323.937-1.323 1.31 0 1.685-1.449 1.685s-1.197-.874-2.079-.437c-.882.437-.945.749-1.449.811-.504.063-1.764.562-.504.687 1.26.124 1.638 0 2.016.437.378.436-1.008.312-.819.936.189.624 1.512.874.378 1.123a2.475 2.475 0 0 1-1.386 0c-.693 0-.567-.936-1.008 0-.441.936-.567 1.061-.881 1.124-.315.062-.63 0-.882 0s.378 1.061-.567.873c-.945-.187-.567.625-.945.812-.378.187-.504-.5-.819-1.061-.315-.562 0-.812-.945-.624-.945.187-1.134 0-.819-.749.315-.749.819-2.122.378-2.372l-1.701.562-.504-.5.378-.624v-.437l-.693-.873h1.071v-1.061s.756-.375.756-.687c0-.312.504-.811.504-.999a3.11 3.11 0 0 0-1.197 2.247 7.487 7.487 0 0 0-1.197 1.249l-.441-.437-.504.873-.504.625h-.756v-1.623l.882-.562v-.936l.693-.687s0-1.248.315-1.56c.239-.348.429-.726.567-1.123 0-.375 1.134-.437 1.134-.437v-.562l-.189-.624c-.651.253-1.327.441-2.016.562-.504 0-.378-.749 0-.874h-.945l-.441-.936h.567s-1.134-.749-1.134-1.124c0-.374 1.449-.749 1.449-.749v-.374c.112-.194.262-.364.441-.499 0 0 .504-.375 0-.313-.504.063 0-.686 0-1.061 0-.374.504-.499 0-1.061-.504-.561 0-.624 0-1.185 0-.562 0-.812-.756-.937a5.724 5.724 0 0 1-1.385-.374h-1.512c-.882 0 0-.437.441-.687.441-.249 0 0 .504-.624s.693-.936 0-1.498c-.693-.561-1.071.687-1.764 0-.693-.686 1.323-.998 1.89-1.185.566-.188.441-.75-.693-.75s-.315-.311.504-.686c.818-.375.756 0 1.763 0 1.008 0 .441.811 1.197 1.248.756.437.441-2.06 1.008-.873.567 1.185.819.873 1.764.748.945-.124.315-.873.945-1.934.63-1.061-.504-.437-1.134-.312-.63.124-.819-.375-1.323-.75-.504-.374 0-.374 0-.873V94.89c0-.75.378-.562.882-.999.504-.437 0-.686-.504-.437-.504.25-.378 0-1.323-.312s-.441 0-.315.437 0 .686-.693 1.31c-.693.625-.756 0-.945.75-.189.748-.378.374-.818 0a1.08 1.08 0 0 0-.945 0c-.032-.5-.032-1 0-1.498 0-.75 0-.75-.315-.75s-.693.687-.693 1c0 .311-1.134 0-1.134 0a3.686 3.686 0 0 0-1.134 0c-.504 0 .315-.625.567-.812a5.38 5.38 0 0 0 1.323-1.623c.378-.749-1.449 0-1.449 0a1.111 1.111 0 0 1 0-.998c.112-.409.304-.79.567-1.124a.949.949 0 0 1-.945-.374c0-.437.315-.75.504-1.248.189-.5.63-.687 1.008-1.249.378-.561-.378-.5-.504-.998-.013-.351.125-.691.378-.937 0 0 .693-1.06 1.134-1.622.441-.562 0-.687.315-1.623.315-.936 0-.687.567 0 .567.686 0 .936 0 1.685 0 .75.315 1.061.819 1.124.503.062.314 0 .818.436.504.437.504 0 1.071-.624s.567-.374.693 0c.126.375 0 .75.378 1.373.378.624 0 .5 0 .812v1.06c0 .438.819 0 .882-.374.063-.374.567-.936.819-1.31.292-.397.426-.885.378-1.373 0-.562.378-.687.378-.874 0-.188.504-.624.504-.624l.693 1.498h.882v-.687a3.093 3.093 0 0 1 0-1.685v-.812c0-.25.819.5 1.071.75.4.382.903.642 1.449.748.315 0 1.07.75 1.322 1.061.252.313.819.999 1.071.937.252-.063 0-.75 0-1.124a1.115 1.115 0 0 1 0-1.31c.28-.287.668-.446 1.071-.437l.945-.75.693-1.06v-.375h-1.323l-.819-.686-.567-.375 1.323-.562v-.312h.756a1.37 1.37 0 0 0-.567-.749.87.87 0 0 1 0-.749c0-.374.819-.748.882-1.248.063-.5 0-.624.378-.624s0 .624.567.999c.567.374.504 1.06.378 1.31s.378.75.756.75h1.512l.693.436-.504.75v.498l.63.937-.567.436v2.123l1.827.81v.438h1.07v.374l.441.375c0 .686 0 1.498.378 1.435a.875.875 0 0 0 .756-.936c0-.437.567-.562.315-1.123-.252-.562 0-.5.567-.5a1.77 1.77 0 0 0 1.071-.437s.567.437.819 0c.252-.436.315-.686.504-.998h.504l.315.686.819.313.378-.313h.378v-.811l.504.687h.189v.686c0 .562.63 1.124.945 1.061a9.275 9.275 0 0 1 1.259-.312c.315 0 .315-.5.315-.874.064-.431.237-.84.504-1.186a1.18 1.18 0 0 0 .441-1.06v-.375h-1.638c-.188 0-.503 1.061-.503 1.061.093-.39.093-.796 0-1.186 0 0-.693-.374-.693-.686v-.999l-1.134 1.248a1.013 1.013 0 0 1-.882.375V79.1c0-.25.693-.312.504-.5-.189-.186-.63-.498-.378-.686a.744.744 0 0 0 0-.873 3.548 3.548 0 0 1 0-.874l-.315-.624-.693 1.31a1.198 1.198 0 0 1-.756.437s-.567 0-.567.437c.001.376-.188.727-.504.936-.361.16-.773.16-1.134 0h-.882c-.126 0 .567-.499.63-.749.063-.25-.378 0-.315-.436.063-.437.882-.313 1.008-.562.126-.25-.441 0 0-.5l.441-.998.315-.999-.819.312s-1.197 0-1.323.437c-.126.437-1.197.874-1.386.75-.189-.126 0-.563 0-.812 0-.25-.882 0-.567-.75.315-.748.567-.81.315-1.06-.252-.25 0-.624 0-.624l-1.763.561-.63-.561.378-.812.945-.436a6.193 6.193 0 0 1 .566-1.998s.882 1.186 1.323 1.373c.441.188 1.386 1.186 1.386.624V68.74c0-.25 1.008 1.747 1.449 1.747.441 0 1.008.937 1.638 1.061.63.125 1.008-.686 1.323-1.123.315-.437 1.26-.624 1.26-.936 0-.312-1.575-.874-1.134-1.249.441-.374 1.134-.998.693-1.185-.441-.188 0-.75.315-1.186.315-.437-.315-.936-.63-.812-.315.125-1.008 1.686-1.197 2.247-.189.562-1.449 1.186-1.827.936a.814.814 0 0 1-.441-.561.872.872 0 0 1 .315-.687c.504-.562.441-1.435 0-1.435a5.582 5.582 0 0 0-2.205.624 1.524 1.524 0 0 1-1.764 0s.378-1.061.756-1.31c.378-.25 0-1 0-1.436a15.355 15.355 0 0 1 1.764-1.249c.441-.374 0-1.622 0-1.56 0 .063-1.638.375-1.638 0 0-.374.819-.312 1.008-.749.189-.437 0-1.248.756-1.56.756-.312 1.512 0 1.89-.375.378-.374 0-1.498.441-1.872.441-.374 1.638-1.623 1.071-1.685-.567-.063-1.386 0-1.26-.5.126-.499-.756-.561-.882-.748-.126-.188 1.512-1.311 1.071-1.498-.441-.188-1.323 0-1.197-.375.126-.374.756-1.06.441-1.31s-1.701.936-1.764 0c-.063-.937 1.134-1.56.819-2.123-.315-.561-1.764-.624-1.764-.624l2.079-2.309-.819-1.373 1.323-.437c.224-.39.551-.714.945-.936.52-.275.76-.884.567-1.435 0-.375.504-.937.567-1.374.063-.437-2.205 0-2.205-.561 0-.562 3.276-1.311 3.276-1.311l-.693-1.435h1.575c.321-.483.615-.984.882-1.498 0 0 0 1.997.503 2.184.504.187 1.134-.437 1.197-.998a6.548 6.548 0 0 0-.756-2.684 3.59 3.59 0 0 1 0-2.684c.315-.437 1.008 1.248 1.134.936.126-.312.441-1.498.945-1.31.504.187.945 1.872.945 1.872h1.701c.315 0-1.386 2.06-1.638 2.809-.252.748 0 2.309.819 2.371.819.063.378 1.685.756 1.873.378.187 1.512 1.435 2.016 1.123.504-.312 1.386 0 1.323-.374-.063-.375-.945-1.311-.882-1.873a3.15 3.15 0 0 0 0-1.373l.567-1.061h-1.512v-1.061h-1.008a2.532 2.532 0 0 0 1.134-.624c.378 0 1.071-1.31 1.386-1.31h1.89a10.72 10.72 0 0 1 2.834-.875c.441 0 3.15.562 3.15.562l-.504-1.06-1.89-1.124-2.709-.812.63-1.935s-.756-.936-1.323 0c-.566.937-1.826 1.124-1.637.313.189-.812.756-.999 1.512-1.686.755-.686.629-1.747 1.196-2.122.567-.374 0 .562.882.625.882.062 2.457 0 2.142-.874-.315-.874-.693-1.935-1.638-1.498-.945.437-1.512.998-1.575.374-.063-.624.693-1.31 0-1.498-.693-.187-.756 1.498-1.448.687-.693-.811 1.889-1.186 2.267-2.31.378-1.123 1.26 0 1.89-.686.63-.686.945-.998.504-1.31h-1.008c-1.008 0-.63 0-.567-.5.063-.5 0 0 .567 0s0 0 .315-.998c.315-.999.378 0 1.449-.625 1.071-.624.504 0 1.323 0s.315-.436 0-.936c0 0 0-.374-.504 0-.504.375-.441 0-.504 0a1.017 1.017 0 0 1-.63 0c-.756 0-.378 0-.441-.624s0-.624-.378-.437a1.018 1.018 0 0 1-.567 0 .748.748 0 0 1 0-.561c0-.437 0-.313 1.197-.937 1.197-.624.819.375 1.197 0 .378-.374 0-.873 0-1.373v-.873a4.34 4.34 0 0 0-.693-1.436c-.504-.811 0-.374.945-.312h1.827c.945 0 .441.749 1.386.936.945.187.819-.749.756 0-.063.75.315.562 1.322.375 1.008-.188 1.134 2.371 2.142 2.434 1.008.062 1.008-.624.756-1.061-.252-.437.378-.75.882-1.373.504-.624.567.998 1.197.749.63-.25 0-1.498.693-1.249.693.25 0-.686.819-1.622.819-.937.945.624 1.26.749.315.124-.315.873.567.936.882.062.567-.624.819-.75.252-.124.504-1.684 1.322-1.996.819-.312.567-.562 1.26 0 .693.561.567.686.945 1.06.378.375 0 0 1.134-.311 1.134-.313 1.197 1.123 1.701 1.185a1.711 1.711 0 0 0 1.575-.499c.504 0 0 0-.756-.686-.756-.687-1.008-.75 0-1.061 1.008-.313 1.197 0 .567-1.374-.63-1.373 0-.561 1.008-1.06 1.008-.5.315 0 1.134.499s1.322-.812 1.322 0c0 .811 0 .749.882.749s0 .686-.693 1.622c-.693.937 0 1.061.882 1.061s.504.687.882 1.124c.378.437.945 0 1.638 0s0-.999.441-1.436c.441-.437.756 0 1.512 0a1.27 1.27 0 0 0 1.039.053c.338-.131.602-.4.725-.74.504-.998-1.323 0-1.323 0a1.24 1.24 0 0 0 0-1.06c0-.687 0-.437.504-.75.504-.311 0 0 .378-.56.378-.563.882-.875 1.26-1.25.378-.374.504 1.686 1.008 1.499.504-.187 1.259.562 1.007 1.06-.252.5-1.007.812-1.133 1.311-.05.607.349 1.161.944 1.311.882 0 .315-.624 2.394 0s2.394 1.935 2.583.5c.062-.873.062-1.75 0-2.622 0-.811.693-.811.819-.437.126.375 0 1.685.378 1.186.378-.5.756-1.56 1.008-1.373a.884.884 0 0 1 .63.437.87.87 0 0 1 0 .686c0 .937 0 1.81.63 1.686.63-.125.567-1.061 1.071-1.686.504-.624.504 0 1.07-.811.567-.811.567 0 .819-.5.252-.499.378 0 .882-.499s1.449.687 1.071-.686c-.378-1.373-.693-.5 0-1.061.693-.562.693-.936.882-1.248.189-.312.63-.5.819.374a6.725 6.725 0 0 1 0 2.247c0 .874 0 1.56.441 0s1.197-.687 1.512-.687c.315 0 .441.562.882.562s0-.562.504-.562h1.008c1.008 0 0 .625 0 .625.185.053.381.053.567 0a2.7 2.7 0 0 0 2.015-1.748c.315-.374 1.89-2.184 1.953-.687.063 1.498.945 1.311 1.575 1.748.63.437 1.071.874.756 1.248-.315.375 0 .375 0 .562h12.095a175.174 175.174 0 0 1 62.049 8.613c38.237 13.98 57.387 46.185 57.324 83.383h.063ZM161.534 12.943h-.504c-.378 0-.063 0 0 0h.504Zm-19.78 46.31a3.337 3.337 0 0 1 0-.811 1.253 1.253 0 0 1 0-.312.631.631 0 0 0-.504.312v.374a.806.806 0 0 0 0 .75v.935a.747.747 0 0 0 0-1.06l.504-.188Zm-23.497 46.685s-.378.624 0 .437c.378-.188 1.449-.375 0-.437Zm14.552 34.763c-.315-.312 0 0-.63-.436-.63-.437.378 1.373.63.436Zm1.197.437s-.378 1.061 0 .687c.378-.375 0-.499 0-.687Zm92.349-88.626c0-.436 0-2.434-.882-.436 0 0-1.197-2.31-1.575-.75 0 0 1.008.687 0 .313v.374c0 .375 0 0 .378.999 1.26 0 2.016-.999 1.827 1.56.63 0 0 0 1.26-.811 1.26-.812.315.624 1.008.561 1.511-.998-1.386-1.06-1.008-2.62 0 0-.63.436-1.008.81Zm3.59 6.803s0-1.622.945-.374c.567-.437 0-1.935-1.008 0 .126-.063 0-.063.063.374Zm10.268-27.648c0 .873-1.196-.687-1.511 1.373 0 0-.378 0-.756.437s-1.008.873 0 1.747c0-.437 1.008-1.81 1.637 0a1.776 1.776 0 0 0-.881 0s.693.5.881.75h.378v-.5l.441.811c.378 0 0-.437.378-1.622h.756c.378 0 2.016-3.433 0-1.686-.504 0 .567-1.06 0-1.81 0 0 0-1.31-.882-.499v-.811c0-.812-.504 0-.504.811v.624l.063.375Zm1.575 0-.378-.812s0 1.186.378.812Zm6.678 5.68-.567.623a1.145 1.145 0 0 0-.63 0h.693l.504.437c.504.437.441-.437 0-1.498 1.574-.062-1.764-1.123 0 .562v-.125Zm3.464-4.682h-.378c.076.39.249.755.504 1.061l.378-.437s0-.437-.756-.499l.252-.125Zm0-1.872.441.437c.63.437-.441-1.373-.441-.437Zm2.835 74.895h-.945v.874h-.504s.693 1.56 1.827 0c.061.246.061.503 0 .749.819-.5 1.386-.312 2.079-1.748 0 0-.378-.312-1.26 0v-.437c0-.437 0 0-.567 0s.63.749-.63.812v-.25Zm1.953-57.045c-1.512 1.747-1.26-.624 0 0-.378-1.31 1.008 0 0 0Zm1.512-.874h.882c.881 0 0 0 0-.5 0-.498 0 0 .315 0v.375l.755-.437c.756-.437 0 0-.692.437.503 1.685 2.456 1.248 2.393-.998-.378 0-.63.561-1.197-.437a.371.371 0 0 0-.066-.489.38.38 0 0 0-.497 0 .372.372 0 0 0-.067.489v.374a1.795 1.795 0 0 0-.377-.998c-1.449.998-.693.811-1.449 2.184Zm2.015-8.8-.377-.375v.437s-.567 0 0 .625c.566.624-.252.25.44-.687h-.063Zm.189-2.871s0 .5-.818 0c-.693.811.189 1.31.881 0h-.063Zm1.386 4.619c-.504.436.315.624 0 1.934l.441.437c.441.437.315 0 .504-.811.189-.812 0-1.373-.945-1.997v.437Zm.945-1.124a.31.31 0 0 0 0 .312v.437c.174 0 .315-.14.315-.312v.5l-.315-.937Zm.567 22.281c-.441 0 0 1.124.63 0h-.693c-.693 0 0 .25.063.25v-.25Zm4.158 1.623h-.756a2.965 2.965 0 0 0 0 1.685c.378 0 .441 0 .378-.874-.063-.873.441 0 0-.499l.378-.312Zm.63 2.247s0 .562.693.312h.441v-.749c0-.749 0 0-.945.374l-.189.063Zm0-1.748v-.499s.378.25.189.749l-.189-.25Zm-.315 8.676c0 .624.378 0 .441 1.623l.315-.375c.014.103.014.209 0 .312-.504 1.124 0 1.186 1.008 2.621.567 0 0-.936.818-1.872 0 0-.818-.874-1.07.5-.378 0 0-.375-.567-1.561s0-.874-.63-1.436l-.315.188Zm2.079-6.242c0 .375 0 0 .629.625.174-.308.281-.648.315-.999v.437c0-.375-.315-.437-.566-.562v.874l-.378-.375Zm0 2.622c-.097.283-.097.59 0 .874v-.375.624s.692-.437.944.437c.504-.374.567 0 0-1.248 0 0 0-1.061-.566 0l-.126-.25v.437l-.252-.5Zm2.645 4.743h-.819l.63 1.061v.312-.936s0-.686-.945-1.685-.315.874 0 1.06l1.134.188Zm.567-5.18s-.315 0-.756.686c.441.313 1.701 0 .756-1.31v.624Zm.945 13.543h-.315c.055.29.055.585 0 .874.63 0 .882 0 1.071-1.81l.504-.686h-.315s-.63 0-.693.749v.374c0 .375.378 0 0 .687l-.252-.188Zm0-6.24c.378.686-.126-1.062 0 .623v-.624Zm1.953-3.246v.187c-.378 0 0 0-.756.437.378 0 0 0 .441.562.441.561 0 0 0-.625l.315-.561Zm-.882 1.248v.562h.378c.504 0 2.205.998.945-.562h-.567s0-.874-.504 0h-.252Zm1.701-1.248v.437-.375c0-.374 0-.374-.63-1.498v.687c0 .686.63 0 .567.749h.063Zm-.441 9.486c-.378 0 1.512 1.56.945 0h-.945Zm-.441-4.993a1.12 1.12 0 0 0-.504 1.124c.315 0 0 0 .441-.562s.441.437.063.063v-.625Zm-2.205 21.845v.811-.437l-.378.5c-.378.499 0-.874-.882-.687.036.165.036.335 0 .5h-.441a.62.62 0 0 0 0 .436s-.378-.624-1.26-1.186v.437c0 .063 1.26.687 1.575 1.81.315 1.124 0 1.498 0 3.183l.378-.561c.378-.562.378 0 .504-.312.126-.313 0 0 0 .624 0 .312 0 .624 0 0v.561-.312h.441c0-.686 1.008 0 .882-1.061h.378c.245-.176.441-.413.567-.686 0 .374 0 .312.63 1.123v-2.184c.03-.291.03-.584 0-.874v-.936l-.378-.375a.843.843 0 0 1 1.165-.218.826.826 0 0 1 .221 1.155v.436c0 .437-.378 0-.441-1.06-.063-1.062 0 0-.441 0s0 0 0-.313a.925.925 0 0 0 0 .812s-.693.811-1.323 0l-1.197-1.186Zm.504-1.873c0 .375 1.071-1.123.567-1.685 0 0-1.575 1.498-.252 2.31l-.315-.624Zm2.268 0c.504 0 0-.686 0-.686s-.378.874 0 .687Zm1.764 18.1-.441.687c-.441.686.315.624 1.134 0 .054.246.054.502 0 .749.136-.374.351-.714.63-.999v.312c0 .312 0-1.623-1.197-.686 1.512-.063-.126-1.186.189.374l-.315-.437Zm.693-9.674s-1.449.999 0 .999a.741.741 0 0 0-.066.672.754.754 0 0 0 .507.451v-.437c0-.437.756 0 0-.936a.62.62 0 0 1 0 .437l-.504-1.123.063-.063Zm2.267 13.793c-.504 3.059 2.772-2.434-.315 0h.315Zm-.441 6.866a.753.753 0 0 0-.692.499l.441.312a.443.443 0 0 0 .44 0v-.499l-.189-.312Zm-1.07-7.303c.504 0 0-.624 0-.624s-.693.749 0 .562v.062Zm0-.811c.63 0 0-.686 0-.686s-.756.686 0 .686Zm-1.071 4.182v-.562l-1.071.312v-1.747s-.441 0 0 .998c.441.999-1.449 0-.693.749v1.061c0 .749-.378 0-.63.437s0 .936.945.811c0 0-.567 0-.882.874-.378-.499-1.575-2.434-1.449 0 0-.437 0-.499-1.26-1.061.315.437-1.386.499-1.008 1.061.378.562.504 1.685 1.134 0 0 .375 0 .375.945.812 0 0-2.52-.375-1.071.748l.441-.374v.312a.316.316 0 0 0 .315 0v1.186c.378 0 0 0 .63-.749s0 0 .63-.562c0 0 .504 0 .441-.499s2.961-1.498 1.26-.999a.611.611 0 0 0 0 .312.494.494 0 0 0 0-.437h.378v.313h.315c0-.437.819-1.061-.315-.999 0-.312 2.331 0 1.26-1.436l-.315-.561Zm-4.599 9.237h.945v-1.748c0-1.061 0 1.311-1.197.936-1.197-.374.189 4.744.252.812Zm-2.772.749c2.646-1.311-.881-2.497-1.133-.624-2.961-2.871 0 3.432.503 0l.63.624Zm0 2.434-.441 1.435s.819 0 .819-1.185a.309.309 0 0 0-.063-.437.316.316 0 0 0-.441.062l.126.125Zm-2.267-1.623s.693-1.498-.693-.998c0 .062.504.124.567.873l.126.125Zm-1.449-3.245c1.764 0 1.764-.812 0-2.622v-.374c-1.197 0 .756 2.184-1.26 1.81v.624s-1.827.437-.63 1.935c.378-.437.315 0 .63-1.248 0 0 0 1.123.756.998s.063-.624.378-1.248l.126.125Zm-2.646 6.241c-.378 1.435 2.457-.687.567-.874.504-.686.504-.686.441-.811s0 .374-1.197.562c0 0 0-.687-.441-.313-.504.437.756.625.63 1.436Zm-6.299-.749c.693.312.819.499.819.687 0 .187 2.771 0 2.582-1.561l-.819.437c-.819.437.378-.749-.63-.562-1.7.312-.692-1.81-2.771-2.184-.378 0-.315-.687-1.386 0v.499c0 .5-.441.687-1.764 0 0 0-.504 0-.441.624s0 0-.756.5a2.727 2.727 0 0 0-.945 0v.312c1.512.811 2.268-.437 4.599.811.38.016.759.057 1.134.125l.378.312Zm0 6.741a.502.502 0 0 0-.504-.437h-.441s.441.561.63.624a.437.437 0 0 1 0 .437.743.743 0 0 0 0-.749l.315.125Zm-2.52-6.242a1.012 1.012 0 0 0-1.449-.374v.312l.504.499c.504.499 0 0 .378 0h.504l.063-.437Zm-.441 3.121v1.311a.748.748 0 0 0 0-1.311Zm.819 3.62v.499V142.137a.947.947 0 0 1-.567.374l.567.063Zm-6.867-8.676c.315 0 1.89 0 2.079-1.248h-.315s-.693.375-1.701.5c0 0 2.079-.5 1.197-1.498 0 .624-.504.312-1.448 1.498 0 0-1.449 1.373 0 .998a.444.444 0 0 1 .377 0l-.189-.25Zm-1.322-16.788s1.259-1.374 0-2.247v.686c0 .063.441 0 0 1.561Zm0 14.666c0-.561 0 0-.756-1.248 0 0-1.197.687.378.999a.45.45 0 0 0 .315 0l.063.249Zm-3.528-12.482.693-.375h-.441c-.378 0-.63.375-1.386 0a.955.955 0 0 1 .819 0c.228.056.465.056.693 0 0 0 0-.436.315-.561.315-.125 0 0-.441-.312s0 0-.819 0 0-.5.693-.312c.693.187.63-.562-.504-.562l.504-.499h.504a1.433 1.433 0 0 1 0-.625.872.872 0 0 0 .378-.499s-.315 0-1.071.624-.693.687-1.449.375h-.693c-.189 0 .504 1.373 0 .811-.504-.562-.882.375-2.016.687.378 0 1.512 1.56.378 1.186 0-.313-.945 0-1.323 0 0 .374-1.007 2.371.819 1.934v.375c.272-.036.548-.036.819 0 0 .312.567 0 0 .998.693.749.882-1.435 1.449-.374 0 0 .63 0 1.071-.312l-1.197-2.809h.504c.504 0 0-.312 1.575-.312h-1.008l1.134.562Zm-.756 17.788s.945-.812-.567-.937c0-.374 0-.749-.756 0 0 0-.567 0-.882.624l.378-.374c.378-.374 0 .874 0 .874s0-.312.378-.624 0 .499.63.873v.562c.315-.312.126-.312-.126-1.186l.945.188Zm-.63-9.612c.378 0 0-.936 0-.936s-.693.874 0 .936Zm1.008 7.864c-1.197-.999-.567 1.623-.945-.125l.945.125Zm-2.772-6.241c-.378.374 0 0-.504 1.56.378-.499 0 0 .504-1.435v-.125Zm0 6.241s-.756.25-1.071-.125l1.071.125Zm-3.401-10.048h.756c.755 0 1.07-1.249 0-.812-.252-.312-.189 0-.756.812Zm.441-2.247c0 .374.944-2.247 0-1.124-.063-.187-.63.437 0 .874v.25Zm.692 8.051c.315 0 .378-.874 0-.874-.377 0-.377.812 0 .874Zm-1.448 6.304c.378 0 0 0 0-.5 0 0-.756.437-.504 1.685.504 0 0 0 .378-.873l.126-.312Zm.378-40.631a5.565 5.565 0 0 0-.756-1.248c-.378 0 0 2.933.819 1.248h-.063Zm-1.512 24.965c.378 0 .378-2.621-1.386-1.123 0 0-.693-.874-.882 0 0 0 .693.811 1.323 0 0 0-.063 1.435.756 1.185l.189-.062Zm-.693 12.982h-.504l-.378.437a.38.38 0 0 1-.441 0c-.504 0-.756 0-.441.686.315.687-1.449-.499-1.386.437.063.936 1.701 0 1.134 1.124v.312c0 .312.441-.312.693-.687a6.961 6.961 0 0 0 0 .936 1.671 1.671 0 0 0-.378.749c1.764 0 0-2.122 1.512-3.807l.189-.187Zm-.378 5.555s-.441.936 0 .624c.441-.312 0-.562 0-.624Zm-1.071-1.311s0 .437.756 1.311c-.315-.625-.378-.25-1.197-1.249l.441-.062Zm-3.087-3.308a1.984 1.984 0 0 0 0 2.122c.441-.686 0 0 0-1.935v-.187Zm.315-1.248c.191-.283.32-.602.378-.936h-.441c-.441 0-.378.436-.504.811-.126.374 0-.375-.693 0-.693.374 0 0 .756.874l.504-.437v-.312Zm-1.575-38.946c2.268 1.186-.441-3.557-1.008-1.123 0 0-.503 1.186.63.686.378 0 .378 0 .378.5v-.063Zm-1.385-6.927c0-.812 1.637 0 1.259-1.873 0 0 0-.5.945-.749a10.695 10.695 0 0 0-3.086-2.184v.437c-.567 0-.504-.874-1.953-1.186.504 0 0 1.373 1.26 1.31 0 0 .315 0 .504.437h-1.071l-1.008.624c-1.008.625 1.701.874.882 2.185 0 0 0 .624 1.764.624l.504.374Zm-.567 42.19c-.504-.312 0 .562 0 .562s.504 0 0-.562Zm-2.772 4.12.378.561c.378.562 0 0 .504 0l.567-.624-.315-.624a.373.373 0 0 0 0-.374h-.693c-.693 0 .315-1.311-.567-1.061-.882.249 0 0 0 .873h-.378l-.315.937c-.315.936 0 0 .315.624s0-.562.441-.749c.441-.187 0 .312 0 .374l.063.063Zm-1.323.187c.504 0 0-.687 0-.687s-.567.874 0 .687Zm.441-13.856s.315-.374 0-.499-2.835-1.685-2.205 0c.315 0 0 0 .567-.374a.622.622 0 0 1-.315.499s-.567.749-.504.998v1.186c0 .687 0-1.56 1.071-2.559l1.386.749Zm-3.843 22.843a.863.863 0 0 0 0-.873v-.312 1.185Zm-.378-29.209v.687c1.26-2.06 2.205-2.06 4.977-2.746h-1.827l.378-.375s0-.437-1.008 0a3.777 3.777 0 0 1 0-.499l.567-.437c-.63 0-.819 0-1.26-1.248 0 0 .441 0 .504-.624h-1.071a1.58 1.58 0 0 1-1.134.436s.504 0 0-.624 0-.312 0-.374h-.504c0 .624 0 0-1.323 1.435l-.755.624h.378c.377 0 0 0-.567.437s-.378 0 0 .562c.37.212.826.212 1.196 0v1.311h-.314c0 .561 1.007 0 0 1.123l.314.375v.811l.504-.374.63-.375c.63-.374.315-.25.315-.125Zm-1.952-1.123c-.378 0-1.134.936-.567.499.567-.437-.126.063.63-.499h-.063Zm-2.52-47.06-.63-.436v-.375s-.819 0 0 .75a1.549 1.549 0 0 0 0 .499c.378 0 0 0 .756-.437h-.126Zm-.441 33.704v.436s.945.749 0-.436Zm.756-30.458a1.92 1.92 0 0 0 0-1.123v1.123Zm0-31.955a.871.871 0 0 0-.378-.749v-.5l-1.071.562s1.26.687 1.953.999l-.504-.312Zm4.157 54.549-.819-.75c.441 0-1.448-1.248-.504 0 .945 1.249 0 .5.315 1.186 0 0 .504.375 1.008-.436Zm-.693 12.482s0 .437.504 0-.252-.437-.504-.062v.062Zm-1.448-26.775s0-.312-.693-.811l-.567.374v-.312s.315 0 .378-.687c.063-.686 0 0-.693.375-.01.166-.01.333 0 .5a1.485 1.485 0 0 0 0 .748h.315l.504.624c-.63-.374 0 3.183 0 0 .819-.312.63-.187.756-.873v.062Zm-.378-11.92c-.441-.563-.882 1.06.378 1.372 0 0-.441 0 0 1.061l.755-.374a1.55 1.55 0 0 1 0-1.436s-.818 0-1.133-.686v.062Zm.693 5.18c.377 0 1.385-.687 0-1.124v1.124h-.567v1.248c.378-.25.441-.063.567-1.31v.062Zm1.07-3.683-.504-.437c-.503-.437-.315-.624-.503-.686-.189-.063 0 .312 0 1.186h.377v.624a.632.632 0 0 0 .497-.225.616.616 0 0 0 .133-.524v.062Zm.126-30.52h-.504s.504.437 1.071.874c0-.5 0 0-.441-1.248l-.126.374Zm-.756-13.98v-.437s-.377 1.248 0 .375v.062Zm-.944 32.954c-.381.08-.744.228-1.071.437 0 0 2.96 2.06 1.323 0l-.252-.437Zm-.378-37.448c0-.624 0-1.373-1.512-.312 0 0 .882.75 1.323 0l.189.312Zm-.882 97.863c0 .624.63-.811 0-.499-.016.124-.016.25 0 .374v.125Zm.567-24.965s0 .375.63.936c.755 0 0 0 0 1.436 1.133 0 .818-1.873 0-2.809h-.693a.547.547 0 0 0 0 .375l.063.062Zm.504 12.92c-.315.312.567 1.123 0-.25v.25Zm4.535-4.369c-.06.33-.06.668 0 .998h.441c0 .874.567 0 0 2.247h.378c.315-.374 0 0 0-1.123v-.749s-.504-1.685-1.638-.749c1.134-.499 1.197-.499.756-.874l.063.25Zm0-11.921c.756.062.315-1.873.063-.437l-.063.437Zm3.15-29.77s-.378.311-.378.436.693 0 .945-.749l-.504-.5s-.378-.062 0 .562l-.063.25Zm1.449 18.223a1.118 1.118 0 0 0-.378-1.497l-.567.624c-.567.624 0 .437.63.873-.1.522.013 1.06.315 1.498.226-.288.532-.505.882-.624v-.437s.441 0 0-.624l-.882.188Zm-.693 3.745s0-.561-.693-.561c-.693.811 3.213 2.184 1.071.312l-.378.25Zm-1.323 10.423s0 .437.504.75c.504.311 0 1.497.882 1.123l-.693-.313c-.693-.312.441-2.371-.315-1.934l-.378.374Zm.504 25.839-.378-.312v.437s-.378.499 0 .936c0 0 .252-.687.693-1.435l-.315.374Zm-.567-7.802s-.882 0-.756 1.186 1.386.437 1.071-1.56l-.315.374Zm-4.158 25.777s1.197-.437.378-1.56v.312a.924.924 0 0 1 0 .811l-.378.437Zm.504 2.184c.504 0 0-.624 0-.624s-.63.687 0 .624Zm0 5.555c.132.238.237.489.315.749a2.286 2.286 0 0 0 0-1.311s0 .375-.378.375l.063.187Zm1.134-10.985v.937c0 .499.567-.375 0-1.748 0 0-.189-.062.441.437l-.441.374Zm4.158-1.622s.378-.375.378-.999h-.252v-.374.749h-.378l.252.624Zm.378 7.427c.441-.437 0-.936 0-.936s-.441 1.123 0 .873v.063Zm4.283-64.91a2.605 2.605 0 0 0-1.197 0c.046.457.174.9.378 1.311.567 0 0 0 1.638-.312v.874a1.185 1.185 0 0 0 0 .749c.693 0 0 0 1.449-.562 1.071 1.061 2.205 0 0-1.31v-.75s-.378 0-.567.687c-.189.687 0-2.06-.756-.5 0 0-.441-1.996-1.764-.873.413.13.834.234 1.26.312l-.441.375Zm-.567-1.435c0-.437 0-.749-.756-.998l-.378.686c.24.187.521.315.819.375l.315-.063Zm4.536-5.18h-.63l1.197.562s.819-1.311-.126-.936l-.441.374Zm-1.26 57.295c-.504 0 0 0-.756 1.061.504 0 .63 0 .441-1.249l.315.188Zm-2.583-17.289v.437s.756-.686 0-2.122c0 0 0-.499-.63-.312s-.504.812.378 1.248c.882.437.567-.374.693.375l-.441.374Zm.063 4.619c0 .312 1.953-.999.441-.562.126-.249.252-.437-.126.187l-.315.375Zm.882-18.287s-.441.312 0 .936c.441.624 1.197-2.06 0-.998v.062Zm0 31.082c0 .686.756.748.819-1.061.252-.375.504-.375-.126.686l-.693.375Zm-.063 7.115a.62.62 0 0 0 0-.749c-.63.436-.882 1.123 0 .749Zm-.504.749c.945 2.309 3.843-2.809 1.323 0 .441-.188-.063-.937-.819-.125l-.504.125Zm2.268-20.035c.441-.437 0-1.061 0-2.621-1.512 1.123-.504 0 0 2.683v-.062Zm.441 3.994-.315-.811s0 1.061.315.811Zm0-5.117c.441 0 0-.749 0-.749s-.378.936 0 .749Zm1.638-21.346c0-.374-4.221.313-2.961 1.686 0 0-.63.561 0 1.248h.378c1.449-1.31.882-1.873 3.339-2.996l-.756.063Zm-2.268-4.68s-1.449.81-.441 1.435c1.008.624 0-.749.882-1.186l-.441-.25Zm-.819-5.992c-.819.437.882.624 0-.936v.936Zm-2.016 50.429s-.756 0 0 .937h1.008a1.562 1.562 0 0 0-1.008-1.186v.249Zm1.638-10.173v-.624c-.441 0-1.323 1.123-1.449 1.748-.126.624 0-.562.882-1.249l.567.125Zm3.528 11.234s-1.575-2.122-.504-.124l.504.124Zm1.26-67.905c-.315.437.504.937 0-.312-.441-.062-.693-.124-.63.188l.63.124Zm2.015-9.798c.567 0 .882-1.061 0-.562-.22.13-.431.276-.629.437l.629.125Zm0-9.05s.567-.375 0-.562l-.566.375c-.567.374-.882-1.249-.882 0 .189-.312.126.936 1.322.062l.126.125Zm1.26 26.712s-.819.562 0 .937h-.315V69.3h.315Zm-.567 1.061h-.315s0-.748-.63 0h-.377v.375h.755s0 .811.819.624c0 0 0 .437.441.5.441.062.882-.687 0-1.374-.882-.686 0-.374 0-.624l-.693.5Zm1.827 31.207c-.315-.437-1.071.312-1.953-.375v.312s.378.624 1.323.999c0 .936.882 2.06.504 0l.63-.437-.504-.499Zm0 5.43h-.378c0-.5-1.386-.624-1.386.312a.51.51 0 0 0 .567 0c0 .437 0 1.872.315 0v.686c0 .375 0 0 .693-.936l.189-.062Zm-.882-1.186a1.05 1.05 0 0 0 0-.749c-.63.686-.441.062-.378.811l.378-.062Zm.504-6.241c0-.375-.441-.75-1.26-.999-.819-.25 0-.5 0-.936 0-.437 0 0-.315 0s-1.574 2.559 1.575 1.81v.125Zm-3.401-11.734c1.259.749 3.401-1.56.63-.312.315-1.436-2.331-1.935-.504 0l-.126.312Zm-.567-7.926c.378.312 0 .312.756.499.567-.874-2.772-1.997-.756-.375v-.124Zm1.7-10.236a.691.691 0 0 0-.566-.375s-.504 1.373.629.812l-.063-.437Zm0-6.491h-.44c-.441 0-.63 1.186-.315 1.56.315.375 0 0 .504-.749.503-.749.377-.499 0-.686l.251-.125Zm-2.015 4.12c.504.436.819 0 .63-.75 0 0-.882.624-.882.874l.252-.125Zm1.008 29.27c0-.499 2.078 0 .693-1.185 0 0 .377-.437 0-.687 0 0 0 .437-.756.624-.756.188.63-.624 0-1.622-.63-.999-1.071 1.56-.063 2.87h.126Zm8.504-60.165v-.686.998s0 .437.693 0 0 0-.315 0l-.378-.312Zm2.52 2.871c-.378 0-.756 0-.63.874 0 0 .315 0 .819-.312.503-.312.818-.562.44-.812h-.692l.063.25Zm.692-9.55h-.378s-.377-.436-1.07 0c-.693.438.567.75 1.385 0h.063Zm0 3.558c-.378.562 0 .999 0-.374 0-.063.126.062.189.374h-.189Zm3.78 18.724-.756.999s-.315-.312-.882.374c-.567-.686.567 1.56.441.375.63.312 1.071 0 1.26-1.436l-.063-.312Zm0 32.455c-.315.437.945-.562 0-.5-.945.063 0 0 0 .5Zm.504 24.528a1.012 1.012 0 0 0-.567 0v-.312a.43.43 0 0 0 0 .312c-.567 0-1.071-1.311-2.268-.499-.378 0 0 0-1.323-1.436 0 0-1.322.375 0 1.186 1.323.811 1.323.499 2.016 2.372 0 .436-.945-2.185-1.89-.999.63 0 .315 1.685 1.638 2.184 0 .437.504 0 .441 1.061h-.441s0 .5.945 0c.504 0 0 0 .441-1.81h-1.323v-.374s0-.374.819-.562v-.499s0-1.061 1.323-.624a.927.927 0 0 0 0-.687l.189.687Zm1.701.998s0-1.747-.567-1.185c-.567.561-1.134.686 0 1.56 0 0-.315 1.56.441 1.311.756-.25 0 0 .693-.437s0-.312 0-.5c0-.187.378-.312.441-.374-.42.022-.84.022-1.26 0l.252-.375Zm3.276-35.637s-.378 0-.945.562a.76.76 0 0 0 .677-.015.75.75 0 0 0 .394-.547h-.126Zm1.889 2.184a1.73 1.73 0 0 0 0-1.435.572.572 0 0 0-.378 0c.315 0 0 1.435.378 1.872a1.98 1.98 0 0 0 0-.811v.686c.642.32 1.253.696 1.827 1.124 0 0 0-.437.63 0v-.687c0-.437-.441 0-1.512-.562V76.042l-.945.5Zm2.268 2.684h-.378s-1.008.375 0 .811c1.008.437 0 0 .441-.312l.63-.437h.504l-.315-.561c-.29.068-.553.22-.756.437V79.849l-.126-.624Zm3.213 22.531.504.562c.179-.136.329-.306.441-.5.441 0 1.134-1.123 0-1.81 0 0 0 .437.315.437s-.945-.124-1.638 1.311h.378Zm.378-21.47c0 .374.567-1.061 0-.374-.567.686-.63.062-.378.374h.378Zm.63 39.008c-.072.35-.072.711 0 1.061 0 0 .945 0 .567-1.56-.315 0-.315 0-.378.561l-.189-.062Zm.567-12.483H267.553v-.312.063l-.504.312c-.315 0-.378-.312-.819.437a2.202 2.202 0 0 1 0-.562v.749c-2.016 0 0 1.061-1.638 1.81l.315.374c.882 0 1.26-2.059 2.898-.749v-.499s.567 0 .567-.686h.756l-.882-.937Zm-2.457 18.475v.499c0 .499 0 0 .63-1.061a1.133 1.133 0 0 0-.945.624l.315-.062Zm0-6.242c.819 0-.378-1.747.189 0h-.189Zm-.567 12.483c.378-.562 0-.812-.378-.812s.189 1.311.567.812h-.189Zm-.441 1.685c-.504 0 0 .999 0 .999s.567-.687 0-.999Zm-.252-7.926c.945-.375 0 0 0-1.623 0 0-.378 0-.378 1.56 0-1.186-3.465-.998-.63.312 0 .437 1.575.624.945 0l.063-.249Zm-6.299-2.934h.567c.567 0 0 0 .441.624.44.624.818 0 .378-.811v-.624h-.441c-.504.624-.504 1.123 0-.562h-.441s-1.134.562 0 .687l-.504.686Zm.378 7.927s.567 0 1.008 1.31h.314c0-.811.001-.374-1.007-1.498.189-.249.441-.437.126.063l-.441.125Zm1.322 1.685c.441 0 0-.375 0-.624 0-.25-.314.873 0 .561v.063Zm.504-16.29c0-.811-.378 0-.378 0s.693.687.441 0h-.063Zm.315-5.243.504.812c1.512-.437-1.889-2.871-.567-.812h.063Zm1.197-1.81s.378 0 .504.312a13.763 13.763 0 0 0-3.779-4.556s-.441 0 0 .749a5.217 5.217 0 0 0 1.008 1.81c0 .562.881 1.311 1.952 1.748l.315-.063Zm0 9.986.378.937c.441 0 0 0 0-1.124l-.378.187Zm0 2.747c0 1.872 1.323 1.747.819-.562-.378 0 0 0-.819.562Zm5.355-15.479c0-.374-.63-.437-1.071-.437-.441 0 .378.5.693.5l.378-.063Zm.882-1.685c0-.499 0-.312-.504-1.186 0 .5 0 0 .504.999v.187Zm-1.953-.437v-.437h-.378s-.504 0 0 .562 0 1.623 1.512 1.373c0 0 0-1.747-1.008-1.498h-.126Zm0-2.996a.572.572 0 0 0-.486.224.557.557 0 0 0-.081.525h.567v-.749Zm-.756 1.186v-.811h-.819c.945-1.81-1.575-.936-2.646 0v.936c0 .624 1.323-.374 2.205-.811.882-.437 0 .374-.441 1.373 0 0 1.827.561 1.701-1.311v.624Zm-4.158-12.108v-.749a.619.619 0 0 0 0-.811h-.567a5.15 5.15 0 0 0 0 1.498s.126.5.504.187l.063-.125Zm0-6.803c.693 0 0-1.06-.441 0-.441 1.061.063-.062.504.125l-.063-.125Zm1.701 3.995c0-.687-.441 0-.756-.437-1.071 2.06 3.087 0 .756.374v.063Zm.63 12.482h.882s-.504-.749-.819-.062l-.063.062Zm1.386-18.724h-.378v.375c0 .374 0 .374.504 0 .504-.375 0 0 0-.312l-.126-.063Zm-6.488.5c0-.375 2.267 0 1.323-1.436 0 0 .188-.187-1.134 1.31l-.189.126Zm.315-3.121s-.945-1.436-1.638-1.498v.5-.687c0-.687-.567.437-.756 1.435 0 0 .441.624 1.449 0 .093.335.242.65.441.937 0-.687 1.134 0 1.071-1.186l-.567.499Zm-.63 2.809s.693-.562 0-.75c-.693-.187 0 0 0-.623h-.693v-.375c.15.502.433.954.819 1.31l-.126.438Zm0-7.615h-.441c.445.194.909.34 1.386.437v-.5s0-.311-.567 0l-.378.063Zm-.882-1.997h-.504c-.504 0 1.701 1.623.504 0Zm-.756 30.52c0 .811 1.008 1.373 2.394 2.059 0-.374.378 0 0-1.248h.504v-.499s.629 0 1.07.686c-1.889.437 4.41 4.182 4.032 1.498-1.26.375-1.449-1.747-3.591-1.31 1.764-2.247 1.575-2.934-2.33-2.06 0 0-1.701-.437-.882.811 0 0-1.008.063-1.701.063h.504Zm.819 17.163c-1.071 1.498 1.197-.499 0 0Zm-.882 8.301c1.764-.312 0 2.434 1.386 1.873 1.386-.562 2.141-1.311-.693-2.31a.94.94 0 0 0-.441.437h-.252Zm-1.323-14.23c0-.874.315.25 0 .187v-.187Zm-.819 0a3.248 3.248 0 0 0 1.323 1.748s.504-.312.315-.749c-.882.062-.882-.188-1.638-.937v-.062Zm-.567 14.417c-.504-1.061-.378.562-.378.562s.819.562.441-.562h-.063Zm-1.26-7.801c-.63-.125 1.134 1.747 0 .062v-.062Zm-4.346-1.248s0 .374.504.998h.378l-.504-.437c-.504-.437 0 0 0-.686 0-.687-.252 0-.378.187v-.062Zm-2.583-5.68s1.008 1.436 1.071.374c0 0 .063-.374-1.071-.374Zm1.953-1.248v-1.061c0-.687-.441.561 0 1.061Zm.504-2.559c0-.312 0-.375-.315-.562v.749s0 .375.819-.312l-.504.125Zm0-49.68c.074-.318.251-.603.504-.812 0-.5-1.638.562-.693 1.061l.189-.25Zm2.771 9.798v1.124c.193-.214.429-.384.693-.5 0 0-.378-.312-.693-.624Zm0 0v-.374.437-.063Zm1.071-12.482a3.151 3.151 0 0 0 0-.687s0 .562-.504 1.061v.437-.312h.378l.126-.5Zm-1.26-3.745s-.567-.874-.441 0c.126.125.504.998.441 0Zm-.504 1.748s0 .873.315 0c.315-.874-.504-.874-.315 0Zm-.504 4.68c0 .313 0 .562.819 0a.762.762 0 0 0-.819 0Zm1.575-7.364c-.458-.424-.942-.82-1.449-1.186 0 0-.377.374.378 1.06h.945c.315 0-.252.5.252.126h-.126Zm-1.134-11.734c-.378 0 0 0-1.133.999 0 0 .693-.188 1.259-.999h-.126Zm-2.204 6.054v.5c0 .499 0 0-.63.686.378 0 2.205-1.685.819-1.435l-.189.25Zm.441-6.241s0-.874-.378-.374c-.378.499 0 .624.378.374Zm-1.449 24.965c-.441 1.186 1.26-1.498 0-.187v.187Zm-.945 8.55s-.378 1.436.693.375c0 0 2.016-.749 0-.811a1.454 1.454 0 0 1-.756.499l.063-.063Zm-.504 18.724c.693 0 .315-.811.315-.811s-1.071.936-.315.749v.062Zm-.378 15.416-.693-.312h-.378c0 .312 0 .437.693.562.693.125 0 0 0 .936.378-.437.756.562 1.449-.437h-.504c-.315 0 0-.686 0-1.123 0-.437 0 0-.504.499l-.063-.125Zm-.378-3.12a4.732 4.732 0 0 0 0-.937 2.48 2.48 0 0 0 0 1.561v-.375a1.166 1.166 0 0 1 0-.499v.25Zm-.945-4.244v.374c0 .374 1.638 0 0-.374Zm1.134 5.429h-.504s0 2.06.504 0Zm-.567-16.789s-.504 0-.945.874l-.567.562c0 .374 1.701 0 1.512-1.436Zm-1.638 11.36c0 .312.882-.874 0 0-.882.873-.063 0 0 0Zm-.441-10.673h.378s1.953-1.248.819-1.623c-1.134-.374-.693.437-1.197 1.623Zm1.764-13.044-.945 1.31s0-.436-.819 0c.693 0 .819.75 1.449-.561v-1.186l.315.437Zm.693 62.038s.378 0 1.008.437a2.88 2.88 0 0 0-.819-1.249 2.8 2.8 0 0 0-.378.937l.189-.125Zm1.575-2.497s-1.89-.499-.693 0c.063.5.063.437.63.125l.063-.125Zm0-18.723c.378 0-.315-.812.882-.687v-.374h-.504l.378-.375c-.378-.499-1.008.312-1.134 1.872-.252-.187-.252-.124.315-.499l.063.063Zm1.386 1.622c-.378-1.123-1.701-.811 0 .624v-.624Zm3.968 18.287c.504 0 0-.811 0-.811s-.378.874 0 .811Zm10.142-10.048c-.378-.624-.693 0-.693 0s1.134.499.756 0h-.063Zm.63-.812c.441.312 0-.436 0-.749 0-.312-.378.437 0 .749Zm.378 6.679c0-.313.441-.375.819-1.81-.756.187-1.008.187-1.134 1.997l.315-.187Zm1.26-3.558c0-.749 1.575-.374.882-2.621 0 0-.567.686-.63.936-.063.25 0 .874-.756 1.061a3.286 3.286 0 0 0-.441 1.56c.63 0 .441 0 1.197-.811l-.252-.125Zm0 .437c0 .936.945.624 1.26-1.436 0 0-1.197.562-.63 1.061.567.5-.126.188-.882.562l.252-.187Zm7.37-39.008c.378 0 .567.811.819 0s0 0-.819 0c-.378.374-.819 0 0 0Zm.63 1.623c.441 1.123.945-1.124 0 0 .189 0-.189-.188.189.374l-.189-.374Zm.441-15.354c0-.374-.945 0-.567.936 0 0 .882.437.756-.561l-.189-.375Zm-.693 2.31h-.378s-.441 0 0 .749c0 0 .504 0 0-.562s1.134 0 0-.5l.378.313Zm-1.575 5.929v.374c0 .375 1.008 1.373.189 0l-.189-.374Zm-.377 12.857s-.756.499 0 .874c.944 0 .692-.625 0-1 0 0 .378.126-.252.5l.252-.374Zm3.779 19.16a1.312 1.312 0 0 0-.693-.873s-.63.374 0 1.061l.693-.188Zm0 .999c-.693 0-.567 2.247-.378.499l.378-.499Zm.63-8.863c.63-1.685-3.276-.436-.945 0 .378 0 0 0 .882-.374l.063.374Zm-1.953 16.789c0-.561-.819-.998-1.008 0-2.015-1.934-1.511 2.372 1.953 2.622v.624-2.185c-.269.067-.55.067-.819 0 0-.312-.441-.686.945-1.497h-.315v.312l-.756.124Zm-2.897-3.807c.567 0 .63 0 .882-1.123-1.008.874-.882 1.061-.882 1.061v.062Zm-.756-38.134.819-.749-.441-.562c-.441-.561 0 0 0 .687v.312l-.378.312Zm0 13.98c0-.374.504 0 0-1.435-.094.453-.094.92 0 1.373v.063Zm-.63 31.893a.437.437 0 0 0 .567-.436c-.378 0-1.071.312-.567.436Zm3.464 1.935v.999c.567-.375 1.134-.624.819-1.873 0 0-.882 0-.945.999l.126-.125Zm4.662-25.776c0 .499 1.575 0 .567 0 .315 0-.945-1.186-.441 0h-.126Zm-.315.499s-.378 0-.63 1.123c0 0 .63 0 .882.687s0 0 .693-.562c.693-.561 0 0 0-.312h-.441s.252-.936-.504-1.061v.125Zm-.378 6.803c0 .375 0 1.186.504.687.504-.5-.315-1.311-.504-.812v.125Zm-.378 4.494c0 .624 0 1.56 1.701.686 0 .375 0 .437-.378 1.249-.378.811 2.331-.375 1.575-1.374h-.441a6.69 6.69 0 0 0-1.323-1.185v.312c0 .312-.441.998-1.134.187v.125Zm3.024-3.995c0-.686-1.071 0-.693.749.378 0 0 0 .693-.749Zm-5.985-42.253c.378 0 .441-.374.819-1.872a3.415 3.415 0 0 0-.756 1.81l-.063.062Zm-5.228 27.025c0 .811.882.998 1.701 2.434.315-.999.315 0-.63-2.247l-1.071-.187Zm.567-22.344v-.624c0-.624 0 0-.378.561-3.024-1.56 1.197 3.62.567 0l-.189.063Zm-1.134-3.245h-.378l-.378.436c-.378.437 0 0-.756.562l-.567-.437c-.567-.437 0 0-.567-.312a2.093 2.093 0 0 0-.504 0s-.378 0 0 .437-.315 0 0 .5v.311l-.315-.499a2.448 2.448 0 0 1-.504-.624s-1.008 1.186 0 1.997h1.134-.504l.378.437s.63.874 1.134 0c.504-.874 0 0 .63 0l.378-.374a1.178 1.178 0 0 1 0-.999l-.945.375s1.449.374.882-.812a.635.635 0 0 0 .63 0s1.071-.5 0-.874l.252-.124Zm-4.158-19.224s0-.312-.693 0c0 0 0 .437.378 1.311.504 0 .378 0 0-1.186l.315-.125Zm0 2.809-.441.811s.567 0 .567-1.185l-.126.374Zm-.693.374v-.81s-.441.998 0 .81ZM255.08 46.77s-.441 0-.504.687-.441 0-.693.749c-.252.749-.756-.375-1.197 0-.441.374 0 0-.693 0 .441.811 0 1.498-1.449.5-.033.269-.033.541 0 .81.378.406.856.707 1.386.874 0 0 .567 1.124 1.638 0 0 0 .819 0 1.008-.499.189-.5 0 0-.63 0s0 0 0-.874h-.378s.378 0 .882-.499c.504-.5 0-.312 0-.5 0-.187.252-.249.567-1.185l.063-.063Zm-6.236-21.345s-.63 0-.63 1.061c0 0 .441 0 0 .874.63.5.378-.374 1.008-.749.44-.374.377 0-.378-1.373v.187Zm-1.323 10.985s-.378 0-.378.874c0-.312.63-.312.378-.874Zm0-5.305c-.378 0-.315 0-1.071.437 0 0-2.142-.75-1.89 0 .252.749 0 0 .819 0s0 0 0 .811l.441-.437v.687c0 .686-.567-1.186.693-1.81l1.008.312Zm-3.591 40.443s-.378.687-.441.75a3.925 3.925 0 0 0-1.134-.5s-.315 0-.945.312c-.63.312.378 0 0 1.061v.374h-.378a3.735 3.735 0 0 0-1.701-.686c-.207.62.131 1.29.756 1.498h1.512a2.57 2.57 0 0 0-.63.624h.315s.756 1.186 1.701 0c0 0 1.89 0 .945-.749h-.567s.882-1.061 0-1.061v-.375l.756-.436c.756-.437 0 0 0-.624.882 0 .882-3.121 0-.75l-.189.562Zm-1.89-3.058s.315-.437-.441-.811c-.756-.375-.504.312 0 1.06l.441-.249Zm1.89-1.498a2.224 2.224 0 0 0-.945 0v-.5c0-.498-1.134-1.372-.63 0v.875h.378v.436c0 .437-.441 0-.756.562h.378s0 .687.63.624a3.495 3.495 0 0 1 0-1.06s.819.311.819-.937h.126Zm-.315-36.012c0-1.373-2.457 0-.819.874 0-.562-.378-1.748.756-.75l.063-.124Zm-6.299 11.11s0-.5-.756-.812c-.756-.312 1.008 2.434 1.827 1.186l-1.071-.374Zm-.504-8.738c-1.323.437 0-1.248 0 0-.252.312-.189.312-.189.187l.189-.187Zm-.882 13.106s-1.071 0-1.764 1.436h.441v.749c0 .374 1.134.624 2.394 0 0-.375.819 1.747 1.701 0v-.624c-.106-.36-.233-.715-.378-1.061-1.323 0-.693 0-1.575-1.061v.374l-.819.187Zm-2.205 3.932v.5c0 .499 0-.312-1.449-1.061h-.504s.315.998.945 1.123a.503.503 0 0 0 .504.375h-.504c-.242.314-.57.552-.945.686.441 1.124 2.52 5.056 3.78.874 0 0 0-.749.945-.624s-1.323-1.248-2.772-1.873Zm-1.197-6.24c-.315-.75-1.386.873 0-.375v.374Zm.756-6.242v-.312c-.378 0 0 0-.378.624-3.654-1.435 2.268 2.247.126-.936l.252.624Zm-2.016 5.68v.374c0 .374 2.646-1.997 0-.375Zm-2.142 31.206c-.818-.312 1.89-.188 0-.75v.75Zm0-20.472s-.566 0-.377.5c.189.499.503-.874.44-1.248l-.063.748Zm-1.196 26.963c-.064.203-.064.42 0 .624h.378v.811c0 .811 1.07.5 2.582 0 .256.368.635.634 1.071.75l.63-.5-.441-.375s1.197-.686 0-1.248c0-.5-.756.562-1.449 0h.504s0-.312-.441-.624v.437c-1.197 0-.504-.312-2.519.686l-.315-.561Zm-3.969-15.853c0-.811.378-.562.063-.75l-.063.75Zm0-14.667a.627.627 0 0 0-.63-.624l-.504.624c.63.5 1.197.562 1.134 0Zm-1.89 24.965h-.63c-.63 0 0-.811-1.323-1.31l-.315.499c.315 1.123 1.89 1.248 2.457 3.058 0 .437-.819-2.06-1.89-.999.504 0 0 1.498 1.575 2.122v1.311h1.26c.315-.375 0 0 .378-1.873h-1.386v-.686c.378 0 0 0 .819-.624-1.071-1.623 1.197-.375 1.323-1.81a.953.953 0 0 0-.63 0c0 .5-.189-.812-1.386-.5l-.252.812Zm0-17.039h-.693a1.531 1.531 0 0 0 0-.749H221l.378.437a.56.56 0 0 0 0 .375h.378l.315-.063Zm-.756-32.08s.63 0 .441-.811c-.189-.812 0 .374-.441.811Zm-1.512-7.989-.378.562s0-.437-.378-1.248c-.377-.811-.944.312 0 1.373 0 0-.566.874 0 .874a.74.74 0 0 1 0 .437h.567v.686a.989.989 0 0 0 0-.686s0 .374.378.749v-.313l.378-.499c.378-.5.63 0 .504-.624s0 0-.378 0v-1.498 1.061-1.186H219.866l-.063.312Zm0-3.245s0-.562-1.071-1.186v1.186a3.781 3.781 0 0 0 0 .5l.819-.563.252.063Zm-.756-7.427v.562l.441.312a2.226 2.226 0 0 0-.378-1.436s.126.312.126.562h-.189Zm-3.023 5.617c0 .448.366.811.819.811a.815.815 0 0 0 .819-.811c-.441.5-.441.062-1.638 0Zm-1.134-3.308v.375c.819-1.061 1.071-3.932 0-.375Zm0 80.637v-.5c-1.953.375 1.953 2.685 0 .438v.062Zm-.756-52.364c0 .375 0 0-.378 0s0 .312 0 0 .315.562 1.008.874c.693.312 0 0-.693-.624l.063-.25Zm-3.717 42.253h1.323c-.378-.624-.441-.312-1.449-1.248 0 0-.504.437.378.999l-.252.25Zm.315-67.842s.756 0 0-.5c-.756-.499-.378 0 0 .438v.062Zm0-1.061s.756 0 0-.375c-.756-.374 0 0 0 .312v.063Zm-.441 5.742V17c-.096.262-.096.549 0 .811 0 0 .441 1.31 1.26.5-.126-.5.126-.75-1.008-1l-.252.313Zm.63 16.29h.819c.819 0-.504-.437-.819 0Zm.504-1.374s-.63-.437-.882 0 0 0 .378 0h.504Zm-1.26 33.391s-.504.312-.63.624 0 0 .945-.437h-.315v-.187Zm1.197 17.6s1.449 0 0-.374c0 0-.504-.312 0 .374Zm.693-46.497v-.437c0-.437 0 0-.567 0s.252.5.567.437Zm0 7.989c0 .5 2.205 0 .378-.687l-.378.687Zm.882 31.83s0 .687.882-.312c0 0-.693 0-.882.312Zm.441-43.376s0 .624 1.071 0-.441-.812-1.071 0Zm-2.016-22.656.567.374v-.312s.756 0 .693-.873c0 0 .504 0 0-.75 0-.374-2.394 0-1.764 1.436l.504.125Zm-1.386 2.996s.882.374 1.26-.562v-.312s-.504 0-1.071.5l-.189.374Zm-1.826 99.86c.377.686 1.511-.874.314-1.124 0 0-.314.562-.314.874v.25Zm0-53.363c0 .374 2.645 0 .944-.374 0-.313-.567-1.124-1.196 0l.252.374Zm0-1.061s.692-.562 1.7-.624c0-.624-3.401-3.807-3.275.811h1.575v-.187Zm-6.615 79.826c0-.749-.756-1.249-.882-2.434h-.378v-.624c0-.125-1.323 3.432 0 1.747 0 .499.882.687.756 1.935.126-.375.126-.312.504-.624Zm-5.354-20.035s0 .5 1.071 0c-.126 0-.378-.686-1.071 0Zm1.26-60.165v-.812c0-.374-1.701.75-1.323 1.56l1.323-.561v-.188Zm-1.575-9.8s-.441-.623-1.26 0c0 0 .63.75 1.26 0Zm-3.339 17.414h-.63l.567.437s0-.063.063-.437Zm-.378-4.868s-.756-.687-.567 0c.189.686.315.312.882 0h-.315Zm-1.701 35.013s.567 0 0-.936c-1.512 0 0 3.87 0 .936Zm-.945-39.757c-1.512 0 0-.437 0 0 .567.188.504.437.315.25l-.315-.25Zm-.504 5.493h.378v-.312s.189.312-.063.81l-.315-.498Zm0 20.409s.63 1.622 1.197.499c-.252.312.126-.125-.819-.25l-.378-.25Zm.819 11.296.504.936v-1.06l-.504.124Zm1.26-47.808h1.071s0-.936-1.008-.811 0 0-.882-.375c-.882-.374.504 0 .819-.749-.63 0-1.827-.686-2.142.687h.378c0 .374 0 .374 1.386 1.123l.378.125Zm-1.89-22.593v.374s.819-.437.945.5h.441c.441 0 0 0-.63-1.061 0 0 0-1.061-.567 0l-.441-.625s-.567.5-.378 1.311c0 0 .378-.437.693-.811l-.063.312Zm1.827-3.87c1.008.5.315 0 .504 0s-.378-1.186-.63 0h.126Zm0 23.218s.441 1.248 1.512 0h-1.512Zm2.016 2.621s-.378 0 0 .687h.441c.315 0 .378.686 1.449 0 1.071-.687-.63-1.124.693-1.998h-.693c-.693-.436-.882.75-1.701 1.311h-.189Zm0-2.496v.374h.504s1.512 0 0-1.186h-.63v.999l.126-.187Zm1.701.624a.87.87 0 0 0 .567-1.248c-.315 0-.378 0-.63 1.123l.063.125Zm-1.071 7.614.819-.5v-.374h-.315c-.279.09-.521.265-.693.5 0 0 0 .436-.693.561v.312c-.252.437.126 0 .882-.499Zm1.134-2.621c.504-.375 0 0-.441 0s-.693.686.441 0Zm-2.394-1.873s-.378 0-1.134.75c-.756.748 1.008.062 1.323-.75h-.189Zm-1.008 7.24h.441c.126 0 .945-.624-.441 0Zm0 2.185a1.902 1.902 0 0 0 1.936.554c.699-.2 1.22-.78 1.34-1.49-.756-.812-2.205 2.434-2.016-.438-.378 0 0 1.124-1.197 1.062 0 0 .063.062.063.624l-.126-.312Zm4.473-7.49a1.235 1.235 0 0 1 0-.5h1.008-.441c-.441 0-1.197 0 0-1.372 0-.624-1.827 1.123-1.701 2.06h.441v.374l.693-.562Zm2.079 22.656v.437c0 .437 1.133 0 1.07-1.186h-.504s.378.687-.44.936l-.126-.187Zm-.252 2.684s.755 1.31 1.133 0c0 0-.063 0-.818-.25l-.315.25Zm3.653-27.15c-.441.5 0 0-.63 1.061h.63v.5c0 .499 1.701-1.498 0-1.873-.315 0 0 0-.693.375l.693-.063Zm4.032 26.213v-.374.874-.5Zm0-3.432h-.63a.812.812 0 0 0 .441.561s.189-.499.315-.81l-.126.249Zm-1.197 44.874c.378 0 .567 1.561 1.26.437-.441 0 0-.374-1.134-.624l-.126.187Zm.756-12.482s-.504-.749-.504 0 .126 0 .63-.25l-.126.25Zm0-29.397a.79.79 0 0 1 0-.374c-.441 0 0 0-.819.687-.819.686 0 .374 0 .499.756-.312.504-.063 1.008-1.061l-.189.25Zm0-33.265h-.63c-.63 0 .504 0 .756-.5l-.126.5Zm-.882 1.123.567.624c.567.624 0 .812.693.437l-1.071-.811-.189-.25Zm-.441 55.11c.378.312 1.071.312.693 0s-.756-.499-.756-.499l.063.5Zm-.378 18.35s-.819.499 0 .686c0 0 0 .5.504.5s.63-.999-.693-1.186h.189Zm0 18.162c-.945 0 .693 2.621 0 .312v-.312Zm-.819-50.555a.506.506 0 0 0-.882-.125l.441.375a1.233 1.233 0 0 0 0-.686l.441.437Zm-2.142 0s-.315 0 0 .687.882-.5.756-1.06c-.63-.563-.756-.313-1.071-.126l.315.5Zm.693-1.248h-.819s.126.188.504-.499l.315.5Zm.378-.936c-.441 0 0 .437-1.26.624.315-.25 0-.125.945-1.123l.315.5Zm.189-14.73a.994.994 0 0 0 0-.561s-1.386.187 0 .562Zm0-25.65h-.504c-.189 0 0-.313-.756 0-.756.311.378 0 .504.374s0 .312 0 .437c0 .124 0 0 .504 0l.252-.812Zm-1.449 33.203c.504 0 .756 0 1.008-.687.252-.686-.441 0-1.008.687Zm0 .374c0 .375 1.134 1.31 1.134-.374l-1.134.374Zm-.378 8.301s.378.562.882 0c0 0-.63-.999-1.008 0h.126Zm-1.386 22.406a.375.375 0 0 1 .315-.374v.374h.756c.756 0 0 0 0 .624 0 0-.315-.624-.63-.998-.315-.375 0-.874-.504 0a1.37 1.37 0 0 0-.44-.562l-.441.999.944-.063Zm2.583 31.144c.63 0 0-.687 0-.687s-.882.562 0 .687Zm1.26-1.311c.441-.624 0-.936 0-.936s-.315 0-.63.936h.63Zm0-3.994c0-.811-.63 0-1.323-.562-.693-.561-.819 0-.693 1.311a7.085 7.085 0 0 0-.378 1.997c.567 0 .819-2.059 2.394-2.746Zm0-21.158c1.323.375-.252-1.935-.063 0h.063Zm0 26.463c0 .499 1.512.624.567-.499 0 0-.504.249-.504.499h-.063Zm0 2.996.819.437c1.26 4.181 3.654 1.622-.756-.687l-.063.25Zm3.654-24.778c0-.374 0-.499-1.134-.936v.998l1.134-.062Zm.63-40.63a2.543 2.543 0 0 0-.378-1.311 1.055 1.055 0 0 0-.441 1.06s.126.625.819.5v-.25Zm1.89-40.506c.377-.562-3.276 0-.756 0a.887.887 0 0 0 .944 0v-.562l-.188.562Zm.377 56.171c0-.5-1.637 0-.755.999.881.998 0 0 .692-.999h.063Zm0-2.434c.378.437 0-1.186-.755-.999-.756.188-.126.188.881.75l-.126.249Zm0 30.27h.504-.504Zm.504-75.332a.378.378 0 0 0-.567 0c.152.182.321.35.504.5v-.438l.063-.062Zm-1.385-13.17c0 .438 2.204 0 .441-.623-.126.125.126 0-.441.624Zm-.693-.56a2.076 2.076 0 0 0 0 .873c.63-.312.63 0 .504-1.373-.189.187-.567-.25-.504.687v-.188Zm-1.071 5.99c.187.034.379.034.567 0 0 0-.504-.186-.819.188l.252-.187Zm-1.953-18.723.882.687c.882.686 0 .374 0 .686 0 .312 1.323-1.872 0-1.186-.252-.25-.63-1.123-1.134-.187h.252Zm0 22.843-.378.5c-.378.499 0 0 0 .436v.25s0 .437.756 0 .441-.562 0-.936l-.378-.25Zm-3.213-.437a.738.738 0 0 1 0 .5h.819c.819 0 0-.437-1.008-.937-1.008-.499 0 0 0 .5l.189-.063Zm0-2.31h-1.449c.378 0 .63.75 1.449 0Zm-.63-.748h.378-.819c-.819 0 0 .5.441.374v-.374Zm-1.512-20.284c0 3.183 2.457-.624.756.749v-.999a.569.569 0 0 0-.504.312l-.252-.062Zm0 24.965c-.944 0 1.386 2.122 1.197.562-.252-.562-.567-.562-1.26-.999l.063.437Zm-1.511-12.545c-2.016-.999 0 2.684 1.322 1.123h-.315c.882 0 0 0 0-1.56 0 0-.377 0-.314 1.56h-.315c0-.374 0-.437-.378-.811v-.312Zm-1.386-7.49h.504c.504 0 0 0 .378.562s0 0 .693-.561c0 0-.63 0-.378-.874s-1.008-.562-1.26.437l.063.436Zm-.63-3.744c-.504-.687-.315-.437 0 0Zm-2.142 7.115h-.315a.38.38 0 0 0 .441 0s0 .936-.693 1.56v.5c0 .499-.693 0-.819.623v1.498H192.401c.315 0-1.764.437-1.26 1.311 1.386-1.248 2.52-1.498 3.906 0v-.437c.063-.203.063-.42 0-.624H195.992v-2.746c.02-.27.02-.541 0-.811 0 0 1.008 0 .945-.562-.063-.562-.315 0-.63 0 0 0-.882 0-.441-.375 0 0-.378-.374-.63 0-.252.375 0 0-.567 0v.312c0 .313 0 .687.441.562s-.315.437-.882 0l-1.134-.811Zm-.378-1.623c-.441.312-.315 0-.945 1.061h1.197s0-.624-.315-.811l.063-.25Zm-3.78-9.05c-.63 2.31 1.953 1.124 0-.312v.312Zm-.63 56.796c.315 0 .378 0 0 .873l.441-.748c.441-.75.441 0 .441 0l-.63-.437c-.63-.437 0 0-.693.561l.441-.25Zm0 9.486h.378s-1.008-.686-.63.25l.252-.25Zm0 5.243s0 .312.63.312.945 1.061.882 0h-.756s-.63-.624-.756 0v-.312Zm-1.826 26.525a1.536 1.536 0 0 0-.756 0s-.252.625.252.25l.504-.25Zm-3.969 5.118s0-.312-.567-.499-.441 0-1.764.749a2.23 2.23 0 0 0-.378 1.311l.693-.375c-.945 0-.882 2.871.441.811 0 0 .693 0 .378-.686-.315-.687 0 0 .441 0s0 0-.63-1.186c0 .312 1.449.936 1.323 0l.063-.125Zm0 8.301h-.504s-.63 0-.378.936v.375h1.008v-.375s.693 0 .378-.811l-.504-.125Zm0 16.664s.126-1.31.126.25l-.126-.25Zm-1.134-7.926h.567v-.375l-.504-.312c-.504-.312-.378 0-.63 0 .246.205.404.495.441.812l.126-.125Zm-1.701-10.485-.441.436c-.441.437 2.016.5.441-.436Zm0-.937c.378 0 .567 0 .504-.936-.063-.936-1.26.687-.504.936Zm.945.687s.504-.499.693-1.311c.189-.811-.315 0-1.197.936-.882.937 0 .375.504.375Zm-.315-1.748v.999l.819-.874s0-.437-.756-.312l-.063.187Zm-1.449 0v.812c0 .811.882 0 0-.812Zm-1.134-33.078c0-.375 0 0 1.008 0 0 0 0-.312-.378-.624l-.504.374a.625.625 0 0 1 .378-.5s-1.07-.499-1.133.687h.503a1.185 1.185 0 0 0 0 .75l.126-.687Zm-2.771-3.246s0 .5.63 1.373c1.071-.561 2.141-1.685-.63-3.37v.562-.75c0-.748-.819.5-1.008 1.748 0 0 .504 1.061 1.764 0l-.756.437Zm-1.953 18.724c-.504 0-.441 0-.441-.749 0 0-.504.375-.693 1.248-.189.874.63 0 .945.624.315.625 0 0 .63-.624l-.441-.499Zm-2.961 22.344c-.693 1.061.504 1.373 0 .749v-.749Zm-9.638-14.542v.374s0 .312.756 0c0-.499 0 0-.441-1.061h-.504s-.504.562-.126 1.436l.315-.749Zm-.945-3.558c.378.624 1.512-1.061.378-1.061v.437l-.378.624Zm-3.464 14.792.315-.687c.315-.686 0 0 0-.312s0 0-1.197 0 .693.624 0 1.436c.229.039.463.039.693 0a.93.93 0 0 0 0-.562l.189.125Zm-2.457-23.655s1.575-1.06.315-1.373c.315 0 .945-.561.945-.873v-.313c-.315 0 0 1.062-1.197.625-1.197-.437 0-.437-.315-.437s-.945.561 0 1.186v.436l.252.75Zm-2.52-3.557c.378 0 .315 0 .693-.749.378-.749 0 .437.441.687.441.25 0 0 .315-.562.189-.222.463-.358.756-.375 0-.374 0-.499-.756-.749s.504-1.56-.756-2.06c0 0 0 .438.504.687.504.25-.378 0 0 1.124.378 1.123 0 0 0-.375 0-.374-1.008 0-.378.999v.811h.378l-1.197.562Zm.126 9.736h.756c.315 0-.441-1.248-.756 0Zm0 9.237.63.312c.63.312.315.562.504.562s0 0 0-1.123c0-1.124-.378 0-1.008 0l-.126.249Zm2.709-1.81c0 .625 1.134 3.433.819.375 0 0-.693-1.124-.882 0l.063-.375Zm1.386-3.432c.567.936 1.637-.437-.378-.749 0 0-.63.624.378.811v-.062Zm0-4.432h1.26-1.26Zm.693-.499h.378-.378Zm-.567 32.08s0 1.997.945 1.311l-.378-.812-.693-.561s.441-.25.378.062h-.252Zm.945-1.498c.378 0-.756-.374-.63 0 .126.375.567.624.882 0h-.252Zm0-24.341a1.007 1.007 0 0 0 0-.437c-.378 0 0-.748-1.134-.499-1.134.25.378 0 .504.687l.63.249Zm.692-2.621h.504c.504 0 0-.624-1.07-.999-1.071-.374 0 0 0 1.061l.566-.062Zm.945 15.041s.315 0 .441-.624 0 0-.441 0v-.312h-.567c-.567 0 .063.999.882.936h-.315Zm.378-36.573s.315 0 .378-.375c.063-.374.567 1.373 1.197 0 0 0 .441.874.819 0 0 0-.63-.5.378-1.06 1.008-.563.693 0 .756-.438h.378c.315-.374-.756-2.746-1.512-.874 0 0 .567-1.81-.441-.748 0-1.623-1.071.499-2.016-.687-.441 0 .315 1.061.756 1.685a.763.763 0 0 0-.63 0l-.567-.624c-.567-.624-.504.624 0 1.56-.378-1.31-2.33-.686 0 .562a1.518 1.518 0 0 0-1.385.5s-.756-.5-.63.686c0 0 .819 0 .693-.999 0 0 .629 0 .881.562h.315v-.437c0-.437 0 0 .819 0a2.241 2.241 0 0 0 0 .75l-.189-.063Zm-5.606-20.534h.378c0-.5-1.386-1.186-2.646-1.935v.437c0 .437-.756-.874-1.764-1.061h.315s0 .874 1.197 1.186h-.315l-.945.437c.693.624 0 1.56 1.638 2.496-1.827.5 1.071 2.247 1.134.812 0 0 .441 0 0-.624v.312s0-.313-.315-.437c-.315-.125 0-.312 1.134-.75h.378a1.965 1.965 0 0 0 0-.748s-.378.25-.189-.125Zm-2.205 5.243.378-.5s-1.512 0-.63 1.436v.5c.756 0 0 0 0-1.312l.252-.124Zm2.016-4.619.945.999 1.008-.624s-.315-.562-1.134 0c.063.187-.441-1-.819-.125v-.25Zm6.299-12.483H157.439a2.546 2.546 0 0 0 0 .687c0 .562.504 1.685 1.26.562h.378l-.378.312s.756 1.248 1.701 0c0 0 .756 0 1.134-.437 0-.437-.441 0-.441-1.123h-.378.504l.441-.437a.62.62 0 0 1 0-.437s.504 0 .756-1.124h-.315s-.315 0-.504.687c-.189.686-.441 0-.693.811-.252.812-.315-.125-.945-.125h-.819s0 .313.315.5c0 0-.441 0 0 .437v.312-.437l-.63-.188Zm9.827-24.84h-.315s-.441 0-.819.812c-.377.811 0 0 .378 0l.693-.687s.126.5.063.375v-.5Zm.126 27.774c-1.134.998 1.26.187-.504.125l.504-.125Zm-1.323-2.684-.503.437h.503c.225.435.608.77 1.071.936a9.66 9.66 0 0 0-1.008-1.56l-.063.187Zm0 22.656s0-1.124-1.007-.811c-1.008.312 1.259 3.432 2.078 1.622 0-.624-.441 0-1.008-.811h-.063Zm-2.078 34.264c-.819.375.693 0-.819-.124l.819.124Zm.441-4.68c-.504-.812-2.079-.25-.819-.125l.819.125Zm.504-7.178c.378-.749-1.764-1.56-1.827-.312.227-.061.466-.061.693 0 0 0-.756 0-.441.936s0 .312 1.512-.562l.063-.062Zm-1.26 3.62c.441-.562-3.402 0-.756.437l-.567-.062h.945c.945 0 0 0 0-.5l.378.125Zm-.882 5.617s0 .312.63 0-.441 0-.567 0h-.063Zm-.693-12.482c0-.312-2.079-2.622-3.276-2.31v1.998h.756c.756 0 .567 1.56 1.701 0h.756l.063.312Zm-1.764-5.93h.441c.441 0 0 .313.378.937a1.175 1.175 0 0 0 0-1.186h-.567l-.252.25Zm1.764-1.248h-.378c-.378 0 0 0 0 .375 0 .374.567.561.63 0 .063-.562.378 0 0-.312l-.252-.063Zm-2.016-14.667.756.5c.756.499.504 0 .567 1.685 0 0 .882.312 1.764 0s0 0 .378.561c.441-.624 0 0 .441-1.81v-.624c0-.25-.63 0-1.701 0v-.561s0-.562 1.008-.75c0-.311-1.008-1.497.504-1.497 0 0 1.512.749 1.26-.687a1.779 1.779 0 0 0-.819 0l-.441-.312v.312h-1.197c.315 0 .504-2.87-.693-.624a3.94 3.94 0 0 0-1.512 0c-.441 0 0-.5-1.701-1.81l-.567.5c.756 1.684 2.331 1.185 3.15 3.869-1.008-1.498-3.717-2.559-.819 1.248h-.378Zm-4.032-12.607c.693 0 1.953-.936.756-1.81-.315-.187-1.323.5-.756 1.81Zm.756 4.244c-1.952 0 .945-1.061 0 0Zm2.331-7.115c0 .811 0 0-.63.437.504 0 .693.811 1.575-.375l.693-.686-.441-.437c-.429.18-.704.6-.693 1.06v.313l-.504-.312Zm.126 10.672c.378 0 0-.624 0-.624s-.504.562 0 .687v-.063Zm2.331-9.86s-.63 0-.378.436c.252.437 0 .5.504 0l-.126-.437Zm2.331 7.364c-.567.312-.504 0-1.071 1.186.441.374 2.834-1.373 1.197-1.186h-.126Zm-3.843 25.776c.055.436.055.876 0 1.311 0 0 .882.437 1.512 0a2.467 2.467 0 0 1 0-1.248s-.252-.312-1.512-.312v.25Zm4.032-1.622c.056-.55.275-1.071.63-1.498h-1.26c-.945 0 0 .312.378.499s0 0-.504.811h.567l.189.188Zm1.134-23.467c.629-.25-.252-1.748 0-.25v.25Zm-.189-10.361c-.189.874.881-1.685 0-.25v.25Zm0-2.621s0-.375-.945-.312c0 .312 0 0-.693.686h.567s.378 0 .504-.437l.567.063Zm-1.512-2.996h-.819c-.315 0 0 1.56.756.686l.063-.686Zm-.945 3.37v-.374c-.315 0 0 0-.315.686-3.339-.374 2.394 2.809.567 0l-.252-.312Zm-6.3.999a.683.683 0 0 0-.252-.75s-.378-.374-.503 0c.377.313.377 1.623.881 1.81v-.81c0-.313 0 0 .378.499 0 0 .945 0 1.953.624h.693v-.25s-.441-.374-1.323 0l-.693-.437v-.374a.673.673 0 0 0 0-.5l-1.134.188Zm-1.196 8.613s-1.197.624-.315 1.248c.881.624 0-.312.692-1.061l-.377-.187Zm-2.457 4.93s1.197 0 0-.499c-1.197-.5.063-.25-.189.25l.189.25Zm.315 5.867s-.756-.312-.189-.25l.189.25Zm.819 7.178c0-.375 0 1.123.882.374.567 0 .944-1.498-.378-.562l-.504-.499a1.74 1.74 0 0 0 0 .5v.187Zm6.488 35.512c-.504.562 4.599 2.247 4.788 0h-.378s0-.312-.882 0-.756-1.123-1.197 0l-.441-.499c-.441-.499 0 0-1.008.874s.756-.624-.378-.624l-.504.249Zm5.481-14.791h.44s-.692-.313-.881 0c-.189.312 0 0 .377 0h.064Zm.314 1.435h.504-.818c-.252 0 0 .062.314 0Zm0 3.245c.156.09.348.09.504 0a1.67 1.67 0 0 1 0-.499c-.378 0 0 0-.693.375l.189.124Zm.441-34.451v-.5a.746.746 0 0 0 .378-.811c-.561.11-1.139.11-1.7 0 1.448-1.685-3.087-2.06-.63.562 0 0 0 1.186.378 1.872.589-.605 1.364-1 2.204-1.123h-.63Zm.819 22.468 1.071.437h.63a1.29 1.29 0 0 0 0-.686s-.315.624-.756.624v-.5l-.63.313s-.126-.313-.315 0v-.188Zm1.26 6.242s-.441 0-.63-.313a.31.31 0 0 0 0 .313h.756-.126Zm-.63 1.373h.693H169.345Zm.756.998a.694.694 0 0 0-1.071 0c.323.22.749.22 1.071 0Zm-.567 4.806c0 .312.441 0 .945.686 0-.499 0 0-.819-.873 0 0-.378-.5-.378 0l.252.187Zm2.457-71.712c0 .374 1.26-.562 0-.936V34.725Zm.945 10.173s0 .437.756 0 0 0-.504 0 0-.437 0-.624c0 0-.945-.125-.252.624Zm1.701 8.363s0 .5-.756.812h.504c.504 0 1.575-.437.441-1.31l-.189.498Zm1.512 1.935h-.693l-.315-.5s-.315-.623-.945 0c-.63.625 0 0 .441.375v.437l-.63.312s0 .437.378.75h-.315l.315.748c.315.75.441 0 .693-.936h.693c.315.749 1.323 0 1.134-1.435l-.756.25Zm.504 3.246h-.378c-.378 0-.882.374-1.701.811h1.008a2.72 2.72 0 0 0 1.26-.687l-.189-.124Zm-4.473-21.845a.56.56 0 0 1 0-.374s.126 2.06 0 .374Zm.315 52.052c.441.5 0 0 0-.624s-.441.312 0 .687v-.063Zm-.945-44.5a.553.553 0 0 0 0-.437c-.378 0-.441 1.873.63 1.436v-.687s-.378-.312-.63-.312Zm1.323 48.62s.378 0 1.008-.625c0 0-1.89-.374-1.26.75l.252-.125Zm1.323-3.059v-.749a.436.436 0 0 0 0 .75Zm0-2.808s-.441-.437-.504.312h-.378a.989.989 0 0 0 0 .686s.567 0 1.071-1.185l-.189.187Zm2.394-15.104h.63l.314-.374s0 .311-.377-.812h-.63c-.63 0-.189 1.186.315 1.248l-.252-.062Zm2.33-33.079-.441-.499c-.441-.5 0 0-.441 0s0 .437.756 1.498c.756 1.06 1.449 0 0-.936l.126-.063Zm1.449 32.33c0 .374.756.312 1.449-.562 0 0-.315 0-.567.5-.252.499-.315-.687-.441-.687a.99.99 0 0 0 0 .999l-.441-.25Zm-.693-24.279v.812s1.134-.936 0-1.373v.561Zm-.819 35.201v.375c1.638 0 .756-2.247-.567-.5l.567.125Zm-.378-57.732.63-.624c.63-.624-1.134.937-.63.625Zm-.441 26.151s-.315 2.56 1.197.437v-.312s-.315 0-.504.5c-.189.499-.567-.625-.693-.625Zm1.512 34.64c.063-.204.063-.421 0-.625v-.686c0-.687-.441 0-.882 0 .268.293.481.631.63.998l.252.312Zm3.087 12.732s.819 1.373.63 0a.874.874 0 0 0 0-.437c.378 0 .567 0 .378-1.249h-.819v-.998c0-.437-.315-.312-.756 0s-.378 0 0 .624c0 0 0 .5.315.999h.378v.437c-.315 0-.441 0-.693.624h.567Zm0-7.927h.63v-.312h-1.134s.315.624.567.624l-.063-.312Zm0 24.965s0 .812.819 0c.819-.811 0 .312.567.5.567.187 0 0 .378-.812.378-.811 0 0-.882-.437h.441c0-.437-.441-1.123-1.008.312.441.063.315 0 .063.312l-.378.125Zm1.827-27.274c0 .374.882.999 1.134 0h-.567c.945 0 0 0 .378-1.56 0 0-.567 0-.378 1.56 0 0-1.197-1.935-1.827-.437 0 0 .315.312 1.26.624v-.187Zm1.26 20.783v-.749V108.309Zm1.386 5.181c0-.437-1.26-.5 0 .561 0 0 .189-.249.063-.686l-.063.125Zm0-19.036c-.63-.562-.504.561 0 .561s.944-.062.252-.936l-.252.375Zm1.133-3.495c0-.75-.503 0-.503 0s.692.749.503 0Zm-.692 6.803h.314c.441-.365.594-.97.378-1.498-.082.475-.23.937-.441 1.373l-.251.125Zm-2.079-80.887c1.764-.375-1.197-1.31.252-.125l-.252.125Zm-.504 31.019h.378c.378 0 0 0 0 .687 0 .686 0 0 .441-.75.441-.748.441 0 .441 0h-.441c-.315 0 0 0-.567.562l-.252-.5Zm.441 17.663a.746.746 0 0 0 0-.812c-.315.375-.063 0-.126.812h.126Zm-.63 16.726c-.504 0-1.953-1.435 0-.499a5.433 5.433 0 0 0-.882-.811v.499l-.441-.749s0 1.935-.693.999a3.37 3.37 0 0 0-1.323 1.81s.693 1.248 1.197 0c.315 0-.63 2.808.882 2.371 0 0-.378.624 0 .75.378.124.441 0 .441-.687v-.624s1.134.686 1.512-1.249c.378 0 .378 0 .819-.562.441 0 1.008-1.248 0-1.747-1.008-.5-.882.125-1.638.5h.126Zm-.693-39.632s.756 0 0-.437c-.756-.436 0 0 0 .375v.062Zm0 30.582-.378-.686v1.56c0 .562 0 0 .567 0h.504s.315.5.756 0v-.624c0-.624-1.449-1.56-1.827-.25h.378Zm-1.449-41.566a.816.816 0 0 0 .693-.625c-.252.25.252.125-.693.625Zm0 34.888v.437a2.42 2.42 0 0 0 0 .874s1.197-.811 0-1.31Zm-1.701-51.553c.315 0 0 .375.567 1.062l.315.436c.315.437 0-1.498-1.008-2.246v.499l.126.25Zm-.378.375v1.186s.504 0 .693-.312c-.504-.188 0-.312-.693-.874Zm-.441-1.061s.504.437 0-.375c-.504-.81-.063 0 0 .375Zm-.63 19.223c0 .562-1.008.5 0 1.623-.214.433-.214.94 0 1.373l.63-.437.315-.5a.438.438 0 0 0 .378-.436h-1.197a1.056 1.056 0 0 0-.378-1.498l.252-.125Zm-1.323-18.412s1.764.375.756-.374c-1.008-.75-.126.062-.756.374Zm-3.401 18.6c-.63 0 0 0-1.512-1.374l-.378.5c.378.998 1.89 1.123 2.457 2.87-1.26-1.81-2.835-.748 0 1.373 0 .437.315 0 .63 1.374h.378s0 .374.882 0l.314.374v-1.872h-1.385l.756-.624c0-.437-.819-1.623 1.133-1.124v-.312a.76.76 0 0 0-.566 0l-.315-.312v.312c-.819-.562-.819-1.685-2.394-1.498v.312Zm-1.953-14.605c.378 0 0 0 .756-.624.756-.625 0 0 0-.5h.378a4.912 4.912 0 0 0-.441-1.872.31.31 0 0 0 0 .437c0 .312.315.562-.378 1.373l-.378.624.063.562Zm0 2.808v-.374l.378-.375a4.902 4.902 0 0 0-.567-1.435v1.248a.689.689 0 0 0-.441.5l.63.436Zm-.945.687-.378.5h.378l.567.748c0-.437 0-.374-.756-1.123l.189-.125Zm-.567-3.433s-.315 1.124 0-.374c-.315 0-.441.374 0 .374Zm-.567 0v-.437c-.252-.312-.063-.5 0-.062v.5Zm-.693 24.029.378-.374v-.437c0-.437 0 0 .63 0s0 0 0-.375h-.567l.378-.374c.189-.812-.504 0-.819 1.56Zm-1.827-23.467s.567 0 .756.874c.189.873 0 0 .441-.437s.63 0 .693-.375l-.693-.624h-.441a1.893 1.893 0 0 1-1.008.437l.252.125Zm-1.889-.936s1.196-.25-.252-.437l.252.437Zm0 5.055s.378.936.881 1.123c.504.188.63.687 1.701.437 0-.437-1.26-2.06-2.582-1.622v.062Zm-1.449-7.74c0 .5 1.827 1.062 1.071-.56l-.378.374s-.756-.812-1.008-.375l.315.562Zm0 8.739s.504 1.373 1.197 0c0-.75-.567-1.186-1.386 0h.189Zm0 1.997c.49.27 1.022.46 1.575.562h.378c.377 0 .566.437 1.007-.437-.881-.874-1.196.624-2.582-.75l-.378.438v.187Zm-1.134-2.559v.312h-.504c-.504 0 0 0 .441.936.057.447.162.886.315 1.31 0-.873 1.008-1.06 0-2.62l-.252.062Zm-.504-.437v-.686s-.315 0-.504.436c-.189.437 0 0 0 .562.315 0 0 0 .567-.374l-.063.062Zm-1.638-1.186h1.323l-.315-.686c-.315-.687-.315 0-.441 0l-.441-.687v.5l-.126.873Zm-.567-.998s.315 0 .315-.937c0-.936-.315 0-.315.937Zm1.197 6.803s0-.5.819-.437c.819.062-.945-1.873-2.079-1.873a.983.983 0 0 1 0 .375l-.441-.5c-.291.444-.424.971-.378 1.498a.317.317 0 0 0 .378 0c.315 0 .504 0 1.071-.437.567-.436 0 0 .63.687v.687Zm-.945 4.618c0 .375 0 .5.756.687a8.122 8.122 0 0 0 0 .936h1.575v-.375s-.441 0-1.071-.561c-.63-.562 0 0 .315-.437l-.441.5c-.26-.063-.5-.192-.693-.375l-.441-.375Zm-4.41 8.301c-.503.375 0 .999 1.071 1.061-.441-.437 0 3.682 1.134 1.498h.315s.378 0 .945.998c0 0 .378 0 .756-.748l.567.936h.504c.504 0 .315 0 .504.561.504.625 1.512-1.06 0-.748a2.775 2.775 0 0 1 0-.562h-.567l.693-.75s0-.374 1.197-1.123l-.378-.873s.63.499.756-.5a.635.635 0 0 1 .441 0h.315a1.304 1.304 0 0 0-.315-.936h.378c.01-.187.01-.374 0-.561h.819-.315c-.315 0 .945-.625.441-1.56-.504-.937 0 0-.63.686s-.756-1.685-2.268-.936c0 0-.756-1.186-.882 0h-.567c.122.454.336.879.63 1.248a2.807 2.807 0 0 1-1.197 1.81h.315v.374h-.378l.315.375c-.315 3.183-2.835-3.121-2.646 0-.504 0-.567.374-1.638-.687h-.503v.874l.188-.437Zm-.314 9.3a.745.745 0 0 0-.315.436s.566 0 .818-.437v-.312s.378 0-.377.562l-.126-.25Zm-.63-.313c-1.26 0 0 1.186.504 0 .503-1.185 0-.437-.504 0Zm-1.638-2.371c0-.437 1.827 1.56 2.016 0 0 0 0-.437-.63-.999-.063.25-.945-.25-1.386.687v.312Zm-.63 8.176s0 1.06 1.323 0l.756.749s0-.562.693-.437c0-.936 0-1.186-1.827-2.122a1.37 1.37 0 0 1-.315-.5 1.984 1.984 0 0 0-.441 1.56l-.189.75Zm-3.087 2.684a.738.738 0 0 0 0 .499h.567a.557.557 0 0 0 0 .686c.473.08.937.205 1.386.375v.312c.217.314.562.52.945.562l.567-.437h-.315a.634.634 0 0 0 .315 0v-.5h-.378v-.312s-.441.562-.945 0c-.504-.561 0 0 0-.437v-.312c-1.071 0-.63 0-2.268.812l.126-1.248ZM148.62 48.08s0 .936 1.386.75c0-.563 0 0-1.071-1l-.315.25Zm0 18.225c.693 0 0-.624 0-.624s-.441.81 0 .624Zm-1.827-13.42s0 .875.693.688c.693-.188 0-.874.693-1.374h-.693s-.378 0-.504.5l-.189.187Zm-1.952-9.299s.504 0 .882.75c0 0 .504 0 0-.937-.504-.936 0-.749-.882-.811a.863.863 0 0 0 0 .686v.313Zm0 .874c0-1.06 1.008 1.186 0 0Zm-1.008-5.18v-.437.437Zm-.819 23.592s-1.008 1.685 0 .5c-.063-.126-.189 0 0-.5Zm.378-10.61v-.812c0-.81-.693-1.435-.567 0l.441.937.126-.125Zm.945-4.494c0 1.873 0 0 1.26-.749a1.463 1.463 0 0 0-.693 0s1.071-.811.441-1.435a.508.508 0 0 0-.441 0h-.315l-.441-.937c-.441 0 .504.812 0 1.56-.504.75 0 0-.63 0s0 0-.504-.374c0 0 0 .75 1.134.687 1.134-.063-.441.811.693.998l-.504.25Zm.63 14.355v-1.31s-1.008.81 0 1.06v.25Zm-.126-9.112v.562-.937.375Zm.882 10.235.567-1.123c-.756 0-.819 0-1.512 1.435.063 0 .063.063.693-.312h.252Zm.944-.499c.882 0 0-2.31 0-.5v.563-.063Zm0-4.68v-.5.5Zm.567-1.436s.441-.375.504-.812h-.378v-.374h-.378s0 .312.441.374h-.378v.812c0-1.56-1.952.998 0 .561a.683.683 0 0 0 0 .5h.378v-.624c0-.125-.315-.125-.189-.437Zm.693 29.52-.315.313h.378a.683.683 0 0 0 0 .5h.63c.63 0-.693.56 0 .873.504-.5.504 0 1.953.811h.315s0-.312-.567-.811c-.567-.5 1.386.624 1.323 1.498-.378-.936-1.827-.5 0 .936 0 0 .441-.312.819-.5l.756-.686c.756-.686 0 0 0-.561 0-.562-.567 0-.945.998-.441-.312 3.402-4.68 1.26-3.37v-1.31c0-1.312-.819-.563-1.638 1.185 0-.562.567-.375 0-1.498s0-1.498 0-3.245c0 0-.315 0-.945-.312.288.263.605.493.945.686-.504.936-.693 1.935-1.512 3.495v-.561c0-.562 0-.687-.63-1.374l-.441.375v.562a.622.622 0 0 0 0 .624c-.567 0-1.26-.812-1.323.624v-.624c-.315 0 0 0-.441.686l.378.687Zm.378 15.167s.441 0 .693-.499a1.205 1.205 0 0 0-1.134-.375s.315 0 .315.812l.126.062Zm.315-12.857s-.882-1.248-.882.687c.693.561.693 1.06 1.512-.5l-.63-.187Zm-.315-.624c.441 0 .63 0 .315-.811 0 .436-.819.686-.378.811h.063Zm-.945 6.241s0 .562 1.197 0c0 0-.882-1.123-1.26 0h.063Zm.504 14.043h.378c.378 0 0-.624-1.071-.499 0 0 .441 0 .567.312l.126.187Zm-3.59-17.101s0 1.31 1.26.936c0 .375.441 0 .756.75.377-.438.944-.375.377-1.748 0 0-.44 0 0 .686.504.999-.44 0-1.7 0l-.693-.624Zm-1.89 16.976h.819c.819 0 0 0 .693.312s.378 0 .882 0 0 0 0 .624c.441-.811-.756-1.747-2.268-2.309 0 .499 0 0-.504.936l.378.437Zm.693 3.745.63-.811c.63-.812 0 0-.693-.312v-.312s-.504 0-1.26 1.31l.378.312a.375.375 0 0 0 .315.375v-.375h.378l.252-.187Zm0 6.928c.567-.874-1.827-.874-.504.437-.315-.063-.252-.063.252-.687l.252.25Zm-3.78 13.668 1.008-.624c1.008-.624 0-.437-1.701 0 0-.562 0-.312.693-1.311 0 0 1.071-.312.63-1.185-.21.193-.442.361-.693.499v-.437c.882 0-3.527 3.994-1.26 4.806-.756-2.559 1.26.062 1.071-1.997l.252.249Zm-1.953-9.799c.37-.053.718-.204 1.008-.436 0-.812-2.456-.5-1.008.499v-.063ZM139.99 106a.374.374 0 0 0 0-.562s-.567.874 0 .624V106Zm.441 15.541c-.378-.999-1.26.562-.252-.25l.252.25Zm-.819-19.036c-.378 0 0 0 0 .624s.882.562-.252-.874l.252.25Zm1.008-13.044c-.693-.812-.315 1.872-.252-.25l.252.25Zm.315 37.884s0 .437 1.134 0v-.312a.952.952 0 0 0-1.386.063l.252.249Zm.567 4.681c0-.437 0-.312 0 0 0 .437.756-1.81-.252-.499l.252.499Zm.315-30.395h.504c-.378 0-.756-.249-.756-.249l.252.249Zm-2.394-16.102v.936c0 .936.315 0 .945 0 .63 0 1.071-1.186-.378-.437a.507.507 0 0 0-.693-.312l.126-.187Zm-.882 7.052s0 .312.378.874.756-1.248-.378-.936v.062Zm-1.512-3.807s.819 0 .441.999c0 0 1.449-.624 0-1.685-.063.062.252-.25-.441.686Zm-2.204-.936s0 .624.882.687c.881.062 0-.687-.567-.937 0 0-.252.25-.315.25Zm-2.205.562h.693a.68.68 0 0 0 0 .437l.567 1.06s.378 0 0-1.248c0 2.122 1.386 2.56 0-1.373v.937a1.067 1.067 0 0 0-.693-.75h-.378s-.504.5-.378.75l.189.187Zm-.63 4.369s0-.313 1.008 0c1.008.312 0 0 0 .499 0 .5 2.079-1.373.441-1.81-.441-.437-.882-.375-1.827 1.186l.378.125Zm1.827 7.489c-.441-.562-.504 0-.504 0s1.008.499.504 0Zm0 5.804c-.378 0-.693.5 0 .5s.63-.437 0-.5Zm-1.575-4.743c0-.499 0-.686-.567-.686s.315 1.123.567.686Zm-1.827-22.094v-.749c0-.374 0-.25 0 0 0 .375-.441 0-.504 0s.315 0 .378.437c0 .437.063.437 0 0l.126.312Zm-2.961 9.674s1.008 0 .504-1.248a1.867 1.867 0 0 0-.567 1.123l.063.125Zm-1.512-1.061v.999h.63s.693 0 .567-.687a4.492 4.492 0 0 1-.378-.562c-.221.2-.522.292-.819.25v-.312a1.088 1.088 0 0 0 0 .312Zm0 3.495c.504-.5.756.375 1.953 0 1.197-.374-.63-1.06.63-1.935 0 0 0-.374-.819 0-.945-.749-.441.75-1.449 1.186-1.007.437 0 0-.378 0l.063.75Zm2.079 3.058c.882.375 1.827-.811 0-.312v.312Zm-3.716 6.366c.756.437 1.071-.686 2.33-1.185l-.63-.437c-.629-.437 0 0-.629.624a4.387 4.387 0 0 0-1.134.998h.063Zm1.449-7.177s1.889 0 0-.562c-.189.125-.819 0-.504.5l.504.062Zm-1.323 9.986c.378.499.882 0 2.015.749a3.802 3.802 0 0 0 1.197-1.81c-.756-.687-2.204 2.559-2.015-.375 0 0 0 .437-.756 1.124h-.441v.312Zm1.448-11.36s-.314 0-1.196.625a1.07 1.07 0 0 0 0 .374 1.63 1.63 0 0 0 .945-.998h.251Zm-1.574-3.557.441.562c.441.562 0 0 .945-.686h-.315s-1.197-.687-1.575.062l.504.062Zm-1.512 1.686h.504a4.987 4.987 0 0 0 1.89.998.445.445 0 0 0 .378 0s0-.749-.819-.811c0 0 0-.312-.882-.437 1.512-.437 0-2.06-1.197 0l.126.25Zm0 12.981c0 .375 1.071 0 .315-.374-.756-.375-.756-.063-1.071.312l.756.062Zm-1.575 5.867c.756 0 .315-.312 0-.374-.315-.063-.819 0 0 .374Zm1.512 1.685.756-.624c-.378 0-1.89-.936-1.638 0 0 0-1.323 1.872.882.312v.312Zm2.457 12.171.755-.562-.818-.499s.378.312.378.998c0 0-1.134-.062-.819.063h.504Zm1.322.998c0-.312 0 0-.944 0-.945 0 1.322.749 1.007 0h-.063Zm.441-10.547c-.63 0-1.448.312-2.393-.874-.693 0-3.528 2.371-1.134 1.747a1.458 1.458 0 0 0 1.827 0l1.007.5c1.008.499 1.386 0 .693-1.249v-.124Zm-1.259-5.43h-1.449s0 1.872 1.071 1.186v-.375l.378-.437h.314s-.692-.125-.818-.374h.504Zm1.952-2.434c.693 0 1.638 0 2.268-1.623-.63-1.685-1.953 1.435-4.032.624 0 0-1.133 0-1.826.811l.378.375c-.315 0-.504-.375-1.197.499 1.323 1.498 1.764.25 4.346-.686h.063Zm1.764 13.543c0-.624-1.449 0-.378.499 0 0 .315 0 .378-.499Zm.63-14.23s-1.323.562-1.386 1.373c.378 0 0 0 1.449-.749.189 0 .126.125-.126-.624h.063Zm.315-11.484s-.378 0-.882-.562c-.504-.561 0 0 0-1.123 0 0-.882 1.31-1.701 2.122h.315v.624c.315 0 0 0 .504-.686.504-.687.882-.313 1.701-.375h.063Zm.504 20.534h.63c.63 0 0 0-.567-.624l-.441.437a.439.439 0 0 0 .378.437v-.25Zm1.071 5.18a1.122 1.122 0 0 0-.504-.811c-.504 0-.504 1.935.504.811Zm0-1.747c-.315 0-.63 0 0 .811s.315-.437-.189-.811h.189Zm1.701-.312c0-.375-.882 0-1.134-.313a1.982 1.982 0 0 0 0 1.686v-.375a.803.803 0 0 1 0-.499h.378l.756-.499Zm2.331-20.472s0 .437 1.133 0c-1.133 0-1.196-3.37-2.456-.749 0 0-.441 1.186-.756 2.621.819 0 .567-1.185 2.079-1.747v-.125Zm-.504 43.315c-1.512 2.683-1.008.312 0 0Zm2.393.561h-.378s-.882 0-.882.749l.504.312c.315 0 0-.437.756-.936v-.125Zm0-6.241c-.945 0-2.645.312-1.323 1.748 0 0 1.197-.375 1.323-1.748Zm1.071 4.494c-.378 0-.504-.312-.756.686l.945-.749-.189.063Zm3.402-2.185s-2.142-1.373-1.386 0c0 0 .693.749 1.386 0Zm1.323-5.43v-.561h-.693c-.693 0 0 0 0 .811s.945.624 1.008.125l-.315-.375Zm.504-15.166s.378 0 .882-.312a14.43 14.43 0 0 0 3.149-.749c.504.312.63.936 1.638 0 .819.562 2.142.375 3.339-.874.297.248.685.362 1.071.312a.374.374 0 0 0 0-.437l.315.5c.315.499.945-.999-.567-1.436-.378.437-1.449 1.124-1.512-.437-.315-.312-.567.874-1.827 0 0 1.249-2.394.937-1.449 2.122-.882-.811-2.394 0-3.968-1.248 0 0 0 .312-.315 1.248l-.756-.312v1.498h-.441v-.374l.378.624c.378.624 0 0 .504 0l-.441-.125Zm8.819 9.3a6.796 6.796 0 0 0-3.087-2.372c.315.312 0 .562 0 1.997h.567c.567 0 .693 1.685 1.827.312 0 0 0 .312.882 0l-.189.063Zm-2.646 7.988h.567v-.374h-.378s0 .312.567.936l-.756-.562Zm.819-1.747s.504 0 0-.499c-.504-.5-.63 0-1.953 0s-.315-.625-1.008.436h-.756c-.756 0 0 .437.819.437a3.048 3.048 0 0 0 2.898-.374Zm-.882-12.483h-.504c.189 0 .315.749.504 0Zm0-2.933s-2.961.25.252.187l-.252-.187Zm-.63 12.046c1.512.686 0-.437.252.187l-.252-.187Zm3.276-4.245c.378 0 0 0 0-1.373h-1.197c.055.415.055.834 0 1.249l1.26.312-.063-.188Zm.063 4.619h.567c.145-.029.295-.029.441 0v-.936c0-.936-.504.125-.945 1.123l-.063-.187Zm0 6.241h.504c.504 0 0 .437.504.437 0-.312 0-1.373-.819-.998l-.189.561Zm-7.055-3.245c0 .312 0 0 .629 0 .63 0-.629-.624-.629 0Zm0-2.434s-1.008-.812-.693 0c.315.811 0 .437.693 0Zm1.133 4.057-.692-.375c-.693-.374 0-.374 0-.437a9.776 9.776 0 0 0-1.449 1.56l.378.313c.819-.188 1.008.187 1.763-.937v-.124Zm.441-9.487.441.437c.441.437 0 .312.441 0 0 0-.756-1.623-1.008-.562l.126.125Zm6.048 15.353s-1.89-.374-1.449.437c.441.812.378 0 1.512 0-.441-.312-.504-.312-.315-.437h.252Zm3.212 3.808-.881.499c-.315-1.248-2.142 0-.378.624a7.498 7.498 0 0 1 1.071-.874l.188-.249Zm.693-2.996-.755.499c-.756.499 0 0 0 .437s.314 0 .692-.437c.378-.437.315 0 .378 0l-.315-.499Zm0-2.746c0-1.935-2.267 1.123-2.267-1.061-.819 0-1.764 0-2.898 1.435h-.819c-.819 0 0 0 .441.811-.945-.686-2.394 0-4.032-1.185a1.36 1.36 0 0 0 0 .873c-1.7 1.685 0 1.561 3.15.687.504.312.567.686 1.638 0 .819.562 2.016.312 3.339-.812.447.285 1.027.26 1.448-.062v-.686Zm0-4.557c1.008-.187-.944-.998.693 0h-.693Zm.819-6.803h-.315s0 .625.945.375h.504a.494.494 0 0 0 0-.624.505.505 0 0 0-.441.312h-.378v-.499h-.504l.189.436Zm.378-5.742c0 .313 1.26 0 .315-.374-.945-.374.756 0 .441.374h-.756Zm0 18.724s-.945.312-.819.874c0 0 1.26.499.945-.687l-.126-.187Zm2.646.437s-.693-.686-1.071 0h.315v.312h.441l.315-.312Zm.441-5.243c.567-.748-.693-2.059-1.953-2.933 0 0-.63-.811-1.134 0 0 .437 0 .437 1.134.499.207.274.338.597.378.937-1.827 0 0 .873 1.323 1.997a5.852 5.852 0 0 0 0-.562l.252.062Zm-1.008-3.058c-.819 0 1.008 1.249 1.512.562s.882-.811-.567-.687l-.945.125Zm3.024-6.179h.441s-.567-.499-1.386 0v.437c.315 0 0 0 .63-.312l.315-.125Zm1.071 1.935c-.504.437-.63 0-.504 1.498-.378.312 1.575-.499.441-1.186l.063-.312Zm.567-4.806h.756a.714.714 0 0 1 0-.312h-.441s0 .437.378.749l-.693-.437Zm2.519 11.796v-.686c0-.687 0-1.498-.441 0l-.314-.312s-1.386.811.692 1.31l.063-.312Zm.882 6.741a1.3 1.3 0 0 1 0-.999h-.441l.819 1.061-.378-.062Zm0-10.298c0-.375-.819-1.997-1.323-.375l.504.437s.378 0 0-.437c-.378-.436-.063.437.63.375h.189Zm.63-12.108s0 .374.567 0c.378 0-.945-2.434-2.52-2.309-2.015 1.498-6.299 0-8.756.374.315.499 1.827.437 1.701 1.997.441 0 1.071-.561 2.457.437 0 0-.63 0 0 .749h.63c1.197 1.436 2.646-.374 4.346-1.623l.882.5c.882.499 0 0 .315 0l.441-.687c.441-.686 0 0 .315.375l-.378.187Zm1.638 13.606a1.524 1.524 0 0 0-1.764 0 2.098 2.098 0 0 0 1.638 0h.126Zm2.898-24.341c-.378 0-1.701 0-.819.936.882.936 0 0 .567-.437l.252-.499Zm1.134 21.47s-.378 0 0-.749c0 0-.63 0-.756.998-.126.999.504 0 .63.749s.378 0 .567-.561l-.441-.437Zm3.59-24.341a.44.44 0 0 0 .504-.312v-1.498c0-.312-.315 0-.504 0h-.756s0 .312-.315 0c-.314-.312 0 0 0-.437s0 0 1.071-.499c0 0-.315-.375-.693-.5 0-.873-.441-.436-1.07-.686 0 0 0-.375.629-.811.63-.437 0 0-.566-.562-.567-.562-.756.374-.756-.5 0-.873 0 0-.315 0a2.862 2.862 0 0 1-.756-1.123v.312c.016.208.016.417 0 .624l.315.562h-.315c.056.225.056.461 0 .687 0 0-1.008-.687-.567 0h.378a1.55 1.55 0 0 1 0 .499s-.441 0-.63-.437-.378 0-.504 0 0 0 0 .374v.5l.567.374c.249-.054.507-.054.756 0 0 0-.315 0-1.197-.499-.882-.5 0 0-.756 0 .315.374.441 0 1.575.999l.441.374-.756.874.315.374c.315.375 0 0 .441.312s.378-.312.504 0v.687c0 .686 0 0 .504 0s0-1.124.693-.687c.692.437 0 0 .567.437v-.437s.377.624.755.999h.441Zm.756 16.851v-.624s-1.953.874-.441.624h.441Zm.441 21.096c-.756.374-.945.874-.441 0h.441Zm0-10.922c.756.499 0 0 .315 0h-.315Zm.504-8.052c-2.079-1.123.63-1.31 0 0Zm1.071 19.972c.378-.312.441 0 .378-1.061 0 0 .819-.624 0-.686h-.378c-.819.998-.315.437-.189 1.747h.189Zm1.764 0h-.567v.749c-.378 0-1.575.5-.504 1.436v-.624a.935.935 0 0 0 .504-.812s.504 0 .63-.686l-.063-.063Zm.693-11.421c.441 0-.315-1.124-.756 0h.756Zm0 3.308c-.756 0 1.197 1.248 0 .374s.126.063-.189-.312l.189-.062Zm2.583-13.044.504-.437s.441.561.693.437c.251-.125 0-1.561-1.449-1.498.046-.561.046-1.125 0-1.686v-.561c0-.562-.378 0-.819-.562-.441-.562 0 0-.315.749a1.066 1.066 0 0 0-.378-.374l-.315.436h-.63s.315 0 0-.873v-1.498c0-1.061 0 0-.945.312-.63 0-1.512 1.31.315 2.309v.687a1.323 1.323 0 0 0-.504-.5s-.945 1.685 1.008 2.746c0 0 0 .375.504.625.504.249-.378.749.756.749.315 0 0-.687.882-1.249v-.624c0-.624 0 0 .504.437 0 0-.441-.062.252.375h-.063Zm1.008 2.434s.629 0 .629-.312l-.629.312Zm.503 2.059s0-.437-1.07-.936h.315c.315 0 0 1.498.944.936v-.312l-.189.312Zm0-24.403s0-.499-.566-1.311c-.063.25-.378.687.881 1.311h-.315Zm.945 22.281h-.378.504-.126Zm.63-11.109c0-.375-1.071-.562-.882.499 0 0 .756 0 .945-.499h-.063Zm-.63-1.498s-.315.437.693.749c-.315-.312-.189-.562-1.071-.812l.378.063Zm.378 0a.498.498 0 0 0 .315-.624s-.819.312 0 .624h-.315Zm.693 10.048h-.315c-.315 0-.756.125-.063-.249l.378.249Zm0-19.535c0-.312 0-.562-.819 0s-.945 1.685.378.687h.441v-.687Zm1.26 20.784a.761.761 0 0 0-.567 0s-.252 0 .189-.25l.378.25Zm.378-5.618h.315c.441-.749-3.465 0-.819 0v.312h1.008c1.008 0 0 0 0-.312h-.504Zm.315 3.495h.63c.63 0-.441-.998-.567 0h-.063Zm.693 4.806h-.693c.158.166.352.294.567.375v-.312l.126-.063Zm1.008-34.701v-.437s-.315 0 0 .686c.316-.174.612-.384.882-.624l-.882.375Zm.819-8.114c-1.575 0 0-.312 0 0Zm0 35.076h.504s-.63-.374-.945 0c-.315.375 0 0 .441 0Zm.756 1.311a.948.948 0 0 0-.819 0h.819Zm.378 2.871h-.378l-.315.374c-.315.375.567.375.693-.437v.063Zm-.378-59.417-.567.312c-.567.312.504.374.63-.375l-.063.063Zm0-4.306c0-.313 1.827-1 1.701-2.123v.188c-1.008-1.061-1.953 1.872-3.969.811 0 0-1.071 0-1.827.874l.441.437s-.441 0-1.197.561c1.386 1.56 2.016.5 4.473-.748 0 0 .378 0 .819.187l-.441-.188Zm1.197 65.47.567.312c.567.312-.567 0-.756-.873h.315s-.441-.312-.441 0v.312c0 .312 0 0 .378 0l-.063.249Zm9.701 19.972c-1.134.5-1.89 0-2.205 0-.315 0 .567 0 0 .5-.567.499-1.008.873-1.197 0-.189-.874.378-1.873-.567-1.436-.945.437 0 .437-.378.936-.378.5 0 .375-.504.437-.504.063-1.512-.624-.882 0s1.323 1.124.819 1.373c-.504.25 0-.437-.819 0s0 1.748-.882.812c-.882-.937 0-1.498-1.071-1.561-1.07-.062-.755-.312-.818 0v3.932c0 14.979-.945 23.655 3.842 30.458l.819.936c3.339-3.995 4.284-11.921 4.347-27.774l-.504-8.613Zm.819-15.416c-.378 0-1.26 0-1.323.5-.063.499 1.575.561 0 1.186.063.413.063.834 0 1.248 0-.562 1.386-1.124.882-2.871l.441-.063Zm1.134-1.248-1.512-.437a.953.953 0 0 0-.693 0c.819 0 .882-2.434-.504 0-.378 0-1.197 1.561.441 1.061v.312c0 .312.504 0 1.008-.374.504-.375 1.889.998 1.449 0l-.189-.562Zm1.133-9.799a1.947 1.947 0 0 0-1.07-.873s.566 0 .566 1.061c-.252-.063.441.249.504-.5v.312Zm1.008-34.015c-.567-.312.441 1.436-.252-.312l.252.313Zm1.701 2.934V85.34c0-.686 0 0-.441 1v.436l.441-.312Zm1.008 24.965a2.785 2.785 0 0 0-.315-1.061.682.682 0 0 0 0-.499h-.315s-.756.312.378.998l.252.562Zm-.063-28.835s.504 0 .693-1.248l-.756 1.124s-.315-.375-.882 0c-.441-1.249 0 1.622.504 0 0 0 .126-.063.441 0v.124Zm2.142 51.553c-.882-.499-.315 1.56-.315 0h.315Zm.945-24.715a1.13 1.13 0 0 0-.756-.749c.441.374 0 1.061.567 2.059a6.191 6.191 0 0 0 .567-1.56l-.378.25Zm0-2.871c-.756.561-.378 0 0 .998-.189-.249-.441-.062-.126-.998h.126Zm0 25.339c0 .312 0 .312 2.016.999.441 0-.315-.687-1.008-1.373-.693-.687 0 0-.882.374h-.126ZM327.523 97.2c0-31.206-14.804-82.947-88.947-83.633h-12.284a.508.508 0 0 0 .378 0c.378 0 1.26 0 .504.562-.756.561 0 2.06-.945 2.184-.945.125-1.638-.5-1.575 0 .175.594.385 1.178.63 1.748.435.63.695 1.361.756 2.122 0 .998 1.008 1.373.504 1.747-.504.375-1.575 0-2.079 0a1.68 1.68 0 0 0-.63 1.31c0 .5.63.688.441 1-.189.312-1.386 0-.945.624.441.624.945 1.31 2.016.749a6.3 6.3 0 0 0 2.331-1.686c.63-.81 1.071-.936 1.134-1.56.062-.624.377-.811.629 0s.441.562 1.071.999c.63.437.441.873.567 1.997.126 1.123.756 1.248.378 1.747-.378.5-1.197-.311-1.386.812-.189 1.123 0 1.373.567 1.872.567.5 0 .812 1.134.936 1.134.125 2.205.625 2.205 0 0-.624-.693-1.31-1.26-1.622-.567-.312-1.071-.437 0-.562 1.071-.125 1.386 0 1.512-.749.126-.749 0-.437 0-.998 0-.562 0-.313.819-.874.819-.562 0 0 1.386 0s1.512.998 1.764 0a4.644 4.644 0 0 1 .693-1.748s.692.624 1.574.687c.882.062 1.26-.375 1.26.811s-.819 1.373-.567 2.184c.252.812.882 1.249 1.575 1 .693-.25.945.498 1.323-.5 0 0 0 .437.504.5.504.061 0 0 0 .436a.493.493 0 0 0 0 .437s.378 0 .567-.375v.375-.75h.441s.441 0 .63-.56a.683.683 0 0 0 0-.5h-.567V28.733c0 .063-.441 0-.441-.437v-.561s-.315 0-.378.499h-.756c.441-.5.945-.5 0-1.124-.945-.624-1.008-.998-1.008-1.435 0-.437 0-.5-.63-.874s-.567-.374-.945-1.06c-.378-.687-1.008-.812-1.008-1.187.053-.425.312-.797.693-.998.4-.182.86-.182 1.26 0 1.197 0 1.386 1.248 1.764 0 .378-1.248.378-1.997.756-1.31.378.686.504 1.06 1.008.935a2.988 2.988 0 0 1 1.071 0c1.134 0 1.89.5 2.709 0 .818-.499 1.637-1.06.566-1.06-1.07 0-1.952.561-1.511-.313.176-.435.457-.82.818-1.123 0-.5.378-.936 1.008-.936s1.701.437 1.89 0c.189-.437 1.134-1.186 1.134 0s-.378 2.559.756 2.371c1.134-.187 2.016-1.373 2.205-.749.189.625 0 1.436.945 1.623.945.187 1.323 0 1.134.5-.189.499.504.81.504 1.248 0 .436 0 .873 1.007.686a1.01 1.01 0 0 1 1.008.5.928.928 0 0 1 0 1.06c-.63.625-1.952.937-1.763 1.873.189.936 1.511 1.373.566 1.498-.944.125-.881.998-1.637.374s-.504-1.747-1.764-.998c-1.26.749-1.071.936-1.701.936-.63 0-1.575 0-1.512.374.116.406.263.803.441 1.186 0 0 1.89 0 1.575 1.31a11.538 11.538 0 0 1-.756 2.06v.625c0 1.123.504 2.06 0 1.872-.504-.187-2.835-1.436-2.394-.624.441.811 2.205 1.56 2.772 1.81.567.25 1.575-.936 1.827-1.56.252-.625.63.374 1.134-.874.504-1.249 0-2.06 1.008-1.623 1.007.437 0 1.31 1.385 0 1.386-1.31 1.197-1.623 2.331-.936 1.134.686 1.008.998 1.575.936.567-.063.63 1.186 1.071 1.186.499-.02.989.135 1.386.437.397.328.646.8.693 1.31 0 .812-.315 1.873 0 2.185.518.203.929.61 1.134 1.123a.994.994 0 0 1 0 1.248s-1.197-1.747-2.205-1.185c-1.008.561-1.197 1.31-1.827 1.31-.63 0-2.394 0-.819.562 1.575.562 2.709 0 3.591.5.882.499 1.323.686.945 1.06-.378.375-1.575.624-.567.812.331.19.739.19 1.071 0 .365-.14.645-.44.756-.812 0-.749 0-1.435.944-.873.945.561 1.764-1 1.953 0 .189.998.819.748.945.998s-.378.375 0 .936c.378.562-.819-.374-1.197.5-.378.873.378.936 0 1.747-.378.812.441.936 0 .936s-.315-.936-1.764-.749a10.99 10.99 0 0 1-2.015 0s-.504.625 0 .874c.504.25.819 0 .882.999.024.395.024.79 0 1.186 0 .436-.63-.562 0 .436.63 1 .756.75.378 1.061-.378.313-.378 0-1.008 0s-.819-.436-.945 0a1.556 1.556 0 0 1-.378.874v.625c0 .624.378.561 0 .873-.352.126-.629.4-.756.75 0 0-.441-1.936-.882-.937a1.178 1.178 0 0 0 0 .999c.105.355.357.65.693.811.63.5 1.071.687.882 1.248-.189.562-1.071.437-.882 1.186.153.547.693.895 1.26.811.63 0 .756-.748 1.386 0 .63.75.882.999 1.448 0 .567-.998 0-2.246.819-1.435.338.31.859.31 1.197 0 .63-.437.378.749.882 1.06.504.313.819-.56 1.008.563.189 1.123.378 1.498 0 1.498s-1.134.374-.693 1.248c.441.874 0 1.123-1.008.686-1.008-.437-1.008-.811-1.008 0-.079.544.136 1.09.567 1.436.378.312.882.312 1.071 1.31.189 1 0 1.249.378 1.249h1.386c.63 0 .819 0 1.071.874.034.578.336 1.108.819 1.435l.378.936c.378.936.819-.437 1.26-.562.441-.124.693-.624.504.625-.189 1.248-.693 1.435 0 1.934a3.429 3.429 0 0 1 1.511 2.122c0 .687 0 .625-.503 1.436-.504.811-.63 1.248-1.134 1.248-.504 0-1.134.437-.441 1.248.693.812 1.449 0 1.89.874.44.874.377 1.56 1.133.874.756-.687 0 0 .63.624s1.008 0 1.575.562l.945 1.435c.441.5 1.26.936 0 1.061-.5-.09-1.012-.09-1.512 0-.945.312-.693 0-.945.312-.252.313-.882.5-.882.999 0 .5.63 0 .756.874.126.873.315 1.186 0 1.498a.445.445 0 0 1-.504 0s-.378 0-.504-.375c-.126-.374 0-.624-.504 0-.503.624-.692.936-.755 0a3.441 3.441 0 0 1 0-.811v-.437c-.63 0-1.323 0-.945.562.378.561.378 0 .693 1.186.315 1.185.882.998.378 1.497-.504.5-.945.313-.693.874.252.562.441.312 0 .562-.441.25 0 .374-.693 0-.693-.375 0-.5-.567-.811-.567-.313-.63 0-1.008-.687-.378-.686-.378-1.81-.693-1.81a1.08 1.08 0 0 0-.63 0v1.248l.378 1.998.693.81c.693.812 1.071 1.561 1.512 1.561.441 0 .819-.437.945.375-.003.949.124 1.893.378 2.808.441.562 1.448.812.504 1.124-.945.312-1.575-.375-.882.312.693.686 2.015.686 2.015 1.435.126.47.126.965 0 1.436v1.435c.238.395.348.852.315 1.311v.811c0 .812.63 1.997 1.008.999.378-.999 0-1.623.567-1.685.567-.063.378-.562.819.749.441 1.31 0 1.061.504 1.747.504.687.504 2.06.945.999.441-1.061 0-1.436.567-1.81.567-.375.693 0 1.008 0 .315 0 .441.874.819.437.378-.437 0-.562 0-1.124 0-.561-.315.437 0-.561a6.196 6.196 0 0 0 .441-1.561c0-.499 0-.749.63 0s.378.999 1.008.624c.63-.374.504-.374.945-.437.44-.062.566 0 .818-1.123s0-1.061 0-1.748c0-.686.504-.873.63 0 .126.874 0 1.124 0 1.686l1.197 1.622a1.05 1.05 0 0 1 0 .937c0 .436-.882.624-.441.998.441.375.819.749 1.008 1.186.189.437.756.874.441 1.311a.761.761 0 0 1-.882.312c.252.362.443.763.567 1.186a1.11 1.11 0 0 1 0 .998s-1.827-.936-1.512 0a4.937 4.937 0 0 0 1.323 1.685s1.134.812.567.812a2.154 2.154 0 0 0-1.071.312s-1.071.499-1.197 0c-.126-.5-.567-1.373-1.008-1.311-.441.062-.441 0-.377.874a4.056 4.056 0 0 1 0 1.498 1.266 1.266 0 0 0-.945 0c-.441.374-.693.374-.819 0-.126-.375 0 0-.945-.624-.945-.625-.756-.999-.63-1.373.126-.375.567-1.061-.378-.437-.945.624-.819.561-1.26.374-.441-.187-1.134 0-.567.437s.819.312.882.999c.063.686 0 .624 0 1.123s.63.749 0 .999c-.63.249-.63.873-1.323.686-.693-.187-1.638-.499-1.134.375.504.873 0 1.747.945 1.872s1.197.375 1.764-.687c.567-1.061 0 1.124.945.749.945-.374 0-1.061 1.323-1.185 1.323-.125.882-.375 1.764 0 .881.374 1.511.749.44.749-1.07 0-1.259.436-.692.686.566.25 2.519.749 1.826 1.186-.693.437-1.26-.749-1.7 0a.874.874 0 0 0-.63.811c.567.5.945 1.061 1.259 1.249.315.187 1.386.561.504.686-.881.125-1.7-.936-2.393-.811a5.259 5.259 0 0 1-1.323.374c-.504 0-1.197.437-.756 1.061.441.624.504.5 0 1.124-.504.624 0 .749 0 1.061 0 .312.504 1.373 0 1.123s-1.008-1.623-1.323-.686c-.315.936 0 1.435 0 1.622 0 .188 0 0-.693 0s-.441-.499-.441.437c0 .936 0 1.623-.441 1.186-.441-.437 0-1.061-.819-1.123-.819-.063-1.134.374-.945.749.189.374.882 1.123 0 1.123s-1.197.811-1.638.936c-.441.125-.818 0-.566-1.373s.629-2.247-.567-1.186c-1.197 1.061-1.134 1.685-.819 1.997.315.312.819 0 .945.812.126.811.441.936 0 .936s-.693-.562-.756 0c-.063.562 0 1.248 0 1.623 0 .374 1.952.561 1.26 1.248a1.115 1.115 0 0 0-.315.999c.042.378.249.72.566.936.693.374 0 .749 0 1.373a.68.68 0 0 1 0 .811.761.761 0 0 1-.818 0c-.378 0-.504-1.623-.882-.874s-.693 0-1.134-.436c-.441-.437 0-.999-.756-.437-.756.561-.945.374-.756.873.189.5.819.874 0 .562-.819-.312-.567-1.186-.819 0s0 .687-.882 1.623c-.882.936-1.197.874-.819 1.311.378.436 1.008.312.63.748l-1.008-.374h-1.953l-.945-.374c-.944-.375-1.133-.999-1.574-.749-.441.249 0 0 0 .936s.378.936-.504.936-.441 0-1.26.437-.756.686-1.323.686h-1.197c-.315 0-1.008 0-.378.874s.945.812 1.008 1.124c.063.312 1.008 0 0 .436-1.008.437-1.386.625-1.386 1.061a5.255 5.255 0 0 0-.441-1.685c-.819-.749-1.134-.749-1.512-1.248-.378-.499 0 0-.756-.624s-.819-1.685-.945-.749c-.125.936.378 1.436 0 1.623-.377.187-.566.312-1.007 0-.441-.312-.945-.624-.567 0s.693 1.186 1.386.874c.692-.313 2.267-.375 2.267.312a5.304 5.304 0 0 0 0 1.435c0 .624.504.999 0 .936-.504-.062-.504 0-1.26-.811s-.63 0-1.7 0c-1.071 0-1.071 0-1.323-.874s-.504-1.872-1.008-1.311c-.504.562-.378.687-.756.937-.378.249 0 .686-.441 0a13.293 13.293 0 0 0-.63-1.373s0-.375-.756 0c-.756.374-1.26.499-1.512 0-.252-.5 0 0-.567-.5-.567-.499 0-.312-.567-.811-.567-.499 0-.749-1.134-.624a2.922 2.922 0 0 1-1.637 0c-.504 0 0 .624-.378.998-.378.375-1.008-.437-1.134.562-.126.999 0 .312-.441-.312s0-1.311-.693-.811c-.693.499-1.26-.624-.756.749a5.737 5.737 0 0 0 1.008 1.81c0 .312 0 .374-.882 0-.882-.375-.504 0-.882 0s-1.197-.312-1.008-.812c.189-.499 0-.874-.441-.811-.441.062 0-.562-.756-.437-.756.125-.504 0-1.008 0s0 0-.819.562c-.819.561 0 .374-.945-.562-.944-.936-.818-.749-1.133-.312-.315.437 0 .624-.882.374-.882-.249-.315 0-.378 0s.315 0 .693.437l.63.5c.567.374.567.811.944 1.061.378.249.567.624 0 .436-.566-.187-.944-.499-.944 0v.625c0 .249.63 0 1.196.624.567.624.693 0 1.071.749s-.63 1.373-1.386.873c-.755-.499 0-.374-.692-.561-.693-.188-1.134 0-2.205 0 0-.338-.111-.666-.315-.936-.378-.313 0-.749-.567-.937a2.906 2.906 0 0 1-1.323-.312c-.693-.749-1.386-.749-1.386-.749a.558.558 0 0 1 0-.686 3.554 3.554 0 0 1-1.071-.562 1.704 1.704 0 0 1-.693-.624s1.386 0 .693-.499a5.94 5.94 0 0 0-1.764-.624c.473.46.876.986 1.197 1.56 0 .499-.819.562-1.26.624-.441.062-2.519-1.373-2.33-.624-.882 3.62-1.512-.874-5.607 3.245-.567-.312-.567 0-.882-.312-.315-.312-1.26-.811-1.197 0 .063.812 1.134.874.756 1.997-.378 1.124-.693.437-.693.999s.378 0 0 .687c-.378.686-.567 0-.693.374-.126.375 0 .624 0 .874 0 .249-.378 0-.881.562-.504.561-.819.374-.441-.437.378-.812 1.259-1.998.441-1.498-.819.499-1.071 1.186-1.323.624-.252-.562.504-1.436 0-1.061 0 11.546 1.385 19.161 5.606 24.965 5.04 7.115 10.772 11.546 25.828 11.609 54.111.187 78.805-35.576 78.805-88.064v.062Zm-43.025 27.337v.374s.567-.499.756-.686a2.256 2.256 0 0 0 0-.625c-.288.071-.537.25-.693.5l-.063.437Zm.315-19.473h.567c.063 0 0 0 0-.437l-.504.312c-.504.312 0-.562-.441-.687v.313s0 .499.378.499Zm4.914 1.498c-.259.23-.472.505-.63.811h.378c.16-.235.377-.428.63-.562 0 0 .315 0 .315-.374v.125a.747.747 0 0 0 0-.624v-.437s-.315.437 0 .749l-.693.312Zm-10.142-24.965a.996.996 0 0 0-.504.749.682.682 0 0 0-.315.561 1.248 1.248 0 0 0-.504.75c.441-.313 1.134 0 1.386-1.249a.845.845 0 0 1 0-.374s-.126 0-.315.062l.252-.5Zm-.315 3.183c-.315 0 0 0 0 .312v-.375.375-.312Zm-12.536-39.632v.749a.763.763 0 0 1 .315 0v.686-.374h.441v-.063h-.756v-.998Zm0 2.87s-.378.687 0 .625c.378-.063.315-.687 0-.624Zm-1.197-10.172h-.504c-.504 0 0-.375-.441 0-.441.374 0 .374 0 0 0-.375 0 0 .504 0s.567 0 .504-.375l-.063.375Zm-.504.624s-.504.374 0 .437c.504.062 0 .686 0 .436v-.873Zm-11.339-7.74c-.882.188.189 1.935-.441.5l.441-.5Zm.756-4.119v.437h.441c.441 0 0 0 .756-.562-.111-.299-.308-.56-.567-.749 0 0-1.008.375-.693 1.186l.063-.312Zm-78.112 76.331h-.441c-.63.624.441 1.123-.063 0h.504Zm0-20.41-.315-.311c-.315-.312-1.449-.063-.378.312h.693Z"/></svg>