<svg width="172" height="49" viewBox="0 0 172 49" fill="none" xmlns="http://www.w3.org/2000/svg">
<path d="M83.5225 38.0443H87.0015C88.9975 38.0443 90.1828 38.8147 90.1828 40.6054V40.6627C90.1828 41.6413 89.7467 42.4117 88.6486 42.7553C89.9673 43.0468 90.5933 43.7756 90.5933 45.0822V45.1395C90.5933 46.9718 89.3977 47.8932 87.2632 47.8932H83.5276V38.0391L83.5225 38.0443ZM86.7808 42.1931C87.9764 42.1931 88.4382 41.7506 88.4382 40.746V40.6887C88.4382 39.7517 87.9097 39.3509 86.7552 39.3509H85.2876V42.1879H86.7808V42.1931ZM87.0374 46.5918C88.2483 46.5918 88.8025 46.04 88.8025 45.0197V44.9625C88.8025 43.9422 88.2432 43.432 86.9142 43.432H85.2825V46.5866H87.0374V46.5918Z" fill="#216245"/>
<path d="M94.8779 43.6246L91.6606 38.0443H93.6566L95.8425 42.1254L97.9771 38.0443H99.7422L96.6994 43.6403V47.8984H94.8779V43.6246Z" fill="#216245"/>
<path d="M106.546 38.0443H108.368V47.8984H106.546V38.0443Z" fill="#216245"/>
<path d="M111.734 38.0443H113.54V42.2348H117.902V38.0443H119.723V47.8984H117.902V43.7079H113.54V47.8984H111.734V38.0443Z" fill="#216245"/>
<path d="M122.263 43.0312V42.9219C122.263 39.9859 124.274 37.8933 127.112 37.8933C129.19 37.8933 131.037 38.8563 131.294 41.2145H129.488C129.272 39.9079 128.4 39.3405 127.138 39.3405C125.234 39.3405 124.136 40.772 124.136 42.9375V43.0468C124.136 45.1551 125.101 46.6022 127.138 46.6022C128.959 46.6022 129.703 45.4882 129.76 44.1192H127.312V42.7397H131.535V43.6507C131.535 46.3784 129.852 48.0338 127.107 48.0338C123.997 48.0338 122.258 45.9411 122.258 43.0312H122.263Z" fill="#216245"/>
<path d="M75.5897 42.5106H47.5425V43.432H75.5897V42.5106Z" fill="#216245"/>
<path d="M167.546 42.5106H139.499V43.432H167.546V42.5106Z" fill="#216245"/>
<path d="M40.7747 13.4948C39.9588 9.11168 35.4896 9.91854 34.2581 10.1788C31.9901 10.6629 29.8299 11.1835 27.7774 11.7405C28.8549 8.25276 30.0967 4.86394 32.0004 0.267427C31.2101 0.0539989 30.3225 -0.0761403 29.3167 0.0487933C28.1827 0.189344 26.9102 0.782777 26.1508 2.24554C24.9347 4.58805 23.616 8.27359 22.169 13.4219C19.1724 14.4109 16.4169 15.4781 13.8821 16.6025C15.2162 11.7821 16.9557 6.91493 18.808 2.83898C18.4181 2.71404 17.674 2.5839 17.1404 2.5839C15.0879 2.5839 13.8923 3.36994 12.9636 5.41573C11.5115 8.59633 9.78739 13.9529 8.50459 19.2365C6.00056 20.5847 3.74283 21.9955 1.68522 23.4374C0.407555 24.3328 0.0945516 25.504 0.0175836 26.0402C-0.0388596 26.415 0.0381086 27.1958 0.284406 27.6747C1.68009 26.8262 4.17899 25.3947 7.51427 23.7549C6.84721 27.1125 6.06727 31.7663 6.05187 35.3217C6.04674 37.1332 7.14482 38.2004 8.7201 38.2004C9.15625 38.2004 10.0132 38.0754 10.1055 37.9713C10.5622 31.7455 11.7886 25.4467 12.7122 21.3448C15.1957 20.2672 17.946 19.174 20.9016 18.1485C20.8297 18.4296 20.7579 18.7055 20.6861 18.9918C18.4027 28.0443 16.8736 37.8048 16.9967 40.4492C17.0993 42.5939 18.6541 43.4164 19.9779 43.4164C20.3884 43.4164 21.2351 43.3018 21.5276 43.1665C22.0869 36.5294 23.8931 26.4774 24.8629 22.5837C25.4375 20.262 25.9507 18.2474 26.4484 16.3891C30.9382 15.1085 35.7718 14.057 40.7798 13.4896" fill="#216245"/>
<path d="M171.025 13.4271C170.43 13.4271 170.045 13.8331 170.045 14.4214C170.045 15.0096 170.43 15.4208 171.025 15.4208C171.62 15.4208 172 15.0148 172 14.4214C172 13.8279 171.615 13.4271 171.025 13.4271ZM171.025 15.2803C170.538 15.2803 170.209 14.9575 170.209 14.4214C170.209 13.8852 170.538 13.5624 171.025 13.5624C171.513 13.5624 171.841 13.8852 171.841 14.4214C171.841 14.9575 171.513 15.2803 171.025 15.2803Z" fill="#216245"/>
<path d="M171.4 14.8274C171.4 14.8274 171.364 14.8222 171.338 14.7805L171.2 14.5307C171.348 14.4838 171.425 14.3745 171.425 14.2079C171.425 13.9893 171.261 13.8852 171.02 13.8852H170.599V14.0257H170.686V14.9575H170.866V14.5567H171.03L171.2 14.8586C171.246 14.9419 171.292 14.9679 171.369 14.9679C171.405 14.9679 171.446 14.9523 171.471 14.9367L171.482 14.8118C171.482 14.8118 171.425 14.8378 171.405 14.8378L171.4 14.8274ZM170.866 14.4214V14.0257H170.999C171.164 14.0257 171.246 14.0726 171.246 14.2183C171.246 14.3381 171.189 14.4214 171.025 14.4214H170.866Z" fill="#216245"/>
<path d="M127.441 16.4828C126.82 19.3979 126.789 19.5645 126.789 19.554C126.445 21.1938 125.876 24.3015 123.402 24.3015C121.196 24.3015 121.899 21.8289 122.027 21.1834L123.592 13.6666C123.592 13.6666 120.242 12.9794 119.451 16.717C118.661 20.4546 118.533 21.0741 118.533 21.0741C118.374 21.8601 118.215 22.6618 118.215 23.3333C118.215 24.3015 118.559 25.0719 119.092 25.6706C117.055 26.1807 116.101 27.2531 116.101 28.7835C116.101 31.0427 118.302 32.3806 121.237 32.3806C123.751 32.3806 125.742 31.5216 127.01 30.0693C128.041 28.8876 128.682 27.2739 129.16 24.9939L131.54 13.6613C131.54 13.6613 128.164 13.0835 127.446 16.4828H127.441ZM125.229 26.6596C124.962 27.7112 124.485 28.6482 123.803 29.3249C123.141 29.9652 122.238 30.3139 121.258 30.3139C120.041 30.3139 119.031 29.7205 119.031 28.6742C119.031 27.3364 120.329 27.0084 122.238 26.7898C123.592 26.6336 124.783 26.3057 125.465 25.6914L125.229 26.6596Z" fill="#216245"/>
<path d="M112.535 13.4271C107.711 13.4271 103.868 17.3833 103.868 22.3026C103.868 25.1865 105.484 26.9564 108.137 26.9564C109.728 26.9564 110.985 26.3577 111.703 25.5769C112.011 26.5816 112.945 26.9564 114.007 26.9564H114.474L116.978 14.6608C115.629 13.9112 114.197 13.4219 112.54 13.4219L112.535 13.4271ZM112.134 21.3083C111.929 22.2766 111.631 23.1094 111.159 23.6716C110.682 24.213 110.072 24.5306 109.22 24.5306C108.029 24.5306 107.439 23.7237 107.439 22.1881C107.439 19.4447 109.379 15.6811 112.458 15.6811C112.771 15.6811 113.027 15.7696 113.248 15.8789L112.134 21.3031V21.3083Z" fill="#216245"/>
<path d="M165.473 13.4271C163.79 13.4271 162.353 14.1975 161.44 15.2282C161.44 15.2282 161.317 12.6411 157.951 13.6718C158.561 15.4833 158.228 16.1184 157.54 19.7727L156.827 23.3021C156.704 23.9111 155.919 26.9616 159.085 26.9616H159.552L160.804 20.8294C161.153 19.1845 161.799 16.0663 164.252 16.0663C165.468 16.0663 166.094 16.8367 165.714 18.7264L164.786 23.3021C164.652 23.8903 163.852 26.9668 167.038 26.9668H167.51L169.214 18.591C169.973 15.0096 168.136 13.4375 165.473 13.4375" fill="#216245"/>
<path d="M59.832 8.50263C59.6729 9.27826 59.324 10.9753 58.7595 13.755L52.91 14.9367L54.6289 6.49328C54.0953 6.39438 51.1962 6.16012 50.6009 9.2262C50.4162 10.184 47.7275 23.2916 47.7275 23.2916C47.5941 23.9736 46.809 26.9512 49.9749 26.9512H50.4624L52.1506 18.6587L58.0001 17.477C57.4203 20.3297 56.8097 23.2916 56.8097 23.2916C56.6814 23.8799 55.9015 26.9512 59.0674 26.9512H59.5446L63.8702 5.71245C63.8702 5.71245 60.5196 5.1034 59.832 8.49743" fill="#216245"/>
<path d="M151.106 13.4271C149.423 13.4271 147.986 14.1975 147.073 15.2282C147.073 15.2282 146.949 12.6411 143.583 13.6718C144.194 15.4833 143.861 16.1184 143.178 19.7727L142.465 23.3021C142.342 23.9111 141.557 26.9616 144.723 26.9616H145.189L146.442 20.8294C146.79 19.1845 147.437 16.0663 149.89 16.0663C151.111 16.0663 151.732 16.8367 151.352 18.7264L150.423 23.3021C150.29 23.8903 149.489 26.9668 152.676 26.9668H153.148L154.852 18.591C155.611 15.0096 153.774 13.4375 151.111 13.4375" fill="#216245"/>
<path d="M138.714 8.34646C138.191 10.8295 135.671 23.2916 135.671 23.2916C135.512 24.01 134.814 26.9512 137.924 26.9512H138.401L142.711 5.71245C141.89 5.56669 139.289 5.58231 138.709 8.34126" fill="#216245"/>
<path d="M70.8487 13.4271C68.9912 13.4271 67.3441 14.0466 66.1023 15.0981C64.1371 16.7118 62.9979 19.3718 62.9979 22.1985C62.9979 25.3426 65.1222 26.9616 68.0624 26.9616C69.9199 26.9616 71.5619 26.3421 72.8036 25.2906C74.7689 23.6769 75.908 20.9908 75.908 18.159C75.908 15.0148 73.7837 13.4271 70.8435 13.4271H70.8487ZM70.7101 23.3229C70.1252 24.0777 69.3863 24.593 68.5088 24.593C67.1029 24.593 66.5436 23.5936 66.5436 22.1985C66.5436 20.6941 67.0978 18.4609 68.1907 17.0658C68.7705 16.311 69.5453 15.8008 70.4228 15.8008C71.8236 15.8008 72.3521 16.8003 72.3521 18.1954C72.3521 19.705 71.7979 21.9382 70.7101 23.3333V23.3229Z" fill="#216245"/>
<path d="M85.1185 16.3526C84.4156 19.6686 83.7023 23.2968 83.7023 23.2968C83.574 23.8851 82.7941 26.9564 85.9601 26.9564H86.427L89.1311 13.6561C89.008 13.6405 85.801 13.0887 85.1134 16.3526" fill="#216245"/>
<path d="M80.1721 9.23141C79.4845 12.6202 77.3088 23.2968 77.3088 23.2968C77.1703 23.8851 76.3904 26.9564 79.5614 26.9564H80.0386L84.2 6.49849C84.2 6.49849 80.8494 5.86861 80.1721 9.23141Z" fill="#216245"/>
<path d="M88.5103 8.11742C87.289 8.11742 86.0986 9.24703 86.0986 10.5172C86.0986 11.4594 86.7605 12.1049 87.6585 12.1049C88.8797 12.1049 90.1009 10.9753 90.1009 9.71032C90.1009 8.77332 89.4134 8.12262 88.5103 8.12262" fill="#216245"/>
<path d="M100.635 9.28867C100.322 10.8972 99.7373 13.703 99.7681 13.5468C99.45 13.4687 98.9471 13.4271 98.4443 13.4271C93.3849 13.4271 89.7777 17.5968 89.7777 22.2766C89.7777 25.1552 91.5223 26.9564 94.1802 26.9564C95.7709 26.9564 97.0075 26.3681 97.7464 25.5873C98.0543 26.5659 98.9779 26.9564 100.045 26.9564H100.512L104.674 6.49849C104.396 6.46205 101.277 5.99355 100.635 9.29388V9.28867ZM98.1826 21.3083C97.9722 22.2766 97.6541 23.1094 97.1768 23.6716C96.6997 24.213 96.1096 24.5306 95.2629 24.5306C94.0725 24.5306 93.3644 23.6977 93.3644 22.1672C93.3644 19.0491 95.5503 15.6863 98.2595 15.6863C98.6598 15.6863 99.1062 15.78 99.2909 15.8945L98.1826 21.3083Z" fill="#216245"/>
</svg>
